<?xml version="1.0" encoding="utf-8" standalone="no"?>
<!DOCTYPE svg PUBLIC "-//W3C//DTD SVG 1.1//EN"
  "http://www.w3.org/Graphics/SVG/1.1/DTD/svg11.dtd">
<!-- Created with matplotlib (https://matplotlib.org/) -->
<svg height="720pt" version="1.1" viewBox="0 0 1440 720" width="1440pt" xmlns="http://www.w3.org/2000/svg" xmlns:xlink="http://www.w3.org/1999/xlink">
 <metadata>
  <rdf:RDF xmlns:cc="http://creativecommons.org/ns#" xmlns:dc="http://purl.org/dc/elements/1.1/" xmlns:rdf="http://www.w3.org/1999/02/22-rdf-syntax-ns#">
   <cc:Work>
    <dc:type rdf:resource="http://purl.org/dc/dcmitype/StillImage"/>
    <dc:date>2023-02-17T16:27:57.923235</dc:date>
    <dc:format>image/svg+xml</dc:format>
    <dc:creator>
     <cc:Agent>
      <dc:title>Matplotlib v3.3.4, https://matplotlib.org/</dc:title>
     </cc:Agent>
    </dc:creator>
   </cc:Work>
  </rdf:RDF>
 </metadata>
 <defs>
  <style type="text/css">*{stroke-linecap:butt;stroke-linejoin:round;}</style>
 </defs>
 <g id="figure_1">
  <g id="patch_1">
   <path d="M 0 720 
L 1440 720 
L 1440 0 
L 0 0 
z
" style="fill:#ffffff;"/>
  </g>
  <g id="axes_1">
   <g id="patch_2">
    <path clip-path="url(#pc174144163)" d="M 180 392.645584 
L 750.349654 392.645584 
L 750.349654 368.881015 
L 180 368.881015 
z
" style="fill:#ffa24b;opacity:0.8;stroke:#ffa24b;stroke-linejoin:miter;"/>
   </g>
   <g id="patch_3">
    <path clip-path="url(#pc174144163)" d="M 180 368.881015 
L 750.349654 368.881015 
L 750.349654 345.116446 
L 180 345.116446 
z
" style="fill:#76c476;opacity:0.8;stroke:#76c476;stroke-linejoin:miter;"/>
   </g>
   <g id="patch_4">
    <path clip-path="url(#pc174144163)" d="M 203.764569 392.645584 
L 251.293707 392.645584 
L 253.274088 380.7633 
L 251.293707 368.881015 
L 203.764569 368.881015 
L 205.74495 380.7633 
z
" style="fill:#ffa24b;stroke:#000000;stroke-linejoin:miter;stroke-width:0.975;"/>
   </g>
   <g id="patch_5">
    <path clip-path="url(#pc174144163)" d="M 251.293707 392.645584 
L 298.822845 392.645584 
L 300.803225 380.7633 
L 298.822845 368.881015 
L 251.293707 368.881015 
L 253.274088 380.7633 
z
" style="fill:#ffa24b;stroke:#000000;stroke-linejoin:miter;stroke-width:0.975;"/>
   </g>
   <g id="patch_6">
    <path clip-path="url(#pc174144163)" d="M 298.822845 392.645584 
L 346.351983 392.645584 
L 348.332363 380.7633 
L 346.351983 368.881015 
L 298.822845 368.881015 
L 300.803225 380.7633 
z
" style="fill:#ffa24b;stroke:#000000;stroke-linejoin:miter;stroke-width:0.975;"/>
   </g>
   <g id="patch_7">
    <path clip-path="url(#pc174144163)" d="M 346.351983 392.645584 
L 393.88112 392.645584 
L 395.861501 380.7633 
L 393.88112 368.881015 
L 346.351983 368.881015 
L 348.332363 380.7633 
z
" style="fill:#ffa24b;stroke:#000000;stroke-linejoin:miter;stroke-width:0.975;"/>
   </g>
   <g id="patch_8">
    <path clip-path="url(#pc174144163)" d="M 393.88112 392.645584 
L 417.645689 392.645584 
L 419.62607 380.7633 
L 417.645689 368.881015 
L 393.88112 368.881015 
L 395.861501 380.7633 
z
" style="fill:#76c476;"/>
   </g>
   <g id="patch_9">
    <path clip-path="url(#pc174144163)" d="M 417.645689 392.645584 
L 441.410258 392.645584 
L 443.390639 380.7633 
L 441.410258 368.881015 
L 417.645689 368.881015 
L 419.62607 380.7633 
z
" style="fill:#ffa24b;"/>
   </g>
   <g id="patch_10">
    <path clip-path="url(#pc174144163)" d="M 488.939396 392.645584 
L 512.703965 392.645584 
L 514.684346 380.7633 
L 512.703965 368.881015 
L 488.939396 368.881015 
L 490.919777 380.7633 
z
" style="fill:#76c476;"/>
   </g>
   <g id="patch_11">
    <path clip-path="url(#pc174144163)" d="M 512.703965 392.645584 
L 536.468534 392.645584 
L 538.448915 380.7633 
L 536.468534 368.881015 
L 512.703965 368.881015 
L 514.684346 380.7633 
z
" style="fill:#ffa24b;"/>
   </g>
   <g id="patch_12">
    <path clip-path="url(#pc174144163)" d="M 536.468534 392.645584 
L 583.997672 392.645584 
L 585.978053 380.7633 
L 583.997672 368.881015 
L 536.468534 368.881015 
L 538.448915 380.7633 
z
" style="fill:#ffa24b;stroke:#000000;stroke-linejoin:miter;stroke-width:0.975;"/>
   </g>
   <g id="patch_13">
    <path clip-path="url(#pc174144163)" d="M 583.997672 392.645584 
L 631.52681 392.645584 
L 633.50719 380.7633 
L 631.52681 368.881015 
L 583.997672 368.881015 
L 585.978053 380.7633 
z
" style="fill:#ffa24b;stroke:#000000;stroke-linejoin:miter;stroke-width:0.975;"/>
   </g>
   <g id="patch_14">
    <path clip-path="url(#pc174144163)" d="M 631.52681 392.645584 
L 655.291379 392.645584 
L 657.271759 380.7633 
L 655.291379 368.881015 
L 631.52681 368.881015 
L 633.50719 380.7633 
z
" style="fill:#76c476;"/>
   </g>
   <g id="patch_15">
    <path clip-path="url(#pc174144163)" d="M 655.291379 392.645584 
L 679.055948 392.645584 
L 681.036328 380.7633 
L 679.055948 368.881015 
L 655.291379 368.881015 
L 657.271759 380.7633 
z
" style="fill:#ffa24b;"/>
   </g>
   <g id="patch_16">
    <path clip-path="url(#pc174144163)" d="M 679.055948 392.645584 
L 702.820516 392.645584 
L 704.800897 380.7633 
L 702.820516 368.881015 
L 679.055948 368.881015 
L 681.036328 380.7633 
z
" style="fill:#76c476;"/>
   </g>
   <g id="patch_17">
    <path clip-path="url(#pc174144163)" d="M 702.820516 392.645584 
L 726.585085 392.645584 
L 728.565466 380.7633 
L 726.585085 368.881015 
L 702.820516 368.881015 
L 704.800897 380.7633 
z
" style="fill:#ffa24b;"/>
   </g>
   <g id="patch_18">
    <path clip-path="url(#pc174144163)" d="M 393.88112 368.881015 
L 417.645689 368.881015 
L 419.62607 356.998731 
L 417.645689 345.116446 
L 393.88112 345.116446 
L 395.861501 356.998731 
z
" style="fill:#76c476;"/>
   </g>
   <g id="patch_19">
    <path clip-path="url(#pc174144163)" d="M 417.645689 368.881015 
L 441.410258 368.881015 
L 443.390639 356.998731 
L 441.410258 345.116446 
L 417.645689 345.116446 
L 419.62607 356.998731 
z
" style="fill:#ffa24b;"/>
   </g>
   <g id="patch_20">
    <path clip-path="url(#pc174144163)" d="M 441.410258 368.881015 
L 488.939396 368.881015 
L 490.919777 356.998731 
L 488.939396 345.116446 
L 441.410258 345.116446 
L 443.390639 356.998731 
z
" style="fill:#76c476;stroke:#000000;stroke-linejoin:miter;stroke-width:0.975;"/>
   </g>
   <g id="patch_21">
    <path clip-path="url(#pc174144163)" d="M 488.939396 368.881015 
L 512.703965 368.881015 
L 514.684346 356.998731 
L 512.703965 345.116446 
L 488.939396 345.116446 
L 490.919777 356.998731 
z
" style="fill:#76c476;"/>
   </g>
   <g id="patch_22">
    <path clip-path="url(#pc174144163)" d="M 512.703965 368.881015 
L 536.468534 368.881015 
L 538.448915 356.998731 
L 536.468534 345.116446 
L 512.703965 345.116446 
L 514.684346 356.998731 
z
" style="fill:#ffa24b;"/>
   </g>
   <g id="patch_23">
    <path clip-path="url(#pc174144163)" d="M 583.997672 368.881015 
L 631.52681 368.881015 
L 633.50719 356.998731 
L 631.52681 345.116446 
L 583.997672 345.116446 
L 585.978053 356.998731 
z
" style="fill:#76c476;stroke:#000000;stroke-linejoin:miter;stroke-width:0.975;"/>
   </g>
   <g id="patch_24">
    <path clip-path="url(#pc174144163)" d="M 631.52681 368.881015 
L 655.291379 368.881015 
L 657.271759 356.998731 
L 655.291379 345.116446 
L 631.52681 345.116446 
L 633.50719 356.998731 
z
" style="fill:#76c476;"/>
   </g>
   <g id="patch_25">
    <path clip-path="url(#pc174144163)" d="M 655.291379 368.881015 
L 679.055948 368.881015 
L 681.036328 356.998731 
L 679.055948 345.116446 
L 655.291379 345.116446 
L 657.271759 356.998731 
z
" style="fill:#ffa24b;"/>
   </g>
   <g id="patch_26">
    <path clip-path="url(#pc174144163)" d="M 679.055948 368.881015 
L 702.820516 368.881015 
L 704.800897 356.998731 
L 702.820516 345.116446 
L 679.055948 345.116446 
L 681.036328 356.998731 
z
" style="fill:#76c476;"/>
   </g>
   <g id="patch_27">
    <path clip-path="url(#pc174144163)" d="M 702.820516 368.881015 
L 726.585085 368.881015 
L 728.565466 356.998731 
L 726.585085 345.116446 
L 702.820516 345.116446 
L 704.800897 356.998731 
z
" style="fill:#ffa24b;"/>
   </g>
   <g id="text_1">
    <!-- 1 -->
    <g transform="translate(172.078477 381.238591)scale(0.0675 -0.0675)">
     <defs>
      <path d="M 12.40625 8.296875 
L 28.515625 8.296875 
L 28.515625 63.921875 
L 10.984375 60.40625 
L 10.984375 69.390625 
L 28.421875 72.90625 
L 38.28125 72.90625 
L 38.28125 8.296875 
L 54.390625 8.296875 
L 54.390625 0 
L 12.40625 0 
z
" id="DejaVuSans-49"/>
     </defs>
     <use xlink:href="#DejaVuSans-49"/>
    </g>
   </g>
   <g id="text_2">
    <!-- applicat. 0 -->
    <g transform="translate(181.584305 381.238591)scale(0.0675 -0.0675)">
     <defs>
      <path d="M 34.28125 27.484375 
Q 23.390625 27.484375 19.1875 25 
Q 14.984375 22.515625 14.984375 16.5 
Q 14.984375 11.71875 18.140625 8.90625 
Q 21.296875 6.109375 26.703125 6.109375 
Q 34.1875 6.109375 38.703125 11.40625 
Q 43.21875 16.703125 43.21875 25.484375 
L 43.21875 27.484375 
z
M 52.203125 31.203125 
L 52.203125 0 
L 43.21875 0 
L 43.21875 8.296875 
Q 40.140625 3.328125 35.546875 0.953125 
Q 30.953125 -1.421875 24.3125 -1.421875 
Q 15.921875 -1.421875 10.953125 3.296875 
Q 6 8.015625 6 15.921875 
Q 6 25.140625 12.171875 29.828125 
Q 18.359375 34.515625 30.609375 34.515625 
L 43.21875 34.515625 
L 43.21875 35.40625 
Q 43.21875 41.609375 39.140625 45 
Q 35.0625 48.390625 27.6875 48.390625 
Q 23 48.390625 18.546875 47.265625 
Q 14.109375 46.140625 10.015625 43.890625 
L 10.015625 52.203125 
Q 14.9375 54.109375 19.578125 55.046875 
Q 24.21875 56 28.609375 56 
Q 40.484375 56 46.34375 49.84375 
Q 52.203125 43.703125 52.203125 31.203125 
z
" id="DejaVuSans-97"/>
      <path d="M 18.109375 8.203125 
L 18.109375 -20.796875 
L 9.078125 -20.796875 
L 9.078125 54.6875 
L 18.109375 54.6875 
L 18.109375 46.390625 
Q 20.953125 51.265625 25.265625 53.625 
Q 29.59375 56 35.59375 56 
Q 45.5625 56 51.78125 48.09375 
Q 58.015625 40.1875 58.015625 27.296875 
Q 58.015625 14.40625 51.78125 6.484375 
Q 45.5625 -1.421875 35.59375 -1.421875 
Q 29.59375 -1.421875 25.265625 0.953125 
Q 20.953125 3.328125 18.109375 8.203125 
z
M 48.6875 27.296875 
Q 48.6875 37.203125 44.609375 42.84375 
Q 40.53125 48.484375 33.40625 48.484375 
Q 26.265625 48.484375 22.1875 42.84375 
Q 18.109375 37.203125 18.109375 27.296875 
Q 18.109375 17.390625 22.1875 11.75 
Q 26.265625 6.109375 33.40625 6.109375 
Q 40.53125 6.109375 44.609375 11.75 
Q 48.6875 17.390625 48.6875 27.296875 
z
" id="DejaVuSans-112"/>
      <path d="M 9.421875 75.984375 
L 18.40625 75.984375 
L 18.40625 0 
L 9.421875 0 
z
" id="DejaVuSans-108"/>
      <path d="M 9.421875 54.6875 
L 18.40625 54.6875 
L 18.40625 0 
L 9.421875 0 
z
M 9.421875 75.984375 
L 18.40625 75.984375 
L 18.40625 64.59375 
L 9.421875 64.59375 
z
" id="DejaVuSans-105"/>
      <path d="M 48.78125 52.59375 
L 48.78125 44.1875 
Q 44.96875 46.296875 41.140625 47.34375 
Q 37.3125 48.390625 33.40625 48.390625 
Q 24.65625 48.390625 19.8125 42.84375 
Q 14.984375 37.3125 14.984375 27.296875 
Q 14.984375 17.28125 19.8125 11.734375 
Q 24.65625 6.203125 33.40625 6.203125 
Q 37.3125 6.203125 41.140625 7.25 
Q 44.96875 8.296875 48.78125 10.40625 
L 48.78125 2.09375 
Q 45.015625 0.34375 40.984375 -0.53125 
Q 36.96875 -1.421875 32.421875 -1.421875 
Q 20.0625 -1.421875 12.78125 6.34375 
Q 5.515625 14.109375 5.515625 27.296875 
Q 5.515625 40.671875 12.859375 48.328125 
Q 20.21875 56 33.015625 56 
Q 37.15625 56 41.109375 55.140625 
Q 45.0625 54.296875 48.78125 52.59375 
z
" id="DejaVuSans-99"/>
      <path d="M 18.3125 70.21875 
L 18.3125 54.6875 
L 36.8125 54.6875 
L 36.8125 47.703125 
L 18.3125 47.703125 
L 18.3125 18.015625 
Q 18.3125 11.328125 20.140625 9.421875 
Q 21.96875 7.515625 27.59375 7.515625 
L 36.8125 7.515625 
L 36.8125 0 
L 27.59375 0 
Q 17.1875 0 13.234375 3.875 
Q 9.28125 7.765625 9.28125 18.015625 
L 9.28125 47.703125 
L 2.6875 47.703125 
L 2.6875 54.6875 
L 9.28125 54.6875 
L 9.28125 70.21875 
z
" id="DejaVuSans-116"/>
      <path d="M 10.6875 12.40625 
L 21 12.40625 
L 21 0 
L 10.6875 0 
z
" id="DejaVuSans-46"/>
      <path id="DejaVuSans-32"/>
      <path d="M 31.78125 66.40625 
Q 24.171875 66.40625 20.328125 58.90625 
Q 16.5 51.421875 16.5 36.375 
Q 16.5 21.390625 20.328125 13.890625 
Q 24.171875 6.390625 31.78125 6.390625 
Q 39.453125 6.390625 43.28125 13.890625 
Q 47.125 21.390625 47.125 36.375 
Q 47.125 51.421875 43.28125 58.90625 
Q 39.453125 66.40625 31.78125 66.40625 
z
M 31.78125 74.21875 
Q 44.046875 74.21875 50.515625 64.515625 
Q 56.984375 54.828125 56.984375 36.375 
Q 56.984375 17.96875 50.515625 8.265625 
Q 44.046875 -1.421875 31.78125 -1.421875 
Q 19.53125 -1.421875 13.0625 8.265625 
Q 6.59375 17.96875 6.59375 36.375 
Q 6.59375 54.828125 13.0625 64.515625 
Q 19.53125 74.21875 31.78125 74.21875 
z
" id="DejaVuSans-48"/>
     </defs>
     <use xlink:href="#DejaVuSans-97"/>
     <use x="61.279297" xlink:href="#DejaVuSans-112"/>
     <use x="124.755859" xlink:href="#DejaVuSans-112"/>
     <use x="188.232422" xlink:href="#DejaVuSans-108"/>
     <use x="216.015625" xlink:href="#DejaVuSans-105"/>
     <use x="243.798828" xlink:href="#DejaVuSans-99"/>
     <use x="298.779297" xlink:href="#DejaVuSans-97"/>
     <use x="360.058594" xlink:href="#DejaVuSans-116"/>
     <use x="399.267578" xlink:href="#DejaVuSans-46"/>
     <use x="431.054688" xlink:href="#DejaVuSans-32"/>
     <use x="462.841797" xlink:href="#DejaVuSans-48"/>
    </g>
   </g>
   <g id="text_3">
    <!-- 1 -->
    <g transform="translate(172.078477 357.474022)scale(0.0675 -0.0675)">
     <use xlink:href="#DejaVuSans-49"/>
    </g>
   </g>
   <g id="text_4">
    <!-- offer 0 -->
    <g transform="translate(181.584305 357.474022)scale(0.0675 -0.0675)">
     <defs>
      <path d="M 30.609375 48.390625 
Q 23.390625 48.390625 19.1875 42.75 
Q 14.984375 37.109375 14.984375 27.296875 
Q 14.984375 17.484375 19.15625 11.84375 
Q 23.34375 6.203125 30.609375 6.203125 
Q 37.796875 6.203125 41.984375 11.859375 
Q 46.1875 17.53125 46.1875 27.296875 
Q 46.1875 37.015625 41.984375 42.703125 
Q 37.796875 48.390625 30.609375 48.390625 
z
M 30.609375 56 
Q 42.328125 56 49.015625 48.375 
Q 55.71875 40.765625 55.71875 27.296875 
Q 55.71875 13.875 49.015625 6.21875 
Q 42.328125 -1.421875 30.609375 -1.421875 
Q 18.84375 -1.421875 12.171875 6.21875 
Q 5.515625 13.875 5.515625 27.296875 
Q 5.515625 40.765625 12.171875 48.375 
Q 18.84375 56 30.609375 56 
z
" id="DejaVuSans-111"/>
      <path d="M 37.109375 75.984375 
L 37.109375 68.5 
L 28.515625 68.5 
Q 23.6875 68.5 21.796875 66.546875 
Q 19.921875 64.59375 19.921875 59.515625 
L 19.921875 54.6875 
L 34.71875 54.6875 
L 34.71875 47.703125 
L 19.921875 47.703125 
L 19.921875 0 
L 10.890625 0 
L 10.890625 47.703125 
L 2.296875 47.703125 
L 2.296875 54.6875 
L 10.890625 54.6875 
L 10.890625 58.5 
Q 10.890625 67.625 15.140625 71.796875 
Q 19.390625 75.984375 28.609375 75.984375 
z
" id="DejaVuSans-102"/>
      <path d="M 56.203125 29.59375 
L 56.203125 25.203125 
L 14.890625 25.203125 
Q 15.484375 15.921875 20.484375 11.0625 
Q 25.484375 6.203125 34.421875 6.203125 
Q 39.59375 6.203125 44.453125 7.46875 
Q 49.3125 8.734375 54.109375 11.28125 
L 54.109375 2.78125 
Q 49.265625 0.734375 44.1875 -0.34375 
Q 39.109375 -1.421875 33.890625 -1.421875 
Q 20.796875 -1.421875 13.15625 6.1875 
Q 5.515625 13.8125 5.515625 26.8125 
Q 5.515625 40.234375 12.765625 48.109375 
Q 20.015625 56 32.328125 56 
Q 43.359375 56 49.78125 48.890625 
Q 56.203125 41.796875 56.203125 29.59375 
z
M 47.21875 32.234375 
Q 47.125 39.59375 43.09375 43.984375 
Q 39.0625 48.390625 32.421875 48.390625 
Q 24.90625 48.390625 20.390625 44.140625 
Q 15.875 39.890625 15.1875 32.171875 
z
" id="DejaVuSans-101"/>
      <path d="M 41.109375 46.296875 
Q 39.59375 47.171875 37.8125 47.578125 
Q 36.03125 48 33.890625 48 
Q 26.265625 48 22.1875 43.046875 
Q 18.109375 38.09375 18.109375 28.8125 
L 18.109375 0 
L 9.078125 0 
L 9.078125 54.6875 
L 18.109375 54.6875 
L 18.109375 46.1875 
Q 20.953125 51.171875 25.484375 53.578125 
Q 30.03125 56 36.53125 56 
Q 37.453125 56 38.578125 55.875 
Q 39.703125 55.765625 41.0625 55.515625 
z
" id="DejaVuSans-114"/>
     </defs>
     <use xlink:href="#DejaVuSans-111"/>
     <use x="61.181641" xlink:href="#DejaVuSans-102"/>
     <use x="96.386719" xlink:href="#DejaVuSans-102"/>
     <use x="131.591797" xlink:href="#DejaVuSans-101"/>
     <use x="193.115234" xlink:href="#DejaVuSans-114"/>
     <use x="234.228516" xlink:href="#DejaVuSans-32"/>
     <use x="266.015625" xlink:href="#DejaVuSans-48"/>
    </g>
   </g>
   <g id="text_5">
    <!-- Frequency: 0.1 -->
    <g transform="translate(180 343.637762)scale(0.0675 -0.0675)">
     <defs>
      <path d="M 9.8125 72.90625 
L 51.703125 72.90625 
L 51.703125 64.59375 
L 19.671875 64.59375 
L 19.671875 43.109375 
L 48.578125 43.109375 
L 48.578125 34.8125 
L 19.671875 34.8125 
L 19.671875 0 
L 9.8125 0 
z
" id="DejaVuSans-70"/>
      <path d="M 14.796875 27.296875 
Q 14.796875 17.390625 18.875 11.75 
Q 22.953125 6.109375 30.078125 6.109375 
Q 37.203125 6.109375 41.296875 11.75 
Q 45.40625 17.390625 45.40625 27.296875 
Q 45.40625 37.203125 41.296875 42.84375 
Q 37.203125 48.484375 30.078125 48.484375 
Q 22.953125 48.484375 18.875 42.84375 
Q 14.796875 37.203125 14.796875 27.296875 
z
M 45.40625 8.203125 
Q 42.578125 3.328125 38.25 0.953125 
Q 33.9375 -1.421875 27.875 -1.421875 
Q 17.96875 -1.421875 11.734375 6.484375 
Q 5.515625 14.40625 5.515625 27.296875 
Q 5.515625 40.1875 11.734375 48.09375 
Q 17.96875 56 27.875 56 
Q 33.9375 56 38.25 53.625 
Q 42.578125 51.265625 45.40625 46.390625 
L 45.40625 54.6875 
L 54.390625 54.6875 
L 54.390625 -20.796875 
L 45.40625 -20.796875 
z
" id="DejaVuSans-113"/>
      <path d="M 8.5 21.578125 
L 8.5 54.6875 
L 17.484375 54.6875 
L 17.484375 21.921875 
Q 17.484375 14.15625 20.5 10.265625 
Q 23.53125 6.390625 29.59375 6.390625 
Q 36.859375 6.390625 41.078125 11.03125 
Q 45.3125 15.671875 45.3125 23.6875 
L 45.3125 54.6875 
L 54.296875 54.6875 
L 54.296875 0 
L 45.3125 0 
L 45.3125 8.40625 
Q 42.046875 3.421875 37.71875 1 
Q 33.40625 -1.421875 27.6875 -1.421875 
Q 18.265625 -1.421875 13.375 4.4375 
Q 8.5 10.296875 8.5 21.578125 
z
M 31.109375 56 
z
" id="DejaVuSans-117"/>
      <path d="M 54.890625 33.015625 
L 54.890625 0 
L 45.90625 0 
L 45.90625 32.71875 
Q 45.90625 40.484375 42.875 44.328125 
Q 39.84375 48.1875 33.796875 48.1875 
Q 26.515625 48.1875 22.3125 43.546875 
Q 18.109375 38.921875 18.109375 30.90625 
L 18.109375 0 
L 9.078125 0 
L 9.078125 54.6875 
L 18.109375 54.6875 
L 18.109375 46.1875 
Q 21.34375 51.125 25.703125 53.5625 
Q 30.078125 56 35.796875 56 
Q 45.21875 56 50.046875 50.171875 
Q 54.890625 44.34375 54.890625 33.015625 
z
" id="DejaVuSans-110"/>
      <path d="M 32.171875 -5.078125 
Q 28.375 -14.84375 24.75 -17.8125 
Q 21.140625 -20.796875 15.09375 -20.796875 
L 7.90625 -20.796875 
L 7.90625 -13.28125 
L 13.1875 -13.28125 
Q 16.890625 -13.28125 18.9375 -11.515625 
Q 21 -9.765625 23.484375 -3.21875 
L 25.09375 0.875 
L 2.984375 54.6875 
L 12.5 54.6875 
L 29.59375 11.921875 
L 46.6875 54.6875 
L 56.203125 54.6875 
z
" id="DejaVuSans-121"/>
      <path d="M 11.71875 12.40625 
L 22.015625 12.40625 
L 22.015625 0 
L 11.71875 0 
z
M 11.71875 51.703125 
L 22.015625 51.703125 
L 22.015625 39.3125 
L 11.71875 39.3125 
z
" id="DejaVuSans-58"/>
     </defs>
     <use xlink:href="#DejaVuSans-70"/>
     <use x="50.269531" xlink:href="#DejaVuSans-114"/>
     <use x="89.132812" xlink:href="#DejaVuSans-101"/>
     <use x="150.65625" xlink:href="#DejaVuSans-113"/>
     <use x="214.132812" xlink:href="#DejaVuSans-117"/>
     <use x="277.511719" xlink:href="#DejaVuSans-101"/>
     <use x="339.035156" xlink:href="#DejaVuSans-110"/>
     <use x="402.414062" xlink:href="#DejaVuSans-99"/>
     <use x="457.394531" xlink:href="#DejaVuSans-121"/>
     <use x="509.324219" xlink:href="#DejaVuSans-58"/>
     <use x="543.015625" xlink:href="#DejaVuSans-32"/>
     <use x="574.802734" xlink:href="#DejaVuSans-48"/>
     <use x="638.425781" xlink:href="#DejaVuSans-46"/>
     <use x="670.212891" xlink:href="#DejaVuSans-49"/>
    </g>
   </g>
   <g id="text_6">
    <!-- Super Variant: (6,) -->
    <g transform="translate(180 334.554416)scale(0.081 -0.081)">
     <defs>
      <path d="M 59.90625 70.609375 
L 59.90625 55.171875 
Q 53.90625 57.859375 48.1875 59.21875 
Q 42.484375 60.59375 37.40625 60.59375 
Q 30.671875 60.59375 27.4375 58.734375 
Q 24.21875 56.890625 24.21875 52.984375 
Q 24.21875 50.046875 26.390625 48.40625 
Q 28.5625 46.78125 34.28125 45.609375 
L 42.28125 44 
Q 54.4375 41.546875 59.5625 36.5625 
Q 64.703125 31.59375 64.703125 22.40625 
Q 64.703125 10.359375 57.546875 4.46875 
Q 50.390625 -1.421875 35.6875 -1.421875 
Q 28.765625 -1.421875 21.78125 -0.09375 
Q 14.796875 1.21875 7.8125 3.8125 
L 7.8125 19.671875 
Q 14.796875 15.96875 21.3125 14.078125 
Q 27.828125 12.203125 33.890625 12.203125 
Q 40.046875 12.203125 43.3125 14.25 
Q 46.578125 16.3125 46.578125 20.125 
Q 46.578125 23.53125 44.359375 25.390625 
Q 42.140625 27.25 35.5 28.71875 
L 28.21875 30.328125 
Q 17.28125 32.671875 12.21875 37.796875 
Q 7.171875 42.921875 7.171875 51.609375 
Q 7.171875 62.5 14.203125 68.359375 
Q 21.234375 74.21875 34.421875 74.21875 
Q 40.4375 74.21875 46.78125 73.3125 
Q 53.125 72.40625 59.90625 70.609375 
z
" id="DejaVuSans-Bold-83"/>
      <path d="M 7.8125 21.296875 
L 7.8125 54.6875 
L 25.390625 54.6875 
L 25.390625 49.21875 
Q 25.390625 44.78125 25.34375 38.0625 
Q 25.296875 31.34375 25.296875 29.109375 
Q 25.296875 22.515625 25.640625 19.609375 
Q 25.984375 16.703125 26.8125 15.375 
Q 27.875 13.671875 29.609375 12.734375 
Q 31.34375 11.8125 33.59375 11.8125 
Q 39.0625 11.8125 42.1875 16.015625 
Q 45.3125 20.21875 45.3125 27.6875 
L 45.3125 54.6875 
L 62.796875 54.6875 
L 62.796875 0 
L 45.3125 0 
L 45.3125 7.90625 
Q 41.359375 3.125 36.9375 0.84375 
Q 32.515625 -1.421875 27.203125 -1.421875 
Q 17.71875 -1.421875 12.765625 4.390625 
Q 7.8125 10.203125 7.8125 21.296875 
z
" id="DejaVuSans-Bold-117"/>
      <path d="M 25.875 7.90625 
L 25.875 -20.796875 
L 8.40625 -20.796875 
L 8.40625 54.6875 
L 25.875 54.6875 
L 25.875 46.6875 
Q 29.5 51.46875 33.890625 53.734375 
Q 38.28125 56 44 56 
Q 54.109375 56 60.59375 47.96875 
Q 67.09375 39.9375 67.09375 27.296875 
Q 67.09375 14.65625 60.59375 6.609375 
Q 54.109375 -1.421875 44 -1.421875 
Q 38.28125 -1.421875 33.890625 0.84375 
Q 29.5 3.125 25.875 7.90625 
z
M 37.5 43.3125 
Q 31.890625 43.3125 28.875 39.1875 
Q 25.875 35.0625 25.875 27.296875 
Q 25.875 19.53125 28.875 15.40625 
Q 31.890625 11.28125 37.5 11.28125 
Q 43.109375 11.28125 46.0625 15.375 
Q 49.03125 19.484375 49.03125 27.296875 
Q 49.03125 35.109375 46.0625 39.203125 
Q 43.109375 43.3125 37.5 43.3125 
z
" id="DejaVuSans-Bold-112"/>
      <path d="M 62.984375 27.484375 
L 62.984375 22.515625 
L 22.125 22.515625 
Q 22.75 16.359375 26.5625 13.28125 
Q 30.375 10.203125 37.203125 10.203125 
Q 42.71875 10.203125 48.5 11.84375 
Q 54.296875 13.484375 60.40625 16.796875 
L 60.40625 3.328125 
Q 54.203125 0.984375 48 -0.21875 
Q 41.796875 -1.421875 35.59375 -1.421875 
Q 20.75 -1.421875 12.515625 6.125 
Q 4.296875 13.671875 4.296875 27.296875 
Q 4.296875 40.671875 12.375 48.328125 
Q 20.453125 56 34.625 56 
Q 47.515625 56 55.25 48.234375 
Q 62.984375 40.484375 62.984375 27.484375 
z
M 45.015625 33.296875 
Q 45.015625 38.28125 42.109375 41.328125 
Q 39.203125 44.390625 34.515625 44.390625 
Q 29.4375 44.390625 26.265625 41.53125 
Q 23.09375 38.671875 22.3125 33.296875 
z
" id="DejaVuSans-Bold-101"/>
      <path d="M 49.03125 39.796875 
Q 46.734375 40.875 44.453125 41.375 
Q 42.1875 41.890625 39.890625 41.890625 
Q 33.15625 41.890625 29.515625 37.5625 
Q 25.875 33.25 25.875 25.203125 
L 25.875 0 
L 8.40625 0 
L 8.40625 54.6875 
L 25.875 54.6875 
L 25.875 45.703125 
Q 29.25 51.078125 33.609375 53.53125 
Q 37.984375 56 44.09375 56 
Q 44.96875 56 45.984375 55.921875 
Q 47.015625 55.859375 48.96875 55.609375 
z
" id="DejaVuSans-Bold-114"/>
      <path id="DejaVuSans-Bold-32"/>
      <path d="M 0.484375 72.90625 
L 19.390625 72.90625 
L 38.71875 19.09375 
L 58.015625 72.90625 
L 76.90625 72.90625 
L 49.90625 0 
L 27.484375 0 
z
" id="DejaVuSans-Bold-86"/>
      <path d="M 32.90625 24.609375 
Q 27.4375 24.609375 24.671875 22.75 
Q 21.921875 20.90625 21.921875 17.28125 
Q 21.921875 13.96875 24.140625 12.078125 
Q 26.375 10.203125 30.328125 10.203125 
Q 35.25 10.203125 38.625 13.734375 
Q 42 17.28125 42 22.609375 
L 42 24.609375 
z
M 59.625 31.203125 
L 59.625 0 
L 42 0 
L 42 8.109375 
Q 38.484375 3.125 34.078125 0.84375 
Q 29.6875 -1.421875 23.390625 -1.421875 
Q 14.890625 -1.421875 9.59375 3.53125 
Q 4.296875 8.5 4.296875 16.40625 
Q 4.296875 26.03125 10.90625 30.515625 
Q 17.53125 35.015625 31.6875 35.015625 
L 42 35.015625 
L 42 36.375 
Q 42 40.53125 38.71875 42.453125 
Q 35.453125 44.390625 28.515625 44.390625 
Q 22.90625 44.390625 18.0625 43.265625 
Q 13.234375 42.140625 9.078125 39.890625 
L 9.078125 53.21875 
Q 14.703125 54.59375 20.359375 55.296875 
Q 26.03125 56 31.6875 56 
Q 46.484375 56 53.046875 50.171875 
Q 59.625 44.34375 59.625 31.203125 
z
" id="DejaVuSans-Bold-97"/>
      <path d="M 8.40625 54.6875 
L 25.875 54.6875 
L 25.875 0 
L 8.40625 0 
z
M 8.40625 75.984375 
L 25.875 75.984375 
L 25.875 61.71875 
L 8.40625 61.71875 
z
" id="DejaVuSans-Bold-105"/>
      <path d="M 63.375 33.296875 
L 63.375 0 
L 45.796875 0 
L 45.796875 5.421875 
L 45.796875 25.484375 
Q 45.796875 32.5625 45.484375 35.25 
Q 45.171875 37.9375 44.390625 39.203125 
Q 43.359375 40.921875 41.59375 41.875 
Q 39.84375 42.828125 37.59375 42.828125 
Q 32.125 42.828125 29 38.59375 
Q 25.875 34.375 25.875 26.90625 
L 25.875 0 
L 8.40625 0 
L 8.40625 54.6875 
L 25.875 54.6875 
L 25.875 46.6875 
Q 29.828125 51.46875 34.265625 53.734375 
Q 38.71875 56 44.09375 56 
Q 53.5625 56 58.46875 50.1875 
Q 63.375 44.390625 63.375 33.296875 
z
" id="DejaVuSans-Bold-110"/>
      <path d="M 27.484375 70.21875 
L 27.484375 54.6875 
L 45.515625 54.6875 
L 45.515625 42.1875 
L 27.484375 42.1875 
L 27.484375 19 
Q 27.484375 15.1875 29 13.84375 
Q 30.515625 12.5 35.015625 12.5 
L 44 12.5 
L 44 0 
L 29 0 
Q 18.65625 0 14.328125 4.3125 
Q 10.015625 8.640625 10.015625 19 
L 10.015625 42.1875 
L 1.3125 42.1875 
L 1.3125 54.6875 
L 10.015625 54.6875 
L 10.015625 70.21875 
z
" id="DejaVuSans-Bold-116"/>
      <path d="M 11.1875 54.6875 
L 28.8125 54.6875 
L 28.8125 35.796875 
L 11.1875 35.796875 
z
M 11.1875 18.890625 
L 28.8125 18.890625 
L 28.8125 0 
L 11.1875 0 
z
" id="DejaVuSans-Bold-58"/>
      <path d="M 37.703125 -13.1875 
L 23.1875 -13.1875 
Q 15.71875 -1.125 12.15625 9.734375 
Q 8.59375 20.609375 8.59375 31.296875 
Q 8.59375 42 12.171875 52.953125 
Q 15.765625 63.921875 23.1875 75.875 
L 37.703125 75.875 
Q 31.453125 64.3125 28.328125 53.25 
Q 25.203125 42.1875 25.203125 31.390625 
Q 25.203125 20.609375 28.296875 9.515625 
Q 31.390625 -1.5625 37.703125 -13.1875 
z
" id="DejaVuSans-Bold-40"/>
      <path d="M 36.1875 35.984375 
Q 31.25 35.984375 28.78125 32.78125 
Q 26.3125 29.59375 26.3125 23.1875 
Q 26.3125 16.796875 28.78125 13.59375 
Q 31.25 10.40625 36.1875 10.40625 
Q 41.15625 10.40625 43.625 13.59375 
Q 46.09375 16.796875 46.09375 23.1875 
Q 46.09375 29.59375 43.625 32.78125 
Q 41.15625 35.984375 36.1875 35.984375 
z
M 59.421875 71 
L 59.421875 57.515625 
Q 54.78125 59.71875 50.671875 60.765625 
Q 46.578125 61.8125 42.671875 61.8125 
Q 34.28125 61.8125 29.59375 57.140625 
Q 24.90625 52.484375 24.125 43.3125 
Q 27.34375 45.703125 31.09375 46.890625 
Q 34.859375 48.09375 39.3125 48.09375 
Q 50.484375 48.09375 57.34375 41.546875 
Q 64.203125 35.015625 64.203125 24.421875 
Q 64.203125 12.703125 56.53125 5.640625 
Q 48.875 -1.421875 35.984375 -1.421875 
Q 21.78125 -1.421875 13.984375 8.171875 
Q 6.203125 17.78125 6.203125 35.40625 
Q 6.203125 53.46875 15.3125 63.796875 
Q 24.421875 74.125 40.28125 74.125 
Q 45.3125 74.125 50.046875 73.34375 
Q 54.78125 72.5625 59.421875 71 
z
" id="DejaVuSans-Bold-54"/>
      <path d="M 10.203125 18.890625 
L 27.78125 18.890625 
L 27.78125 4 
L 15.71875 -14.203125 
L 5.328125 -14.203125 
L 10.203125 4 
z
" id="DejaVuSans-Bold-44"/>
      <path d="M 8.015625 -13.1875 
Q 14.265625 -1.5625 17.390625 9.515625 
Q 20.515625 20.609375 20.515625 31.390625 
Q 20.515625 42.1875 17.390625 53.25 
Q 14.265625 64.3125 8.015625 75.875 
L 22.515625 75.875 
Q 29.9375 63.921875 33.515625 52.953125 
Q 37.109375 42 37.109375 31.296875 
Q 37.109375 20.609375 33.546875 9.734375 
Q 29.984375 -1.125 22.515625 -13.1875 
z
" id="DejaVuSans-Bold-41"/>
     </defs>
     <use xlink:href="#DejaVuSans-Bold-83"/>
     <use x="72.021484" xlink:href="#DejaVuSans-Bold-117"/>
     <use x="143.212891" xlink:href="#DejaVuSans-Bold-112"/>
     <use x="214.794922" xlink:href="#DejaVuSans-Bold-101"/>
     <use x="282.617188" xlink:href="#DejaVuSans-Bold-114"/>
     <use x="331.933594" xlink:href="#DejaVuSans-Bold-32"/>
     <use x="366.748047" xlink:href="#DejaVuSans-Bold-86"/>
     <use x="438.640625" xlink:href="#DejaVuSans-Bold-97"/>
     <use x="506.121094" xlink:href="#DejaVuSans-Bold-114"/>
     <use x="555.4375" xlink:href="#DejaVuSans-Bold-105"/>
     <use x="589.714844" xlink:href="#DejaVuSans-Bold-97"/>
     <use x="657.195312" xlink:href="#DejaVuSans-Bold-110"/>
     <use x="728.386719" xlink:href="#DejaVuSans-Bold-116"/>
     <use x="776.189453" xlink:href="#DejaVuSans-Bold-58"/>
     <use x="816.179688" xlink:href="#DejaVuSans-Bold-32"/>
     <use x="850.994141" xlink:href="#DejaVuSans-Bold-40"/>
     <use x="896.697266" xlink:href="#DejaVuSans-Bold-54"/>
     <use x="966.277344" xlink:href="#DejaVuSans-Bold-44"/>
     <use x="1004.265625" xlink:href="#DejaVuSans-Bold-41"/>
    </g>
   </g>
   <g id="patch_28">
    <path clip-path="url(#pc174144163)" d="M 393.88112 392.645584 
L 441.410258 392.645584 
L 443.390639 380.7633 
L 441.410258 368.881015 
L 393.88112 368.881015 
L 395.861501 380.7633 
z
" style="fill:none;stroke:#000000;stroke-linejoin:miter;stroke-width:0.975;"/>
   </g>
   <g id="patch_29">
    <path clip-path="url(#pc174144163)" d="M 488.939396 392.645584 
L 536.468534 392.645584 
L 538.448915 380.7633 
L 536.468534 368.881015 
L 488.939396 368.881015 
L 490.919777 380.7633 
z
" style="fill:none;stroke:#000000;stroke-linejoin:miter;stroke-width:0.975;"/>
   </g>
   <g id="patch_30">
    <path clip-path="url(#pc174144163)" d="M 631.52681 392.645584 
L 679.055948 392.645584 
L 681.036328 380.7633 
L 679.055948 368.881015 
L 631.52681 368.881015 
L 633.50719 380.7633 
z
" style="fill:none;stroke:#000000;stroke-linejoin:miter;stroke-width:0.975;"/>
   </g>
   <g id="patch_31">
    <path clip-path="url(#pc174144163)" d="M 679.055948 392.645584 
L 726.585085 392.645584 
L 728.565466 380.7633 
L 726.585085 368.881015 
L 679.055948 368.881015 
L 681.036328 380.7633 
z
" style="fill:none;stroke:#000000;stroke-linejoin:miter;stroke-width:0.975;"/>
   </g>
   <g id="patch_32">
    <path clip-path="url(#pc174144163)" d="M 393.88112 368.881015 
L 441.410258 368.881015 
L 443.390639 356.998731 
L 441.410258 345.116446 
L 393.88112 345.116446 
L 395.861501 356.998731 
z
" style="fill:none;stroke:#000000;stroke-linejoin:miter;stroke-width:0.975;"/>
   </g>
   <g id="patch_33">
    <path clip-path="url(#pc174144163)" d="M 488.939396 368.881015 
L 536.468534 368.881015 
L 538.448915 356.998731 
L 536.468534 345.116446 
L 488.939396 345.116446 
L 490.919777 356.998731 
z
" style="fill:none;stroke:#000000;stroke-linejoin:miter;stroke-width:0.975;"/>
   </g>
   <g id="patch_34">
    <path clip-path="url(#pc174144163)" d="M 631.52681 368.881015 
L 679.055948 368.881015 
L 681.036328 356.998731 
L 679.055948 345.116446 
L 631.52681 345.116446 
L 633.50719 356.998731 
z
" style="fill:none;stroke:#000000;stroke-linejoin:miter;stroke-width:0.975;"/>
   </g>
   <g id="patch_35">
    <path clip-path="url(#pc174144163)" d="M 679.055948 368.881015 
L 726.585085 368.881015 
L 728.565466 356.998731 
L 726.585085 345.116446 
L 679.055948 345.116446 
L 681.036328 356.998731 
z
" style="fill:none;stroke:#000000;stroke-linejoin:miter;stroke-width:0.975;"/>
   </g>
   <g id="text_7">
    <!-- Create ap... -->
    <g transform="translate(206.933178 381.238591)scale(0.0675 -0.0675)">
     <defs>
      <path d="M 64.40625 67.28125 
L 64.40625 56.890625 
Q 59.421875 61.53125 53.78125 63.8125 
Q 48.140625 66.109375 41.796875 66.109375 
Q 29.296875 66.109375 22.65625 58.46875 
Q 16.015625 50.828125 16.015625 36.375 
Q 16.015625 21.96875 22.65625 14.328125 
Q 29.296875 6.6875 41.796875 6.6875 
Q 48.140625 6.6875 53.78125 8.984375 
Q 59.421875 11.28125 64.40625 15.921875 
L 64.40625 5.609375 
Q 59.234375 2.09375 53.4375 0.328125 
Q 47.65625 -1.421875 41.21875 -1.421875 
Q 24.65625 -1.421875 15.125 8.703125 
Q 5.609375 18.84375 5.609375 36.375 
Q 5.609375 53.953125 15.125 64.078125 
Q 24.65625 74.21875 41.21875 74.21875 
Q 47.75 74.21875 53.53125 72.484375 
Q 59.328125 70.75 64.40625 67.28125 
z
" id="DejaVuSans-67"/>
     </defs>
     <use xlink:href="#DejaVuSans-67"/>
     <use x="69.824219" xlink:href="#DejaVuSans-114"/>
     <use x="108.6875" xlink:href="#DejaVuSans-101"/>
     <use x="170.210938" xlink:href="#DejaVuSans-97"/>
     <use x="231.490234" xlink:href="#DejaVuSans-116"/>
     <use x="270.699219" xlink:href="#DejaVuSans-101"/>
     <use x="332.222656" xlink:href="#DejaVuSans-32"/>
     <use x="364.009766" xlink:href="#DejaVuSans-97"/>
     <use x="425.289062" xlink:href="#DejaVuSans-112"/>
     <use x="488.765625" xlink:href="#DejaVuSans-46"/>
     <use x="520.552734" xlink:href="#DejaVuSans-46"/>
     <use x="552.339844" xlink:href="#DejaVuSans-46"/>
    </g>
   </g>
   <g id="text_8">
    <!-- Submit -->
    <g transform="translate(254.462316 381.238591)scale(0.0675 -0.0675)">
     <defs>
      <path d="M 53.515625 70.515625 
L 53.515625 60.890625 
Q 47.90625 63.578125 42.921875 64.890625 
Q 37.9375 66.21875 33.296875 66.21875 
Q 25.25 66.21875 20.875 63.09375 
Q 16.5 59.96875 16.5 54.203125 
Q 16.5 49.359375 19.40625 46.890625 
Q 22.3125 44.4375 30.421875 42.921875 
L 36.375 41.703125 
Q 47.40625 39.59375 52.65625 34.296875 
Q 57.90625 29 57.90625 20.125 
Q 57.90625 9.515625 50.796875 4.046875 
Q 43.703125 -1.421875 29.984375 -1.421875 
Q 24.8125 -1.421875 18.96875 -0.25 
Q 13.140625 0.921875 6.890625 3.21875 
L 6.890625 13.375 
Q 12.890625 10.015625 18.65625 8.296875 
Q 24.421875 6.59375 29.984375 6.59375 
Q 38.421875 6.59375 43.015625 9.90625 
Q 47.609375 13.234375 47.609375 19.390625 
Q 47.609375 24.75 44.3125 27.78125 
Q 41.015625 30.8125 33.5 32.328125 
L 27.484375 33.5 
Q 16.453125 35.6875 11.515625 40.375 
Q 6.59375 45.0625 6.59375 53.421875 
Q 6.59375 63.09375 13.40625 68.65625 
Q 20.21875 74.21875 32.171875 74.21875 
Q 37.3125 74.21875 42.625 73.28125 
Q 47.953125 72.359375 53.515625 70.515625 
z
" id="DejaVuSans-83"/>
      <path d="M 48.6875 27.296875 
Q 48.6875 37.203125 44.609375 42.84375 
Q 40.53125 48.484375 33.40625 48.484375 
Q 26.265625 48.484375 22.1875 42.84375 
Q 18.109375 37.203125 18.109375 27.296875 
Q 18.109375 17.390625 22.1875 11.75 
Q 26.265625 6.109375 33.40625 6.109375 
Q 40.53125 6.109375 44.609375 11.75 
Q 48.6875 17.390625 48.6875 27.296875 
z
M 18.109375 46.390625 
Q 20.953125 51.265625 25.265625 53.625 
Q 29.59375 56 35.59375 56 
Q 45.5625 56 51.78125 48.09375 
Q 58.015625 40.1875 58.015625 27.296875 
Q 58.015625 14.40625 51.78125 6.484375 
Q 45.5625 -1.421875 35.59375 -1.421875 
Q 29.59375 -1.421875 25.265625 0.953125 
Q 20.953125 3.328125 18.109375 8.203125 
L 18.109375 0 
L 9.078125 0 
L 9.078125 75.984375 
L 18.109375 75.984375 
z
" id="DejaVuSans-98"/>
      <path d="M 52 44.1875 
Q 55.375 50.25 60.0625 53.125 
Q 64.75 56 71.09375 56 
Q 79.640625 56 84.28125 50.015625 
Q 88.921875 44.046875 88.921875 33.015625 
L 88.921875 0 
L 79.890625 0 
L 79.890625 32.71875 
Q 79.890625 40.578125 77.09375 44.375 
Q 74.3125 48.1875 68.609375 48.1875 
Q 61.625 48.1875 57.5625 43.546875 
Q 53.515625 38.921875 53.515625 30.90625 
L 53.515625 0 
L 44.484375 0 
L 44.484375 32.71875 
Q 44.484375 40.625 41.703125 44.40625 
Q 38.921875 48.1875 33.109375 48.1875 
Q 26.21875 48.1875 22.15625 43.53125 
Q 18.109375 38.875 18.109375 30.90625 
L 18.109375 0 
L 9.078125 0 
L 9.078125 54.6875 
L 18.109375 54.6875 
L 18.109375 46.1875 
Q 21.1875 51.21875 25.484375 53.609375 
Q 29.78125 56 35.6875 56 
Q 41.65625 56 45.828125 52.96875 
Q 50 49.953125 52 44.1875 
z
" id="DejaVuSans-109"/>
     </defs>
     <use xlink:href="#DejaVuSans-83"/>
     <use x="63.476562" xlink:href="#DejaVuSans-117"/>
     <use x="126.855469" xlink:href="#DejaVuSans-98"/>
     <use x="190.332031" xlink:href="#DejaVuSans-109"/>
     <use x="287.744141" xlink:href="#DejaVuSans-105"/>
     <use x="315.527344" xlink:href="#DejaVuSans-116"/>
    </g>
   </g>
   <g id="text_9">
    <!-- Complete -->
    <g transform="translate(301.991454 381.238591)scale(0.0675 -0.0675)">
     <use xlink:href="#DejaVuSans-67"/>
     <use x="69.824219" xlink:href="#DejaVuSans-111"/>
     <use x="131.005859" xlink:href="#DejaVuSans-109"/>
     <use x="228.417969" xlink:href="#DejaVuSans-112"/>
     <use x="291.894531" xlink:href="#DejaVuSans-108"/>
     <use x="319.677734" xlink:href="#DejaVuSans-101"/>
     <use x="381.201172" xlink:href="#DejaVuSans-116"/>
     <use x="420.410156" xlink:href="#DejaVuSans-101"/>
    </g>
   </g>
   <g id="text_10">
    <!-- Accept -->
    <g transform="translate(349.520592 381.238591)scale(0.0675 -0.0675)">
     <defs>
      <path d="M 34.1875 63.1875 
L 20.796875 26.90625 
L 47.609375 26.90625 
z
M 28.609375 72.90625 
L 39.796875 72.90625 
L 67.578125 0 
L 57.328125 0 
L 50.6875 18.703125 
L 17.828125 18.703125 
L 11.1875 0 
L 0.78125 0 
z
" id="DejaVuSans-65"/>
     </defs>
     <use xlink:href="#DejaVuSans-65"/>
     <use x="66.658203" xlink:href="#DejaVuSans-99"/>
     <use x="121.638672" xlink:href="#DejaVuSans-99"/>
     <use x="176.619141" xlink:href="#DejaVuSans-101"/>
     <use x="238.142578" xlink:href="#DejaVuSans-112"/>
     <use x="301.619141" xlink:href="#DejaVuSans-116"/>
    </g>
   </g>
   <g id="text_11">
    <!-- Create of... -->
    <g transform="translate(397.04973 381.238591)scale(0.0675 -0.0675)">
     <use xlink:href="#DejaVuSans-67"/>
     <use x="69.824219" xlink:href="#DejaVuSans-114"/>
     <use x="108.6875" xlink:href="#DejaVuSans-101"/>
     <use x="170.210938" xlink:href="#DejaVuSans-97"/>
     <use x="231.490234" xlink:href="#DejaVuSans-116"/>
     <use x="270.699219" xlink:href="#DejaVuSans-101"/>
     <use x="332.222656" xlink:href="#DejaVuSans-32"/>
     <use x="364.009766" xlink:href="#DejaVuSans-111"/>
     <use x="425.191406" xlink:href="#DejaVuSans-102"/>
     <use x="453.146484" xlink:href="#DejaVuSans-46"/>
     <use x="484.933594" xlink:href="#DejaVuSans-46"/>
     <use x="516.720703" xlink:href="#DejaVuSans-46"/>
    </g>
   </g>
   <g id="text_12">
    <!-- Call -->
    <g transform="translate(492.108005 381.238591)scale(0.0675 -0.0675)">
     <use xlink:href="#DejaVuSans-67"/>
     <use x="69.824219" xlink:href="#DejaVuSans-97"/>
     <use x="131.103516" xlink:href="#DejaVuSans-108"/>
     <use x="158.886719" xlink:href="#DejaVuSans-108"/>
    </g>
   </g>
   <g id="text_13">
    <!-- Validate -->
    <g transform="translate(539.637143 381.238591)scale(0.0675 -0.0675)">
     <defs>
      <path d="M 28.609375 0 
L 0.78125 72.90625 
L 11.078125 72.90625 
L 34.1875 11.53125 
L 57.328125 72.90625 
L 67.578125 72.90625 
L 39.796875 0 
z
" id="DejaVuSans-86"/>
      <path d="M 45.40625 46.390625 
L 45.40625 75.984375 
L 54.390625 75.984375 
L 54.390625 0 
L 45.40625 0 
L 45.40625 8.203125 
Q 42.578125 3.328125 38.25 0.953125 
Q 33.9375 -1.421875 27.875 -1.421875 
Q 17.96875 -1.421875 11.734375 6.484375 
Q 5.515625 14.40625 5.515625 27.296875 
Q 5.515625 40.1875 11.734375 48.09375 
Q 17.96875 56 27.875 56 
Q 33.9375 56 38.25 53.625 
Q 42.578125 51.265625 45.40625 46.390625 
z
M 14.796875 27.296875 
Q 14.796875 17.390625 18.875 11.75 
Q 22.953125 6.109375 30.078125 6.109375 
Q 37.203125 6.109375 41.296875 11.75 
Q 45.40625 17.390625 45.40625 27.296875 
Q 45.40625 37.203125 41.296875 42.84375 
Q 37.203125 48.484375 30.078125 48.484375 
Q 22.953125 48.484375 18.875 42.84375 
Q 14.796875 37.203125 14.796875 27.296875 
z
" id="DejaVuSans-100"/>
     </defs>
     <use xlink:href="#DejaVuSans-86"/>
     <use x="60.658203" xlink:href="#DejaVuSans-97"/>
     <use x="121.9375" xlink:href="#DejaVuSans-108"/>
     <use x="149.720703" xlink:href="#DejaVuSans-105"/>
     <use x="177.503906" xlink:href="#DejaVuSans-100"/>
     <use x="240.980469" xlink:href="#DejaVuSans-97"/>
     <use x="302.259766" xlink:href="#DejaVuSans-116"/>
     <use x="341.46875" xlink:href="#DejaVuSans-101"/>
    </g>
   </g>
   <g id="text_14">
    <!-- Call inco... -->
    <g transform="translate(587.166281 381.238591)scale(0.0675 -0.0675)">
     <use xlink:href="#DejaVuSans-67"/>
     <use x="69.824219" xlink:href="#DejaVuSans-97"/>
     <use x="131.103516" xlink:href="#DejaVuSans-108"/>
     <use x="158.886719" xlink:href="#DejaVuSans-108"/>
     <use x="186.669922" xlink:href="#DejaVuSans-32"/>
     <use x="218.457031" xlink:href="#DejaVuSans-105"/>
     <use x="246.240234" xlink:href="#DejaVuSans-110"/>
     <use x="309.619141" xlink:href="#DejaVuSans-99"/>
     <use x="364.599609" xlink:href="#DejaVuSans-111"/>
     <use x="424.03125" xlink:href="#DejaVuSans-46"/>
     <use x="455.818359" xlink:href="#DejaVuSans-46"/>
     <use x="487.605469" xlink:href="#DejaVuSans-46"/>
    </g>
   </g>
   <g id="text_15">
    <!-- Cancel ap... -->
    <g transform="translate(634.695419 381.238591)scale(0.0675 -0.0675)">
     <use xlink:href="#DejaVuSans-67"/>
     <use x="69.824219" xlink:href="#DejaVuSans-97"/>
     <use x="131.103516" xlink:href="#DejaVuSans-110"/>
     <use x="194.482422" xlink:href="#DejaVuSans-99"/>
     <use x="249.462891" xlink:href="#DejaVuSans-101"/>
     <use x="310.986328" xlink:href="#DejaVuSans-108"/>
     <use x="338.769531" xlink:href="#DejaVuSans-32"/>
     <use x="370.556641" xlink:href="#DejaVuSans-97"/>
     <use x="431.835938" xlink:href="#DejaVuSans-112"/>
     <use x="495.3125" xlink:href="#DejaVuSans-46"/>
     <use x="527.099609" xlink:href="#DejaVuSans-46"/>
     <use x="558.886719" xlink:href="#DejaVuSans-46"/>
    </g>
   </g>
   <g id="text_16">
    <!-- Cancel of... -->
    <g transform="translate(682.224557 381.238591)scale(0.0675 -0.0675)">
     <use xlink:href="#DejaVuSans-67"/>
     <use x="69.824219" xlink:href="#DejaVuSans-97"/>
     <use x="131.103516" xlink:href="#DejaVuSans-110"/>
     <use x="194.482422" xlink:href="#DejaVuSans-99"/>
     <use x="249.462891" xlink:href="#DejaVuSans-101"/>
     <use x="310.986328" xlink:href="#DejaVuSans-108"/>
     <use x="338.769531" xlink:href="#DejaVuSans-32"/>
     <use x="370.556641" xlink:href="#DejaVuSans-111"/>
     <use x="431.738281" xlink:href="#DejaVuSans-102"/>
     <use x="459.693359" xlink:href="#DejaVuSans-46"/>
     <use x="491.480469" xlink:href="#DejaVuSans-46"/>
     <use x="523.267578" xlink:href="#DejaVuSans-46"/>
    </g>
   </g>
   <g id="text_17">
    <!-- Create of... -->
    <g transform="translate(397.04973 357.474022)scale(0.0675 -0.0675)">
     <use xlink:href="#DejaVuSans-67"/>
     <use x="69.824219" xlink:href="#DejaVuSans-114"/>
     <use x="108.6875" xlink:href="#DejaVuSans-101"/>
     <use x="170.210938" xlink:href="#DejaVuSans-97"/>
     <use x="231.490234" xlink:href="#DejaVuSans-116"/>
     <use x="270.699219" xlink:href="#DejaVuSans-101"/>
     <use x="332.222656" xlink:href="#DejaVuSans-32"/>
     <use x="364.009766" xlink:href="#DejaVuSans-111"/>
     <use x="425.191406" xlink:href="#DejaVuSans-102"/>
     <use x="453.146484" xlink:href="#DejaVuSans-46"/>
     <use x="484.933594" xlink:href="#DejaVuSans-46"/>
     <use x="516.720703" xlink:href="#DejaVuSans-46"/>
    </g>
   </g>
   <g id="text_18">
    <!-- Send (mai... -->
    <g transform="translate(444.578867 357.474022)scale(0.0675 -0.0675)">
     <defs>
      <path d="M 31 75.875 
Q 24.46875 64.65625 21.28125 53.65625 
Q 18.109375 42.671875 18.109375 31.390625 
Q 18.109375 20.125 21.3125 9.0625 
Q 24.515625 -2 31 -13.1875 
L 23.1875 -13.1875 
Q 15.875 -1.703125 12.234375 9.375 
Q 8.59375 20.453125 8.59375 31.390625 
Q 8.59375 42.28125 12.203125 53.3125 
Q 15.828125 64.359375 23.1875 75.875 
z
" id="DejaVuSans-40"/>
     </defs>
     <use xlink:href="#DejaVuSans-83"/>
     <use x="63.476562" xlink:href="#DejaVuSans-101"/>
     <use x="125" xlink:href="#DejaVuSans-110"/>
     <use x="188.378906" xlink:href="#DejaVuSans-100"/>
     <use x="251.855469" xlink:href="#DejaVuSans-32"/>
     <use x="283.642578" xlink:href="#DejaVuSans-40"/>
     <use x="322.65625" xlink:href="#DejaVuSans-109"/>
     <use x="420.068359" xlink:href="#DejaVuSans-97"/>
     <use x="481.347656" xlink:href="#DejaVuSans-105"/>
     <use x="509.130859" xlink:href="#DejaVuSans-46"/>
     <use x="540.917969" xlink:href="#DejaVuSans-46"/>
     <use x="572.705078" xlink:href="#DejaVuSans-46"/>
    </g>
   </g>
   <g id="text_19">
    <!-- Call -->
    <g transform="translate(492.108005 357.474022)scale(0.0675 -0.0675)">
     <use xlink:href="#DejaVuSans-67"/>
     <use x="69.824219" xlink:href="#DejaVuSans-97"/>
     <use x="131.103516" xlink:href="#DejaVuSans-108"/>
     <use x="158.886719" xlink:href="#DejaVuSans-108"/>
    </g>
   </g>
   <g id="text_20">
    <!-- Return -->
    <g transform="translate(587.166281 357.474022)scale(0.0675 -0.0675)">
     <defs>
      <path d="M 44.390625 34.1875 
Q 47.5625 33.109375 50.5625 29.59375 
Q 53.5625 26.078125 56.59375 19.921875 
L 66.609375 0 
L 56 0 
L 46.6875 18.703125 
Q 43.0625 26.03125 39.671875 28.421875 
Q 36.28125 30.8125 30.421875 30.8125 
L 19.671875 30.8125 
L 19.671875 0 
L 9.8125 0 
L 9.8125 72.90625 
L 32.078125 72.90625 
Q 44.578125 72.90625 50.734375 67.671875 
Q 56.890625 62.453125 56.890625 51.90625 
Q 56.890625 45.015625 53.6875 40.46875 
Q 50.484375 35.9375 44.390625 34.1875 
z
M 19.671875 64.796875 
L 19.671875 38.921875 
L 32.078125 38.921875 
Q 39.203125 38.921875 42.84375 42.21875 
Q 46.484375 45.515625 46.484375 51.90625 
Q 46.484375 58.296875 42.84375 61.546875 
Q 39.203125 64.796875 32.078125 64.796875 
z
" id="DejaVuSans-82"/>
     </defs>
     <use xlink:href="#DejaVuSans-82"/>
     <use x="64.982422" xlink:href="#DejaVuSans-101"/>
     <use x="126.505859" xlink:href="#DejaVuSans-116"/>
     <use x="165.714844" xlink:href="#DejaVuSans-117"/>
     <use x="229.09375" xlink:href="#DejaVuSans-114"/>
     <use x="268.457031" xlink:href="#DejaVuSans-110"/>
    </g>
   </g>
   <g id="text_21">
    <!-- Cancel ap... -->
    <g transform="translate(634.695419 357.474022)scale(0.0675 -0.0675)">
     <use xlink:href="#DejaVuSans-67"/>
     <use x="69.824219" xlink:href="#DejaVuSans-97"/>
     <use x="131.103516" xlink:href="#DejaVuSans-110"/>
     <use x="194.482422" xlink:href="#DejaVuSans-99"/>
     <use x="249.462891" xlink:href="#DejaVuSans-101"/>
     <use x="310.986328" xlink:href="#DejaVuSans-108"/>
     <use x="338.769531" xlink:href="#DejaVuSans-32"/>
     <use x="370.556641" xlink:href="#DejaVuSans-97"/>
     <use x="431.835938" xlink:href="#DejaVuSans-112"/>
     <use x="495.3125" xlink:href="#DejaVuSans-46"/>
     <use x="527.099609" xlink:href="#DejaVuSans-46"/>
     <use x="558.886719" xlink:href="#DejaVuSans-46"/>
    </g>
   </g>
   <g id="text_22">
    <!-- Cancel of... -->
    <g transform="translate(682.224557 357.474022)scale(0.0675 -0.0675)">
     <use xlink:href="#DejaVuSans-67"/>
     <use x="69.824219" xlink:href="#DejaVuSans-97"/>
     <use x="131.103516" xlink:href="#DejaVuSans-110"/>
     <use x="194.482422" xlink:href="#DejaVuSans-99"/>
     <use x="249.462891" xlink:href="#DejaVuSans-101"/>
     <use x="310.986328" xlink:href="#DejaVuSans-108"/>
     <use x="338.769531" xlink:href="#DejaVuSans-32"/>
     <use x="370.556641" xlink:href="#DejaVuSans-111"/>
     <use x="431.738281" xlink:href="#DejaVuSans-102"/>
     <use x="459.693359" xlink:href="#DejaVuSans-46"/>
     <use x="491.480469" xlink:href="#DejaVuSans-46"/>
     <use x="523.267578" xlink:href="#DejaVuSans-46"/>
    </g>
   </g>
  </g>
  <g id="axes_2">
   <g id="patch_36">
    <path clip-path="url(#p00263e6fb0)" d="M 746.246305 398.717832 
L 1320.901735 398.717832 
L 1320.901735 369.98506 
L 746.246305 369.98506 
z
" style="fill:#ffa24b;opacity:0.8;stroke:#ffa24b;stroke-linejoin:miter;"/>
   </g>
   <g id="patch_37">
    <path clip-path="url(#p00263e6fb0)" d="M 746.246305 369.98506 
L 1320.901735 369.98506 
L 1320.901735 341.252289 
L 746.246305 341.252289 
z
" style="fill:#76c476;opacity:0.8;stroke:#76c476;stroke-linejoin:miter;"/>
   </g>
   <g id="patch_38">
    <path clip-path="url(#p00263e6fb0)" d="M 889.910163 398.717832 
L 947.375706 398.717832 
L 949.770103 384.351446 
L 947.375706 369.98506 
L 889.910163 369.98506 
L 892.304561 384.351446 
z
" style="fill:none;stroke:#000000;stroke-linejoin:miter;stroke-width:0.75;"/>
   </g>
   <g id="patch_39">
    <path clip-path="url(#p00263e6fb0)" d="M 1062.306792 398.717832 
L 1119.772335 398.717832 
L 1122.166732 384.351446 
L 1119.772335 369.98506 
L 1062.306792 369.98506 
L 1064.701189 384.351446 
z
" style="fill:none;stroke:#000000;stroke-linejoin:miter;stroke-width:0.75;"/>
   </g>
   <g id="patch_40">
    <path clip-path="url(#p00263e6fb0)" d="M 774.979077 398.717832 
L 832.44462 398.717832 
L 834.839018 384.351446 
L 832.44462 369.98506 
L 774.979077 369.98506 
L 777.373475 384.351446 
z
" style="fill:#ffa24b;stroke:#000000;stroke-linejoin:miter;stroke-width:0.975;"/>
   </g>
   <g id="patch_41">
    <path clip-path="url(#p00263e6fb0)" d="M 832.44462 398.717832 
L 889.910163 398.717832 
L 892.304561 384.351446 
L 889.910163 369.98506 
L 832.44462 369.98506 
L 834.839018 384.351446 
z
" style="fill:#ffa24b;stroke:#000000;stroke-linejoin:miter;stroke-width:0.975;"/>
   </g>
   <g id="patch_42">
    <path clip-path="url(#p00263e6fb0)" d="M 891.825681 396.323434 
L 945.460188 396.323434 
L 947.854585 384.351446 
L 945.460188 372.379458 
L 891.825681 372.379458 
L 894.220079 384.351446 
z
" style="fill:#ffa24b;stroke:#000000;stroke-dasharray:3.367,1.456;stroke-dashoffset:0;stroke-linejoin:miter;stroke-width:0.91;"/>
   </g>
   <g id="patch_43">
    <path clip-path="url(#p00263e6fb0)" d="M 947.375706 398.717832 
L 1004.841249 398.717832 
L 1007.235646 384.351446 
L 1004.841249 369.98506 
L 947.375706 369.98506 
L 949.770103 384.351446 
z
" style="fill:#ffa24b;stroke:#000000;stroke-linejoin:miter;stroke-width:0.975;"/>
   </g>
   <g id="patch_44">
    <path clip-path="url(#p00263e6fb0)" d="M 1004.841249 398.717832 
L 1033.57402 398.717832 
L 1035.968418 384.351446 
L 1033.57402 369.98506 
L 1004.841249 369.98506 
L 1007.235646 384.351446 
z
" style="fill:#76c476;"/>
   </g>
   <g id="patch_45">
    <path clip-path="url(#p00263e6fb0)" d="M 1033.57402 398.717832 
L 1062.306792 398.717832 
L 1064.701189 384.351446 
L 1062.306792 369.98506 
L 1033.57402 369.98506 
L 1035.968418 384.351446 
z
" style="fill:#ffa24b;"/>
   </g>
   <g id="patch_46">
    <path clip-path="url(#p00263e6fb0)" d="M 1064.22231 396.323434 
L 1117.856817 396.323434 
L 1120.251214 384.351446 
L 1117.856817 372.379458 
L 1064.22231 372.379458 
L 1066.616708 384.351446 
z
" style="fill:#ffa24b;stroke:#000000;stroke-dasharray:3.367,1.456;stroke-dashoffset:0;stroke-linejoin:miter;stroke-width:0.91;"/>
   </g>
   <g id="patch_47">
    <path clip-path="url(#p00263e6fb0)" d="M 1119.772335 398.717832 
L 1148.505106 398.717832 
L 1150.899504 384.351446 
L 1148.505106 369.98506 
L 1119.772335 369.98506 
L 1122.166732 384.351446 
z
" style="fill:#76c476;"/>
   </g>
   <g id="patch_48">
    <path clip-path="url(#p00263e6fb0)" d="M 1148.505106 398.717832 
L 1177.237878 398.717832 
L 1179.632275 384.351446 
L 1177.237878 369.98506 
L 1148.505106 369.98506 
L 1150.899504 384.351446 
z
" style="fill:#ffa24b;"/>
   </g>
   <g id="patch_49">
    <path clip-path="url(#p00263e6fb0)" d="M 1177.237878 398.717832 
L 1205.970649 398.717832 
L 1208.365047 384.351446 
L 1205.970649 369.98506 
L 1177.237878 369.98506 
L 1179.632275 384.351446 
z
" style="fill:#76c476;"/>
   </g>
   <g id="patch_50">
    <path clip-path="url(#p00263e6fb0)" d="M 1205.970649 398.717832 
L 1234.703421 398.717832 
L 1237.097818 384.351446 
L 1234.703421 369.98506 
L 1205.970649 369.98506 
L 1208.365047 384.351446 
z
" style="fill:#ffa24b;"/>
   </g>
   <g id="patch_51">
    <path clip-path="url(#p00263e6fb0)" d="M 1234.703421 398.717832 
L 1263.436192 398.717832 
L 1265.83059 384.351446 
L 1263.436192 369.98506 
L 1234.703421 369.98506 
L 1237.097818 384.351446 
z
" style="fill:#76c476;"/>
   </g>
   <g id="patch_52">
    <path clip-path="url(#p00263e6fb0)" d="M 1263.436192 398.717832 
L 1292.168964 398.717832 
L 1294.563361 384.351446 
L 1292.168964 369.98506 
L 1263.436192 369.98506 
L 1265.83059 384.351446 
z
" style="fill:#ffa24b;"/>
   </g>
   <g id="patch_53">
    <path clip-path="url(#p00263e6fb0)" d="M 1004.841249 369.98506 
L 1033.57402 369.98506 
L 1035.968418 355.618675 
L 1033.57402 341.252289 
L 1004.841249 341.252289 
L 1007.235646 355.618675 
z
" style="fill:#76c476;"/>
   </g>
   <g id="patch_54">
    <path clip-path="url(#p00263e6fb0)" d="M 1033.57402 369.98506 
L 1062.306792 369.98506 
L 1064.701189 355.618675 
L 1062.306792 341.252289 
L 1033.57402 341.252289 
L 1035.968418 355.618675 
z
" style="fill:#ffa24b;"/>
   </g>
   <g id="patch_55">
    <path clip-path="url(#p00263e6fb0)" d="M 1062.306792 369.98506 
L 1119.772335 369.98506 
L 1122.166732 355.618675 
L 1119.772335 341.252289 
L 1062.306792 341.252289 
L 1064.701189 355.618675 
z
" style="fill:#76c476;stroke:#000000;stroke-linejoin:miter;stroke-width:0.975;"/>
   </g>
   <g id="patch_56">
    <path clip-path="url(#p00263e6fb0)" d="M 1119.772335 369.98506 
L 1148.505106 369.98506 
L 1150.899504 355.618675 
L 1148.505106 341.252289 
L 1119.772335 341.252289 
L 1122.166732 355.618675 
z
" style="fill:#76c476;"/>
   </g>
   <g id="patch_57">
    <path clip-path="url(#p00263e6fb0)" d="M 1148.505106 369.98506 
L 1177.237878 369.98506 
L 1179.632275 355.618675 
L 1177.237878 341.252289 
L 1148.505106 341.252289 
L 1150.899504 355.618675 
z
" style="fill:#ffa24b;"/>
   </g>
   <g id="patch_58">
    <path clip-path="url(#p00263e6fb0)" d="M 1177.237878 369.98506 
L 1205.970649 369.98506 
L 1208.365047 355.618675 
L 1205.970649 341.252289 
L 1177.237878 341.252289 
L 1179.632275 355.618675 
z
" style="fill:#76c476;"/>
   </g>
   <g id="patch_59">
    <path clip-path="url(#p00263e6fb0)" d="M 1205.970649 369.98506 
L 1234.703421 369.98506 
L 1237.097818 355.618675 
L 1234.703421 341.252289 
L 1205.970649 341.252289 
L 1208.365047 355.618675 
z
" style="fill:#ffa24b;"/>
   </g>
   <g id="patch_60">
    <path clip-path="url(#p00263e6fb0)" d="M 1234.703421 369.98506 
L 1263.436192 369.98506 
L 1265.83059 355.618675 
L 1263.436192 341.252289 
L 1234.703421 341.252289 
L 1237.097818 355.618675 
z
" style="fill:#76c476;"/>
   </g>
   <g id="patch_61">
    <path clip-path="url(#p00263e6fb0)" d="M 1263.436192 369.98506 
L 1292.168964 369.98506 
L 1294.563361 355.618675 
L 1292.168964 341.252289 
L 1263.436192 341.252289 
L 1265.83059 355.618675 
z
" style="fill:#ffa24b;"/>
   </g>
   <g id="text_23">
    <!-- 1 -->
    <g transform="translate(736.668715 384.926102)scale(0.0675 -0.0675)">
     <use xlink:href="#DejaVuSans-49"/>
    </g>
   </g>
   <g id="text_24">
    <!-- applicat. 0 -->
    <g transform="translate(748.161824 384.926102)scale(0.0675 -0.0675)">
     <use xlink:href="#DejaVuSans-97"/>
     <use x="61.279297" xlink:href="#DejaVuSans-112"/>
     <use x="124.755859" xlink:href="#DejaVuSans-112"/>
     <use x="188.232422" xlink:href="#DejaVuSans-108"/>
     <use x="216.015625" xlink:href="#DejaVuSans-105"/>
     <use x="243.798828" xlink:href="#DejaVuSans-99"/>
     <use x="298.779297" xlink:href="#DejaVuSans-97"/>
     <use x="360.058594" xlink:href="#DejaVuSans-116"/>
     <use x="399.267578" xlink:href="#DejaVuSans-46"/>
     <use x="431.054688" xlink:href="#DejaVuSans-32"/>
     <use x="462.841797" xlink:href="#DejaVuSans-48"/>
    </g>
   </g>
   <g id="text_25">
    <!-- 1 -->
    <g transform="translate(736.668715 356.19333)scale(0.0675 -0.0675)">
     <use xlink:href="#DejaVuSans-49"/>
    </g>
   </g>
   <g id="text_26">
    <!-- offer 0 -->
    <g transform="translate(748.161824 356.19333)scale(0.0675 -0.0675)">
     <use xlink:href="#DejaVuSans-111"/>
     <use x="61.181641" xlink:href="#DejaVuSans-102"/>
     <use x="96.386719" xlink:href="#DejaVuSans-102"/>
     <use x="131.591797" xlink:href="#DejaVuSans-101"/>
     <use x="193.115234" xlink:href="#DejaVuSans-114"/>
     <use x="234.228516" xlink:href="#DejaVuSans-32"/>
     <use x="266.015625" xlink:href="#DejaVuSans-48"/>
    </g>
   </g>
   <g id="text_27">
    <!-- Frequency: 0.2 -->
    <g transform="translate(746.246305 339.464472)scale(0.0675 -0.0675)">
     <defs>
      <path d="M 19.1875 8.296875 
L 53.609375 8.296875 
L 53.609375 0 
L 7.328125 0 
L 7.328125 8.296875 
Q 12.9375 14.109375 22.625 23.890625 
Q 32.328125 33.6875 34.8125 36.53125 
Q 39.546875 41.84375 41.421875 45.53125 
Q 43.3125 49.21875 43.3125 52.78125 
Q 43.3125 58.59375 39.234375 62.25 
Q 35.15625 65.921875 28.609375 65.921875 
Q 23.96875 65.921875 18.8125 64.3125 
Q 13.671875 62.703125 7.8125 59.421875 
L 7.8125 69.390625 
Q 13.765625 71.78125 18.9375 73 
Q 24.125 74.21875 28.421875 74.21875 
Q 39.75 74.21875 46.484375 68.546875 
Q 53.21875 62.890625 53.21875 53.421875 
Q 53.21875 48.921875 51.53125 44.890625 
Q 49.859375 40.875 45.40625 35.40625 
Q 44.1875 33.984375 37.640625 27.21875 
Q 31.109375 20.453125 19.1875 8.296875 
z
" id="DejaVuSans-50"/>
     </defs>
     <use xlink:href="#DejaVuSans-70"/>
     <use x="50.269531" xlink:href="#DejaVuSans-114"/>
     <use x="89.132812" xlink:href="#DejaVuSans-101"/>
     <use x="150.65625" xlink:href="#DejaVuSans-113"/>
     <use x="214.132812" xlink:href="#DejaVuSans-117"/>
     <use x="277.511719" xlink:href="#DejaVuSans-101"/>
     <use x="339.035156" xlink:href="#DejaVuSans-110"/>
     <use x="402.414062" xlink:href="#DejaVuSans-99"/>
     <use x="457.394531" xlink:href="#DejaVuSans-121"/>
     <use x="509.324219" xlink:href="#DejaVuSans-58"/>
     <use x="543.015625" xlink:href="#DejaVuSans-32"/>
     <use x="574.802734" xlink:href="#DejaVuSans-48"/>
     <use x="638.425781" xlink:href="#DejaVuSans-46"/>
     <use x="670.212891" xlink:href="#DejaVuSans-50"/>
    </g>
   </g>
   <g id="text_28">
    <!-- Super Variant: (4, 9) -->
    <g transform="translate(746.246305 328.482168)scale(0.081 -0.081)">
     <defs>
      <path d="M 36.8125 57.421875 
L 16.21875 26.90625 
L 36.8125 26.90625 
z
M 33.6875 72.90625 
L 54.59375 72.90625 
L 54.59375 26.90625 
L 64.984375 26.90625 
L 64.984375 13.28125 
L 54.59375 13.28125 
L 54.59375 0 
L 36.8125 0 
L 36.8125 13.28125 
L 4.5 13.28125 
L 4.5 29.390625 
z
" id="DejaVuSans-Bold-52"/>
      <path d="M 10.015625 1.609375 
L 10.015625 15.09375 
Q 14.5 12.984375 18.59375 11.9375 
Q 22.703125 10.890625 26.703125 10.890625 
Q 35.109375 10.890625 39.796875 15.546875 
Q 44.484375 20.21875 45.3125 29.390625 
Q 42 26.953125 38.234375 25.734375 
Q 34.46875 24.515625 30.078125 24.515625 
Q 18.890625 24.515625 12.03125 31.03125 
Q 5.171875 37.546875 5.171875 48.1875 
Q 5.171875 59.96875 12.8125 67.046875 
Q 20.453125 74.125 33.296875 74.125 
Q 47.5625 74.125 55.375 64.5 
Q 63.1875 54.890625 63.1875 37.3125 
Q 63.1875 19.234375 54.046875 8.90625 
Q 44.921875 -1.421875 29 -1.421875 
Q 23.875 -1.421875 19.1875 -0.65625 
Q 14.5 0.09375 10.015625 1.609375 
z
M 33.203125 36.71875 
Q 38.140625 36.71875 40.625 39.90625 
Q 43.109375 43.109375 43.109375 49.515625 
Q 43.109375 55.859375 40.625 59.078125 
Q 38.140625 62.3125 33.203125 62.3125 
Q 28.265625 62.3125 25.78125 59.078125 
Q 23.296875 55.859375 23.296875 49.515625 
Q 23.296875 43.109375 25.78125 39.90625 
Q 28.265625 36.71875 33.203125 36.71875 
z
" id="DejaVuSans-Bold-57"/>
     </defs>
     <use xlink:href="#DejaVuSans-Bold-83"/>
     <use x="72.021484" xlink:href="#DejaVuSans-Bold-117"/>
     <use x="143.212891" xlink:href="#DejaVuSans-Bold-112"/>
     <use x="214.794922" xlink:href="#DejaVuSans-Bold-101"/>
     <use x="282.617188" xlink:href="#DejaVuSans-Bold-114"/>
     <use x="331.933594" xlink:href="#DejaVuSans-Bold-32"/>
     <use x="366.748047" xlink:href="#DejaVuSans-Bold-86"/>
     <use x="438.640625" xlink:href="#DejaVuSans-Bold-97"/>
     <use x="506.121094" xlink:href="#DejaVuSans-Bold-114"/>
     <use x="555.4375" xlink:href="#DejaVuSans-Bold-105"/>
     <use x="589.714844" xlink:href="#DejaVuSans-Bold-97"/>
     <use x="657.195312" xlink:href="#DejaVuSans-Bold-110"/>
     <use x="728.386719" xlink:href="#DejaVuSans-Bold-116"/>
     <use x="776.189453" xlink:href="#DejaVuSans-Bold-58"/>
     <use x="816.179688" xlink:href="#DejaVuSans-Bold-32"/>
     <use x="850.994141" xlink:href="#DejaVuSans-Bold-40"/>
     <use x="896.697266" xlink:href="#DejaVuSans-Bold-52"/>
     <use x="966.277344" xlink:href="#DejaVuSans-Bold-44"/>
     <use x="1004.265625" xlink:href="#DejaVuSans-Bold-32"/>
     <use x="1039.080078" xlink:href="#DejaVuSans-Bold-57"/>
     <use x="1108.660156" xlink:href="#DejaVuSans-Bold-41"/>
    </g>
   </g>
   <g id="patch_62">
    <path clip-path="url(#p00263e6fb0)" d="M 1004.841249 398.717832 
L 1062.306792 398.717832 
L 1064.701189 384.351446 
L 1062.306792 369.98506 
L 1004.841249 369.98506 
L 1007.235646 384.351446 
z
" style="fill:none;stroke:#000000;stroke-linejoin:miter;stroke-width:0.975;"/>
   </g>
   <g id="patch_63">
    <path clip-path="url(#p00263e6fb0)" d="M 1119.772335 398.717832 
L 1177.237878 398.717832 
L 1179.632275 384.351446 
L 1177.237878 369.98506 
L 1119.772335 369.98506 
L 1122.166732 384.351446 
z
" style="fill:none;stroke:#000000;stroke-linejoin:miter;stroke-width:0.975;"/>
   </g>
   <g id="patch_64">
    <path clip-path="url(#p00263e6fb0)" d="M 1177.237878 398.717832 
L 1234.703421 398.717832 
L 1237.097818 384.351446 
L 1234.703421 369.98506 
L 1177.237878 369.98506 
L 1179.632275 384.351446 
z
" style="fill:none;stroke:#000000;stroke-linejoin:miter;stroke-width:0.975;"/>
   </g>
   <g id="patch_65">
    <path clip-path="url(#p00263e6fb0)" d="M 1234.703421 398.717832 
L 1292.168964 398.717832 
L 1294.563361 384.351446 
L 1292.168964 369.98506 
L 1234.703421 369.98506 
L 1237.097818 384.351446 
z
" style="fill:none;stroke:#000000;stroke-linejoin:miter;stroke-width:0.975;"/>
   </g>
   <g id="patch_66">
    <path clip-path="url(#p00263e6fb0)" d="M 1004.841249 369.98506 
L 1062.306792 369.98506 
L 1064.701189 355.618675 
L 1062.306792 341.252289 
L 1004.841249 341.252289 
L 1007.235646 355.618675 
z
" style="fill:none;stroke:#000000;stroke-linejoin:miter;stroke-width:0.975;"/>
   </g>
   <g id="patch_67">
    <path clip-path="url(#p00263e6fb0)" d="M 1119.772335 369.98506 
L 1177.237878 369.98506 
L 1179.632275 355.618675 
L 1177.237878 341.252289 
L 1119.772335 341.252289 
L 1122.166732 355.618675 
z
" style="fill:none;stroke:#000000;stroke-linejoin:miter;stroke-width:0.975;"/>
   </g>
   <g id="patch_68">
    <path clip-path="url(#p00263e6fb0)" d="M 1177.237878 369.98506 
L 1234.703421 369.98506 
L 1237.097818 355.618675 
L 1234.703421 341.252289 
L 1177.237878 341.252289 
L 1179.632275 355.618675 
z
" style="fill:none;stroke:#000000;stroke-linejoin:miter;stroke-width:0.975;"/>
   </g>
   <g id="patch_69">
    <path clip-path="url(#p00263e6fb0)" d="M 1234.703421 369.98506 
L 1292.168964 369.98506 
L 1294.563361 355.618675 
L 1292.168964 341.252289 
L 1234.703421 341.252289 
L 1237.097818 355.618675 
z
" style="fill:none;stroke:#000000;stroke-linejoin:miter;stroke-width:0.975;"/>
   </g>
   <g id="text_29">
    <!-- Create appli... -->
    <g transform="translate(778.810113 384.926102)scale(0.0675 -0.0675)">
     <use xlink:href="#DejaVuSans-67"/>
     <use x="69.824219" xlink:href="#DejaVuSans-114"/>
     <use x="108.6875" xlink:href="#DejaVuSans-101"/>
     <use x="170.210938" xlink:href="#DejaVuSans-97"/>
     <use x="231.490234" xlink:href="#DejaVuSans-116"/>
     <use x="270.699219" xlink:href="#DejaVuSans-101"/>
     <use x="332.222656" xlink:href="#DejaVuSans-32"/>
     <use x="364.009766" xlink:href="#DejaVuSans-97"/>
     <use x="425.289062" xlink:href="#DejaVuSans-112"/>
     <use x="488.765625" xlink:href="#DejaVuSans-112"/>
     <use x="552.242188" xlink:href="#DejaVuSans-108"/>
     <use x="580.025391" xlink:href="#DejaVuSans-105"/>
     <use x="607.808594" xlink:href="#DejaVuSans-46"/>
     <use x="639.595703" xlink:href="#DejaVuSans-46"/>
     <use x="671.382812" xlink:href="#DejaVuSans-46"/>
    </g>
   </g>
   <g id="text_30">
    <!-- Submit -->
    <g transform="translate(836.275656 384.926102)scale(0.0675 -0.0675)">
     <use xlink:href="#DejaVuSans-83"/>
     <use x="63.476562" xlink:href="#DejaVuSans-117"/>
     <use x="126.855469" xlink:href="#DejaVuSans-98"/>
     <use x="190.332031" xlink:href="#DejaVuSans-109"/>
     <use x="287.744141" xlink:href="#DejaVuSans-105"/>
     <use x="315.527344" xlink:href="#DejaVuSans-116"/>
    </g>
   </g>
   <g id="text_31">
    <!-- Complete -->
    <g transform="translate(895.656717 384.926102)scale(0.063 -0.063)">
     <use xlink:href="#DejaVuSans-67"/>
     <use x="69.824219" xlink:href="#DejaVuSans-111"/>
     <use x="131.005859" xlink:href="#DejaVuSans-109"/>
     <use x="228.417969" xlink:href="#DejaVuSans-112"/>
     <use x="291.894531" xlink:href="#DejaVuSans-108"/>
     <use x="319.677734" xlink:href="#DejaVuSans-101"/>
     <use x="381.201172" xlink:href="#DejaVuSans-116"/>
     <use x="420.410156" xlink:href="#DejaVuSans-101"/>
    </g>
   </g>
   <g id="text_32">
    <!-- Accept -->
    <g transform="translate(951.206742 384.926102)scale(0.0675 -0.0675)">
     <use xlink:href="#DejaVuSans-65"/>
     <use x="66.658203" xlink:href="#DejaVuSans-99"/>
     <use x="121.638672" xlink:href="#DejaVuSans-99"/>
     <use x="176.619141" xlink:href="#DejaVuSans-101"/>
     <use x="238.142578" xlink:href="#DejaVuSans-112"/>
     <use x="301.619141" xlink:href="#DejaVuSans-116"/>
    </g>
   </g>
   <g id="text_33">
    <!-- Create offer -->
    <g transform="translate(1008.672285 384.926102)scale(0.0675 -0.0675)">
     <use xlink:href="#DejaVuSans-67"/>
     <use x="69.824219" xlink:href="#DejaVuSans-114"/>
     <use x="108.6875" xlink:href="#DejaVuSans-101"/>
     <use x="170.210938" xlink:href="#DejaVuSans-97"/>
     <use x="231.490234" xlink:href="#DejaVuSans-116"/>
     <use x="270.699219" xlink:href="#DejaVuSans-101"/>
     <use x="332.222656" xlink:href="#DejaVuSans-32"/>
     <use x="364.009766" xlink:href="#DejaVuSans-111"/>
     <use x="425.191406" xlink:href="#DejaVuSans-102"/>
     <use x="460.396484" xlink:href="#DejaVuSans-102"/>
     <use x="495.601562" xlink:href="#DejaVuSans-101"/>
     <use x="557.125" xlink:href="#DejaVuSans-114"/>
    </g>
   </g>
   <g id="text_34">
    <!-- Complete -->
    <g transform="translate(1068.053346 384.926102)scale(0.063 -0.063)">
     <use xlink:href="#DejaVuSans-67"/>
     <use x="69.824219" xlink:href="#DejaVuSans-111"/>
     <use x="131.005859" xlink:href="#DejaVuSans-109"/>
     <use x="228.417969" xlink:href="#DejaVuSans-112"/>
     <use x="291.894531" xlink:href="#DejaVuSans-108"/>
     <use x="319.677734" xlink:href="#DejaVuSans-101"/>
     <use x="381.201172" xlink:href="#DejaVuSans-116"/>
     <use x="420.410156" xlink:href="#DejaVuSans-101"/>
    </g>
   </g>
   <g id="text_35">
    <!-- Call -->
    <g transform="translate(1123.603371 384.926102)scale(0.0675 -0.0675)">
     <use xlink:href="#DejaVuSans-67"/>
     <use x="69.824219" xlink:href="#DejaVuSans-97"/>
     <use x="131.103516" xlink:href="#DejaVuSans-108"/>
     <use x="158.886719" xlink:href="#DejaVuSans-108"/>
    </g>
   </g>
   <g id="text_36">
    <!-- Cancel appli... -->
    <g transform="translate(1181.068914 384.926102)scale(0.0675 -0.0675)">
     <use xlink:href="#DejaVuSans-67"/>
     <use x="69.824219" xlink:href="#DejaVuSans-97"/>
     <use x="131.103516" xlink:href="#DejaVuSans-110"/>
     <use x="194.482422" xlink:href="#DejaVuSans-99"/>
     <use x="249.462891" xlink:href="#DejaVuSans-101"/>
     <use x="310.986328" xlink:href="#DejaVuSans-108"/>
     <use x="338.769531" xlink:href="#DejaVuSans-32"/>
     <use x="370.556641" xlink:href="#DejaVuSans-97"/>
     <use x="431.835938" xlink:href="#DejaVuSans-112"/>
     <use x="495.3125" xlink:href="#DejaVuSans-112"/>
     <use x="558.789062" xlink:href="#DejaVuSans-108"/>
     <use x="586.572266" xlink:href="#DejaVuSans-105"/>
     <use x="614.355469" xlink:href="#DejaVuSans-46"/>
     <use x="646.142578" xlink:href="#DejaVuSans-46"/>
     <use x="677.929688" xlink:href="#DejaVuSans-46"/>
    </g>
   </g>
   <g id="text_37">
    <!-- Cancel offer -->
    <g transform="translate(1238.534457 384.926102)scale(0.0675 -0.0675)">
     <use xlink:href="#DejaVuSans-67"/>
     <use x="69.824219" xlink:href="#DejaVuSans-97"/>
     <use x="131.103516" xlink:href="#DejaVuSans-110"/>
     <use x="194.482422" xlink:href="#DejaVuSans-99"/>
     <use x="249.462891" xlink:href="#DejaVuSans-101"/>
     <use x="310.986328" xlink:href="#DejaVuSans-108"/>
     <use x="338.769531" xlink:href="#DejaVuSans-32"/>
     <use x="370.556641" xlink:href="#DejaVuSans-111"/>
     <use x="431.738281" xlink:href="#DejaVuSans-102"/>
     <use x="466.943359" xlink:href="#DejaVuSans-102"/>
     <use x="502.148438" xlink:href="#DejaVuSans-101"/>
     <use x="563.671875" xlink:href="#DejaVuSans-114"/>
    </g>
   </g>
   <g id="text_38">
    <!-- Create offer -->
    <g transform="translate(1008.672285 356.19333)scale(0.0675 -0.0675)">
     <use xlink:href="#DejaVuSans-67"/>
     <use x="69.824219" xlink:href="#DejaVuSans-114"/>
     <use x="108.6875" xlink:href="#DejaVuSans-101"/>
     <use x="170.210938" xlink:href="#DejaVuSans-97"/>
     <use x="231.490234" xlink:href="#DejaVuSans-116"/>
     <use x="270.699219" xlink:href="#DejaVuSans-101"/>
     <use x="332.222656" xlink:href="#DejaVuSans-32"/>
     <use x="364.009766" xlink:href="#DejaVuSans-111"/>
     <use x="425.191406" xlink:href="#DejaVuSans-102"/>
     <use x="460.396484" xlink:href="#DejaVuSans-102"/>
     <use x="495.601562" xlink:href="#DejaVuSans-101"/>
     <use x="557.125" xlink:href="#DejaVuSans-114"/>
    </g>
   </g>
   <g id="text_39">
    <!-- Send (mail a... -->
    <g transform="translate(1066.137828 356.19333)scale(0.0675 -0.0675)">
     <use xlink:href="#DejaVuSans-83"/>
     <use x="63.476562" xlink:href="#DejaVuSans-101"/>
     <use x="125" xlink:href="#DejaVuSans-110"/>
     <use x="188.378906" xlink:href="#DejaVuSans-100"/>
     <use x="251.855469" xlink:href="#DejaVuSans-32"/>
     <use x="283.642578" xlink:href="#DejaVuSans-40"/>
     <use x="322.65625" xlink:href="#DejaVuSans-109"/>
     <use x="420.068359" xlink:href="#DejaVuSans-97"/>
     <use x="481.347656" xlink:href="#DejaVuSans-105"/>
     <use x="509.130859" xlink:href="#DejaVuSans-108"/>
     <use x="536.914062" xlink:href="#DejaVuSans-32"/>
     <use x="568.701172" xlink:href="#DejaVuSans-97"/>
     <use x="629.980469" xlink:href="#DejaVuSans-46"/>
     <use x="661.767578" xlink:href="#DejaVuSans-46"/>
     <use x="693.554688" xlink:href="#DejaVuSans-46"/>
    </g>
   </g>
   <g id="text_40">
    <!-- Call -->
    <g transform="translate(1123.603371 356.19333)scale(0.0675 -0.0675)">
     <use xlink:href="#DejaVuSans-67"/>
     <use x="69.824219" xlink:href="#DejaVuSans-97"/>
     <use x="131.103516" xlink:href="#DejaVuSans-108"/>
     <use x="158.886719" xlink:href="#DejaVuSans-108"/>
    </g>
   </g>
   <g id="text_41">
    <!-- Cancel appli... -->
    <g transform="translate(1181.068914 356.19333)scale(0.0675 -0.0675)">
     <use xlink:href="#DejaVuSans-67"/>
     <use x="69.824219" xlink:href="#DejaVuSans-97"/>
     <use x="131.103516" xlink:href="#DejaVuSans-110"/>
     <use x="194.482422" xlink:href="#DejaVuSans-99"/>
     <use x="249.462891" xlink:href="#DejaVuSans-101"/>
     <use x="310.986328" xlink:href="#DejaVuSans-108"/>
     <use x="338.769531" xlink:href="#DejaVuSans-32"/>
     <use x="370.556641" xlink:href="#DejaVuSans-97"/>
     <use x="431.835938" xlink:href="#DejaVuSans-112"/>
     <use x="495.3125" xlink:href="#DejaVuSans-112"/>
     <use x="558.789062" xlink:href="#DejaVuSans-108"/>
     <use x="586.572266" xlink:href="#DejaVuSans-105"/>
     <use x="614.355469" xlink:href="#DejaVuSans-46"/>
     <use x="646.142578" xlink:href="#DejaVuSans-46"/>
     <use x="677.929688" xlink:href="#DejaVuSans-46"/>
    </g>
   </g>
   <g id="text_42">
    <!-- Cancel offer -->
    <g transform="translate(1238.534457 356.19333)scale(0.0675 -0.0675)">
     <use xlink:href="#DejaVuSans-67"/>
     <use x="69.824219" xlink:href="#DejaVuSans-97"/>
     <use x="131.103516" xlink:href="#DejaVuSans-110"/>
     <use x="194.482422" xlink:href="#DejaVuSans-99"/>
     <use x="249.462891" xlink:href="#DejaVuSans-101"/>
     <use x="310.986328" xlink:href="#DejaVuSans-108"/>
     <use x="338.769531" xlink:href="#DejaVuSans-32"/>
     <use x="370.556641" xlink:href="#DejaVuSans-111"/>
     <use x="431.738281" xlink:href="#DejaVuSans-102"/>
     <use x="466.943359" xlink:href="#DejaVuSans-102"/>
     <use x="502.148438" xlink:href="#DejaVuSans-101"/>
     <use x="563.671875" xlink:href="#DejaVuSans-114"/>
    </g>
   </g>
  </g>
  <g id="text_43">
   <g id="patch_70">
    <path d="M 133.275819 388.309334 
L 274.253319 388.309334 
Q 278.253319 388.309334 278.253319 384.309334 
L 278.253319 376.566834 
Q 278.253319 372.566834 274.253319 372.566834 
L 133.275819 372.566834 
Q 129.275819 372.566834 129.275819 376.566834 
L 129.275819 384.309334 
Q 129.275819 388.309334 133.275819 388.309334 
z
" style="fill:#1a1a1a;fill-opacity:0.8;"/>
   </g>
   <!-- See Super Variant (6,) in Detail -->
   <g style="fill:#ffffff;" transform="translate(133.275819 382.645584)scale(0.08 -0.08)">
    <defs>
     <path d="M 27.984375 58.6875 
L 27.984375 14.203125 
L 34.71875 14.203125 
Q 46.234375 14.203125 52.3125 19.921875 
Q 58.40625 25.640625 58.40625 36.53125 
Q 58.40625 47.359375 52.34375 53.015625 
Q 46.296875 58.6875 34.71875 58.6875 
z
M 9.1875 72.90625 
L 29 72.90625 
Q 45.609375 72.90625 53.734375 70.53125 
Q 61.859375 68.171875 67.671875 62.5 
Q 72.796875 57.5625 75.28125 51.109375 
Q 77.78125 44.671875 77.78125 36.53125 
Q 77.78125 28.265625 75.28125 21.796875 
Q 72.796875 15.328125 67.671875 10.40625 
Q 61.8125 4.734375 53.609375 2.359375 
Q 45.40625 0 29 0 
L 9.1875 0 
z
" id="DejaVuSans-Bold-68"/>
     <path d="M 8.40625 75.984375 
L 25.875 75.984375 
L 25.875 0 
L 8.40625 0 
z
" id="DejaVuSans-Bold-108"/>
    </defs>
    <use xlink:href="#DejaVuSans-Bold-83"/>
    <use x="72.021484" xlink:href="#DejaVuSans-Bold-101"/>
    <use x="139.84375" xlink:href="#DejaVuSans-Bold-101"/>
    <use x="207.666016" xlink:href="#DejaVuSans-Bold-32"/>
    <use x="242.480469" xlink:href="#DejaVuSans-Bold-83"/>
    <use x="314.501953" xlink:href="#DejaVuSans-Bold-117"/>
    <use x="385.693359" xlink:href="#DejaVuSans-Bold-112"/>
    <use x="457.275391" xlink:href="#DejaVuSans-Bold-101"/>
    <use x="525.097656" xlink:href="#DejaVuSans-Bold-114"/>
    <use x="574.414062" xlink:href="#DejaVuSans-Bold-32"/>
    <use x="609.228516" xlink:href="#DejaVuSans-Bold-86"/>
    <use x="681.121094" xlink:href="#DejaVuSans-Bold-97"/>
    <use x="748.601562" xlink:href="#DejaVuSans-Bold-114"/>
    <use x="797.917969" xlink:href="#DejaVuSans-Bold-105"/>
    <use x="832.195312" xlink:href="#DejaVuSans-Bold-97"/>
    <use x="899.675781" xlink:href="#DejaVuSans-Bold-110"/>
    <use x="970.867188" xlink:href="#DejaVuSans-Bold-116"/>
    <use x="1018.669922" xlink:href="#DejaVuSans-Bold-32"/>
    <use x="1053.484375" xlink:href="#DejaVuSans-Bold-40"/>
    <use x="1099.1875" xlink:href="#DejaVuSans-Bold-54"/>
    <use x="1168.767578" xlink:href="#DejaVuSans-Bold-44"/>
    <use x="1206.755859" xlink:href="#DejaVuSans-Bold-41"/>
    <use x="1252.458984" xlink:href="#DejaVuSans-Bold-32"/>
    <use x="1287.273438" xlink:href="#DejaVuSans-Bold-105"/>
    <use x="1321.550781" xlink:href="#DejaVuSans-Bold-110"/>
    <use x="1392.742188" xlink:href="#DejaVuSans-Bold-32"/>
    <use x="1427.556641" xlink:href="#DejaVuSans-Bold-68"/>
    <use x="1510.564453" xlink:href="#DejaVuSans-Bold-101"/>
    <use x="1578.386719" xlink:href="#DejaVuSans-Bold-116"/>
    <use x="1626.189453" xlink:href="#DejaVuSans-Bold-97"/>
    <use x="1693.669922" xlink:href="#DejaVuSans-Bold-105"/>
    <use x="1727.947266" xlink:href="#DejaVuSans-Bold-108"/>
   </g>
  </g>
  <g id="text_44">
   <g id="patch_71">
    <path d="M 700.314702 394.381582 
L 849.643452 394.381582 
Q 853.643452 394.381582 853.643452 390.381582 
L 853.643452 382.639082 
Q 853.643452 378.639082 849.643452 378.639082 
L 700.314702 378.639082 
Q 696.314702 378.639082 696.314702 382.639082 
L 696.314702 390.381582 
Q 696.314702 394.381582 700.314702 394.381582 
z
" style="fill:#1a1a1a;fill-opacity:0.8;"/>
   </g>
   <!-- See Super Variant (4, 9) in Detail -->
   <g style="fill:#ffffff;" transform="translate(700.314702 388.717832)scale(0.08 -0.08)">
    <use xlink:href="#DejaVuSans-Bold-83"/>
    <use x="72.021484" xlink:href="#DejaVuSans-Bold-101"/>
    <use x="139.84375" xlink:href="#DejaVuSans-Bold-101"/>
    <use x="207.666016" xlink:href="#DejaVuSans-Bold-32"/>
    <use x="242.480469" xlink:href="#DejaVuSans-Bold-83"/>
    <use x="314.501953" xlink:href="#DejaVuSans-Bold-117"/>
    <use x="385.693359" xlink:href="#DejaVuSans-Bold-112"/>
    <use x="457.275391" xlink:href="#DejaVuSans-Bold-101"/>
    <use x="525.097656" xlink:href="#DejaVuSans-Bold-114"/>
    <use x="574.414062" xlink:href="#DejaVuSans-Bold-32"/>
    <use x="609.228516" xlink:href="#DejaVuSans-Bold-86"/>
    <use x="681.121094" xlink:href="#DejaVuSans-Bold-97"/>
    <use x="748.601562" xlink:href="#DejaVuSans-Bold-114"/>
    <use x="797.917969" xlink:href="#DejaVuSans-Bold-105"/>
    <use x="832.195312" xlink:href="#DejaVuSans-Bold-97"/>
    <use x="899.675781" xlink:href="#DejaVuSans-Bold-110"/>
    <use x="970.867188" xlink:href="#DejaVuSans-Bold-116"/>
    <use x="1018.669922" xlink:href="#DejaVuSans-Bold-32"/>
    <use x="1053.484375" xlink:href="#DejaVuSans-Bold-40"/>
    <use x="1099.1875" xlink:href="#DejaVuSans-Bold-52"/>
    <use x="1168.767578" xlink:href="#DejaVuSans-Bold-44"/>
    <use x="1206.755859" xlink:href="#DejaVuSans-Bold-32"/>
    <use x="1241.570312" xlink:href="#DejaVuSans-Bold-57"/>
    <use x="1311.150391" xlink:href="#DejaVuSans-Bold-41"/>
    <use x="1356.853516" xlink:href="#DejaVuSans-Bold-32"/>
    <use x="1391.667969" xlink:href="#DejaVuSans-Bold-105"/>
    <use x="1425.945312" xlink:href="#DejaVuSans-Bold-110"/>
    <use x="1497.136719" xlink:href="#DejaVuSans-Bold-32"/>
    <use x="1531.951172" xlink:href="#DejaVuSans-Bold-68"/>
    <use x="1614.958984" xlink:href="#DejaVuSans-Bold-101"/>
    <use x="1682.78125" xlink:href="#DejaVuSans-Bold-116"/>
    <use x="1730.583984" xlink:href="#DejaVuSans-Bold-97"/>
    <use x="1798.064453" xlink:href="#DejaVuSans-Bold-105"/>
    <use x="1832.341797" xlink:href="#DejaVuSans-Bold-108"/>
   </g>
  </g>
 </g>
 <defs>
  <clipPath id="pc174144163">
   <rect height="64.428387" width="549.753695" x="180" y="331.385807"/>
  </clipPath>
  <clipPath id="p00263e6fb0">
   <rect height="77.897736" width="549.753695" x="746.246305" y="324.651132"/>
  </clipPath>
 </defs>
</svg>
