<?xml version="1.0" encoding="utf-8" standalone="no"?>
<!DOCTYPE svg PUBLIC "-//W3C//DTD SVG 1.1//EN"
  "http://www.w3.org/Graphics/SVG/1.1/DTD/svg11.dtd">
<!-- Created with matplotlib (https://matplotlib.org/) -->
<svg height="702pt" version="1.1" viewBox="0 0 1382.4 702" width="1382.4pt" xmlns="http://www.w3.org/2000/svg" xmlns:xlink="http://www.w3.org/1999/xlink">
 <metadata>
  <rdf:RDF xmlns:cc="http://creativecommons.org/ns#" xmlns:dc="http://purl.org/dc/elements/1.1/" xmlns:rdf="http://www.w3.org/1999/02/22-rdf-syntax-ns#">
   <cc:Work>
    <dc:type rdf:resource="http://purl.org/dc/dcmitype/StillImage"/>
    <dc:date>2023-02-18T14:54:01.577750</dc:date>
    <dc:format>image/svg+xml</dc:format>
    <dc:creator>
     <cc:Agent>
      <dc:title>Matplotlib v3.3.4, https://matplotlib.org/</dc:title>
     </cc:Agent>
    </dc:creator>
   </cc:Work>
  </rdf:RDF>
 </metadata>
 <defs>
  <style type="text/css">*{stroke-linecap:butt;stroke-linejoin:round;}</style>
 </defs>
 <g id="figure_1">
  <g id="patch_1">
   <path d="M 0 702 
L 1382.4 702 
L 1382.4 0 
L 0 0 
z
" style="fill:#ffffff;"/>
  </g>
  <g id="axes_1">
   <g id="patch_2">
    <path clip-path="url(#p3ff3e06e4c)" d="M 172.8 373.978139 
L 714.368227 373.978139 
L 714.368227 358.049662 
L 172.8 358.049662 
z
" style="fill:#ffa24b;opacity:0.8;stroke:#ffa24b;stroke-linejoin:miter;"/>
   </g>
   <g id="patch_3">
    <path clip-path="url(#p3ff3e06e4c)" d="M 172.8 358.049662 
L 714.368227 358.049662 
L 714.368227 342.121184 
L 172.8 342.121184 
z
" style="fill:#76c476;opacity:0.8;stroke:#76c476;stroke-linejoin:miter;"/>
   </g>
   <g id="patch_4">
    <path clip-path="url(#p3ff3e06e4c)" d="M 172.8 342.121184 
L 714.368227 342.121184 
L 714.368227 326.192707 
L 172.8 326.192707 
z
" style="fill:#8ccd8c;opacity:0.8;stroke:#8ccd8c;stroke-linejoin:miter;"/>
   </g>
   <g id="patch_5">
    <path clip-path="url(#p3ff3e06e4c)" d="M 188.728477 373.978139 
L 220.585432 373.978139 
L 221.912805 366.0139 
L 220.585432 358.049662 
L 188.728477 358.049662 
L 190.05585 366.0139 
z
" style="fill:#ffa24b;stroke:#000000;stroke-linejoin:miter;stroke-width:0.975;"/>
   </g>
   <g id="patch_6">
    <path clip-path="url(#p3ff3e06e4c)" d="M 220.585432 373.978139 
L 252.442386 373.978139 
L 253.769759 366.0139 
L 252.442386 358.049662 
L 220.585432 358.049662 
L 221.912805 366.0139 
z
" style="fill:#ffa24b;stroke:#000000;stroke-linejoin:miter;stroke-width:0.975;"/>
   </g>
   <g id="patch_7">
    <path clip-path="url(#p3ff3e06e4c)" d="M 252.442386 373.978139 
L 284.299341 373.978139 
L 285.626714 366.0139 
L 284.299341 358.049662 
L 252.442386 358.049662 
L 253.769759 366.0139 
z
" style="fill:#ffa24b;stroke:#000000;stroke-linejoin:miter;stroke-width:0.975;"/>
   </g>
   <g id="patch_8">
    <path clip-path="url(#p3ff3e06e4c)" d="M 284.299341 373.978139 
L 316.156295 373.978139 
L 317.483669 366.0139 
L 316.156295 358.049662 
L 284.299341 358.049662 
L 285.626714 366.0139 
z
" style="fill:#ffa24b;stroke:#000000;stroke-linejoin:miter;stroke-width:0.975;"/>
   </g>
   <g id="patch_9">
    <path clip-path="url(#p3ff3e06e4c)" d="M 316.156295 373.978139 
L 332.084773 373.978139 
L 333.412146 366.0139 
L 332.084773 358.049662 
L 316.156295 358.049662 
L 317.483669 366.0139 
z
" style="fill:#76c476;"/>
   </g>
   <g id="patch_10">
    <path clip-path="url(#p3ff3e06e4c)" d="M 332.084773 373.978139 
L 348.01325 373.978139 
L 349.340623 366.0139 
L 348.01325 358.049662 
L 332.084773 358.049662 
L 333.412146 366.0139 
z
" style="fill:#ffa24b;"/>
   </g>
   <g id="patch_11">
    <path clip-path="url(#p3ff3e06e4c)" d="M 348.01325 373.978139 
L 379.870204 373.978139 
L 381.197578 366.0139 
L 379.870204 358.049662 
L 348.01325 358.049662 
L 349.340623 366.0139 
z
" style="fill:#ffa24b;stroke:#000000;stroke-linejoin:miter;stroke-width:0.975;"/>
   </g>
   <g id="patch_12">
    <path clip-path="url(#p3ff3e06e4c)" d="M 379.870204 373.978139 
L 395.798682 373.978139 
L 397.126055 366.0139 
L 395.798682 358.049662 
L 379.870204 358.049662 
L 381.197578 366.0139 
z
" style="fill:#76c476;"/>
   </g>
   <g id="patch_13">
    <path clip-path="url(#p3ff3e06e4c)" d="M 395.798682 373.978139 
L 411.727159 373.978139 
L 413.054532 366.0139 
L 411.727159 358.049662 
L 395.798682 358.049662 
L 397.126055 366.0139 
z
" style="fill:#ffa24b;"/>
   </g>
   <g id="patch_14">
    <path clip-path="url(#p3ff3e06e4c)" d="M 411.727159 373.978139 
L 427.655636 373.978139 
L 428.983009 366.0139 
L 427.655636 358.049662 
L 411.727159 358.049662 
L 413.054532 366.0139 
z
" style="fill:#8ccd8c;"/>
   </g>
   <g id="patch_15">
    <path clip-path="url(#p3ff3e06e4c)" d="M 427.655636 373.978139 
L 443.584114 373.978139 
L 444.911487 366.0139 
L 443.584114 358.049662 
L 427.655636 358.049662 
L 428.983009 366.0139 
z
" style="fill:#ffa24b;"/>
   </g>
   <g id="patch_16">
    <path clip-path="url(#p3ff3e06e4c)" d="M 443.584114 373.978139 
L 475.441068 373.978139 
L 476.768441 366.0139 
L 475.441068 358.049662 
L 443.584114 358.049662 
L 444.911487 366.0139 
z
" style="fill:#ffa24b;stroke:#000000;stroke-linejoin:miter;stroke-width:0.975;"/>
   </g>
   <g id="patch_17">
    <path clip-path="url(#p3ff3e06e4c)" d="M 475.441068 373.978139 
L 507.298023 373.978139 
L 508.625396 366.0139 
L 507.298023 358.049662 
L 475.441068 358.049662 
L 476.768441 366.0139 
z
" style="fill:#ffa24b;stroke:#000000;stroke-linejoin:miter;stroke-width:0.975;"/>
   </g>
   <g id="patch_18">
    <path clip-path="url(#p3ff3e06e4c)" d="M 507.298023 373.978139 
L 539.154977 373.978139 
L 540.48235 366.0139 
L 539.154977 358.049662 
L 507.298023 358.049662 
L 508.625396 366.0139 
z
" style="fill:#ffa24b;stroke:#000000;stroke-linejoin:miter;stroke-width:0.975;"/>
   </g>
   <g id="patch_19">
    <path clip-path="url(#p3ff3e06e4c)" d="M 539.154977 373.978139 
L 571.011932 373.978139 
L 572.339305 366.0139 
L 571.011932 358.049662 
L 539.154977 358.049662 
L 540.48235 366.0139 
z
" style="fill:#ffa24b;stroke:#000000;stroke-linejoin:miter;stroke-width:0.975;"/>
   </g>
   <g id="patch_20">
    <path clip-path="url(#p3ff3e06e4c)" d="M 571.011932 373.978139 
L 586.940409 373.978139 
L 588.267782 366.0139 
L 586.940409 358.049662 
L 571.011932 358.049662 
L 572.339305 366.0139 
z
" style="fill:#8ccd8c;"/>
   </g>
   <g id="patch_21">
    <path clip-path="url(#p3ff3e06e4c)" d="M 586.940409 373.978139 
L 602.868886 373.978139 
L 604.196259 366.0139 
L 602.868886 358.049662 
L 586.940409 358.049662 
L 588.267782 366.0139 
z
" style="fill:#ffa24b;"/>
   </g>
   <g id="patch_22">
    <path clip-path="url(#p3ff3e06e4c)" d="M 602.868886 373.978139 
L 634.725841 373.978139 
L 636.053214 366.0139 
L 634.725841 358.049662 
L 602.868886 358.049662 
L 604.196259 366.0139 
z
" style="fill:#ffa24b;stroke:#000000;stroke-linejoin:miter;stroke-width:0.975;"/>
   </g>
   <g id="patch_23">
    <path clip-path="url(#p3ff3e06e4c)" d="M 634.725841 373.978139 
L 666.582795 373.978139 
L 667.910168 366.0139 
L 666.582795 358.049662 
L 634.725841 358.049662 
L 636.053214 366.0139 
z
" style="fill:#ffa24b;stroke:#000000;stroke-linejoin:miter;stroke-width:0.975;"/>
   </g>
   <g id="patch_24">
    <path clip-path="url(#p3ff3e06e4c)" d="M 666.582795 373.978139 
L 682.511273 373.978139 
L 683.838646 366.0139 
L 682.511273 358.049662 
L 666.582795 358.049662 
L 667.910168 366.0139 
z
" style="fill:#76c476;"/>
   </g>
   <g id="patch_25">
    <path clip-path="url(#p3ff3e06e4c)" d="M 682.511273 373.978139 
L 698.43975 373.978139 
L 699.767123 366.0139 
L 698.43975 358.049662 
L 682.511273 358.049662 
L 683.838646 366.0139 
z
" style="fill:#ffa24b;"/>
   </g>
   <g id="patch_26">
    <path clip-path="url(#p3ff3e06e4c)" d="M 316.156295 358.049662 
L 332.084773 358.049662 
L 333.412146 350.085423 
L 332.084773 342.121184 
L 316.156295 342.121184 
L 317.483669 350.085423 
z
" style="fill:#76c476;"/>
   </g>
   <g id="patch_27">
    <path clip-path="url(#p3ff3e06e4c)" d="M 332.084773 358.049662 
L 348.01325 358.049662 
L 349.340623 350.085423 
L 348.01325 342.121184 
L 332.084773 342.121184 
L 333.412146 350.085423 
z
" style="fill:#ffa24b;"/>
   </g>
   <g id="patch_28">
    <path clip-path="url(#p3ff3e06e4c)" d="M 348.01325 358.049662 
L 379.870204 358.049662 
L 381.197578 350.085423 
L 379.870204 342.121184 
L 348.01325 342.121184 
L 349.340623 350.085423 
z
" style="fill:#76c476;stroke:#000000;stroke-linejoin:miter;stroke-width:0.975;"/>
   </g>
   <g id="patch_29">
    <path clip-path="url(#p3ff3e06e4c)" d="M 379.870204 358.049662 
L 395.798682 358.049662 
L 397.126055 350.085423 
L 395.798682 342.121184 
L 379.870204 342.121184 
L 381.197578 350.085423 
z
" style="fill:#76c476;"/>
   </g>
   <g id="patch_30">
    <path clip-path="url(#p3ff3e06e4c)" d="M 395.798682 358.049662 
L 411.727159 358.049662 
L 413.054532 350.085423 
L 411.727159 342.121184 
L 395.798682 342.121184 
L 397.126055 350.085423 
z
" style="fill:#ffa24b;"/>
   </g>
   <g id="patch_31">
    <path clip-path="url(#p3ff3e06e4c)" d="M 666.582795 358.049662 
L 682.511273 358.049662 
L 683.838646 350.085423 
L 682.511273 342.121184 
L 666.582795 342.121184 
L 667.910168 350.085423 
z
" style="fill:#76c476;"/>
   </g>
   <g id="patch_32">
    <path clip-path="url(#p3ff3e06e4c)" d="M 682.511273 358.049662 
L 698.43975 358.049662 
L 699.767123 350.085423 
L 698.43975 342.121184 
L 682.511273 342.121184 
L 683.838646 350.085423 
z
" style="fill:#ffa24b;"/>
   </g>
   <g id="patch_33">
    <path clip-path="url(#p3ff3e06e4c)" d="M 411.727159 342.121184 
L 427.655636 342.121184 
L 428.983009 334.156946 
L 427.655636 326.192707 
L 411.727159 326.192707 
L 413.054532 334.156946 
z
" style="fill:#8ccd8c;"/>
   </g>
   <g id="patch_34">
    <path clip-path="url(#p3ff3e06e4c)" d="M 427.655636 342.121184 
L 443.584114 342.121184 
L 444.911487 334.156946 
L 443.584114 326.192707 
L 427.655636 326.192707 
L 428.983009 334.156946 
z
" style="fill:#ffa24b;"/>
   </g>
   <g id="patch_35">
    <path clip-path="url(#p3ff3e06e4c)" d="M 507.298023 342.121184 
L 539.154977 342.121184 
L 540.48235 334.156946 
L 539.154977 326.192707 
L 507.298023 326.192707 
L 508.625396 334.156946 
z
" style="fill:#8ccd8c;stroke:#000000;stroke-linejoin:miter;stroke-width:0.975;"/>
   </g>
   <g id="patch_36">
    <path clip-path="url(#p3ff3e06e4c)" d="M 539.154977 342.121184 
L 571.011932 342.121184 
L 572.339305 334.156946 
L 571.011932 326.192707 
L 539.154977 326.192707 
L 540.48235 334.156946 
z
" style="fill:#8ccd8c;stroke:#000000;stroke-linejoin:miter;stroke-width:0.975;"/>
   </g>
   <g id="patch_37">
    <path clip-path="url(#p3ff3e06e4c)" d="M 571.011932 342.121184 
L 586.940409 342.121184 
L 588.267782 334.156946 
L 586.940409 326.192707 
L 571.011932 326.192707 
L 572.339305 334.156946 
z
" style="fill:#8ccd8c;"/>
   </g>
   <g id="patch_38">
    <path clip-path="url(#p3ff3e06e4c)" d="M 586.940409 342.121184 
L 602.868886 342.121184 
L 604.196259 334.156946 
L 602.868886 326.192707 
L 586.940409 326.192707 
L 588.267782 334.156946 
z
" style="fill:#ffa24b;"/>
   </g>
   <g id="text_1">
    <!-- 1 -->
    <g transform="translate(167.490508 366.33247)scale(0.0675 -0.0675)">
     <defs>
      <path d="M 12.40625 8.296875 
L 28.515625 8.296875 
L 28.515625 63.921875 
L 10.984375 60.40625 
L 10.984375 69.390625 
L 28.421875 72.90625 
L 38.28125 72.90625 
L 38.28125 8.296875 
L 54.390625 8.296875 
L 54.390625 0 
L 12.40625 0 
z
" id="DejaVuSans-49"/>
     </defs>
     <use xlink:href="#DejaVuSans-49"/>
    </g>
   </g>
   <g id="text_2">
    <!-- applicat. 0 -->
    <g transform="translate(173.861898 366.33247)scale(0.0675 -0.0675)">
     <defs>
      <path d="M 34.28125 27.484375 
Q 23.390625 27.484375 19.1875 25 
Q 14.984375 22.515625 14.984375 16.5 
Q 14.984375 11.71875 18.140625 8.90625 
Q 21.296875 6.109375 26.703125 6.109375 
Q 34.1875 6.109375 38.703125 11.40625 
Q 43.21875 16.703125 43.21875 25.484375 
L 43.21875 27.484375 
z
M 52.203125 31.203125 
L 52.203125 0 
L 43.21875 0 
L 43.21875 8.296875 
Q 40.140625 3.328125 35.546875 0.953125 
Q 30.953125 -1.421875 24.3125 -1.421875 
Q 15.921875 -1.421875 10.953125 3.296875 
Q 6 8.015625 6 15.921875 
Q 6 25.140625 12.171875 29.828125 
Q 18.359375 34.515625 30.609375 34.515625 
L 43.21875 34.515625 
L 43.21875 35.40625 
Q 43.21875 41.609375 39.140625 45 
Q 35.0625 48.390625 27.6875 48.390625 
Q 23 48.390625 18.546875 47.265625 
Q 14.109375 46.140625 10.015625 43.890625 
L 10.015625 52.203125 
Q 14.9375 54.109375 19.578125 55.046875 
Q 24.21875 56 28.609375 56 
Q 40.484375 56 46.34375 49.84375 
Q 52.203125 43.703125 52.203125 31.203125 
z
" id="DejaVuSans-97"/>
      <path d="M 18.109375 8.203125 
L 18.109375 -20.796875 
L 9.078125 -20.796875 
L 9.078125 54.6875 
L 18.109375 54.6875 
L 18.109375 46.390625 
Q 20.953125 51.265625 25.265625 53.625 
Q 29.59375 56 35.59375 56 
Q 45.5625 56 51.78125 48.09375 
Q 58.015625 40.1875 58.015625 27.296875 
Q 58.015625 14.40625 51.78125 6.484375 
Q 45.5625 -1.421875 35.59375 -1.421875 
Q 29.59375 -1.421875 25.265625 0.953125 
Q 20.953125 3.328125 18.109375 8.203125 
z
M 48.6875 27.296875 
Q 48.6875 37.203125 44.609375 42.84375 
Q 40.53125 48.484375 33.40625 48.484375 
Q 26.265625 48.484375 22.1875 42.84375 
Q 18.109375 37.203125 18.109375 27.296875 
Q 18.109375 17.390625 22.1875 11.75 
Q 26.265625 6.109375 33.40625 6.109375 
Q 40.53125 6.109375 44.609375 11.75 
Q 48.6875 17.390625 48.6875 27.296875 
z
" id="DejaVuSans-112"/>
      <path d="M 9.421875 75.984375 
L 18.40625 75.984375 
L 18.40625 0 
L 9.421875 0 
z
" id="DejaVuSans-108"/>
      <path d="M 9.421875 54.6875 
L 18.40625 54.6875 
L 18.40625 0 
L 9.421875 0 
z
M 9.421875 75.984375 
L 18.40625 75.984375 
L 18.40625 64.59375 
L 9.421875 64.59375 
z
" id="DejaVuSans-105"/>
      <path d="M 48.78125 52.59375 
L 48.78125 44.1875 
Q 44.96875 46.296875 41.140625 47.34375 
Q 37.3125 48.390625 33.40625 48.390625 
Q 24.65625 48.390625 19.8125 42.84375 
Q 14.984375 37.3125 14.984375 27.296875 
Q 14.984375 17.28125 19.8125 11.734375 
Q 24.65625 6.203125 33.40625 6.203125 
Q 37.3125 6.203125 41.140625 7.25 
Q 44.96875 8.296875 48.78125 10.40625 
L 48.78125 2.09375 
Q 45.015625 0.34375 40.984375 -0.53125 
Q 36.96875 -1.421875 32.421875 -1.421875 
Q 20.0625 -1.421875 12.78125 6.34375 
Q 5.515625 14.109375 5.515625 27.296875 
Q 5.515625 40.671875 12.859375 48.328125 
Q 20.21875 56 33.015625 56 
Q 37.15625 56 41.109375 55.140625 
Q 45.0625 54.296875 48.78125 52.59375 
z
" id="DejaVuSans-99"/>
      <path d="M 18.3125 70.21875 
L 18.3125 54.6875 
L 36.8125 54.6875 
L 36.8125 47.703125 
L 18.3125 47.703125 
L 18.3125 18.015625 
Q 18.3125 11.328125 20.140625 9.421875 
Q 21.96875 7.515625 27.59375 7.515625 
L 36.8125 7.515625 
L 36.8125 0 
L 27.59375 0 
Q 17.1875 0 13.234375 3.875 
Q 9.28125 7.765625 9.28125 18.015625 
L 9.28125 47.703125 
L 2.6875 47.703125 
L 2.6875 54.6875 
L 9.28125 54.6875 
L 9.28125 70.21875 
z
" id="DejaVuSans-116"/>
      <path d="M 10.6875 12.40625 
L 21 12.40625 
L 21 0 
L 10.6875 0 
z
" id="DejaVuSans-46"/>
      <path id="DejaVuSans-32"/>
      <path d="M 31.78125 66.40625 
Q 24.171875 66.40625 20.328125 58.90625 
Q 16.5 51.421875 16.5 36.375 
Q 16.5 21.390625 20.328125 13.890625 
Q 24.171875 6.390625 31.78125 6.390625 
Q 39.453125 6.390625 43.28125 13.890625 
Q 47.125 21.390625 47.125 36.375 
Q 47.125 51.421875 43.28125 58.90625 
Q 39.453125 66.40625 31.78125 66.40625 
z
M 31.78125 74.21875 
Q 44.046875 74.21875 50.515625 64.515625 
Q 56.984375 54.828125 56.984375 36.375 
Q 56.984375 17.96875 50.515625 8.265625 
Q 44.046875 -1.421875 31.78125 -1.421875 
Q 19.53125 -1.421875 13.0625 8.265625 
Q 6.59375 17.96875 6.59375 36.375 
Q 6.59375 54.828125 13.0625 64.515625 
Q 19.53125 74.21875 31.78125 74.21875 
z
" id="DejaVuSans-48"/>
     </defs>
     <use xlink:href="#DejaVuSans-97"/>
     <use x="61.279297" xlink:href="#DejaVuSans-112"/>
     <use x="124.755859" xlink:href="#DejaVuSans-112"/>
     <use x="188.232422" xlink:href="#DejaVuSans-108"/>
     <use x="216.015625" xlink:href="#DejaVuSans-105"/>
     <use x="243.798828" xlink:href="#DejaVuSans-99"/>
     <use x="298.779297" xlink:href="#DejaVuSans-97"/>
     <use x="360.058594" xlink:href="#DejaVuSans-116"/>
     <use x="399.267578" xlink:href="#DejaVuSans-46"/>
     <use x="431.054688" xlink:href="#DejaVuSans-32"/>
     <use x="462.841797" xlink:href="#DejaVuSans-48"/>
    </g>
   </g>
   <g id="text_3">
    <!-- 1 -->
    <g transform="translate(167.490508 350.403993)scale(0.0675 -0.0675)">
     <use xlink:href="#DejaVuSans-49"/>
    </g>
   </g>
   <g id="text_4">
    <!-- offer 0 -->
    <g transform="translate(173.861898 350.403993)scale(0.0675 -0.0675)">
     <defs>
      <path d="M 30.609375 48.390625 
Q 23.390625 48.390625 19.1875 42.75 
Q 14.984375 37.109375 14.984375 27.296875 
Q 14.984375 17.484375 19.15625 11.84375 
Q 23.34375 6.203125 30.609375 6.203125 
Q 37.796875 6.203125 41.984375 11.859375 
Q 46.1875 17.53125 46.1875 27.296875 
Q 46.1875 37.015625 41.984375 42.703125 
Q 37.796875 48.390625 30.609375 48.390625 
z
M 30.609375 56 
Q 42.328125 56 49.015625 48.375 
Q 55.71875 40.765625 55.71875 27.296875 
Q 55.71875 13.875 49.015625 6.21875 
Q 42.328125 -1.421875 30.609375 -1.421875 
Q 18.84375 -1.421875 12.171875 6.21875 
Q 5.515625 13.875 5.515625 27.296875 
Q 5.515625 40.765625 12.171875 48.375 
Q 18.84375 56 30.609375 56 
z
" id="DejaVuSans-111"/>
      <path d="M 37.109375 75.984375 
L 37.109375 68.5 
L 28.515625 68.5 
Q 23.6875 68.5 21.796875 66.546875 
Q 19.921875 64.59375 19.921875 59.515625 
L 19.921875 54.6875 
L 34.71875 54.6875 
L 34.71875 47.703125 
L 19.921875 47.703125 
L 19.921875 0 
L 10.890625 0 
L 10.890625 47.703125 
L 2.296875 47.703125 
L 2.296875 54.6875 
L 10.890625 54.6875 
L 10.890625 58.5 
Q 10.890625 67.625 15.140625 71.796875 
Q 19.390625 75.984375 28.609375 75.984375 
z
" id="DejaVuSans-102"/>
      <path d="M 56.203125 29.59375 
L 56.203125 25.203125 
L 14.890625 25.203125 
Q 15.484375 15.921875 20.484375 11.0625 
Q 25.484375 6.203125 34.421875 6.203125 
Q 39.59375 6.203125 44.453125 7.46875 
Q 49.3125 8.734375 54.109375 11.28125 
L 54.109375 2.78125 
Q 49.265625 0.734375 44.1875 -0.34375 
Q 39.109375 -1.421875 33.890625 -1.421875 
Q 20.796875 -1.421875 13.15625 6.1875 
Q 5.515625 13.8125 5.515625 26.8125 
Q 5.515625 40.234375 12.765625 48.109375 
Q 20.015625 56 32.328125 56 
Q 43.359375 56 49.78125 48.890625 
Q 56.203125 41.796875 56.203125 29.59375 
z
M 47.21875 32.234375 
Q 47.125 39.59375 43.09375 43.984375 
Q 39.0625 48.390625 32.421875 48.390625 
Q 24.90625 48.390625 20.390625 44.140625 
Q 15.875 39.890625 15.1875 32.171875 
z
" id="DejaVuSans-101"/>
      <path d="M 41.109375 46.296875 
Q 39.59375 47.171875 37.8125 47.578125 
Q 36.03125 48 33.890625 48 
Q 26.265625 48 22.1875 43.046875 
Q 18.109375 38.09375 18.109375 28.8125 
L 18.109375 0 
L 9.078125 0 
L 9.078125 54.6875 
L 18.109375 54.6875 
L 18.109375 46.1875 
Q 20.953125 51.171875 25.484375 53.578125 
Q 30.03125 56 36.53125 56 
Q 37.453125 56 38.578125 55.875 
Q 39.703125 55.765625 41.0625 55.515625 
z
" id="DejaVuSans-114"/>
     </defs>
     <use xlink:href="#DejaVuSans-111"/>
     <use x="61.181641" xlink:href="#DejaVuSans-102"/>
     <use x="96.386719" xlink:href="#DejaVuSans-102"/>
     <use x="131.591797" xlink:href="#DejaVuSans-101"/>
     <use x="193.115234" xlink:href="#DejaVuSans-114"/>
     <use x="234.228516" xlink:href="#DejaVuSans-32"/>
     <use x="266.015625" xlink:href="#DejaVuSans-48"/>
    </g>
   </g>
   <g id="text_5">
    <!-- 1 -->
    <g transform="translate(167.490508 334.475515)scale(0.0675 -0.0675)">
     <use xlink:href="#DejaVuSans-49"/>
    </g>
   </g>
   <g id="text_6">
    <!-- offer 1 -->
    <g transform="translate(173.861898 334.475515)scale(0.0675 -0.0675)">
     <use xlink:href="#DejaVuSans-111"/>
     <use x="61.181641" xlink:href="#DejaVuSans-102"/>
     <use x="96.386719" xlink:href="#DejaVuSans-102"/>
     <use x="131.591797" xlink:href="#DejaVuSans-101"/>
     <use x="193.115234" xlink:href="#DejaVuSans-114"/>
     <use x="234.228516" xlink:href="#DejaVuSans-32"/>
     <use x="266.015625" xlink:href="#DejaVuSans-49"/>
    </g>
   </g>
   <g id="text_7">
    <!-- Frequency: 0.1 -->
    <g transform="translate(172.8 325.201602)scale(0.0675 -0.0675)">
     <defs>
      <path d="M 9.8125 72.90625 
L 51.703125 72.90625 
L 51.703125 64.59375 
L 19.671875 64.59375 
L 19.671875 43.109375 
L 48.578125 43.109375 
L 48.578125 34.8125 
L 19.671875 34.8125 
L 19.671875 0 
L 9.8125 0 
z
" id="DejaVuSans-70"/>
      <path d="M 14.796875 27.296875 
Q 14.796875 17.390625 18.875 11.75 
Q 22.953125 6.109375 30.078125 6.109375 
Q 37.203125 6.109375 41.296875 11.75 
Q 45.40625 17.390625 45.40625 27.296875 
Q 45.40625 37.203125 41.296875 42.84375 
Q 37.203125 48.484375 30.078125 48.484375 
Q 22.953125 48.484375 18.875 42.84375 
Q 14.796875 37.203125 14.796875 27.296875 
z
M 45.40625 8.203125 
Q 42.578125 3.328125 38.25 0.953125 
Q 33.9375 -1.421875 27.875 -1.421875 
Q 17.96875 -1.421875 11.734375 6.484375 
Q 5.515625 14.40625 5.515625 27.296875 
Q 5.515625 40.1875 11.734375 48.09375 
Q 17.96875 56 27.875 56 
Q 33.9375 56 38.25 53.625 
Q 42.578125 51.265625 45.40625 46.390625 
L 45.40625 54.6875 
L 54.390625 54.6875 
L 54.390625 -20.796875 
L 45.40625 -20.796875 
z
" id="DejaVuSans-113"/>
      <path d="M 8.5 21.578125 
L 8.5 54.6875 
L 17.484375 54.6875 
L 17.484375 21.921875 
Q 17.484375 14.15625 20.5 10.265625 
Q 23.53125 6.390625 29.59375 6.390625 
Q 36.859375 6.390625 41.078125 11.03125 
Q 45.3125 15.671875 45.3125 23.6875 
L 45.3125 54.6875 
L 54.296875 54.6875 
L 54.296875 0 
L 45.3125 0 
L 45.3125 8.40625 
Q 42.046875 3.421875 37.71875 1 
Q 33.40625 -1.421875 27.6875 -1.421875 
Q 18.265625 -1.421875 13.375 4.4375 
Q 8.5 10.296875 8.5 21.578125 
z
M 31.109375 56 
z
" id="DejaVuSans-117"/>
      <path d="M 54.890625 33.015625 
L 54.890625 0 
L 45.90625 0 
L 45.90625 32.71875 
Q 45.90625 40.484375 42.875 44.328125 
Q 39.84375 48.1875 33.796875 48.1875 
Q 26.515625 48.1875 22.3125 43.546875 
Q 18.109375 38.921875 18.109375 30.90625 
L 18.109375 0 
L 9.078125 0 
L 9.078125 54.6875 
L 18.109375 54.6875 
L 18.109375 46.1875 
Q 21.34375 51.125 25.703125 53.5625 
Q 30.078125 56 35.796875 56 
Q 45.21875 56 50.046875 50.171875 
Q 54.890625 44.34375 54.890625 33.015625 
z
" id="DejaVuSans-110"/>
      <path d="M 32.171875 -5.078125 
Q 28.375 -14.84375 24.75 -17.8125 
Q 21.140625 -20.796875 15.09375 -20.796875 
L 7.90625 -20.796875 
L 7.90625 -13.28125 
L 13.1875 -13.28125 
Q 16.890625 -13.28125 18.9375 -11.515625 
Q 21 -9.765625 23.484375 -3.21875 
L 25.09375 0.875 
L 2.984375 54.6875 
L 12.5 54.6875 
L 29.59375 11.921875 
L 46.6875 54.6875 
L 56.203125 54.6875 
z
" id="DejaVuSans-121"/>
      <path d="M 11.71875 12.40625 
L 22.015625 12.40625 
L 22.015625 0 
L 11.71875 0 
z
M 11.71875 51.703125 
L 22.015625 51.703125 
L 22.015625 39.3125 
L 11.71875 39.3125 
z
" id="DejaVuSans-58"/>
     </defs>
     <use xlink:href="#DejaVuSans-70"/>
     <use x="50.269531" xlink:href="#DejaVuSans-114"/>
     <use x="89.132812" xlink:href="#DejaVuSans-101"/>
     <use x="150.65625" xlink:href="#DejaVuSans-113"/>
     <use x="214.132812" xlink:href="#DejaVuSans-117"/>
     <use x="277.511719" xlink:href="#DejaVuSans-101"/>
     <use x="339.035156" xlink:href="#DejaVuSans-110"/>
     <use x="402.414062" xlink:href="#DejaVuSans-99"/>
     <use x="457.394531" xlink:href="#DejaVuSans-121"/>
     <use x="509.324219" xlink:href="#DejaVuSans-58"/>
     <use x="543.015625" xlink:href="#DejaVuSans-32"/>
     <use x="574.802734" xlink:href="#DejaVuSans-48"/>
     <use x="638.425781" xlink:href="#DejaVuSans-46"/>
     <use x="670.212891" xlink:href="#DejaVuSans-49"/>
    </g>
   </g>
   <g id="text_8">
    <!-- Super Variant: (3,) -->
    <g transform="translate(172.8 319.113384)scale(0.081 -0.081)">
     <defs>
      <path d="M 59.90625 70.609375 
L 59.90625 55.171875 
Q 53.90625 57.859375 48.1875 59.21875 
Q 42.484375 60.59375 37.40625 60.59375 
Q 30.671875 60.59375 27.4375 58.734375 
Q 24.21875 56.890625 24.21875 52.984375 
Q 24.21875 50.046875 26.390625 48.40625 
Q 28.5625 46.78125 34.28125 45.609375 
L 42.28125 44 
Q 54.4375 41.546875 59.5625 36.5625 
Q 64.703125 31.59375 64.703125 22.40625 
Q 64.703125 10.359375 57.546875 4.46875 
Q 50.390625 -1.421875 35.6875 -1.421875 
Q 28.765625 -1.421875 21.78125 -0.09375 
Q 14.796875 1.21875 7.8125 3.8125 
L 7.8125 19.671875 
Q 14.796875 15.96875 21.3125 14.078125 
Q 27.828125 12.203125 33.890625 12.203125 
Q 40.046875 12.203125 43.3125 14.25 
Q 46.578125 16.3125 46.578125 20.125 
Q 46.578125 23.53125 44.359375 25.390625 
Q 42.140625 27.25 35.5 28.71875 
L 28.21875 30.328125 
Q 17.28125 32.671875 12.21875 37.796875 
Q 7.171875 42.921875 7.171875 51.609375 
Q 7.171875 62.5 14.203125 68.359375 
Q 21.234375 74.21875 34.421875 74.21875 
Q 40.4375 74.21875 46.78125 73.3125 
Q 53.125 72.40625 59.90625 70.609375 
z
" id="DejaVuSans-Bold-83"/>
      <path d="M 7.8125 21.296875 
L 7.8125 54.6875 
L 25.390625 54.6875 
L 25.390625 49.21875 
Q 25.390625 44.78125 25.34375 38.0625 
Q 25.296875 31.34375 25.296875 29.109375 
Q 25.296875 22.515625 25.640625 19.609375 
Q 25.984375 16.703125 26.8125 15.375 
Q 27.875 13.671875 29.609375 12.734375 
Q 31.34375 11.8125 33.59375 11.8125 
Q 39.0625 11.8125 42.1875 16.015625 
Q 45.3125 20.21875 45.3125 27.6875 
L 45.3125 54.6875 
L 62.796875 54.6875 
L 62.796875 0 
L 45.3125 0 
L 45.3125 7.90625 
Q 41.359375 3.125 36.9375 0.84375 
Q 32.515625 -1.421875 27.203125 -1.421875 
Q 17.71875 -1.421875 12.765625 4.390625 
Q 7.8125 10.203125 7.8125 21.296875 
z
" id="DejaVuSans-Bold-117"/>
      <path d="M 25.875 7.90625 
L 25.875 -20.796875 
L 8.40625 -20.796875 
L 8.40625 54.6875 
L 25.875 54.6875 
L 25.875 46.6875 
Q 29.5 51.46875 33.890625 53.734375 
Q 38.28125 56 44 56 
Q 54.109375 56 60.59375 47.96875 
Q 67.09375 39.9375 67.09375 27.296875 
Q 67.09375 14.65625 60.59375 6.609375 
Q 54.109375 -1.421875 44 -1.421875 
Q 38.28125 -1.421875 33.890625 0.84375 
Q 29.5 3.125 25.875 7.90625 
z
M 37.5 43.3125 
Q 31.890625 43.3125 28.875 39.1875 
Q 25.875 35.0625 25.875 27.296875 
Q 25.875 19.53125 28.875 15.40625 
Q 31.890625 11.28125 37.5 11.28125 
Q 43.109375 11.28125 46.0625 15.375 
Q 49.03125 19.484375 49.03125 27.296875 
Q 49.03125 35.109375 46.0625 39.203125 
Q 43.109375 43.3125 37.5 43.3125 
z
" id="DejaVuSans-Bold-112"/>
      <path d="M 62.984375 27.484375 
L 62.984375 22.515625 
L 22.125 22.515625 
Q 22.75 16.359375 26.5625 13.28125 
Q 30.375 10.203125 37.203125 10.203125 
Q 42.71875 10.203125 48.5 11.84375 
Q 54.296875 13.484375 60.40625 16.796875 
L 60.40625 3.328125 
Q 54.203125 0.984375 48 -0.21875 
Q 41.796875 -1.421875 35.59375 -1.421875 
Q 20.75 -1.421875 12.515625 6.125 
Q 4.296875 13.671875 4.296875 27.296875 
Q 4.296875 40.671875 12.375 48.328125 
Q 20.453125 56 34.625 56 
Q 47.515625 56 55.25 48.234375 
Q 62.984375 40.484375 62.984375 27.484375 
z
M 45.015625 33.296875 
Q 45.015625 38.28125 42.109375 41.328125 
Q 39.203125 44.390625 34.515625 44.390625 
Q 29.4375 44.390625 26.265625 41.53125 
Q 23.09375 38.671875 22.3125 33.296875 
z
" id="DejaVuSans-Bold-101"/>
      <path d="M 49.03125 39.796875 
Q 46.734375 40.875 44.453125 41.375 
Q 42.1875 41.890625 39.890625 41.890625 
Q 33.15625 41.890625 29.515625 37.5625 
Q 25.875 33.25 25.875 25.203125 
L 25.875 0 
L 8.40625 0 
L 8.40625 54.6875 
L 25.875 54.6875 
L 25.875 45.703125 
Q 29.25 51.078125 33.609375 53.53125 
Q 37.984375 56 44.09375 56 
Q 44.96875 56 45.984375 55.921875 
Q 47.015625 55.859375 48.96875 55.609375 
z
" id="DejaVuSans-Bold-114"/>
      <path id="DejaVuSans-Bold-32"/>
      <path d="M 0.484375 72.90625 
L 19.390625 72.90625 
L 38.71875 19.09375 
L 58.015625 72.90625 
L 76.90625 72.90625 
L 49.90625 0 
L 27.484375 0 
z
" id="DejaVuSans-Bold-86"/>
      <path d="M 32.90625 24.609375 
Q 27.4375 24.609375 24.671875 22.75 
Q 21.921875 20.90625 21.921875 17.28125 
Q 21.921875 13.96875 24.140625 12.078125 
Q 26.375 10.203125 30.328125 10.203125 
Q 35.25 10.203125 38.625 13.734375 
Q 42 17.28125 42 22.609375 
L 42 24.609375 
z
M 59.625 31.203125 
L 59.625 0 
L 42 0 
L 42 8.109375 
Q 38.484375 3.125 34.078125 0.84375 
Q 29.6875 -1.421875 23.390625 -1.421875 
Q 14.890625 -1.421875 9.59375 3.53125 
Q 4.296875 8.5 4.296875 16.40625 
Q 4.296875 26.03125 10.90625 30.515625 
Q 17.53125 35.015625 31.6875 35.015625 
L 42 35.015625 
L 42 36.375 
Q 42 40.53125 38.71875 42.453125 
Q 35.453125 44.390625 28.515625 44.390625 
Q 22.90625 44.390625 18.0625 43.265625 
Q 13.234375 42.140625 9.078125 39.890625 
L 9.078125 53.21875 
Q 14.703125 54.59375 20.359375 55.296875 
Q 26.03125 56 31.6875 56 
Q 46.484375 56 53.046875 50.171875 
Q 59.625 44.34375 59.625 31.203125 
z
" id="DejaVuSans-Bold-97"/>
      <path d="M 8.40625 54.6875 
L 25.875 54.6875 
L 25.875 0 
L 8.40625 0 
z
M 8.40625 75.984375 
L 25.875 75.984375 
L 25.875 61.71875 
L 8.40625 61.71875 
z
" id="DejaVuSans-Bold-105"/>
      <path d="M 63.375 33.296875 
L 63.375 0 
L 45.796875 0 
L 45.796875 5.421875 
L 45.796875 25.484375 
Q 45.796875 32.5625 45.484375 35.25 
Q 45.171875 37.9375 44.390625 39.203125 
Q 43.359375 40.921875 41.59375 41.875 
Q 39.84375 42.828125 37.59375 42.828125 
Q 32.125 42.828125 29 38.59375 
Q 25.875 34.375 25.875 26.90625 
L 25.875 0 
L 8.40625 0 
L 8.40625 54.6875 
L 25.875 54.6875 
L 25.875 46.6875 
Q 29.828125 51.46875 34.265625 53.734375 
Q 38.71875 56 44.09375 56 
Q 53.5625 56 58.46875 50.1875 
Q 63.375 44.390625 63.375 33.296875 
z
" id="DejaVuSans-Bold-110"/>
      <path d="M 27.484375 70.21875 
L 27.484375 54.6875 
L 45.515625 54.6875 
L 45.515625 42.1875 
L 27.484375 42.1875 
L 27.484375 19 
Q 27.484375 15.1875 29 13.84375 
Q 30.515625 12.5 35.015625 12.5 
L 44 12.5 
L 44 0 
L 29 0 
Q 18.65625 0 14.328125 4.3125 
Q 10.015625 8.640625 10.015625 19 
L 10.015625 42.1875 
L 1.3125 42.1875 
L 1.3125 54.6875 
L 10.015625 54.6875 
L 10.015625 70.21875 
z
" id="DejaVuSans-Bold-116"/>
      <path d="M 11.1875 54.6875 
L 28.8125 54.6875 
L 28.8125 35.796875 
L 11.1875 35.796875 
z
M 11.1875 18.890625 
L 28.8125 18.890625 
L 28.8125 0 
L 11.1875 0 
z
" id="DejaVuSans-Bold-58"/>
      <path d="M 37.703125 -13.1875 
L 23.1875 -13.1875 
Q 15.71875 -1.125 12.15625 9.734375 
Q 8.59375 20.609375 8.59375 31.296875 
Q 8.59375 42 12.171875 52.953125 
Q 15.765625 63.921875 23.1875 75.875 
L 37.703125 75.875 
Q 31.453125 64.3125 28.328125 53.25 
Q 25.203125 42.1875 25.203125 31.390625 
Q 25.203125 20.609375 28.296875 9.515625 
Q 31.390625 -1.5625 37.703125 -13.1875 
z
" id="DejaVuSans-Bold-40"/>
      <path d="M 46.578125 39.3125 
Q 53.953125 37.40625 57.78125 32.6875 
Q 61.625 27.984375 61.625 20.703125 
Q 61.625 9.859375 53.3125 4.21875 
Q 45.015625 -1.421875 29.109375 -1.421875 
Q 23.484375 -1.421875 17.84375 -0.515625 
Q 12.203125 0.390625 6.6875 2.203125 
L 6.6875 16.703125 
Q 11.96875 14.0625 17.15625 12.71875 
Q 22.359375 11.375 27.390625 11.375 
Q 34.859375 11.375 38.84375 13.953125 
Q 42.828125 16.546875 42.828125 21.390625 
Q 42.828125 26.375 38.75 28.9375 
Q 34.671875 31.5 26.703125 31.5 
L 19.1875 31.5 
L 19.1875 43.609375 
L 27.09375 43.609375 
Q 34.1875 43.609375 37.640625 45.828125 
Q 41.109375 48.046875 41.109375 52.59375 
Q 41.109375 56.78125 37.734375 59.078125 
Q 34.375 61.375 28.21875 61.375 
Q 23.6875 61.375 19.046875 60.34375 
Q 14.40625 59.328125 9.8125 57.328125 
L 9.8125 71.09375 
Q 15.375 72.65625 20.84375 73.4375 
Q 26.3125 74.21875 31.59375 74.21875 
Q 45.796875 74.21875 52.84375 69.546875 
Q 59.90625 64.890625 59.90625 55.515625 
Q 59.90625 49.125 56.53125 45.046875 
Q 53.171875 40.96875 46.578125 39.3125 
z
" id="DejaVuSans-Bold-51"/>
      <path d="M 10.203125 18.890625 
L 27.78125 18.890625 
L 27.78125 4 
L 15.71875 -14.203125 
L 5.328125 -14.203125 
L 10.203125 4 
z
" id="DejaVuSans-Bold-44"/>
      <path d="M 8.015625 -13.1875 
Q 14.265625 -1.5625 17.390625 9.515625 
Q 20.515625 20.609375 20.515625 31.390625 
Q 20.515625 42.1875 17.390625 53.25 
Q 14.265625 64.3125 8.015625 75.875 
L 22.515625 75.875 
Q 29.9375 63.921875 33.515625 52.953125 
Q 37.109375 42 37.109375 31.296875 
Q 37.109375 20.609375 33.546875 9.734375 
Q 29.984375 -1.125 22.515625 -13.1875 
z
" id="DejaVuSans-Bold-41"/>
     </defs>
     <use xlink:href="#DejaVuSans-Bold-83"/>
     <use x="72.021484" xlink:href="#DejaVuSans-Bold-117"/>
     <use x="143.212891" xlink:href="#DejaVuSans-Bold-112"/>
     <use x="214.794922" xlink:href="#DejaVuSans-Bold-101"/>
     <use x="282.617188" xlink:href="#DejaVuSans-Bold-114"/>
     <use x="331.933594" xlink:href="#DejaVuSans-Bold-32"/>
     <use x="366.748047" xlink:href="#DejaVuSans-Bold-86"/>
     <use x="438.640625" xlink:href="#DejaVuSans-Bold-97"/>
     <use x="506.121094" xlink:href="#DejaVuSans-Bold-114"/>
     <use x="555.4375" xlink:href="#DejaVuSans-Bold-105"/>
     <use x="589.714844" xlink:href="#DejaVuSans-Bold-97"/>
     <use x="657.195312" xlink:href="#DejaVuSans-Bold-110"/>
     <use x="728.386719" xlink:href="#DejaVuSans-Bold-116"/>
     <use x="776.189453" xlink:href="#DejaVuSans-Bold-58"/>
     <use x="816.179688" xlink:href="#DejaVuSans-Bold-32"/>
     <use x="850.994141" xlink:href="#DejaVuSans-Bold-40"/>
     <use x="896.697266" xlink:href="#DejaVuSans-Bold-51"/>
     <use x="966.277344" xlink:href="#DejaVuSans-Bold-44"/>
     <use x="1004.265625" xlink:href="#DejaVuSans-Bold-41"/>
    </g>
   </g>
   <g id="patch_39">
    <path clip-path="url(#p3ff3e06e4c)" d="M 316.156295 373.978139 
L 348.01325 373.978139 
L 349.340623 366.0139 
L 348.01325 358.049662 
L 316.156295 358.049662 
L 317.483669 366.0139 
z
" style="fill:none;stroke:#000000;stroke-linejoin:miter;stroke-width:0.975;"/>
   </g>
   <g id="patch_40">
    <path clip-path="url(#p3ff3e06e4c)" d="M 379.870204 373.978139 
L 411.727159 373.978139 
L 413.054532 366.0139 
L 411.727159 358.049662 
L 379.870204 358.049662 
L 381.197578 366.0139 
z
" style="fill:none;stroke:#000000;stroke-linejoin:miter;stroke-width:0.975;"/>
   </g>
   <g id="patch_41">
    <path clip-path="url(#p3ff3e06e4c)" d="M 411.727159 373.978139 
L 443.584114 373.978139 
L 444.911487 366.0139 
L 443.584114 358.049662 
L 411.727159 358.049662 
L 413.054532 366.0139 
z
" style="fill:none;stroke:#000000;stroke-linejoin:miter;stroke-width:0.975;"/>
   </g>
   <g id="patch_42">
    <path clip-path="url(#p3ff3e06e4c)" d="M 571.011932 373.978139 
L 602.868886 373.978139 
L 604.196259 366.0139 
L 602.868886 358.049662 
L 571.011932 358.049662 
L 572.339305 366.0139 
z
" style="fill:none;stroke:#000000;stroke-linejoin:miter;stroke-width:0.975;"/>
   </g>
   <g id="patch_43">
    <path clip-path="url(#p3ff3e06e4c)" d="M 666.582795 373.978139 
L 698.43975 373.978139 
L 699.767123 366.0139 
L 698.43975 358.049662 
L 666.582795 358.049662 
L 667.910168 366.0139 
z
" style="fill:none;stroke:#000000;stroke-linejoin:miter;stroke-width:0.975;"/>
   </g>
   <g id="patch_44">
    <path clip-path="url(#p3ff3e06e4c)" d="M 316.156295 358.049662 
L 348.01325 358.049662 
L 349.340623 350.085423 
L 348.01325 342.121184 
L 316.156295 342.121184 
L 317.483669 350.085423 
z
" style="fill:none;stroke:#000000;stroke-linejoin:miter;stroke-width:0.975;"/>
   </g>
   <g id="patch_45">
    <path clip-path="url(#p3ff3e06e4c)" d="M 379.870204 358.049662 
L 411.727159 358.049662 
L 413.054532 350.085423 
L 411.727159 342.121184 
L 379.870204 342.121184 
L 381.197578 350.085423 
z
" style="fill:none;stroke:#000000;stroke-linejoin:miter;stroke-width:0.975;"/>
   </g>
   <g id="patch_46">
    <path clip-path="url(#p3ff3e06e4c)" d="M 666.582795 358.049662 
L 698.43975 358.049662 
L 699.767123 350.085423 
L 698.43975 342.121184 
L 666.582795 342.121184 
L 667.910168 350.085423 
z
" style="fill:none;stroke:#000000;stroke-linejoin:miter;stroke-width:0.975;"/>
   </g>
   <g id="patch_47">
    <path clip-path="url(#p3ff3e06e4c)" d="M 411.727159 342.121184 
L 443.584114 342.121184 
L 444.911487 334.156946 
L 443.584114 326.192707 
L 411.727159 326.192707 
L 413.054532 334.156946 
z
" style="fill:none;stroke:#000000;stroke-linejoin:miter;stroke-width:0.975;"/>
   </g>
   <g id="patch_48">
    <path clip-path="url(#p3ff3e06e4c)" d="M 571.011932 342.121184 
L 602.868886 342.121184 
L 604.196259 334.156946 
L 602.868886 326.192707 
L 571.011932 326.192707 
L 572.339305 334.156946 
z
" style="fill:none;stroke:#000000;stroke-linejoin:miter;stroke-width:0.975;"/>
   </g>
   <g id="text_9">
    <!-- Creat... -->
    <g transform="translate(190.852274 366.33247)scale(0.0675 -0.0675)">
     <defs>
      <path d="M 64.40625 67.28125 
L 64.40625 56.890625 
Q 59.421875 61.53125 53.78125 63.8125 
Q 48.140625 66.109375 41.796875 66.109375 
Q 29.296875 66.109375 22.65625 58.46875 
Q 16.015625 50.828125 16.015625 36.375 
Q 16.015625 21.96875 22.65625 14.328125 
Q 29.296875 6.6875 41.796875 6.6875 
Q 48.140625 6.6875 53.78125 8.984375 
Q 59.421875 11.28125 64.40625 15.921875 
L 64.40625 5.609375 
Q 59.234375 2.09375 53.4375 0.328125 
Q 47.65625 -1.421875 41.21875 -1.421875 
Q 24.65625 -1.421875 15.125 8.703125 
Q 5.609375 18.84375 5.609375 36.375 
Q 5.609375 53.953125 15.125 64.078125 
Q 24.65625 74.21875 41.21875 74.21875 
Q 47.75 74.21875 53.53125 72.484375 
Q 59.328125 70.75 64.40625 67.28125 
z
" id="DejaVuSans-67"/>
     </defs>
     <use xlink:href="#DejaVuSans-67"/>
     <use x="69.824219" xlink:href="#DejaVuSans-114"/>
     <use x="108.6875" xlink:href="#DejaVuSans-101"/>
     <use x="170.210938" xlink:href="#DejaVuSans-97"/>
     <use x="231.490234" xlink:href="#DejaVuSans-116"/>
     <use x="270.699219" xlink:href="#DejaVuSans-46"/>
     <use x="302.486328" xlink:href="#DejaVuSans-46"/>
     <use x="334.273438" xlink:href="#DejaVuSans-46"/>
    </g>
   </g>
   <g id="text_10">
    <!-- Submit -->
    <g transform="translate(222.709229 366.33247)scale(0.0675 -0.0675)">
     <defs>
      <path d="M 53.515625 70.515625 
L 53.515625 60.890625 
Q 47.90625 63.578125 42.921875 64.890625 
Q 37.9375 66.21875 33.296875 66.21875 
Q 25.25 66.21875 20.875 63.09375 
Q 16.5 59.96875 16.5 54.203125 
Q 16.5 49.359375 19.40625 46.890625 
Q 22.3125 44.4375 30.421875 42.921875 
L 36.375 41.703125 
Q 47.40625 39.59375 52.65625 34.296875 
Q 57.90625 29 57.90625 20.125 
Q 57.90625 9.515625 50.796875 4.046875 
Q 43.703125 -1.421875 29.984375 -1.421875 
Q 24.8125 -1.421875 18.96875 -0.25 
Q 13.140625 0.921875 6.890625 3.21875 
L 6.890625 13.375 
Q 12.890625 10.015625 18.65625 8.296875 
Q 24.421875 6.59375 29.984375 6.59375 
Q 38.421875 6.59375 43.015625 9.90625 
Q 47.609375 13.234375 47.609375 19.390625 
Q 47.609375 24.75 44.3125 27.78125 
Q 41.015625 30.8125 33.5 32.328125 
L 27.484375 33.5 
Q 16.453125 35.6875 11.515625 40.375 
Q 6.59375 45.0625 6.59375 53.421875 
Q 6.59375 63.09375 13.40625 68.65625 
Q 20.21875 74.21875 32.171875 74.21875 
Q 37.3125 74.21875 42.625 73.28125 
Q 47.953125 72.359375 53.515625 70.515625 
z
" id="DejaVuSans-83"/>
      <path d="M 48.6875 27.296875 
Q 48.6875 37.203125 44.609375 42.84375 
Q 40.53125 48.484375 33.40625 48.484375 
Q 26.265625 48.484375 22.1875 42.84375 
Q 18.109375 37.203125 18.109375 27.296875 
Q 18.109375 17.390625 22.1875 11.75 
Q 26.265625 6.109375 33.40625 6.109375 
Q 40.53125 6.109375 44.609375 11.75 
Q 48.6875 17.390625 48.6875 27.296875 
z
M 18.109375 46.390625 
Q 20.953125 51.265625 25.265625 53.625 
Q 29.59375 56 35.59375 56 
Q 45.5625 56 51.78125 48.09375 
Q 58.015625 40.1875 58.015625 27.296875 
Q 58.015625 14.40625 51.78125 6.484375 
Q 45.5625 -1.421875 35.59375 -1.421875 
Q 29.59375 -1.421875 25.265625 0.953125 
Q 20.953125 3.328125 18.109375 8.203125 
L 18.109375 0 
L 9.078125 0 
L 9.078125 75.984375 
L 18.109375 75.984375 
z
" id="DejaVuSans-98"/>
      <path d="M 52 44.1875 
Q 55.375 50.25 60.0625 53.125 
Q 64.75 56 71.09375 56 
Q 79.640625 56 84.28125 50.015625 
Q 88.921875 44.046875 88.921875 33.015625 
L 88.921875 0 
L 79.890625 0 
L 79.890625 32.71875 
Q 79.890625 40.578125 77.09375 44.375 
Q 74.3125 48.1875 68.609375 48.1875 
Q 61.625 48.1875 57.5625 43.546875 
Q 53.515625 38.921875 53.515625 30.90625 
L 53.515625 0 
L 44.484375 0 
L 44.484375 32.71875 
Q 44.484375 40.625 41.703125 44.40625 
Q 38.921875 48.1875 33.109375 48.1875 
Q 26.21875 48.1875 22.15625 43.53125 
Q 18.109375 38.875 18.109375 30.90625 
L 18.109375 0 
L 9.078125 0 
L 9.078125 54.6875 
L 18.109375 54.6875 
L 18.109375 46.1875 
Q 21.1875 51.21875 25.484375 53.609375 
Q 29.78125 56 35.6875 56 
Q 41.65625 56 45.828125 52.96875 
Q 50 49.953125 52 44.1875 
z
" id="DejaVuSans-109"/>
     </defs>
     <use xlink:href="#DejaVuSans-83"/>
     <use x="63.476562" xlink:href="#DejaVuSans-117"/>
     <use x="126.855469" xlink:href="#DejaVuSans-98"/>
     <use x="190.332031" xlink:href="#DejaVuSans-109"/>
     <use x="287.744141" xlink:href="#DejaVuSans-105"/>
     <use x="315.527344" xlink:href="#DejaVuSans-116"/>
    </g>
   </g>
   <g id="text_11">
    <!-- Handl... -->
    <g transform="translate(254.566183 366.33247)scale(0.0675 -0.0675)">
     <defs>
      <path d="M 9.8125 72.90625 
L 19.671875 72.90625 
L 19.671875 43.015625 
L 55.515625 43.015625 
L 55.515625 72.90625 
L 65.375 72.90625 
L 65.375 0 
L 55.515625 0 
L 55.515625 34.71875 
L 19.671875 34.71875 
L 19.671875 0 
L 9.8125 0 
z
" id="DejaVuSans-72"/>
      <path d="M 45.40625 46.390625 
L 45.40625 75.984375 
L 54.390625 75.984375 
L 54.390625 0 
L 45.40625 0 
L 45.40625 8.203125 
Q 42.578125 3.328125 38.25 0.953125 
Q 33.9375 -1.421875 27.875 -1.421875 
Q 17.96875 -1.421875 11.734375 6.484375 
Q 5.515625 14.40625 5.515625 27.296875 
Q 5.515625 40.1875 11.734375 48.09375 
Q 17.96875 56 27.875 56 
Q 33.9375 56 38.25 53.625 
Q 42.578125 51.265625 45.40625 46.390625 
z
M 14.796875 27.296875 
Q 14.796875 17.390625 18.875 11.75 
Q 22.953125 6.109375 30.078125 6.109375 
Q 37.203125 6.109375 41.296875 11.75 
Q 45.40625 17.390625 45.40625 27.296875 
Q 45.40625 37.203125 41.296875 42.84375 
Q 37.203125 48.484375 30.078125 48.484375 
Q 22.953125 48.484375 18.875 42.84375 
Q 14.796875 37.203125 14.796875 27.296875 
z
" id="DejaVuSans-100"/>
     </defs>
     <use xlink:href="#DejaVuSans-72"/>
     <use x="75.195312" xlink:href="#DejaVuSans-97"/>
     <use x="136.474609" xlink:href="#DejaVuSans-110"/>
     <use x="199.853516" xlink:href="#DejaVuSans-100"/>
     <use x="263.330078" xlink:href="#DejaVuSans-108"/>
     <use x="291.113281" xlink:href="#DejaVuSans-46"/>
     <use x="322.900391" xlink:href="#DejaVuSans-46"/>
     <use x="354.6875" xlink:href="#DejaVuSans-46"/>
    </g>
   </g>
   <g id="text_12">
    <!-- Accept -->
    <g transform="translate(286.423138 366.33247)scale(0.0675 -0.0675)">
     <defs>
      <path d="M 34.1875 63.1875 
L 20.796875 26.90625 
L 47.609375 26.90625 
z
M 28.609375 72.90625 
L 39.796875 72.90625 
L 67.578125 0 
L 57.328125 0 
L 50.6875 18.703125 
L 17.828125 18.703125 
L 11.1875 0 
L 0.78125 0 
z
" id="DejaVuSans-65"/>
     </defs>
     <use xlink:href="#DejaVuSans-65"/>
     <use x="66.658203" xlink:href="#DejaVuSans-99"/>
     <use x="121.638672" xlink:href="#DejaVuSans-99"/>
     <use x="176.619141" xlink:href="#DejaVuSans-101"/>
     <use x="238.142578" xlink:href="#DejaVuSans-112"/>
     <use x="301.619141" xlink:href="#DejaVuSans-116"/>
    </g>
   </g>
   <g id="text_13">
    <!-- Creat... -->
    <g transform="translate(318.280092 366.33247)scale(0.0675 -0.0675)">
     <use xlink:href="#DejaVuSans-67"/>
     <use x="69.824219" xlink:href="#DejaVuSans-114"/>
     <use x="108.6875" xlink:href="#DejaVuSans-101"/>
     <use x="170.210938" xlink:href="#DejaVuSans-97"/>
     <use x="231.490234" xlink:href="#DejaVuSans-116"/>
     <use x="270.699219" xlink:href="#DejaVuSans-46"/>
     <use x="302.486328" xlink:href="#DejaVuSans-46"/>
     <use x="334.273438" xlink:href="#DejaVuSans-46"/>
    </g>
   </g>
   <g id="text_14">
    <!-- Compl... -->
    <g transform="translate(350.137047 366.33247)scale(0.0675 -0.0675)">
     <use xlink:href="#DejaVuSans-67"/>
     <use x="69.824219" xlink:href="#DejaVuSans-111"/>
     <use x="131.005859" xlink:href="#DejaVuSans-109"/>
     <use x="228.417969" xlink:href="#DejaVuSans-112"/>
     <use x="291.894531" xlink:href="#DejaVuSans-108"/>
     <use x="319.677734" xlink:href="#DejaVuSans-46"/>
     <use x="351.464844" xlink:href="#DejaVuSans-46"/>
     <use x="383.251953" xlink:href="#DejaVuSans-46"/>
    </g>
   </g>
   <g id="text_15">
    <!-- Call -->
    <g transform="translate(381.994001 366.33247)scale(0.0675 -0.0675)">
     <use xlink:href="#DejaVuSans-67"/>
     <use x="69.824219" xlink:href="#DejaVuSans-97"/>
     <use x="131.103516" xlink:href="#DejaVuSans-108"/>
     <use x="158.886719" xlink:href="#DejaVuSans-108"/>
    </g>
   </g>
   <g id="text_16">
    <!-- Creat... -->
    <g transform="translate(413.850956 366.33247)scale(0.0675 -0.0675)">
     <use xlink:href="#DejaVuSans-67"/>
     <use x="69.824219" xlink:href="#DejaVuSans-114"/>
     <use x="108.6875" xlink:href="#DejaVuSans-101"/>
     <use x="170.210938" xlink:href="#DejaVuSans-97"/>
     <use x="231.490234" xlink:href="#DejaVuSans-116"/>
     <use x="270.699219" xlink:href="#DejaVuSans-46"/>
     <use x="302.486328" xlink:href="#DejaVuSans-46"/>
     <use x="334.273438" xlink:href="#DejaVuSans-46"/>
    </g>
   </g>
   <g id="text_17">
    <!-- Call ... -->
    <g transform="translate(445.707911 366.33247)scale(0.0675 -0.0675)">
     <use xlink:href="#DejaVuSans-67"/>
     <use x="69.824219" xlink:href="#DejaVuSans-97"/>
     <use x="131.103516" xlink:href="#DejaVuSans-108"/>
     <use x="158.886719" xlink:href="#DejaVuSans-108"/>
     <use x="186.669922" xlink:href="#DejaVuSans-32"/>
     <use x="218.457031" xlink:href="#DejaVuSans-46"/>
     <use x="250.244141" xlink:href="#DejaVuSans-46"/>
     <use x="282.03125" xlink:href="#DejaVuSans-46"/>
    </g>
   </g>
   <g id="text_18">
    <!-- Valid... -->
    <g transform="translate(477.564865 366.33247)scale(0.0675 -0.0675)">
     <defs>
      <path d="M 28.609375 0 
L 0.78125 72.90625 
L 11.078125 72.90625 
L 34.1875 11.53125 
L 57.328125 72.90625 
L 67.578125 72.90625 
L 39.796875 0 
z
" id="DejaVuSans-86"/>
     </defs>
     <use xlink:href="#DejaVuSans-86"/>
     <use x="60.658203" xlink:href="#DejaVuSans-97"/>
     <use x="121.9375" xlink:href="#DejaVuSans-108"/>
     <use x="149.720703" xlink:href="#DejaVuSans-105"/>
     <use x="177.503906" xlink:href="#DejaVuSans-100"/>
     <use x="240.980469" xlink:href="#DejaVuSans-46"/>
     <use x="272.767578" xlink:href="#DejaVuSans-46"/>
     <use x="304.554688" xlink:href="#DejaVuSans-46"/>
    </g>
   </g>
   <g id="text_19">
    <!-- Call ... -->
    <g transform="translate(509.42182 366.33247)scale(0.0675 -0.0675)">
     <use xlink:href="#DejaVuSans-67"/>
     <use x="69.824219" xlink:href="#DejaVuSans-97"/>
     <use x="131.103516" xlink:href="#DejaVuSans-108"/>
     <use x="158.886719" xlink:href="#DejaVuSans-108"/>
     <use x="186.669922" xlink:href="#DejaVuSans-32"/>
     <use x="218.457031" xlink:href="#DejaVuSans-46"/>
     <use x="250.244141" xlink:href="#DejaVuSans-46"/>
     <use x="282.03125" xlink:href="#DejaVuSans-46"/>
    </g>
   </g>
   <g id="text_20">
    <!-- Valid... -->
    <g transform="translate(541.278774 366.33247)scale(0.0675 -0.0675)">
     <use xlink:href="#DejaVuSans-86"/>
     <use x="60.658203" xlink:href="#DejaVuSans-97"/>
     <use x="121.9375" xlink:href="#DejaVuSans-108"/>
     <use x="149.720703" xlink:href="#DejaVuSans-105"/>
     <use x="177.503906" xlink:href="#DejaVuSans-100"/>
     <use x="240.980469" xlink:href="#DejaVuSans-46"/>
     <use x="272.767578" xlink:href="#DejaVuSans-46"/>
     <use x="304.554688" xlink:href="#DejaVuSans-46"/>
    </g>
   </g>
   <g id="text_21">
    <!-- Accep... -->
    <g transform="translate(573.135729 366.33247)scale(0.0675 -0.0675)">
     <use xlink:href="#DejaVuSans-65"/>
     <use x="66.658203" xlink:href="#DejaVuSans-99"/>
     <use x="121.638672" xlink:href="#DejaVuSans-99"/>
     <use x="176.619141" xlink:href="#DejaVuSans-101"/>
     <use x="238.142578" xlink:href="#DejaVuSans-112"/>
     <use x="301.619141" xlink:href="#DejaVuSans-46"/>
     <use x="333.40625" xlink:href="#DejaVuSans-46"/>
     <use x="365.193359" xlink:href="#DejaVuSans-46"/>
    </g>
   </g>
   <g id="text_22">
    <!-- Pending -->
    <g transform="translate(604.992683 366.33247)scale(0.0675 -0.0675)">
     <defs>
      <path d="M 19.671875 64.796875 
L 19.671875 37.40625 
L 32.078125 37.40625 
Q 38.96875 37.40625 42.71875 40.96875 
Q 46.484375 44.53125 46.484375 51.125 
Q 46.484375 57.671875 42.71875 61.234375 
Q 38.96875 64.796875 32.078125 64.796875 
z
M 9.8125 72.90625 
L 32.078125 72.90625 
Q 44.34375 72.90625 50.609375 67.359375 
Q 56.890625 61.8125 56.890625 51.125 
Q 56.890625 40.328125 50.609375 34.8125 
Q 44.34375 29.296875 32.078125 29.296875 
L 19.671875 29.296875 
L 19.671875 0 
L 9.8125 0 
z
" id="DejaVuSans-80"/>
      <path d="M 45.40625 27.984375 
Q 45.40625 37.75 41.375 43.109375 
Q 37.359375 48.484375 30.078125 48.484375 
Q 22.859375 48.484375 18.828125 43.109375 
Q 14.796875 37.75 14.796875 27.984375 
Q 14.796875 18.265625 18.828125 12.890625 
Q 22.859375 7.515625 30.078125 7.515625 
Q 37.359375 7.515625 41.375 12.890625 
Q 45.40625 18.265625 45.40625 27.984375 
z
M 54.390625 6.78125 
Q 54.390625 -7.171875 48.1875 -13.984375 
Q 42 -20.796875 29.203125 -20.796875 
Q 24.46875 -20.796875 20.265625 -20.09375 
Q 16.0625 -19.390625 12.109375 -17.921875 
L 12.109375 -9.1875 
Q 16.0625 -11.328125 19.921875 -12.34375 
Q 23.78125 -13.375 27.78125 -13.375 
Q 36.625 -13.375 41.015625 -8.765625 
Q 45.40625 -4.15625 45.40625 5.171875 
L 45.40625 9.625 
Q 42.625 4.78125 38.28125 2.390625 
Q 33.9375 0 27.875 0 
Q 17.828125 0 11.671875 7.65625 
Q 5.515625 15.328125 5.515625 27.984375 
Q 5.515625 40.671875 11.671875 48.328125 
Q 17.828125 56 27.875 56 
Q 33.9375 56 38.28125 53.609375 
Q 42.625 51.21875 45.40625 46.390625 
L 45.40625 54.6875 
L 54.390625 54.6875 
z
" id="DejaVuSans-103"/>
     </defs>
     <use xlink:href="#DejaVuSans-80"/>
     <use x="56.677734" xlink:href="#DejaVuSans-101"/>
     <use x="118.201172" xlink:href="#DejaVuSans-110"/>
     <use x="181.580078" xlink:href="#DejaVuSans-100"/>
     <use x="245.056641" xlink:href="#DejaVuSans-105"/>
     <use x="272.839844" xlink:href="#DejaVuSans-110"/>
     <use x="336.21875" xlink:href="#DejaVuSans-103"/>
    </g>
   </g>
   <g id="text_23">
    <!-- Valid... -->
    <g transform="translate(636.849638 366.33247)scale(0.0675 -0.0675)">
     <use xlink:href="#DejaVuSans-86"/>
     <use x="60.658203" xlink:href="#DejaVuSans-97"/>
     <use x="121.9375" xlink:href="#DejaVuSans-108"/>
     <use x="149.720703" xlink:href="#DejaVuSans-105"/>
     <use x="177.503906" xlink:href="#DejaVuSans-100"/>
     <use x="240.980469" xlink:href="#DejaVuSans-46"/>
     <use x="272.767578" xlink:href="#DejaVuSans-46"/>
     <use x="304.554688" xlink:href="#DejaVuSans-46"/>
    </g>
   </g>
   <g id="text_24">
    <!-- Cance... -->
    <g transform="translate(668.706592 366.33247)scale(0.0675 -0.0675)">
     <use xlink:href="#DejaVuSans-67"/>
     <use x="69.824219" xlink:href="#DejaVuSans-97"/>
     <use x="131.103516" xlink:href="#DejaVuSans-110"/>
     <use x="194.482422" xlink:href="#DejaVuSans-99"/>
     <use x="249.462891" xlink:href="#DejaVuSans-101"/>
     <use x="310.986328" xlink:href="#DejaVuSans-46"/>
     <use x="342.773438" xlink:href="#DejaVuSans-46"/>
     <use x="374.560547" xlink:href="#DejaVuSans-46"/>
    </g>
   </g>
   <g id="text_25">
    <!-- Creat... -->
    <g transform="translate(318.280092 350.403993)scale(0.0675 -0.0675)">
     <use xlink:href="#DejaVuSans-67"/>
     <use x="69.824219" xlink:href="#DejaVuSans-114"/>
     <use x="108.6875" xlink:href="#DejaVuSans-101"/>
     <use x="170.210938" xlink:href="#DejaVuSans-97"/>
     <use x="231.490234" xlink:href="#DejaVuSans-116"/>
     <use x="270.699219" xlink:href="#DejaVuSans-46"/>
     <use x="302.486328" xlink:href="#DejaVuSans-46"/>
     <use x="334.273438" xlink:href="#DejaVuSans-46"/>
    </g>
   </g>
   <g id="text_26">
    <!-- Send ... -->
    <g transform="translate(350.137047 350.403993)scale(0.0675 -0.0675)">
     <use xlink:href="#DejaVuSans-83"/>
     <use x="63.476562" xlink:href="#DejaVuSans-101"/>
     <use x="125" xlink:href="#DejaVuSans-110"/>
     <use x="188.378906" xlink:href="#DejaVuSans-100"/>
     <use x="251.855469" xlink:href="#DejaVuSans-32"/>
     <use x="283.642578" xlink:href="#DejaVuSans-46"/>
     <use x="315.429688" xlink:href="#DejaVuSans-46"/>
     <use x="347.216797" xlink:href="#DejaVuSans-46"/>
    </g>
   </g>
   <g id="text_27">
    <!-- Call -->
    <g transform="translate(381.994001 350.403993)scale(0.0675 -0.0675)">
     <use xlink:href="#DejaVuSans-67"/>
     <use x="69.824219" xlink:href="#DejaVuSans-97"/>
     <use x="131.103516" xlink:href="#DejaVuSans-108"/>
     <use x="158.886719" xlink:href="#DejaVuSans-108"/>
    </g>
   </g>
   <g id="text_28">
    <!-- Cance... -->
    <g transform="translate(668.706592 350.403993)scale(0.0675 -0.0675)">
     <use xlink:href="#DejaVuSans-67"/>
     <use x="69.824219" xlink:href="#DejaVuSans-97"/>
     <use x="131.103516" xlink:href="#DejaVuSans-110"/>
     <use x="194.482422" xlink:href="#DejaVuSans-99"/>
     <use x="249.462891" xlink:href="#DejaVuSans-101"/>
     <use x="310.986328" xlink:href="#DejaVuSans-46"/>
     <use x="342.773438" xlink:href="#DejaVuSans-46"/>
     <use x="374.560547" xlink:href="#DejaVuSans-46"/>
    </g>
   </g>
   <g id="text_29">
    <!-- Creat... -->
    <g transform="translate(413.850956 334.475515)scale(0.0675 -0.0675)">
     <use xlink:href="#DejaVuSans-67"/>
     <use x="69.824219" xlink:href="#DejaVuSans-114"/>
     <use x="108.6875" xlink:href="#DejaVuSans-101"/>
     <use x="170.210938" xlink:href="#DejaVuSans-97"/>
     <use x="231.490234" xlink:href="#DejaVuSans-116"/>
     <use x="270.699219" xlink:href="#DejaVuSans-46"/>
     <use x="302.486328" xlink:href="#DejaVuSans-46"/>
     <use x="334.273438" xlink:href="#DejaVuSans-46"/>
    </g>
   </g>
   <g id="text_30">
    <!-- Send ... -->
    <g transform="translate(509.42182 334.475515)scale(0.0675 -0.0675)">
     <use xlink:href="#DejaVuSans-83"/>
     <use x="63.476562" xlink:href="#DejaVuSans-101"/>
     <use x="125" xlink:href="#DejaVuSans-110"/>
     <use x="188.378906" xlink:href="#DejaVuSans-100"/>
     <use x="251.855469" xlink:href="#DejaVuSans-32"/>
     <use x="283.642578" xlink:href="#DejaVuSans-46"/>
     <use x="315.429688" xlink:href="#DejaVuSans-46"/>
     <use x="347.216797" xlink:href="#DejaVuSans-46"/>
    </g>
   </g>
   <g id="text_31">
    <!-- Return -->
    <g transform="translate(541.278774 334.475515)scale(0.0675 -0.0675)">
     <defs>
      <path d="M 44.390625 34.1875 
Q 47.5625 33.109375 50.5625 29.59375 
Q 53.5625 26.078125 56.59375 19.921875 
L 66.609375 0 
L 56 0 
L 46.6875 18.703125 
Q 43.0625 26.03125 39.671875 28.421875 
Q 36.28125 30.8125 30.421875 30.8125 
L 19.671875 30.8125 
L 19.671875 0 
L 9.8125 0 
L 9.8125 72.90625 
L 32.078125 72.90625 
Q 44.578125 72.90625 50.734375 67.671875 
Q 56.890625 62.453125 56.890625 51.90625 
Q 56.890625 45.015625 53.6875 40.46875 
Q 50.484375 35.9375 44.390625 34.1875 
z
M 19.671875 64.796875 
L 19.671875 38.921875 
L 32.078125 38.921875 
Q 39.203125 38.921875 42.84375 42.21875 
Q 46.484375 45.515625 46.484375 51.90625 
Q 46.484375 58.296875 42.84375 61.546875 
Q 39.203125 64.796875 32.078125 64.796875 
z
" id="DejaVuSans-82"/>
     </defs>
     <use xlink:href="#DejaVuSans-82"/>
     <use x="64.982422" xlink:href="#DejaVuSans-101"/>
     <use x="126.505859" xlink:href="#DejaVuSans-116"/>
     <use x="165.714844" xlink:href="#DejaVuSans-117"/>
     <use x="229.09375" xlink:href="#DejaVuSans-114"/>
     <use x="268.457031" xlink:href="#DejaVuSans-110"/>
    </g>
   </g>
   <g id="text_32">
    <!-- Accep... -->
    <g transform="translate(573.135729 334.475515)scale(0.0675 -0.0675)">
     <use xlink:href="#DejaVuSans-65"/>
     <use x="66.658203" xlink:href="#DejaVuSans-99"/>
     <use x="121.638672" xlink:href="#DejaVuSans-99"/>
     <use x="176.619141" xlink:href="#DejaVuSans-101"/>
     <use x="238.142578" xlink:href="#DejaVuSans-112"/>
     <use x="301.619141" xlink:href="#DejaVuSans-46"/>
     <use x="333.40625" xlink:href="#DejaVuSans-46"/>
     <use x="365.193359" xlink:href="#DejaVuSans-46"/>
    </g>
   </g>
  </g>
  <g id="axes_2">
   <g id="patch_49">
    <path clip-path="url(#pbd05ab654e)" d="M 716.396453 385.032603 
L 1265.8033 385.032603 
L 1265.8033 360.059564 
L 716.396453 360.059564 
z
" style="fill:#ffa24b;opacity:0.8;stroke:#ffa24b;stroke-linejoin:miter;"/>
   </g>
   <g id="patch_50">
    <path clip-path="url(#pbd05ab654e)" d="M 716.396453 360.059564 
L 1265.8033 360.059564 
L 1265.8033 335.086526 
L 716.396453 335.086526 
z
" style="fill:#76c476;opacity:0.8;stroke:#76c476;stroke-linejoin:miter;"/>
   </g>
   <g id="patch_51">
    <path clip-path="url(#pbd05ab654e)" d="M 741.369492 385.032603 
L 791.315569 385.032603 
L 793.396655 372.546083 
L 791.315569 360.059564 
L 741.369492 360.059564 
L 743.450578 372.546083 
z
" style="fill:#ffa24b;stroke:#000000;stroke-linejoin:miter;stroke-width:0.975;"/>
   </g>
   <g id="patch_52">
    <path clip-path="url(#pbd05ab654e)" d="M 791.315569 385.032603 
L 841.261646 385.032603 
L 843.342732 372.546083 
L 841.261646 360.059564 
L 791.315569 360.059564 
L 793.396655 372.546083 
z
" style="fill:#ffa24b;stroke:#000000;stroke-linejoin:miter;stroke-width:0.975;"/>
   </g>
   <g id="patch_53">
    <path clip-path="url(#pbd05ab654e)" d="M 841.261646 385.032603 
L 891.207723 385.032603 
L 893.288809 372.546083 
L 891.207723 360.059564 
L 841.261646 360.059564 
L 843.342732 372.546083 
z
" style="fill:#ffa24b;stroke:#000000;stroke-linejoin:miter;stroke-width:0.975;"/>
   </g>
   <g id="patch_54">
    <path clip-path="url(#pbd05ab654e)" d="M 891.207723 385.032603 
L 916.180761 385.032603 
L 918.261848 372.546083 
L 916.180761 360.059564 
L 891.207723 360.059564 
L 893.288809 372.546083 
z
" style="fill:#76c476;"/>
   </g>
   <g id="patch_55">
    <path clip-path="url(#pbd05ab654e)" d="M 916.180761 385.032603 
L 941.1538 385.032603 
L 943.234886 372.546083 
L 941.1538 360.059564 
L 916.180761 360.059564 
L 918.261848 372.546083 
z
" style="fill:#ffa24b;"/>
   </g>
   <g id="patch_56">
    <path clip-path="url(#pbd05ab654e)" d="M 941.1538 385.032603 
L 991.099877 385.032603 
L 993.180963 372.546083 
L 991.099877 360.059564 
L 941.1538 360.059564 
L 943.234886 372.546083 
z
" style="fill:#ffa24b;stroke:#000000;stroke-linejoin:miter;stroke-width:0.975;"/>
   </g>
   <g id="patch_57">
    <path clip-path="url(#pbd05ab654e)" d="M 991.099877 385.032603 
L 1016.072915 385.032603 
L 1018.154002 372.546083 
L 1016.072915 360.059564 
L 991.099877 360.059564 
L 993.180963 372.546083 
z
" style="fill:#76c476;"/>
   </g>
   <g id="patch_58">
    <path clip-path="url(#pbd05ab654e)" d="M 1016.072915 385.032603 
L 1041.045954 385.032603 
L 1043.12704 372.546083 
L 1041.045954 360.059564 
L 1016.072915 360.059564 
L 1018.154002 372.546083 
z
" style="fill:#ffa24b;"/>
   </g>
   <g id="patch_59">
    <path clip-path="url(#pbd05ab654e)" d="M 1041.045954 385.032603 
L 1090.992031 385.032603 
L 1093.073117 372.546083 
L 1090.992031 360.059564 
L 1041.045954 360.059564 
L 1043.12704 372.546083 
z
" style="fill:#ffa24b;stroke:#000000;stroke-linejoin:miter;stroke-width:0.975;"/>
   </g>
   <g id="patch_60">
    <path clip-path="url(#pbd05ab654e)" d="M 1090.992031 385.032603 
L 1140.938108 385.032603 
L 1143.019194 372.546083 
L 1140.938108 360.059564 
L 1090.992031 360.059564 
L 1093.073117 372.546083 
z
" style="fill:#ffa24b;stroke:#000000;stroke-linejoin:miter;stroke-width:0.975;"/>
   </g>
   <g id="patch_61">
    <path clip-path="url(#pbd05ab654e)" d="M 1140.938108 385.032603 
L 1165.911146 385.032603 
L 1167.992233 372.546083 
L 1165.911146 360.059564 
L 1140.938108 360.059564 
L 1143.019194 372.546083 
z
" style="fill:#76c476;"/>
   </g>
   <g id="patch_62">
    <path clip-path="url(#pbd05ab654e)" d="M 1165.911146 385.032603 
L 1190.884185 385.032603 
L 1192.965271 372.546083 
L 1190.884185 360.059564 
L 1165.911146 360.059564 
L 1167.992233 372.546083 
z
" style="fill:#ffa24b;"/>
   </g>
   <g id="patch_63">
    <path clip-path="url(#pbd05ab654e)" d="M 1190.884185 385.032603 
L 1240.830262 385.032603 
L 1242.911348 372.546083 
L 1240.830262 360.059564 
L 1190.884185 360.059564 
L 1192.965271 372.546083 
z
" style="fill:#ffa24b;stroke:#000000;stroke-linejoin:miter;stroke-width:0.975;"/>
   </g>
   <g id="patch_64">
    <path clip-path="url(#pbd05ab654e)" d="M 891.207723 360.059564 
L 916.180761 360.059564 
L 918.261848 347.573045 
L 916.180761 335.086526 
L 891.207723 335.086526 
L 893.288809 347.573045 
z
" style="fill:#76c476;"/>
   </g>
   <g id="patch_65">
    <path clip-path="url(#pbd05ab654e)" d="M 916.180761 360.059564 
L 941.1538 360.059564 
L 943.234886 347.573045 
L 941.1538 335.086526 
L 916.180761 335.086526 
L 918.261848 347.573045 
z
" style="fill:#ffa24b;"/>
   </g>
   <g id="patch_66">
    <path clip-path="url(#pbd05ab654e)" d="M 941.1538 360.059564 
L 991.099877 360.059564 
L 993.180963 347.573045 
L 991.099877 335.086526 
L 941.1538 335.086526 
L 943.234886 347.573045 
z
" style="fill:#76c476;stroke:#000000;stroke-linejoin:miter;stroke-width:0.975;"/>
   </g>
   <g id="patch_67">
    <path clip-path="url(#pbd05ab654e)" d="M 991.099877 360.059564 
L 1016.072915 360.059564 
L 1018.154002 347.573045 
L 1016.072915 335.086526 
L 991.099877 335.086526 
L 993.180963 347.573045 
z
" style="fill:#76c476;"/>
   </g>
   <g id="patch_68">
    <path clip-path="url(#pbd05ab654e)" d="M 1016.072915 360.059564 
L 1041.045954 360.059564 
L 1043.12704 347.573045 
L 1041.045954 335.086526 
L 1016.072915 335.086526 
L 1018.154002 347.573045 
z
" style="fill:#ffa24b;"/>
   </g>
   <g id="patch_69">
    <path clip-path="url(#pbd05ab654e)" d="M 1090.992031 360.059564 
L 1140.938108 360.059564 
L 1143.019194 347.573045 
L 1140.938108 335.086526 
L 1090.992031 335.086526 
L 1093.073117 347.573045 
z
" style="fill:#76c476;stroke:#000000;stroke-linejoin:miter;stroke-width:0.975;"/>
   </g>
   <g id="patch_70">
    <path clip-path="url(#pbd05ab654e)" d="M 1140.938108 360.059564 
L 1165.911146 360.059564 
L 1167.992233 347.573045 
L 1165.911146 335.086526 
L 1140.938108 335.086526 
L 1143.019194 347.573045 
z
" style="fill:#76c476;"/>
   </g>
   <g id="patch_71">
    <path clip-path="url(#pbd05ab654e)" d="M 1165.911146 360.059564 
L 1190.884185 360.059564 
L 1192.965271 347.573045 
L 1190.884185 335.086526 
L 1165.911146 335.086526 
L 1167.992233 347.573045 
z
" style="fill:#ffa24b;"/>
   </g>
   <g id="text_33">
    <!-- 1 -->
    <g transform="translate(708.072107 373.045544)scale(0.0675 -0.0675)">
     <use xlink:href="#DejaVuSans-49"/>
    </g>
   </g>
   <g id="text_34">
    <!-- applicat. 0 -->
    <g transform="translate(718.061322 373.045544)scale(0.0675 -0.0675)">
     <use xlink:href="#DejaVuSans-97"/>
     <use x="61.279297" xlink:href="#DejaVuSans-112"/>
     <use x="124.755859" xlink:href="#DejaVuSans-112"/>
     <use x="188.232422" xlink:href="#DejaVuSans-108"/>
     <use x="216.015625" xlink:href="#DejaVuSans-105"/>
     <use x="243.798828" xlink:href="#DejaVuSans-99"/>
     <use x="298.779297" xlink:href="#DejaVuSans-97"/>
     <use x="360.058594" xlink:href="#DejaVuSans-116"/>
     <use x="399.267578" xlink:href="#DejaVuSans-46"/>
     <use x="431.054688" xlink:href="#DejaVuSans-32"/>
     <use x="462.841797" xlink:href="#DejaVuSans-48"/>
    </g>
   </g>
   <g id="text_35">
    <!-- 1 -->
    <g transform="translate(708.072107 348.072506)scale(0.0675 -0.0675)">
     <use xlink:href="#DejaVuSans-49"/>
    </g>
   </g>
   <g id="text_36">
    <!-- offer 0 -->
    <g transform="translate(718.061322 348.072506)scale(0.0675 -0.0675)">
     <use xlink:href="#DejaVuSans-111"/>
     <use x="61.181641" xlink:href="#DejaVuSans-102"/>
     <use x="96.386719" xlink:href="#DejaVuSans-102"/>
     <use x="131.591797" xlink:href="#DejaVuSans-101"/>
     <use x="193.115234" xlink:href="#DejaVuSans-114"/>
     <use x="234.228516" xlink:href="#DejaVuSans-32"/>
     <use x="266.015625" xlink:href="#DejaVuSans-48"/>
    </g>
   </g>
   <g id="text_37">
    <!-- Frequency: 0.1 -->
    <g transform="translate(716.396453 333.532648)scale(0.0675 -0.0675)">
     <use xlink:href="#DejaVuSans-70"/>
     <use x="50.269531" xlink:href="#DejaVuSans-114"/>
     <use x="89.132812" xlink:href="#DejaVuSans-101"/>
     <use x="150.65625" xlink:href="#DejaVuSans-113"/>
     <use x="214.132812" xlink:href="#DejaVuSans-117"/>
     <use x="277.511719" xlink:href="#DejaVuSans-101"/>
     <use x="339.035156" xlink:href="#DejaVuSans-110"/>
     <use x="402.414062" xlink:href="#DejaVuSans-99"/>
     <use x="457.394531" xlink:href="#DejaVuSans-121"/>
     <use x="509.324219" xlink:href="#DejaVuSans-58"/>
     <use x="543.015625" xlink:href="#DejaVuSans-32"/>
     <use x="574.802734" xlink:href="#DejaVuSans-48"/>
     <use x="638.425781" xlink:href="#DejaVuSans-46"/>
     <use x="670.212891" xlink:href="#DejaVuSans-49"/>
    </g>
   </g>
   <g id="text_38">
    <!-- Super Variant: (8,) -->
    <g transform="translate(716.396453 323.987397)scale(0.081 -0.081)">
     <defs>
      <path d="M 34.8125 32.625 
Q 29.546875 32.625 26.703125 29.734375 
Q 23.875 26.859375 23.875 21.484375 
Q 23.875 16.109375 26.703125 13.25 
Q 29.546875 10.40625 34.8125 10.40625 
Q 40.046875 10.40625 42.828125 13.25 
Q 45.609375 16.109375 45.609375 21.484375 
Q 45.609375 26.90625 42.828125 29.765625 
Q 40.046875 32.625 34.8125 32.625 
z
M 21.09375 38.8125 
Q 14.453125 40.828125 11.078125 44.96875 
Q 7.71875 49.125 7.71875 55.328125 
Q 7.71875 64.546875 14.59375 69.375 
Q 21.484375 74.21875 34.8125 74.21875 
Q 48.046875 74.21875 54.921875 69.40625 
Q 61.8125 64.59375 61.8125 55.328125 
Q 61.8125 49.125 58.421875 44.96875 
Q 55.03125 40.828125 48.390625 38.8125 
Q 55.8125 36.765625 59.59375 32.15625 
Q 63.375 27.546875 63.375 20.515625 
Q 63.375 9.671875 56.171875 4.125 
Q 48.96875 -1.421875 34.8125 -1.421875 
Q 20.609375 -1.421875 13.359375 4.125 
Q 6.109375 9.671875 6.109375 20.515625 
Q 6.109375 27.546875 9.890625 32.15625 
Q 13.671875 36.765625 21.09375 38.8125 
z
M 25.484375 53.421875 
Q 25.484375 49.078125 27.90625 46.734375 
Q 30.328125 44.390625 34.8125 44.390625 
Q 39.203125 44.390625 41.59375 46.734375 
Q 44 49.078125 44 53.421875 
Q 44 57.765625 41.59375 60.078125 
Q 39.203125 62.40625 34.8125 62.40625 
Q 30.328125 62.40625 27.90625 60.0625 
Q 25.484375 57.71875 25.484375 53.421875 
z
" id="DejaVuSans-Bold-56"/>
     </defs>
     <use xlink:href="#DejaVuSans-Bold-83"/>
     <use x="72.021484" xlink:href="#DejaVuSans-Bold-117"/>
     <use x="143.212891" xlink:href="#DejaVuSans-Bold-112"/>
     <use x="214.794922" xlink:href="#DejaVuSans-Bold-101"/>
     <use x="282.617188" xlink:href="#DejaVuSans-Bold-114"/>
     <use x="331.933594" xlink:href="#DejaVuSans-Bold-32"/>
     <use x="366.748047" xlink:href="#DejaVuSans-Bold-86"/>
     <use x="438.640625" xlink:href="#DejaVuSans-Bold-97"/>
     <use x="506.121094" xlink:href="#DejaVuSans-Bold-114"/>
     <use x="555.4375" xlink:href="#DejaVuSans-Bold-105"/>
     <use x="589.714844" xlink:href="#DejaVuSans-Bold-97"/>
     <use x="657.195312" xlink:href="#DejaVuSans-Bold-110"/>
     <use x="728.386719" xlink:href="#DejaVuSans-Bold-116"/>
     <use x="776.189453" xlink:href="#DejaVuSans-Bold-58"/>
     <use x="816.179688" xlink:href="#DejaVuSans-Bold-32"/>
     <use x="850.994141" xlink:href="#DejaVuSans-Bold-40"/>
     <use x="896.697266" xlink:href="#DejaVuSans-Bold-56"/>
     <use x="966.277344" xlink:href="#DejaVuSans-Bold-44"/>
     <use x="1004.265625" xlink:href="#DejaVuSans-Bold-41"/>
    </g>
   </g>
   <g id="patch_72">
    <path clip-path="url(#pbd05ab654e)" d="M 891.207723 385.032603 
L 941.1538 385.032603 
L 943.234886 372.546083 
L 941.1538 360.059564 
L 891.207723 360.059564 
L 893.288809 372.546083 
z
" style="fill:none;stroke:#000000;stroke-linejoin:miter;stroke-width:0.975;"/>
   </g>
   <g id="patch_73">
    <path clip-path="url(#pbd05ab654e)" d="M 991.099877 385.032603 
L 1041.045954 385.032603 
L 1043.12704 372.546083 
L 1041.045954 360.059564 
L 991.099877 360.059564 
L 993.180963 372.546083 
z
" style="fill:none;stroke:#000000;stroke-linejoin:miter;stroke-width:0.975;"/>
   </g>
   <g id="patch_74">
    <path clip-path="url(#pbd05ab654e)" d="M 1140.938108 385.032603 
L 1190.884185 385.032603 
L 1192.965271 372.546083 
L 1190.884185 360.059564 
L 1140.938108 360.059564 
L 1143.019194 372.546083 
z
" style="fill:none;stroke:#000000;stroke-linejoin:miter;stroke-width:0.975;"/>
   </g>
   <g id="patch_75">
    <path clip-path="url(#pbd05ab654e)" d="M 891.207723 360.059564 
L 941.1538 360.059564 
L 943.234886 347.573045 
L 941.1538 335.086526 
L 891.207723 335.086526 
L 893.288809 347.573045 
z
" style="fill:none;stroke:#000000;stroke-linejoin:miter;stroke-width:0.975;"/>
   </g>
   <g id="patch_76">
    <path clip-path="url(#pbd05ab654e)" d="M 991.099877 360.059564 
L 1041.045954 360.059564 
L 1043.12704 347.573045 
L 1041.045954 335.086526 
L 991.099877 335.086526 
L 993.180963 347.573045 
z
" style="fill:none;stroke:#000000;stroke-linejoin:miter;stroke-width:0.975;"/>
   </g>
   <g id="patch_77">
    <path clip-path="url(#pbd05ab654e)" d="M 1140.938108 360.059564 
L 1190.884185 360.059564 
L 1192.965271 347.573045 
L 1190.884185 335.086526 
L 1140.938108 335.086526 
L 1143.019194 347.573045 
z
" style="fill:none;stroke:#000000;stroke-linejoin:miter;stroke-width:0.975;"/>
   </g>
   <g id="text_39">
    <!-- Create appl... -->
    <g transform="translate(744.69923 373.045544)scale(0.0675 -0.0675)">
     <use xlink:href="#DejaVuSans-67"/>
     <use x="69.824219" xlink:href="#DejaVuSans-114"/>
     <use x="108.6875" xlink:href="#DejaVuSans-101"/>
     <use x="170.210938" xlink:href="#DejaVuSans-97"/>
     <use x="231.490234" xlink:href="#DejaVuSans-116"/>
     <use x="270.699219" xlink:href="#DejaVuSans-101"/>
     <use x="332.222656" xlink:href="#DejaVuSans-32"/>
     <use x="364.009766" xlink:href="#DejaVuSans-97"/>
     <use x="425.289062" xlink:href="#DejaVuSans-112"/>
     <use x="488.765625" xlink:href="#DejaVuSans-112"/>
     <use x="552.242188" xlink:href="#DejaVuSans-108"/>
     <use x="580.025391" xlink:href="#DejaVuSans-46"/>
     <use x="611.8125" xlink:href="#DejaVuSans-46"/>
     <use x="643.599609" xlink:href="#DejaVuSans-46"/>
    </g>
   </g>
   <g id="text_40">
    <!-- Submit -->
    <g transform="translate(794.645307 373.045544)scale(0.0675 -0.0675)">
     <use xlink:href="#DejaVuSans-83"/>
     <use x="63.476562" xlink:href="#DejaVuSans-117"/>
     <use x="126.855469" xlink:href="#DejaVuSans-98"/>
     <use x="190.332031" xlink:href="#DejaVuSans-109"/>
     <use x="287.744141" xlink:href="#DejaVuSans-105"/>
     <use x="315.527344" xlink:href="#DejaVuSans-116"/>
    </g>
   </g>
   <g id="text_41">
    <!-- Accept -->
    <g transform="translate(844.591384 373.045544)scale(0.0675 -0.0675)">
     <use xlink:href="#DejaVuSans-65"/>
     <use x="66.658203" xlink:href="#DejaVuSans-99"/>
     <use x="121.638672" xlink:href="#DejaVuSans-99"/>
     <use x="176.619141" xlink:href="#DejaVuSans-101"/>
     <use x="238.142578" xlink:href="#DejaVuSans-112"/>
     <use x="301.619141" xlink:href="#DejaVuSans-116"/>
    </g>
   </g>
   <g id="text_42">
    <!-- Create offer -->
    <g transform="translate(894.537461 373.045544)scale(0.0675 -0.0675)">
     <use xlink:href="#DejaVuSans-67"/>
     <use x="69.824219" xlink:href="#DejaVuSans-114"/>
     <use x="108.6875" xlink:href="#DejaVuSans-101"/>
     <use x="170.210938" xlink:href="#DejaVuSans-97"/>
     <use x="231.490234" xlink:href="#DejaVuSans-116"/>
     <use x="270.699219" xlink:href="#DejaVuSans-101"/>
     <use x="332.222656" xlink:href="#DejaVuSans-32"/>
     <use x="364.009766" xlink:href="#DejaVuSans-111"/>
     <use x="425.191406" xlink:href="#DejaVuSans-102"/>
     <use x="460.396484" xlink:href="#DejaVuSans-102"/>
     <use x="495.601562" xlink:href="#DejaVuSans-101"/>
     <use x="557.125" xlink:href="#DejaVuSans-114"/>
    </g>
   </g>
   <g id="text_43">
    <!-- Complete -->
    <g transform="translate(944.483538 373.045544)scale(0.0675 -0.0675)">
     <use xlink:href="#DejaVuSans-67"/>
     <use x="69.824219" xlink:href="#DejaVuSans-111"/>
     <use x="131.005859" xlink:href="#DejaVuSans-109"/>
     <use x="228.417969" xlink:href="#DejaVuSans-112"/>
     <use x="291.894531" xlink:href="#DejaVuSans-108"/>
     <use x="319.677734" xlink:href="#DejaVuSans-101"/>
     <use x="381.201172" xlink:href="#DejaVuSans-116"/>
     <use x="420.410156" xlink:href="#DejaVuSans-101"/>
    </g>
   </g>
   <g id="text_44">
    <!-- Call -->
    <g transform="translate(994.429615 373.045544)scale(0.0675 -0.0675)">
     <use xlink:href="#DejaVuSans-67"/>
     <use x="69.824219" xlink:href="#DejaVuSans-97"/>
     <use x="131.103516" xlink:href="#DejaVuSans-108"/>
     <use x="158.886719" xlink:href="#DejaVuSans-108"/>
    </g>
   </g>
   <g id="text_45">
    <!-- Validate -->
    <g transform="translate(1044.375692 373.045544)scale(0.0675 -0.0675)">
     <use xlink:href="#DejaVuSans-86"/>
     <use x="60.658203" xlink:href="#DejaVuSans-97"/>
     <use x="121.9375" xlink:href="#DejaVuSans-108"/>
     <use x="149.720703" xlink:href="#DejaVuSans-105"/>
     <use x="177.503906" xlink:href="#DejaVuSans-100"/>
     <use x="240.980469" xlink:href="#DejaVuSans-97"/>
     <use x="302.259766" xlink:href="#DejaVuSans-116"/>
     <use x="341.46875" xlink:href="#DejaVuSans-101"/>
    </g>
   </g>
   <g id="text_46">
    <!-- Call incomp... -->
    <g transform="translate(1094.321769 373.045544)scale(0.0675 -0.0675)">
     <use xlink:href="#DejaVuSans-67"/>
     <use x="69.824219" xlink:href="#DejaVuSans-97"/>
     <use x="131.103516" xlink:href="#DejaVuSans-108"/>
     <use x="158.886719" xlink:href="#DejaVuSans-108"/>
     <use x="186.669922" xlink:href="#DejaVuSans-32"/>
     <use x="218.457031" xlink:href="#DejaVuSans-105"/>
     <use x="246.240234" xlink:href="#DejaVuSans-110"/>
     <use x="309.619141" xlink:href="#DejaVuSans-99"/>
     <use x="364.599609" xlink:href="#DejaVuSans-111"/>
     <use x="425.78125" xlink:href="#DejaVuSans-109"/>
     <use x="523.193359" xlink:href="#DejaVuSans-112"/>
     <use x="586.669922" xlink:href="#DejaVuSans-46"/>
     <use x="618.457031" xlink:href="#DejaVuSans-46"/>
     <use x="650.244141" xlink:href="#DejaVuSans-46"/>
    </g>
   </g>
   <g id="text_47">
    <!-- Accept offer -->
    <g transform="translate(1144.267846 373.045544)scale(0.0675 -0.0675)">
     <use xlink:href="#DejaVuSans-65"/>
     <use x="66.658203" xlink:href="#DejaVuSans-99"/>
     <use x="121.638672" xlink:href="#DejaVuSans-99"/>
     <use x="176.619141" xlink:href="#DejaVuSans-101"/>
     <use x="238.142578" xlink:href="#DejaVuSans-112"/>
     <use x="301.619141" xlink:href="#DejaVuSans-116"/>
     <use x="340.828125" xlink:href="#DejaVuSans-32"/>
     <use x="372.615234" xlink:href="#DejaVuSans-111"/>
     <use x="433.796875" xlink:href="#DejaVuSans-102"/>
     <use x="469.001953" xlink:href="#DejaVuSans-102"/>
     <use x="504.207031" xlink:href="#DejaVuSans-101"/>
     <use x="565.730469" xlink:href="#DejaVuSans-114"/>
    </g>
   </g>
   <g id="text_48">
    <!-- Pending -->
    <g transform="translate(1194.213923 373.045544)scale(0.0675 -0.0675)">
     <use xlink:href="#DejaVuSans-80"/>
     <use x="56.677734" xlink:href="#DejaVuSans-101"/>
     <use x="118.201172" xlink:href="#DejaVuSans-110"/>
     <use x="181.580078" xlink:href="#DejaVuSans-100"/>
     <use x="245.056641" xlink:href="#DejaVuSans-105"/>
     <use x="272.839844" xlink:href="#DejaVuSans-110"/>
     <use x="336.21875" xlink:href="#DejaVuSans-103"/>
    </g>
   </g>
   <g id="text_49">
    <!-- Create offer -->
    <g transform="translate(894.537461 348.072506)scale(0.0675 -0.0675)">
     <use xlink:href="#DejaVuSans-67"/>
     <use x="69.824219" xlink:href="#DejaVuSans-114"/>
     <use x="108.6875" xlink:href="#DejaVuSans-101"/>
     <use x="170.210938" xlink:href="#DejaVuSans-97"/>
     <use x="231.490234" xlink:href="#DejaVuSans-116"/>
     <use x="270.699219" xlink:href="#DejaVuSans-101"/>
     <use x="332.222656" xlink:href="#DejaVuSans-32"/>
     <use x="364.009766" xlink:href="#DejaVuSans-111"/>
     <use x="425.191406" xlink:href="#DejaVuSans-102"/>
     <use x="460.396484" xlink:href="#DejaVuSans-102"/>
     <use x="495.601562" xlink:href="#DejaVuSans-101"/>
     <use x="557.125" xlink:href="#DejaVuSans-114"/>
    </g>
   </g>
   <g id="text_50">
    <!-- Send (mail ... -->
    <g transform="translate(944.483538 348.072506)scale(0.0675 -0.0675)">
     <defs>
      <path d="M 31 75.875 
Q 24.46875 64.65625 21.28125 53.65625 
Q 18.109375 42.671875 18.109375 31.390625 
Q 18.109375 20.125 21.3125 9.0625 
Q 24.515625 -2 31 -13.1875 
L 23.1875 -13.1875 
Q 15.875 -1.703125 12.234375 9.375 
Q 8.59375 20.453125 8.59375 31.390625 
Q 8.59375 42.28125 12.203125 53.3125 
Q 15.828125 64.359375 23.1875 75.875 
z
" id="DejaVuSans-40"/>
     </defs>
     <use xlink:href="#DejaVuSans-83"/>
     <use x="63.476562" xlink:href="#DejaVuSans-101"/>
     <use x="125" xlink:href="#DejaVuSans-110"/>
     <use x="188.378906" xlink:href="#DejaVuSans-100"/>
     <use x="251.855469" xlink:href="#DejaVuSans-32"/>
     <use x="283.642578" xlink:href="#DejaVuSans-40"/>
     <use x="322.65625" xlink:href="#DejaVuSans-109"/>
     <use x="420.068359" xlink:href="#DejaVuSans-97"/>
     <use x="481.347656" xlink:href="#DejaVuSans-105"/>
     <use x="509.130859" xlink:href="#DejaVuSans-108"/>
     <use x="536.914062" xlink:href="#DejaVuSans-32"/>
     <use x="568.701172" xlink:href="#DejaVuSans-46"/>
     <use x="600.488281" xlink:href="#DejaVuSans-46"/>
     <use x="632.275391" xlink:href="#DejaVuSans-46"/>
    </g>
   </g>
   <g id="text_51">
    <!-- Call -->
    <g transform="translate(994.429615 348.072506)scale(0.0675 -0.0675)">
     <use xlink:href="#DejaVuSans-67"/>
     <use x="69.824219" xlink:href="#DejaVuSans-97"/>
     <use x="131.103516" xlink:href="#DejaVuSans-108"/>
     <use x="158.886719" xlink:href="#DejaVuSans-108"/>
    </g>
   </g>
   <g id="text_52">
    <!-- Return -->
    <g transform="translate(1094.321769 348.072506)scale(0.0675 -0.0675)">
     <use xlink:href="#DejaVuSans-82"/>
     <use x="64.982422" xlink:href="#DejaVuSans-101"/>
     <use x="126.505859" xlink:href="#DejaVuSans-116"/>
     <use x="165.714844" xlink:href="#DejaVuSans-117"/>
     <use x="229.09375" xlink:href="#DejaVuSans-114"/>
     <use x="268.457031" xlink:href="#DejaVuSans-110"/>
    </g>
   </g>
   <g id="text_53">
    <!-- Accept offer -->
    <g transform="translate(1144.267846 348.072506)scale(0.0675 -0.0675)">
     <use xlink:href="#DejaVuSans-65"/>
     <use x="66.658203" xlink:href="#DejaVuSans-99"/>
     <use x="121.638672" xlink:href="#DejaVuSans-99"/>
     <use x="176.619141" xlink:href="#DejaVuSans-101"/>
     <use x="238.142578" xlink:href="#DejaVuSans-112"/>
     <use x="301.619141" xlink:href="#DejaVuSans-116"/>
     <use x="340.828125" xlink:href="#DejaVuSans-32"/>
     <use x="372.615234" xlink:href="#DejaVuSans-111"/>
     <use x="433.796875" xlink:href="#DejaVuSans-102"/>
     <use x="469.001953" xlink:href="#DejaVuSans-102"/>
     <use x="504.207031" xlink:href="#DejaVuSans-101"/>
     <use x="565.730469" xlink:href="#DejaVuSans-114"/>
    </g>
   </g>
  </g>
 </g>
 <defs>
  <clipPath id="p3ff3e06e4c">
   <rect height="43.183872" width="527.763547" x="172.8" y="332.918064"/>
  </clipPath>
  <clipPath id="pbd05ab654e">
   <rect height="67.704682" width="527.763547" x="716.396453" y="320.657659"/>
  </clipPath>
 </defs>
</svg>
