<?xml version="1.0" encoding="utf-8" standalone="no"?>
<!DOCTYPE svg PUBLIC "-//W3C//DTD SVG 1.1//EN"
  "http://www.w3.org/Graphics/SVG/1.1/DTD/svg11.dtd">
<!-- Created with matplotlib (https://matplotlib.org/) -->
<svg height="702pt" version="1.1" viewBox="0 0 1382.4 702" width="1382.4pt" xmlns="http://www.w3.org/2000/svg" xmlns:xlink="http://www.w3.org/1999/xlink">
 <metadata>
  <rdf:RDF xmlns:cc="http://creativecommons.org/ns#" xmlns:dc="http://purl.org/dc/elements/1.1/" xmlns:rdf="http://www.w3.org/1999/02/22-rdf-syntax-ns#">
   <cc:Work>
    <dc:type rdf:resource="http://purl.org/dc/dcmitype/StillImage"/>
    <dc:date>2023-02-16T11:23:37.344318</dc:date>
    <dc:format>image/svg+xml</dc:format>
    <dc:creator>
     <cc:Agent>
      <dc:title>Matplotlib v3.3.4, https://matplotlib.org/</dc:title>
     </cc:Agent>
    </dc:creator>
   </cc:Work>
  </rdf:RDF>
 </metadata>
 <defs>
  <style type="text/css">*{stroke-linecap:butt;stroke-linejoin:round;}</style>
 </defs>
 <g id="figure_1">
  <g id="patch_1">
   <path d="M 0 702 
L 1382.4 702 
L 1382.4 0 
L 0 0 
z
" style="fill:#ffffff;"/>
  </g>
  <g id="axes_1">
   <g id="patch_2">
    <path clip-path="url(#p713540ff0e)" d="M 184.919457 487.824027 
L 1275.670588 487.824027 
L 1275.670588 378.748914 
L 184.919457 378.748914 
z
" style="fill:#ffa24b;opacity:0.8;stroke:#ffa24b;stroke-linejoin:miter;"/>
   </g>
   <g id="patch_3">
    <path clip-path="url(#p713540ff0e)" d="M 184.919457 378.748914 
L 1275.670588 378.748914 
L 1275.670588 233.31543 
L 184.919457 233.31543 
z
" style="fill:#76c476;opacity:0.8;stroke:#76c476;stroke-linejoin:miter;"/>
   </g>
   <g id="patch_4">
    <path clip-path="url(#p713540ff0e)" d="M 366.711312 487.824027 
L 439.428054 487.824027 
L 442.457919 433.286471 
L 439.428054 378.748914 
L 366.711312 378.748914 
L 369.741176 433.286471 
z
" style="fill:none;stroke:#000000;stroke-linejoin:miter;"/>
   </g>
   <g id="patch_5">
    <path clip-path="url(#p713540ff0e)" d="M 369.135204 484.794163 
L 437.004163 484.794163 
L 440.034027 460.555249 
L 437.004163 436.316335 
L 369.135204 436.316335 
L 372.165068 460.555249 
z
" style="fill:none;stroke:#000000;stroke-dasharray:3.7,1.6;stroke-dashoffset:0;stroke-linejoin:miter;"/>
   </g>
   <g id="patch_6">
    <path clip-path="url(#p713540ff0e)" d="M 584.861538 487.824027 
L 657.578281 487.824027 
L 660.608145 433.286471 
L 657.578281 378.748914 
L 584.861538 378.748914 
L 587.891403 433.286471 
z
" style="fill:none;stroke:#000000;stroke-linejoin:miter;"/>
   </g>
   <g id="patch_7">
    <path clip-path="url(#p713540ff0e)" d="M 588.012597 484.794163 
L 655.154389 484.794163 
L 658.184253 460.555249 
L 655.154389 436.316335 
L 588.012597 436.316335 
L 591.042462 460.555249 
z
" style="fill:none;stroke:#000000;stroke-linejoin:miter;"/>
   </g>
   <g id="patch_8">
    <path clip-path="url(#p713540ff0e)" d="M 730.295023 487.824027 
L 948.445249 487.824027 
L 951.475113 433.286471 
L 948.445249 378.748914 
L 730.295023 378.748914 
L 733.324887 433.286471 
z
" style="fill:none;stroke:#000000;stroke-linejoin:miter;"/>
   </g>
   <g id="patch_9">
    <path clip-path="url(#p713540ff0e)" d="M 733.446081 481.764299 
L 946.021357 481.764299 
L 949.051222 451.465656 
L 946.021357 421.167014 
L 733.446081 421.167014 
L 736.475946 451.465656 
z
" style="fill:none;stroke:#000000;stroke-linejoin:miter;"/>
   </g>
   <g id="patch_10">
    <path clip-path="url(#p713540ff0e)" d="M 1021.161991 487.824027 
L 1239.312217 487.824027 
L 1242.342081 433.286471 
L 1239.312217 378.748914 
L 1021.161991 378.748914 
L 1024.191855 433.286471 
z
" style="fill:none;stroke:#000000;stroke-linejoin:miter;"/>
   </g>
   <g id="patch_11">
    <path clip-path="url(#p713540ff0e)" d="M 1023.585882 484.794163 
L 1236.888326 484.794163 
L 1239.91819 460.555249 
L 1236.888326 436.316335 
L 1023.585882 436.316335 
L 1026.615747 460.555249 
z
" style="fill:none;stroke:#000000;stroke-dasharray:3.7,1.6;stroke-dashoffset:0;stroke-linejoin:miter;"/>
   </g>
   <g id="patch_12">
    <path clip-path="url(#p713540ff0e)" d="M 730.295023 378.748914 
L 1239.312217 378.748914 
L 1242.342081 306.032172 
L 1239.312217 233.31543 
L 730.295023 233.31543 
L 733.324887 306.032172 
z
" style="fill:none;stroke:#000000;stroke-linejoin:miter;"/>
   </g>
   <g id="patch_13">
    <path clip-path="url(#p713540ff0e)" d="M 733.446081 369.659321 
L 1236.888326 369.659321 
L 1239.91819 324.211357 
L 1236.888326 278.763394 
L 733.446081 278.763394 
L 736.475946 324.211357 
z
" style="fill:none;stroke:#000000;stroke-linejoin:miter;"/>
   </g>
   <g id="patch_14">
    <path clip-path="url(#p713540ff0e)" d="M 736.59714 364.609548 
L 1092.216636 364.609548 
L 1095.2465 339.360679 
L 1092.216636 314.11181 
L 736.59714 314.11181 
L 739.627005 339.360679 
z
" style="fill:none;stroke:#000000;stroke-linejoin:miter;"/>
   </g>
   <g id="patch_15">
    <path clip-path="url(#p713540ff0e)" d="M 221.277828 487.824027 
L 293.99457 487.824027 
L 297.024434 433.286471 
L 293.99457 378.748914 
L 221.277828 378.748914 
L 224.307692 433.286471 
z
" style="fill:#ffa24b;stroke:#000000;stroke-linejoin:miter;stroke-width:1.3;"/>
   </g>
   <g id="patch_16">
    <path clip-path="url(#p713540ff0e)" d="M 293.99457 487.824027 
L 366.711312 487.824027 
L 369.741176 433.286471 
L 366.711312 378.748914 
L 293.99457 378.748914 
L 297.024434 433.286471 
z
" style="fill:#ffa24b;stroke:#000000;stroke-linejoin:miter;stroke-width:1.3;"/>
   </g>
   <g id="patch_17">
    <path clip-path="url(#p713540ff0e)" d="M 371.559095 480.754344 
L 434.580271 480.754344 
L 437.610136 460.555249 
L 434.580271 440.356154 
L 371.559095 440.356154 
L 374.588959 460.555249 
z
" style="fill:#ffa24b;stroke:#000000;stroke-dasharray:4.81,2.08;stroke-dashoffset:0;stroke-linejoin:miter;stroke-width:1.3;"/>
   </g>
   <g id="patch_18">
    <path clip-path="url(#p713540ff0e)" d="M 369.135204 430.256606 
L 437.004163 430.256606 
L 440.034027 406.017692 
L 437.004163 381.778778 
L 369.135204 381.778778 
L 372.165068 406.017692 
z
" style="fill:#ffa24b;stroke:#000000;stroke-dasharray:4.81,2.08;stroke-dashoffset:0;stroke-linejoin:miter;stroke-width:1.3;"/>
   </g>
   <g id="patch_19">
    <path clip-path="url(#p713540ff0e)" d="M 439.428054 487.824027 
L 512.144796 487.824027 
L 515.174661 433.286471 
L 512.144796 378.748914 
L 439.428054 378.748914 
L 442.457919 433.286471 
z
" style="fill:#ffa24b;stroke:#000000;stroke-linejoin:miter;stroke-width:1.3;"/>
   </g>
   <g id="patch_20">
    <path clip-path="url(#p713540ff0e)" d="M 512.144796 487.824027 
L 548.503167 487.824027 
L 551.533032 433.286471 
L 548.503167 378.748914 
L 512.144796 378.748914 
L 515.174661 433.286471 
z
" style="fill:#76c476;"/>
   </g>
   <g id="patch_21">
    <path clip-path="url(#p713540ff0e)" d="M 548.503167 487.824027 
L 584.861538 487.824027 
L 587.891403 433.286471 
L 584.861538 378.748914 
L 548.503167 378.748914 
L 551.533032 433.286471 
z
" style="fill:#ffa24b;"/>
   </g>
   <g id="patch_22">
    <path clip-path="url(#p713540ff0e)" d="M 590.436489 480.754344 
L 652.730498 480.754344 
L 655.760362 460.555249 
L 652.730498 440.356154 
L 590.436489 440.356154 
L 593.466353 460.555249 
z
" style="fill:#ffa24b;stroke:#000000;stroke-dasharray:4.81,2.08;stroke-dashoffset:0;stroke-linejoin:miter;stroke-width:1.3;"/>
   </g>
   <g id="patch_23">
    <path clip-path="url(#p713540ff0e)" d="M 588.012597 430.256606 
L 655.154389 430.256606 
L 658.184253 406.017692 
L 655.154389 381.778778 
L 588.012597 381.778778 
L 591.042462 406.017692 
z
" style="fill:#ffa24b;stroke:#000000;stroke-linejoin:miter;stroke-width:1.3;"/>
   </g>
   <g id="patch_24">
    <path clip-path="url(#p713540ff0e)" d="M 657.578281 487.824027 
L 693.936652 487.824027 
L 696.966516 433.286471 
L 693.936652 378.748914 
L 657.578281 378.748914 
L 660.608145 433.286471 
z
" style="fill:#76c476;"/>
   </g>
   <g id="patch_25">
    <path clip-path="url(#p713540ff0e)" d="M 693.936652 487.824027 
L 730.295023 487.824027 
L 733.324887 433.286471 
L 730.295023 378.748914 
L 693.936652 378.748914 
L 696.966516 433.286471 
z
" style="fill:#ffa24b;"/>
   </g>
   <g id="patch_26">
    <path clip-path="url(#p713540ff0e)" d="M 805.112471 479.239412 
L 874.354968 479.239412 
L 877.384833 466.614977 
L 874.354968 453.990543 
L 805.112471 453.990543 
L 808.142335 466.614977 
z
" style="fill:#ffa24b;stroke:#000000;stroke-dasharray:4.81,2.08;stroke-dashoffset:0;stroke-linejoin:miter;stroke-width:1.3;"/>
   </g>
   <g id="patch_27">
    <path clip-path="url(#p713540ff0e)" d="M 874.354968 479.239412 
L 943.597466 479.239412 
L 946.62733 466.614977 
L 943.597466 453.990543 
L 874.354968 453.990543 
L 877.384833 466.614977 
z
" style="fill:#ffa24b;stroke:#000000;stroke-dasharray:4.81,2.08;stroke-dashoffset:0;stroke-linejoin:miter;stroke-width:1.3;"/>
   </g>
   <g id="patch_28">
    <path clip-path="url(#p713540ff0e)" d="M 735.869973 448.940769 
L 770.491222 448.940769 
L 773.521086 436.316335 
L 770.491222 423.6919 
L 735.869973 423.6919 
L 738.899837 436.316335 
z
" style="fill:#76c476;stroke-dasharray:0,0;stroke-dashoffset:0;"/>
   </g>
   <g id="patch_29">
    <path clip-path="url(#p713540ff0e)" d="M 770.491222 448.940769 
L 805.112471 448.940769 
L 808.142335 436.316335 
L 805.112471 423.6919 
L 770.491222 423.6919 
L 773.521086 436.316335 
z
" style="fill:#ffa24b;stroke-dasharray:0,0;stroke-dashoffset:0;"/>
   </g>
   <g id="patch_30">
    <path clip-path="url(#p713540ff0e)" d="M 805.112471 448.940769 
L 839.733719 448.940769 
L 842.763584 436.316335 
L 839.733719 423.6919 
L 805.112471 423.6919 
L 808.142335 436.316335 
z
" style="fill:#76c476;stroke-dasharray:0,0;stroke-dashoffset:0;"/>
   </g>
   <g id="patch_31">
    <path clip-path="url(#p713540ff0e)" d="M 839.733719 448.940769 
L 874.354968 448.940769 
L 877.384833 436.316335 
L 874.354968 423.6919 
L 839.733719 423.6919 
L 842.763584 436.316335 
z
" style="fill:#ffa24b;stroke-dasharray:0,0;stroke-dashoffset:0;"/>
   </g>
   <g id="patch_32">
    <path clip-path="url(#p713540ff0e)" d="M 804.304507 412.077421 
L 839.733719 412.077421 
L 842.763584 396.9281 
L 839.733719 381.778778 
L 804.304507 381.778778 
L 807.334371 396.9281 
z
" style="fill:#76c476;"/>
   </g>
   <g id="patch_33">
    <path clip-path="url(#p713540ff0e)" d="M 839.733719 412.077421 
L 875.162932 412.077421 
L 878.192796 396.9281 
L 875.162932 381.778778 
L 839.733719 381.778778 
L 842.763584 396.9281 
z
" style="fill:#ffa24b;"/>
   </g>
   <g id="patch_34">
    <path clip-path="url(#p713540ff0e)" d="M 875.162932 412.077421 
L 910.592145 412.077421 
L 913.622009 396.9281 
L 910.592145 381.778778 
L 875.162932 381.778778 
L 878.192796 396.9281 
z
" style="fill:#76c476;"/>
   </g>
   <g id="patch_35">
    <path clip-path="url(#p713540ff0e)" d="M 910.592145 412.077421 
L 946.021357 412.077421 
L 949.051222 396.9281 
L 946.021357 381.778778 
L 910.592145 381.778778 
L 913.622009 396.9281 
z
" style="fill:#ffa24b;"/>
   </g>
   <g id="patch_36">
    <path clip-path="url(#p713540ff0e)" d="M 948.445249 487.824027 
L 1021.161991 487.824027 
L 1024.191855 433.286471 
L 1021.161991 378.748914 
L 948.445249 378.748914 
L 951.475113 433.286471 
z
" style="fill:#ffa24b;stroke:#000000;stroke-linejoin:miter;stroke-width:1.3;"/>
   </g>
   <g id="patch_37">
    <path clip-path="url(#p713540ff0e)" d="M 1026.009774 480.754344 
L 1060.752217 480.754344 
L 1063.782081 460.555249 
L 1060.752217 440.356154 
L 1026.009774 440.356154 
L 1029.039638 460.555249 
z
" style="fill:#76c476;stroke-dasharray:0,0;stroke-dashoffset:0;"/>
   </g>
   <g id="patch_38">
    <path clip-path="url(#p713540ff0e)" d="M 1060.752217 480.754344 
L 1095.494661 480.754344 
L 1098.524525 460.555249 
L 1095.494661 440.356154 
L 1060.752217 440.356154 
L 1063.782081 460.555249 
z
" style="fill:#ffa24b;stroke-dasharray:0,0;stroke-dashoffset:0;"/>
   </g>
   <g id="patch_39">
    <path clip-path="url(#p713540ff0e)" d="M 1164.979548 480.754344 
L 1234.464434 480.754344 
L 1237.494299 460.555249 
L 1234.464434 440.356154 
L 1164.979548 440.356154 
L 1168.009412 460.555249 
z
" style="fill:#ffa24b;stroke:#000000;stroke-dasharray:4.81,2.08;stroke-dashoffset:0;stroke-linejoin:miter;stroke-width:1.3;"/>
   </g>
   <g id="patch_40">
    <path clip-path="url(#p713540ff0e)" d="M 1023.585882 430.256606 
L 1094.686697 430.256606 
L 1097.716561 406.017692 
L 1094.686697 381.778778 
L 1023.585882 381.778778 
L 1026.615747 406.017692 
z
" style="fill:#ffa24b;stroke:#000000;stroke-dasharray:4.81,2.08;stroke-dashoffset:0;stroke-linejoin:miter;stroke-width:1.3;"/>
   </g>
   <g id="patch_41">
    <path clip-path="url(#p713540ff0e)" d="M 1094.686697 430.256606 
L 1130.237104 430.256606 
L 1133.266968 406.017692 
L 1130.237104 381.778778 
L 1094.686697 381.778778 
L 1097.716561 406.017692 
z
" style="fill:#76c476;stroke-dasharray:0,0;stroke-dashoffset:0;"/>
   </g>
   <g id="patch_42">
    <path clip-path="url(#p713540ff0e)" d="M 1130.237104 430.256606 
L 1165.787511 430.256606 
L 1168.817376 406.017692 
L 1165.787511 381.778778 
L 1130.237104 381.778778 
L 1133.266968 406.017692 
z
" style="fill:#ffa24b;stroke-dasharray:0,0;stroke-dashoffset:0;"/>
   </g>
   <g id="patch_43">
    <path clip-path="url(#p713540ff0e)" d="M 1165.787511 430.256606 
L 1201.337919 430.256606 
L 1204.367783 406.017692 
L 1201.337919 381.778778 
L 1165.787511 381.778778 
L 1168.817376 406.017692 
z
" style="fill:#76c476;stroke-dasharray:0,0;stroke-dashoffset:0;"/>
   </g>
   <g id="patch_44">
    <path clip-path="url(#p713540ff0e)" d="M 1201.337919 430.256606 
L 1236.888326 430.256606 
L 1239.91819 406.017692 
L 1236.888326 381.778778 
L 1201.337919 381.778778 
L 1204.367783 406.017692 
z
" style="fill:#ffa24b;stroke-dasharray:0,0;stroke-dashoffset:0;"/>
   </g>
   <g id="patch_45">
    <path clip-path="url(#p713540ff0e)" d="M 512.144796 378.748914 
L 548.503167 378.748914 
L 551.533032 306.032172 
L 548.503167 233.31543 
L 512.144796 233.31543 
L 515.174661 306.032172 
z
" style="fill:#76c476;"/>
   </g>
   <g id="patch_46">
    <path clip-path="url(#p713540ff0e)" d="M 548.503167 378.748914 
L 584.861538 378.748914 
L 587.891403 306.032172 
L 584.861538 233.31543 
L 548.503167 233.31543 
L 551.533032 306.032172 
z
" style="fill:#ffa24b;"/>
   </g>
   <g id="patch_47">
    <path clip-path="url(#p713540ff0e)" d="M 584.861538 378.748914 
L 657.578281 378.748914 
L 660.608145 306.032172 
L 657.578281 233.31543 
L 584.861538 233.31543 
L 587.891403 306.032172 
z
" style="fill:#76c476;stroke:#000000;stroke-linejoin:miter;stroke-width:1.3;"/>
   </g>
   <g id="patch_48">
    <path clip-path="url(#p713540ff0e)" d="M 657.578281 378.748914 
L 693.936652 378.748914 
L 696.966516 306.032172 
L 693.936652 233.31543 
L 657.578281 233.31543 
L 660.608145 306.032172 
z
" style="fill:#76c476;"/>
   </g>
   <g id="patch_49">
    <path clip-path="url(#p713540ff0e)" d="M 693.936652 378.748914 
L 730.295023 378.748914 
L 733.324887 306.032172 
L 730.295023 233.31543 
L 693.936652 233.31543 
L 696.966516 306.032172 
z
" style="fill:#ffa24b;"/>
   </g>
   <g id="patch_50">
    <path clip-path="url(#p713540ff0e)" d="M 949.774926 362.505475 
L 1019.783836 362.505475 
L 1022.8137 351.985113 
L 1019.783836 341.464751 
L 949.774926 341.464751 
L 952.804791 351.985113 
z
" style="fill:#76c476;stroke:#000000;stroke-linejoin:miter;stroke-width:1.3;"/>
   </g>
   <g id="patch_51">
    <path clip-path="url(#p713540ff0e)" d="M 1019.783836 362.505475 
L 1054.78829 362.505475 
L 1057.818154 351.985113 
L 1054.78829 341.464751 
L 1019.783836 341.464751 
L 1022.8137 351.985113 
z
" style="fill:#76c476;"/>
   </g>
   <g id="patch_52">
    <path clip-path="url(#p713540ff0e)" d="M 1054.78829 362.505475 
L 1089.792745 362.505475 
L 1092.822609 351.985113 
L 1089.792745 341.464751 
L 1054.78829 341.464751 
L 1057.818154 351.985113 
z
" style="fill:#ffa24b;"/>
   </g>
   <g id="patch_53">
    <path clip-path="url(#p713540ff0e)" d="M 739.748199 337.256606 
L 774.752654 337.256606 
L 777.782518 326.736244 
L 774.752654 316.215882 
L 739.748199 316.215882 
L 742.778063 326.736244 
z
" style="fill:#76c476;"/>
   </g>
   <g id="patch_54">
    <path clip-path="url(#p713540ff0e)" d="M 774.752654 337.256606 
L 809.757108 337.256606 
L 812.786972 326.736244 
L 809.757108 316.215882 
L 774.752654 316.215882 
L 777.782518 326.736244 
z
" style="fill:#ffa24b;"/>
   </g>
   <g id="patch_55">
    <path clip-path="url(#p713540ff0e)" d="M 809.757108 337.256606 
L 844.761563 337.256606 
L 847.791427 326.736244 
L 844.761563 316.215882 
L 809.757108 316.215882 
L 812.786972 326.736244 
z
" style="fill:#76c476;"/>
   </g>
   <g id="patch_56">
    <path clip-path="url(#p713540ff0e)" d="M 844.761563 337.256606 
L 879.766017 337.256606 
L 882.795882 326.736244 
L 879.766017 316.215882 
L 844.761563 316.215882 
L 847.791427 326.736244 
z
" style="fill:#ffa24b;"/>
   </g>
   <g id="patch_57">
    <path clip-path="url(#p713540ff0e)" d="M 1021.092737 306.537149 
L 1092.216636 306.537149 
L 1095.2465 293.912715 
L 1092.216636 281.288281 
L 1021.092737 281.288281 
L 1024.122601 293.912715 
z
" style="fill:#76c476;stroke:#000000;stroke-linejoin:miter;stroke-width:1.3;"/>
   </g>
   <g id="patch_58">
    <path clip-path="url(#p713540ff0e)" d="M 1092.216636 306.537149 
L 1127.778586 306.537149 
L 1130.80845 293.912715 
L 1127.778586 281.288281 
L 1092.216636 281.288281 
L 1095.2465 293.912715 
z
" style="fill:#76c476;"/>
   </g>
   <g id="patch_59">
    <path clip-path="url(#p713540ff0e)" d="M 1127.778586 306.537149 
L 1163.340535 306.537149 
L 1166.370399 293.912715 
L 1163.340535 281.288281 
L 1127.778586 281.288281 
L 1130.80845 293.912715 
z
" style="fill:#ffa24b;"/>
   </g>
   <g id="patch_60">
    <path clip-path="url(#p713540ff0e)" d="M 1163.340535 306.537149 
L 1198.902485 306.537149 
L 1201.932349 293.912715 
L 1198.902485 281.288281 
L 1163.340535 281.288281 
L 1166.370399 293.912715 
z
" style="fill:#76c476;"/>
   </g>
   <g id="patch_61">
    <path clip-path="url(#p713540ff0e)" d="M 1198.902485 306.537149 
L 1234.464434 306.537149 
L 1237.494299 293.912715 
L 1234.464434 281.288281 
L 1198.902485 281.288281 
L 1201.932349 293.912715 
z
" style="fill:#ffa24b;"/>
   </g>
   <g id="patch_62">
    <path clip-path="url(#p713540ff0e)" d="M 733.446081 266.643937 
L 805.366402 266.643937 
L 808.396266 251.494615 
L 805.366402 236.345294 
L 733.446081 236.345294 
L 736.475946 251.494615 
z
" style="fill:#76c476;stroke:#000000;stroke-linejoin:miter;stroke-width:1.3;"/>
   </g>
   <g id="patch_63">
    <path clip-path="url(#p713540ff0e)" d="M 805.366402 266.643937 
L 841.326562 266.643937 
L 844.356427 251.494615 
L 841.326562 236.345294 
L 805.366402 236.345294 
L 808.396266 251.494615 
z
" style="fill:#76c476;"/>
   </g>
   <g id="patch_64">
    <path clip-path="url(#p713540ff0e)" d="M 841.326562 266.643937 
L 877.286723 266.643937 
L 880.316587 251.494615 
L 877.286723 236.345294 
L 841.326562 236.345294 
L 844.356427 251.494615 
z
" style="fill:#ffa24b;"/>
   </g>
   <g id="patch_65">
    <path clip-path="url(#p713540ff0e)" d="M 877.286723 266.643937 
L 913.246883 266.643937 
L 916.276747 251.494615 
L 913.246883 236.345294 
L 877.286723 236.345294 
L 880.316587 251.494615 
z
" style="fill:#76c476;"/>
   </g>
   <g id="patch_66">
    <path clip-path="url(#p713540ff0e)" d="M 913.246883 266.643937 
L 949.207043 266.643937 
L 952.236908 251.494615 
L 949.207043 236.345294 
L 913.246883 236.345294 
L 916.276747 251.494615 
z
" style="fill:#ffa24b;"/>
   </g>
   <g id="text_1">
    <!-- 1 -->
    <g transform="translate(172.8 434.013638)scale(0.03 -0.03)">
     <defs>
      <path d="M 12.40625 8.296875 
L 28.515625 8.296875 
L 28.515625 63.921875 
L 10.984375 60.40625 
L 10.984375 69.390625 
L 28.421875 72.90625 
L 38.28125 72.90625 
L 38.28125 8.296875 
L 54.390625 8.296875 
L 54.390625 0 
L 12.40625 0 
z
" id="DejaVuSans-49"/>
     </defs>
     <use xlink:href="#DejaVuSans-49"/>
    </g>
   </g>
   <g id="text_2">
    <!-- applicat. 0 -->
    <g transform="translate(187.343348 434.013638)scale(0.03 -0.03)">
     <defs>
      <path d="M 34.28125 27.484375 
Q 23.390625 27.484375 19.1875 25 
Q 14.984375 22.515625 14.984375 16.5 
Q 14.984375 11.71875 18.140625 8.90625 
Q 21.296875 6.109375 26.703125 6.109375 
Q 34.1875 6.109375 38.703125 11.40625 
Q 43.21875 16.703125 43.21875 25.484375 
L 43.21875 27.484375 
z
M 52.203125 31.203125 
L 52.203125 0 
L 43.21875 0 
L 43.21875 8.296875 
Q 40.140625 3.328125 35.546875 0.953125 
Q 30.953125 -1.421875 24.3125 -1.421875 
Q 15.921875 -1.421875 10.953125 3.296875 
Q 6 8.015625 6 15.921875 
Q 6 25.140625 12.171875 29.828125 
Q 18.359375 34.515625 30.609375 34.515625 
L 43.21875 34.515625 
L 43.21875 35.40625 
Q 43.21875 41.609375 39.140625 45 
Q 35.0625 48.390625 27.6875 48.390625 
Q 23 48.390625 18.546875 47.265625 
Q 14.109375 46.140625 10.015625 43.890625 
L 10.015625 52.203125 
Q 14.9375 54.109375 19.578125 55.046875 
Q 24.21875 56 28.609375 56 
Q 40.484375 56 46.34375 49.84375 
Q 52.203125 43.703125 52.203125 31.203125 
z
" id="DejaVuSans-97"/>
      <path d="M 18.109375 8.203125 
L 18.109375 -20.796875 
L 9.078125 -20.796875 
L 9.078125 54.6875 
L 18.109375 54.6875 
L 18.109375 46.390625 
Q 20.953125 51.265625 25.265625 53.625 
Q 29.59375 56 35.59375 56 
Q 45.5625 56 51.78125 48.09375 
Q 58.015625 40.1875 58.015625 27.296875 
Q 58.015625 14.40625 51.78125 6.484375 
Q 45.5625 -1.421875 35.59375 -1.421875 
Q 29.59375 -1.421875 25.265625 0.953125 
Q 20.953125 3.328125 18.109375 8.203125 
z
M 48.6875 27.296875 
Q 48.6875 37.203125 44.609375 42.84375 
Q 40.53125 48.484375 33.40625 48.484375 
Q 26.265625 48.484375 22.1875 42.84375 
Q 18.109375 37.203125 18.109375 27.296875 
Q 18.109375 17.390625 22.1875 11.75 
Q 26.265625 6.109375 33.40625 6.109375 
Q 40.53125 6.109375 44.609375 11.75 
Q 48.6875 17.390625 48.6875 27.296875 
z
" id="DejaVuSans-112"/>
      <path d="M 9.421875 75.984375 
L 18.40625 75.984375 
L 18.40625 0 
L 9.421875 0 
z
" id="DejaVuSans-108"/>
      <path d="M 9.421875 54.6875 
L 18.40625 54.6875 
L 18.40625 0 
L 9.421875 0 
z
M 9.421875 75.984375 
L 18.40625 75.984375 
L 18.40625 64.59375 
L 9.421875 64.59375 
z
" id="DejaVuSans-105"/>
      <path d="M 48.78125 52.59375 
L 48.78125 44.1875 
Q 44.96875 46.296875 41.140625 47.34375 
Q 37.3125 48.390625 33.40625 48.390625 
Q 24.65625 48.390625 19.8125 42.84375 
Q 14.984375 37.3125 14.984375 27.296875 
Q 14.984375 17.28125 19.8125 11.734375 
Q 24.65625 6.203125 33.40625 6.203125 
Q 37.3125 6.203125 41.140625 7.25 
Q 44.96875 8.296875 48.78125 10.40625 
L 48.78125 2.09375 
Q 45.015625 0.34375 40.984375 -0.53125 
Q 36.96875 -1.421875 32.421875 -1.421875 
Q 20.0625 -1.421875 12.78125 6.34375 
Q 5.515625 14.109375 5.515625 27.296875 
Q 5.515625 40.671875 12.859375 48.328125 
Q 20.21875 56 33.015625 56 
Q 37.15625 56 41.109375 55.140625 
Q 45.0625 54.296875 48.78125 52.59375 
z
" id="DejaVuSans-99"/>
      <path d="M 18.3125 70.21875 
L 18.3125 54.6875 
L 36.8125 54.6875 
L 36.8125 47.703125 
L 18.3125 47.703125 
L 18.3125 18.015625 
Q 18.3125 11.328125 20.140625 9.421875 
Q 21.96875 7.515625 27.59375 7.515625 
L 36.8125 7.515625 
L 36.8125 0 
L 27.59375 0 
Q 17.1875 0 13.234375 3.875 
Q 9.28125 7.765625 9.28125 18.015625 
L 9.28125 47.703125 
L 2.6875 47.703125 
L 2.6875 54.6875 
L 9.28125 54.6875 
L 9.28125 70.21875 
z
" id="DejaVuSans-116"/>
      <path d="M 10.6875 12.40625 
L 21 12.40625 
L 21 0 
L 10.6875 0 
z
" id="DejaVuSans-46"/>
      <path id="DejaVuSans-32"/>
      <path d="M 31.78125 66.40625 
Q 24.171875 66.40625 20.328125 58.90625 
Q 16.5 51.421875 16.5 36.375 
Q 16.5 21.390625 20.328125 13.890625 
Q 24.171875 6.390625 31.78125 6.390625 
Q 39.453125 6.390625 43.28125 13.890625 
Q 47.125 21.390625 47.125 36.375 
Q 47.125 51.421875 43.28125 58.90625 
Q 39.453125 66.40625 31.78125 66.40625 
z
M 31.78125 74.21875 
Q 44.046875 74.21875 50.515625 64.515625 
Q 56.984375 54.828125 56.984375 36.375 
Q 56.984375 17.96875 50.515625 8.265625 
Q 44.046875 -1.421875 31.78125 -1.421875 
Q 19.53125 -1.421875 13.0625 8.265625 
Q 6.59375 17.96875 6.59375 36.375 
Q 6.59375 54.828125 13.0625 64.515625 
Q 19.53125 74.21875 31.78125 74.21875 
z
" id="DejaVuSans-48"/>
     </defs>
     <use xlink:href="#DejaVuSans-97"/>
     <use x="61.279297" xlink:href="#DejaVuSans-112"/>
     <use x="124.755859" xlink:href="#DejaVuSans-112"/>
     <use x="188.232422" xlink:href="#DejaVuSans-108"/>
     <use x="216.015625" xlink:href="#DejaVuSans-105"/>
     <use x="243.798828" xlink:href="#DejaVuSans-99"/>
     <use x="298.779297" xlink:href="#DejaVuSans-97"/>
     <use x="360.058594" xlink:href="#DejaVuSans-116"/>
     <use x="399.267578" xlink:href="#DejaVuSans-46"/>
     <use x="431.054688" xlink:href="#DejaVuSans-32"/>
     <use x="462.841797" xlink:href="#DejaVuSans-48"/>
    </g>
   </g>
   <g id="text_3">
    <!-- 1 -->
    <g transform="translate(172.8 306.759339)scale(0.03 -0.03)">
     <use xlink:href="#DejaVuSans-49"/>
    </g>
   </g>
   <g id="text_4">
    <!-- offer 0 -->
    <g transform="translate(187.343348 306.759339)scale(0.03 -0.03)">
     <defs>
      <path d="M 30.609375 48.390625 
Q 23.390625 48.390625 19.1875 42.75 
Q 14.984375 37.109375 14.984375 27.296875 
Q 14.984375 17.484375 19.15625 11.84375 
Q 23.34375 6.203125 30.609375 6.203125 
Q 37.796875 6.203125 41.984375 11.859375 
Q 46.1875 17.53125 46.1875 27.296875 
Q 46.1875 37.015625 41.984375 42.703125 
Q 37.796875 48.390625 30.609375 48.390625 
z
M 30.609375 56 
Q 42.328125 56 49.015625 48.375 
Q 55.71875 40.765625 55.71875 27.296875 
Q 55.71875 13.875 49.015625 6.21875 
Q 42.328125 -1.421875 30.609375 -1.421875 
Q 18.84375 -1.421875 12.171875 6.21875 
Q 5.515625 13.875 5.515625 27.296875 
Q 5.515625 40.765625 12.171875 48.375 
Q 18.84375 56 30.609375 56 
z
" id="DejaVuSans-111"/>
      <path d="M 37.109375 75.984375 
L 37.109375 68.5 
L 28.515625 68.5 
Q 23.6875 68.5 21.796875 66.546875 
Q 19.921875 64.59375 19.921875 59.515625 
L 19.921875 54.6875 
L 34.71875 54.6875 
L 34.71875 47.703125 
L 19.921875 47.703125 
L 19.921875 0 
L 10.890625 0 
L 10.890625 47.703125 
L 2.296875 47.703125 
L 2.296875 54.6875 
L 10.890625 54.6875 
L 10.890625 58.5 
Q 10.890625 67.625 15.140625 71.796875 
Q 19.390625 75.984375 28.609375 75.984375 
z
" id="DejaVuSans-102"/>
      <path d="M 56.203125 29.59375 
L 56.203125 25.203125 
L 14.890625 25.203125 
Q 15.484375 15.921875 20.484375 11.0625 
Q 25.484375 6.203125 34.421875 6.203125 
Q 39.59375 6.203125 44.453125 7.46875 
Q 49.3125 8.734375 54.109375 11.28125 
L 54.109375 2.78125 
Q 49.265625 0.734375 44.1875 -0.34375 
Q 39.109375 -1.421875 33.890625 -1.421875 
Q 20.796875 -1.421875 13.15625 6.1875 
Q 5.515625 13.8125 5.515625 26.8125 
Q 5.515625 40.234375 12.765625 48.109375 
Q 20.015625 56 32.328125 56 
Q 43.359375 56 49.78125 48.890625 
Q 56.203125 41.796875 56.203125 29.59375 
z
M 47.21875 32.234375 
Q 47.125 39.59375 43.09375 43.984375 
Q 39.0625 48.390625 32.421875 48.390625 
Q 24.90625 48.390625 20.390625 44.140625 
Q 15.875 39.890625 15.1875 32.171875 
z
" id="DejaVuSans-101"/>
      <path d="M 41.109375 46.296875 
Q 39.59375 47.171875 37.8125 47.578125 
Q 36.03125 48 33.890625 48 
Q 26.265625 48 22.1875 43.046875 
Q 18.109375 38.09375 18.109375 28.8125 
L 18.109375 0 
L 9.078125 0 
L 9.078125 54.6875 
L 18.109375 54.6875 
L 18.109375 46.1875 
Q 20.953125 51.171875 25.484375 53.578125 
Q 30.03125 56 36.53125 56 
Q 37.453125 56 38.578125 55.875 
Q 39.703125 55.765625 41.0625 55.515625 
z
" id="DejaVuSans-114"/>
     </defs>
     <use xlink:href="#DejaVuSans-111"/>
     <use x="61.181641" xlink:href="#DejaVuSans-102"/>
     <use x="96.386719" xlink:href="#DejaVuSans-102"/>
     <use x="131.591797" xlink:href="#DejaVuSans-101"/>
     <use x="193.115234" xlink:href="#DejaVuSans-114"/>
     <use x="234.228516" xlink:href="#DejaVuSans-32"/>
     <use x="266.015625" xlink:href="#DejaVuSans-48"/>
    </g>
   </g>
   <g id="text_5">
    <!-- Frequency: 0.4 -->
    <g transform="translate(184.919457 231.618706)scale(0.03 -0.03)">
     <defs>
      <path d="M 9.8125 72.90625 
L 51.703125 72.90625 
L 51.703125 64.59375 
L 19.671875 64.59375 
L 19.671875 43.109375 
L 48.578125 43.109375 
L 48.578125 34.8125 
L 19.671875 34.8125 
L 19.671875 0 
L 9.8125 0 
z
" id="DejaVuSans-70"/>
      <path d="M 14.796875 27.296875 
Q 14.796875 17.390625 18.875 11.75 
Q 22.953125 6.109375 30.078125 6.109375 
Q 37.203125 6.109375 41.296875 11.75 
Q 45.40625 17.390625 45.40625 27.296875 
Q 45.40625 37.203125 41.296875 42.84375 
Q 37.203125 48.484375 30.078125 48.484375 
Q 22.953125 48.484375 18.875 42.84375 
Q 14.796875 37.203125 14.796875 27.296875 
z
M 45.40625 8.203125 
Q 42.578125 3.328125 38.25 0.953125 
Q 33.9375 -1.421875 27.875 -1.421875 
Q 17.96875 -1.421875 11.734375 6.484375 
Q 5.515625 14.40625 5.515625 27.296875 
Q 5.515625 40.1875 11.734375 48.09375 
Q 17.96875 56 27.875 56 
Q 33.9375 56 38.25 53.625 
Q 42.578125 51.265625 45.40625 46.390625 
L 45.40625 54.6875 
L 54.390625 54.6875 
L 54.390625 -20.796875 
L 45.40625 -20.796875 
z
" id="DejaVuSans-113"/>
      <path d="M 8.5 21.578125 
L 8.5 54.6875 
L 17.484375 54.6875 
L 17.484375 21.921875 
Q 17.484375 14.15625 20.5 10.265625 
Q 23.53125 6.390625 29.59375 6.390625 
Q 36.859375 6.390625 41.078125 11.03125 
Q 45.3125 15.671875 45.3125 23.6875 
L 45.3125 54.6875 
L 54.296875 54.6875 
L 54.296875 0 
L 45.3125 0 
L 45.3125 8.40625 
Q 42.046875 3.421875 37.71875 1 
Q 33.40625 -1.421875 27.6875 -1.421875 
Q 18.265625 -1.421875 13.375 4.4375 
Q 8.5 10.296875 8.5 21.578125 
z
M 31.109375 56 
z
" id="DejaVuSans-117"/>
      <path d="M 54.890625 33.015625 
L 54.890625 0 
L 45.90625 0 
L 45.90625 32.71875 
Q 45.90625 40.484375 42.875 44.328125 
Q 39.84375 48.1875 33.796875 48.1875 
Q 26.515625 48.1875 22.3125 43.546875 
Q 18.109375 38.921875 18.109375 30.90625 
L 18.109375 0 
L 9.078125 0 
L 9.078125 54.6875 
L 18.109375 54.6875 
L 18.109375 46.1875 
Q 21.34375 51.125 25.703125 53.5625 
Q 30.078125 56 35.796875 56 
Q 45.21875 56 50.046875 50.171875 
Q 54.890625 44.34375 54.890625 33.015625 
z
" id="DejaVuSans-110"/>
      <path d="M 32.171875 -5.078125 
Q 28.375 -14.84375 24.75 -17.8125 
Q 21.140625 -20.796875 15.09375 -20.796875 
L 7.90625 -20.796875 
L 7.90625 -13.28125 
L 13.1875 -13.28125 
Q 16.890625 -13.28125 18.9375 -11.515625 
Q 21 -9.765625 23.484375 -3.21875 
L 25.09375 0.875 
L 2.984375 54.6875 
L 12.5 54.6875 
L 29.59375 11.921875 
L 46.6875 54.6875 
L 56.203125 54.6875 
z
" id="DejaVuSans-121"/>
      <path d="M 11.71875 12.40625 
L 22.015625 12.40625 
L 22.015625 0 
L 11.71875 0 
z
M 11.71875 51.703125 
L 22.015625 51.703125 
L 22.015625 39.3125 
L 11.71875 39.3125 
z
" id="DejaVuSans-58"/>
      <path d="M 37.796875 64.3125 
L 12.890625 25.390625 
L 37.796875 25.390625 
z
M 35.203125 72.90625 
L 47.609375 72.90625 
L 47.609375 25.390625 
L 58.015625 25.390625 
L 58.015625 17.1875 
L 47.609375 17.1875 
L 47.609375 0 
L 37.796875 0 
L 37.796875 17.1875 
L 4.890625 17.1875 
L 4.890625 26.703125 
z
" id="DejaVuSans-52"/>
     </defs>
     <use xlink:href="#DejaVuSans-70"/>
     <use x="50.269531" xlink:href="#DejaVuSans-114"/>
     <use x="89.132812" xlink:href="#DejaVuSans-101"/>
     <use x="150.65625" xlink:href="#DejaVuSans-113"/>
     <use x="214.132812" xlink:href="#DejaVuSans-117"/>
     <use x="277.511719" xlink:href="#DejaVuSans-101"/>
     <use x="339.035156" xlink:href="#DejaVuSans-110"/>
     <use x="402.414062" xlink:href="#DejaVuSans-99"/>
     <use x="457.394531" xlink:href="#DejaVuSans-121"/>
     <use x="509.324219" xlink:href="#DejaVuSans-58"/>
     <use x="543.015625" xlink:href="#DejaVuSans-32"/>
     <use x="574.802734" xlink:href="#DejaVuSans-48"/>
     <use x="638.425781" xlink:href="#DejaVuSans-46"/>
     <use x="670.212891" xlink:href="#DejaVuSans-52"/>
    </g>
   </g>
   <g id="text_6">
    <!-- Super Variant: (0, 1, 6, 7) -->
    <g transform="translate(184.919457 221.195973)scale(0.036 -0.036)">
     <defs>
      <path d="M 59.90625 70.609375 
L 59.90625 55.171875 
Q 53.90625 57.859375 48.1875 59.21875 
Q 42.484375 60.59375 37.40625 60.59375 
Q 30.671875 60.59375 27.4375 58.734375 
Q 24.21875 56.890625 24.21875 52.984375 
Q 24.21875 50.046875 26.390625 48.40625 
Q 28.5625 46.78125 34.28125 45.609375 
L 42.28125 44 
Q 54.4375 41.546875 59.5625 36.5625 
Q 64.703125 31.59375 64.703125 22.40625 
Q 64.703125 10.359375 57.546875 4.46875 
Q 50.390625 -1.421875 35.6875 -1.421875 
Q 28.765625 -1.421875 21.78125 -0.09375 
Q 14.796875 1.21875 7.8125 3.8125 
L 7.8125 19.671875 
Q 14.796875 15.96875 21.3125 14.078125 
Q 27.828125 12.203125 33.890625 12.203125 
Q 40.046875 12.203125 43.3125 14.25 
Q 46.578125 16.3125 46.578125 20.125 
Q 46.578125 23.53125 44.359375 25.390625 
Q 42.140625 27.25 35.5 28.71875 
L 28.21875 30.328125 
Q 17.28125 32.671875 12.21875 37.796875 
Q 7.171875 42.921875 7.171875 51.609375 
Q 7.171875 62.5 14.203125 68.359375 
Q 21.234375 74.21875 34.421875 74.21875 
Q 40.4375 74.21875 46.78125 73.3125 
Q 53.125 72.40625 59.90625 70.609375 
z
" id="DejaVuSans-Bold-83"/>
      <path d="M 7.8125 21.296875 
L 7.8125 54.6875 
L 25.390625 54.6875 
L 25.390625 49.21875 
Q 25.390625 44.78125 25.34375 38.0625 
Q 25.296875 31.34375 25.296875 29.109375 
Q 25.296875 22.515625 25.640625 19.609375 
Q 25.984375 16.703125 26.8125 15.375 
Q 27.875 13.671875 29.609375 12.734375 
Q 31.34375 11.8125 33.59375 11.8125 
Q 39.0625 11.8125 42.1875 16.015625 
Q 45.3125 20.21875 45.3125 27.6875 
L 45.3125 54.6875 
L 62.796875 54.6875 
L 62.796875 0 
L 45.3125 0 
L 45.3125 7.90625 
Q 41.359375 3.125 36.9375 0.84375 
Q 32.515625 -1.421875 27.203125 -1.421875 
Q 17.71875 -1.421875 12.765625 4.390625 
Q 7.8125 10.203125 7.8125 21.296875 
z
" id="DejaVuSans-Bold-117"/>
      <path d="M 25.875 7.90625 
L 25.875 -20.796875 
L 8.40625 -20.796875 
L 8.40625 54.6875 
L 25.875 54.6875 
L 25.875 46.6875 
Q 29.5 51.46875 33.890625 53.734375 
Q 38.28125 56 44 56 
Q 54.109375 56 60.59375 47.96875 
Q 67.09375 39.9375 67.09375 27.296875 
Q 67.09375 14.65625 60.59375 6.609375 
Q 54.109375 -1.421875 44 -1.421875 
Q 38.28125 -1.421875 33.890625 0.84375 
Q 29.5 3.125 25.875 7.90625 
z
M 37.5 43.3125 
Q 31.890625 43.3125 28.875 39.1875 
Q 25.875 35.0625 25.875 27.296875 
Q 25.875 19.53125 28.875 15.40625 
Q 31.890625 11.28125 37.5 11.28125 
Q 43.109375 11.28125 46.0625 15.375 
Q 49.03125 19.484375 49.03125 27.296875 
Q 49.03125 35.109375 46.0625 39.203125 
Q 43.109375 43.3125 37.5 43.3125 
z
" id="DejaVuSans-Bold-112"/>
      <path d="M 62.984375 27.484375 
L 62.984375 22.515625 
L 22.125 22.515625 
Q 22.75 16.359375 26.5625 13.28125 
Q 30.375 10.203125 37.203125 10.203125 
Q 42.71875 10.203125 48.5 11.84375 
Q 54.296875 13.484375 60.40625 16.796875 
L 60.40625 3.328125 
Q 54.203125 0.984375 48 -0.21875 
Q 41.796875 -1.421875 35.59375 -1.421875 
Q 20.75 -1.421875 12.515625 6.125 
Q 4.296875 13.671875 4.296875 27.296875 
Q 4.296875 40.671875 12.375 48.328125 
Q 20.453125 56 34.625 56 
Q 47.515625 56 55.25 48.234375 
Q 62.984375 40.484375 62.984375 27.484375 
z
M 45.015625 33.296875 
Q 45.015625 38.28125 42.109375 41.328125 
Q 39.203125 44.390625 34.515625 44.390625 
Q 29.4375 44.390625 26.265625 41.53125 
Q 23.09375 38.671875 22.3125 33.296875 
z
" id="DejaVuSans-Bold-101"/>
      <path d="M 49.03125 39.796875 
Q 46.734375 40.875 44.453125 41.375 
Q 42.1875 41.890625 39.890625 41.890625 
Q 33.15625 41.890625 29.515625 37.5625 
Q 25.875 33.25 25.875 25.203125 
L 25.875 0 
L 8.40625 0 
L 8.40625 54.6875 
L 25.875 54.6875 
L 25.875 45.703125 
Q 29.25 51.078125 33.609375 53.53125 
Q 37.984375 56 44.09375 56 
Q 44.96875 56 45.984375 55.921875 
Q 47.015625 55.859375 48.96875 55.609375 
z
" id="DejaVuSans-Bold-114"/>
      <path id="DejaVuSans-Bold-32"/>
      <path d="M 0.484375 72.90625 
L 19.390625 72.90625 
L 38.71875 19.09375 
L 58.015625 72.90625 
L 76.90625 72.90625 
L 49.90625 0 
L 27.484375 0 
z
" id="DejaVuSans-Bold-86"/>
      <path d="M 32.90625 24.609375 
Q 27.4375 24.609375 24.671875 22.75 
Q 21.921875 20.90625 21.921875 17.28125 
Q 21.921875 13.96875 24.140625 12.078125 
Q 26.375 10.203125 30.328125 10.203125 
Q 35.25 10.203125 38.625 13.734375 
Q 42 17.28125 42 22.609375 
L 42 24.609375 
z
M 59.625 31.203125 
L 59.625 0 
L 42 0 
L 42 8.109375 
Q 38.484375 3.125 34.078125 0.84375 
Q 29.6875 -1.421875 23.390625 -1.421875 
Q 14.890625 -1.421875 9.59375 3.53125 
Q 4.296875 8.5 4.296875 16.40625 
Q 4.296875 26.03125 10.90625 30.515625 
Q 17.53125 35.015625 31.6875 35.015625 
L 42 35.015625 
L 42 36.375 
Q 42 40.53125 38.71875 42.453125 
Q 35.453125 44.390625 28.515625 44.390625 
Q 22.90625 44.390625 18.0625 43.265625 
Q 13.234375 42.140625 9.078125 39.890625 
L 9.078125 53.21875 
Q 14.703125 54.59375 20.359375 55.296875 
Q 26.03125 56 31.6875 56 
Q 46.484375 56 53.046875 50.171875 
Q 59.625 44.34375 59.625 31.203125 
z
" id="DejaVuSans-Bold-97"/>
      <path d="M 8.40625 54.6875 
L 25.875 54.6875 
L 25.875 0 
L 8.40625 0 
z
M 8.40625 75.984375 
L 25.875 75.984375 
L 25.875 61.71875 
L 8.40625 61.71875 
z
" id="DejaVuSans-Bold-105"/>
      <path d="M 63.375 33.296875 
L 63.375 0 
L 45.796875 0 
L 45.796875 5.421875 
L 45.796875 25.484375 
Q 45.796875 32.5625 45.484375 35.25 
Q 45.171875 37.9375 44.390625 39.203125 
Q 43.359375 40.921875 41.59375 41.875 
Q 39.84375 42.828125 37.59375 42.828125 
Q 32.125 42.828125 29 38.59375 
Q 25.875 34.375 25.875 26.90625 
L 25.875 0 
L 8.40625 0 
L 8.40625 54.6875 
L 25.875 54.6875 
L 25.875 46.6875 
Q 29.828125 51.46875 34.265625 53.734375 
Q 38.71875 56 44.09375 56 
Q 53.5625 56 58.46875 50.1875 
Q 63.375 44.390625 63.375 33.296875 
z
" id="DejaVuSans-Bold-110"/>
      <path d="M 27.484375 70.21875 
L 27.484375 54.6875 
L 45.515625 54.6875 
L 45.515625 42.1875 
L 27.484375 42.1875 
L 27.484375 19 
Q 27.484375 15.1875 29 13.84375 
Q 30.515625 12.5 35.015625 12.5 
L 44 12.5 
L 44 0 
L 29 0 
Q 18.65625 0 14.328125 4.3125 
Q 10.015625 8.640625 10.015625 19 
L 10.015625 42.1875 
L 1.3125 42.1875 
L 1.3125 54.6875 
L 10.015625 54.6875 
L 10.015625 70.21875 
z
" id="DejaVuSans-Bold-116"/>
      <path d="M 11.1875 54.6875 
L 28.8125 54.6875 
L 28.8125 35.796875 
L 11.1875 35.796875 
z
M 11.1875 18.890625 
L 28.8125 18.890625 
L 28.8125 0 
L 11.1875 0 
z
" id="DejaVuSans-Bold-58"/>
      <path d="M 37.703125 -13.1875 
L 23.1875 -13.1875 
Q 15.71875 -1.125 12.15625 9.734375 
Q 8.59375 20.609375 8.59375 31.296875 
Q 8.59375 42 12.171875 52.953125 
Q 15.765625 63.921875 23.1875 75.875 
L 37.703125 75.875 
Q 31.453125 64.3125 28.328125 53.25 
Q 25.203125 42.1875 25.203125 31.390625 
Q 25.203125 20.609375 28.296875 9.515625 
Q 31.390625 -1.5625 37.703125 -13.1875 
z
" id="DejaVuSans-Bold-40"/>
      <path d="M 46 36.53125 
Q 46 50.203125 43.4375 55.78125 
Q 40.875 61.375 34.8125 61.375 
Q 28.765625 61.375 26.171875 55.78125 
Q 23.578125 50.203125 23.578125 36.53125 
Q 23.578125 22.703125 26.171875 17.03125 
Q 28.765625 11.375 34.8125 11.375 
Q 40.828125 11.375 43.40625 17.03125 
Q 46 22.703125 46 36.53125 
z
M 64.796875 36.375 
Q 64.796875 18.265625 56.984375 8.421875 
Q 49.171875 -1.421875 34.8125 -1.421875 
Q 20.40625 -1.421875 12.59375 8.421875 
Q 4.78125 18.265625 4.78125 36.375 
Q 4.78125 54.546875 12.59375 64.375 
Q 20.40625 74.21875 34.8125 74.21875 
Q 49.171875 74.21875 56.984375 64.375 
Q 64.796875 54.546875 64.796875 36.375 
z
" id="DejaVuSans-Bold-48"/>
      <path d="M 10.203125 18.890625 
L 27.78125 18.890625 
L 27.78125 4 
L 15.71875 -14.203125 
L 5.328125 -14.203125 
L 10.203125 4 
z
" id="DejaVuSans-Bold-44"/>
      <path d="M 11.71875 12.984375 
L 28.328125 12.984375 
L 28.328125 60.109375 
L 11.28125 56.59375 
L 11.28125 69.390625 
L 28.21875 72.90625 
L 46.09375 72.90625 
L 46.09375 12.984375 
L 62.703125 12.984375 
L 62.703125 0 
L 11.71875 0 
z
" id="DejaVuSans-Bold-49"/>
      <path d="M 36.1875 35.984375 
Q 31.25 35.984375 28.78125 32.78125 
Q 26.3125 29.59375 26.3125 23.1875 
Q 26.3125 16.796875 28.78125 13.59375 
Q 31.25 10.40625 36.1875 10.40625 
Q 41.15625 10.40625 43.625 13.59375 
Q 46.09375 16.796875 46.09375 23.1875 
Q 46.09375 29.59375 43.625 32.78125 
Q 41.15625 35.984375 36.1875 35.984375 
z
M 59.421875 71 
L 59.421875 57.515625 
Q 54.78125 59.71875 50.671875 60.765625 
Q 46.578125 61.8125 42.671875 61.8125 
Q 34.28125 61.8125 29.59375 57.140625 
Q 24.90625 52.484375 24.125 43.3125 
Q 27.34375 45.703125 31.09375 46.890625 
Q 34.859375 48.09375 39.3125 48.09375 
Q 50.484375 48.09375 57.34375 41.546875 
Q 64.203125 35.015625 64.203125 24.421875 
Q 64.203125 12.703125 56.53125 5.640625 
Q 48.875 -1.421875 35.984375 -1.421875 
Q 21.78125 -1.421875 13.984375 8.171875 
Q 6.203125 17.78125 6.203125 35.40625 
Q 6.203125 53.46875 15.3125 63.796875 
Q 24.421875 74.125 40.28125 74.125 
Q 45.3125 74.125 50.046875 73.34375 
Q 54.78125 72.5625 59.421875 71 
z
" id="DejaVuSans-Bold-54"/>
      <path d="M 6.6875 72.90625 
L 61.625 72.90625 
L 61.625 62.3125 
L 33.203125 0 
L 14.890625 0 
L 41.796875 59.078125 
L 6.6875 59.078125 
z
" id="DejaVuSans-Bold-55"/>
      <path d="M 8.015625 -13.1875 
Q 14.265625 -1.5625 17.390625 9.515625 
Q 20.515625 20.609375 20.515625 31.390625 
Q 20.515625 42.1875 17.390625 53.25 
Q 14.265625 64.3125 8.015625 75.875 
L 22.515625 75.875 
Q 29.9375 63.921875 33.515625 52.953125 
Q 37.109375 42 37.109375 31.296875 
Q 37.109375 20.609375 33.546875 9.734375 
Q 29.984375 -1.125 22.515625 -13.1875 
z
" id="DejaVuSans-Bold-41"/>
     </defs>
     <use xlink:href="#DejaVuSans-Bold-83"/>
     <use x="72.021484" xlink:href="#DejaVuSans-Bold-117"/>
     <use x="143.212891" xlink:href="#DejaVuSans-Bold-112"/>
     <use x="214.794922" xlink:href="#DejaVuSans-Bold-101"/>
     <use x="282.617188" xlink:href="#DejaVuSans-Bold-114"/>
     <use x="331.933594" xlink:href="#DejaVuSans-Bold-32"/>
     <use x="366.748047" xlink:href="#DejaVuSans-Bold-86"/>
     <use x="438.640625" xlink:href="#DejaVuSans-Bold-97"/>
     <use x="506.121094" xlink:href="#DejaVuSans-Bold-114"/>
     <use x="555.4375" xlink:href="#DejaVuSans-Bold-105"/>
     <use x="589.714844" xlink:href="#DejaVuSans-Bold-97"/>
     <use x="657.195312" xlink:href="#DejaVuSans-Bold-110"/>
     <use x="728.386719" xlink:href="#DejaVuSans-Bold-116"/>
     <use x="776.189453" xlink:href="#DejaVuSans-Bold-58"/>
     <use x="816.179688" xlink:href="#DejaVuSans-Bold-32"/>
     <use x="850.994141" xlink:href="#DejaVuSans-Bold-40"/>
     <use x="896.697266" xlink:href="#DejaVuSans-Bold-48"/>
     <use x="966.277344" xlink:href="#DejaVuSans-Bold-44"/>
     <use x="1004.265625" xlink:href="#DejaVuSans-Bold-32"/>
     <use x="1039.080078" xlink:href="#DejaVuSans-Bold-49"/>
     <use x="1108.660156" xlink:href="#DejaVuSans-Bold-44"/>
     <use x="1146.648438" xlink:href="#DejaVuSans-Bold-32"/>
     <use x="1181.462891" xlink:href="#DejaVuSans-Bold-54"/>
     <use x="1251.042969" xlink:href="#DejaVuSans-Bold-44"/>
     <use x="1289.03125" xlink:href="#DejaVuSans-Bold-32"/>
     <use x="1323.845703" xlink:href="#DejaVuSans-Bold-55"/>
     <use x="1393.425781" xlink:href="#DejaVuSans-Bold-41"/>
    </g>
   </g>
   <g id="patch_67">
    <path clip-path="url(#p713540ff0e)" d="M 512.144796 487.824027 
L 584.861538 487.824027 
L 587.891403 433.286471 
L 584.861538 378.748914 
L 512.144796 378.748914 
L 515.174661 433.286471 
z
" style="fill:none;stroke:#000000;stroke-linejoin:miter;stroke-width:1.3;"/>
   </g>
   <g id="patch_68">
    <path clip-path="url(#p713540ff0e)" d="M 657.578281 487.824027 
L 730.295023 487.824027 
L 733.324887 433.286471 
L 730.295023 378.748914 
L 657.578281 378.748914 
L 660.608145 433.286471 
z
" style="fill:none;stroke:#000000;stroke-linejoin:miter;stroke-width:1.3;"/>
   </g>
   <g id="patch_69">
    <path clip-path="url(#p713540ff0e)" d="M 735.869973 448.940769 
L 805.112471 448.940769 
L 808.142335 436.316335 
L 805.112471 423.6919 
L 735.869973 423.6919 
L 738.899837 436.316335 
z
" style="fill:none;stroke:#000000;stroke-dasharray:4.81,2.08;stroke-dashoffset:0;stroke-linejoin:miter;stroke-width:1.3;"/>
   </g>
   <g id="patch_70">
    <path clip-path="url(#p713540ff0e)" d="M 805.112471 448.940769 
L 874.354968 448.940769 
L 877.384833 436.316335 
L 874.354968 423.6919 
L 805.112471 423.6919 
L 808.142335 436.316335 
z
" style="fill:none;stroke:#000000;stroke-dasharray:4.81,2.08;stroke-dashoffset:0;stroke-linejoin:miter;stroke-width:1.3;"/>
   </g>
   <g id="patch_71">
    <path clip-path="url(#p713540ff0e)" d="M 804.304507 412.077421 
L 875.162932 412.077421 
L 878.192796 396.9281 
L 875.162932 381.778778 
L 804.304507 381.778778 
L 807.334371 396.9281 
z
" style="fill:none;stroke:#000000;stroke-linejoin:miter;stroke-width:1.3;"/>
   </g>
   <g id="patch_72">
    <path clip-path="url(#p713540ff0e)" d="M 875.162932 412.077421 
L 946.021357 412.077421 
L 949.051222 396.9281 
L 946.021357 381.778778 
L 875.162932 381.778778 
L 878.192796 396.9281 
z
" style="fill:none;stroke:#000000;stroke-linejoin:miter;stroke-width:1.3;"/>
   </g>
   <g id="patch_73">
    <path clip-path="url(#p713540ff0e)" d="M 1026.009774 480.754344 
L 1095.494661 480.754344 
L 1098.524525 460.555249 
L 1095.494661 440.356154 
L 1026.009774 440.356154 
L 1029.039638 460.555249 
z
" style="fill:none;stroke:#000000;stroke-dasharray:4.81,2.08;stroke-dashoffset:0;stroke-linejoin:miter;stroke-width:1.3;"/>
   </g>
   <g id="patch_74">
    <path clip-path="url(#p713540ff0e)" d="M 1094.686697 430.256606 
L 1165.787511 430.256606 
L 1168.817376 406.017692 
L 1165.787511 381.778778 
L 1094.686697 381.778778 
L 1097.716561 406.017692 
z
" style="fill:none;stroke:#000000;stroke-dasharray:4.81,2.08;stroke-dashoffset:0;stroke-linejoin:miter;stroke-width:1.3;"/>
   </g>
   <g id="patch_75">
    <path clip-path="url(#p713540ff0e)" d="M 1165.787511 430.256606 
L 1236.888326 430.256606 
L 1239.91819 406.017692 
L 1236.888326 381.778778 
L 1165.787511 381.778778 
L 1168.817376 406.017692 
z
" style="fill:none;stroke:#000000;stroke-dasharray:4.81,2.08;stroke-dashoffset:0;stroke-linejoin:miter;stroke-width:1.3;"/>
   </g>
   <g id="patch_76">
    <path clip-path="url(#p713540ff0e)" d="M 512.144796 378.748914 
L 584.861538 378.748914 
L 587.891403 306.032172 
L 584.861538 233.31543 
L 512.144796 233.31543 
L 515.174661 306.032172 
z
" style="fill:none;stroke:#000000;stroke-linejoin:miter;stroke-width:1.3;"/>
   </g>
   <g id="patch_77">
    <path clip-path="url(#p713540ff0e)" d="M 657.578281 378.748914 
L 730.295023 378.748914 
L 733.324887 306.032172 
L 730.295023 233.31543 
L 657.578281 233.31543 
L 660.608145 306.032172 
z
" style="fill:none;stroke:#000000;stroke-linejoin:miter;stroke-width:1.3;"/>
   </g>
   <g id="patch_78">
    <path clip-path="url(#p713540ff0e)" d="M 1019.783836 362.505475 
L 1089.792745 362.505475 
L 1092.822609 351.985113 
L 1089.792745 341.464751 
L 1019.783836 341.464751 
L 1022.8137 351.985113 
z
" style="fill:none;stroke:#000000;stroke-linejoin:miter;stroke-width:1.3;"/>
   </g>
   <g id="patch_79">
    <path clip-path="url(#p713540ff0e)" d="M 739.748199 337.256606 
L 809.757108 337.256606 
L 812.786972 326.736244 
L 809.757108 316.215882 
L 739.748199 316.215882 
L 742.778063 326.736244 
z
" style="fill:none;stroke:#000000;stroke-linejoin:miter;stroke-width:1.3;"/>
   </g>
   <g id="patch_80">
    <path clip-path="url(#p713540ff0e)" d="M 809.757108 337.256606 
L 879.766017 337.256606 
L 882.795882 326.736244 
L 879.766017 316.215882 
L 809.757108 316.215882 
L 812.786972 326.736244 
z
" style="fill:none;stroke:#000000;stroke-linejoin:miter;stroke-width:1.3;"/>
   </g>
   <g id="patch_81">
    <path clip-path="url(#p713540ff0e)" d="M 1092.216636 306.537149 
L 1163.340535 306.537149 
L 1166.370399 293.912715 
L 1163.340535 281.288281 
L 1092.216636 281.288281 
L 1095.2465 293.912715 
z
" style="fill:none;stroke:#000000;stroke-linejoin:miter;stroke-width:1.3;"/>
   </g>
   <g id="patch_82">
    <path clip-path="url(#p713540ff0e)" d="M 1163.340535 306.537149 
L 1234.464434 306.537149 
L 1237.494299 293.912715 
L 1234.464434 281.288281 
L 1163.340535 281.288281 
L 1166.370399 293.912715 
z
" style="fill:none;stroke:#000000;stroke-linejoin:miter;stroke-width:1.3;"/>
   </g>
   <g id="patch_83">
    <path clip-path="url(#p713540ff0e)" d="M 805.366402 266.643937 
L 877.286723 266.643937 
L 880.316587 251.494615 
L 877.286723 236.345294 
L 805.366402 236.345294 
L 808.396266 251.494615 
z
" style="fill:none;stroke:#000000;stroke-linejoin:miter;stroke-width:1.3;"/>
   </g>
   <g id="patch_84">
    <path clip-path="url(#p713540ff0e)" d="M 877.286723 266.643937 
L 949.207043 266.643937 
L 952.236908 251.494615 
L 949.207043 236.345294 
L 877.286723 236.345294 
L 880.316587 251.494615 
z
" style="fill:none;stroke:#000000;stroke-linejoin:miter;stroke-width:1.3;"/>
   </g>
   <g id="patch_85">
    <path clip-path="url(#p713540ff0e)" d="M 369.741176 433.286471 
L 442.457919 433.286471 
" style="fill:#1f77b4;stroke:#000000;stroke-linejoin:miter;stroke-width:1.1;"/>
   </g>
   <g id="patch_86">
    <path clip-path="url(#p713540ff0e)" d="M 587.891403 433.286471 
L 660.608145 433.286471 
" style="fill:#1f77b4;stroke:#000000;stroke-linejoin:miter;stroke-width:1.1;"/>
   </g>
   <g id="patch_87">
    <path clip-path="url(#p713540ff0e)" d="M 736.475946 451.465656 
L 949.051222 451.465656 
" style="fill:#1f77b4;stroke:#000000;stroke-linejoin:miter;stroke-width:1.1;"/>
   </g>
   <g id="patch_88">
    <path clip-path="url(#p713540ff0e)" d="M 732.314932 415.107285 
L 950.465158 415.107285 
" style="fill:#1f77b4;stroke:#000000;stroke-linejoin:miter;stroke-width:1.1;"/>
   </g>
   <g id="patch_89">
    <path clip-path="url(#p713540ff0e)" d="M 1024.191855 433.286471 
L 1242.342081 433.286471 
" style="fill:#1f77b4;stroke:#000000;stroke-linejoin:miter;stroke-width:1.1;"/>
   </g>
   <g id="patch_90">
    <path clip-path="url(#p713540ff0e)" d="M 739.627005 339.360679 
L 1095.2465 339.360679 
" style="fill:#1f77b4;stroke:#000000;stroke-linejoin:miter;stroke-width:1.1;"/>
   </g>
   <g id="patch_91">
    <path clip-path="url(#p713540ff0e)" d="M 735.465991 309.062036 
L 1238.908235 309.062036 
" style="fill:#1f77b4;stroke:#000000;stroke-linejoin:miter;stroke-width:1.1;"/>
   </g>
   <g id="patch_92">
    <path clip-path="url(#p713540ff0e)" d="M 731.809955 269.673801 
L 1240.827149 269.673801 
" style="fill:#1f77b4;stroke:#000000;stroke-linejoin:miter;stroke-width:1.1;"/>
   </g>
   <g id="text_7">
    <!-- Create appl... -->
    <g transform="translate(226.125611 434.013638)scale(0.03 -0.03)">
     <defs>
      <path d="M 64.40625 67.28125 
L 64.40625 56.890625 
Q 59.421875 61.53125 53.78125 63.8125 
Q 48.140625 66.109375 41.796875 66.109375 
Q 29.296875 66.109375 22.65625 58.46875 
Q 16.015625 50.828125 16.015625 36.375 
Q 16.015625 21.96875 22.65625 14.328125 
Q 29.296875 6.6875 41.796875 6.6875 
Q 48.140625 6.6875 53.78125 8.984375 
Q 59.421875 11.28125 64.40625 15.921875 
L 64.40625 5.609375 
Q 59.234375 2.09375 53.4375 0.328125 
Q 47.65625 -1.421875 41.21875 -1.421875 
Q 24.65625 -1.421875 15.125 8.703125 
Q 5.609375 18.84375 5.609375 36.375 
Q 5.609375 53.953125 15.125 64.078125 
Q 24.65625 74.21875 41.21875 74.21875 
Q 47.75 74.21875 53.53125 72.484375 
Q 59.328125 70.75 64.40625 67.28125 
z
" id="DejaVuSans-67"/>
     </defs>
     <use xlink:href="#DejaVuSans-67"/>
     <use x="69.824219" xlink:href="#DejaVuSans-114"/>
     <use x="108.6875" xlink:href="#DejaVuSans-101"/>
     <use x="170.210938" xlink:href="#DejaVuSans-97"/>
     <use x="231.490234" xlink:href="#DejaVuSans-116"/>
     <use x="270.699219" xlink:href="#DejaVuSans-101"/>
     <use x="332.222656" xlink:href="#DejaVuSans-32"/>
     <use x="364.009766" xlink:href="#DejaVuSans-97"/>
     <use x="425.289062" xlink:href="#DejaVuSans-112"/>
     <use x="488.765625" xlink:href="#DejaVuSans-112"/>
     <use x="552.242188" xlink:href="#DejaVuSans-108"/>
     <use x="580.025391" xlink:href="#DejaVuSans-46"/>
     <use x="611.8125" xlink:href="#DejaVuSans-46"/>
     <use x="643.599609" xlink:href="#DejaVuSans-46"/>
    </g>
   </g>
   <g id="text_8">
    <!-- Submit -->
    <g transform="translate(298.842353 434.013638)scale(0.03 -0.03)">
     <defs>
      <path d="M 53.515625 70.515625 
L 53.515625 60.890625 
Q 47.90625 63.578125 42.921875 64.890625 
Q 37.9375 66.21875 33.296875 66.21875 
Q 25.25 66.21875 20.875 63.09375 
Q 16.5 59.96875 16.5 54.203125 
Q 16.5 49.359375 19.40625 46.890625 
Q 22.3125 44.4375 30.421875 42.921875 
L 36.375 41.703125 
Q 47.40625 39.59375 52.65625 34.296875 
Q 57.90625 29 57.90625 20.125 
Q 57.90625 9.515625 50.796875 4.046875 
Q 43.703125 -1.421875 29.984375 -1.421875 
Q 24.8125 -1.421875 18.96875 -0.25 
Q 13.140625 0.921875 6.890625 3.21875 
L 6.890625 13.375 
Q 12.890625 10.015625 18.65625 8.296875 
Q 24.421875 6.59375 29.984375 6.59375 
Q 38.421875 6.59375 43.015625 9.90625 
Q 47.609375 13.234375 47.609375 19.390625 
Q 47.609375 24.75 44.3125 27.78125 
Q 41.015625 30.8125 33.5 32.328125 
L 27.484375 33.5 
Q 16.453125 35.6875 11.515625 40.375 
Q 6.59375 45.0625 6.59375 53.421875 
Q 6.59375 63.09375 13.40625 68.65625 
Q 20.21875 74.21875 32.171875 74.21875 
Q 37.3125 74.21875 42.625 73.28125 
Q 47.953125 72.359375 53.515625 70.515625 
z
" id="DejaVuSans-83"/>
      <path d="M 48.6875 27.296875 
Q 48.6875 37.203125 44.609375 42.84375 
Q 40.53125 48.484375 33.40625 48.484375 
Q 26.265625 48.484375 22.1875 42.84375 
Q 18.109375 37.203125 18.109375 27.296875 
Q 18.109375 17.390625 22.1875 11.75 
Q 26.265625 6.109375 33.40625 6.109375 
Q 40.53125 6.109375 44.609375 11.75 
Q 48.6875 17.390625 48.6875 27.296875 
z
M 18.109375 46.390625 
Q 20.953125 51.265625 25.265625 53.625 
Q 29.59375 56 35.59375 56 
Q 45.5625 56 51.78125 48.09375 
Q 58.015625 40.1875 58.015625 27.296875 
Q 58.015625 14.40625 51.78125 6.484375 
Q 45.5625 -1.421875 35.59375 -1.421875 
Q 29.59375 -1.421875 25.265625 0.953125 
Q 20.953125 3.328125 18.109375 8.203125 
L 18.109375 0 
L 9.078125 0 
L 9.078125 75.984375 
L 18.109375 75.984375 
z
" id="DejaVuSans-98"/>
      <path d="M 52 44.1875 
Q 55.375 50.25 60.0625 53.125 
Q 64.75 56 71.09375 56 
Q 79.640625 56 84.28125 50.015625 
Q 88.921875 44.046875 88.921875 33.015625 
L 88.921875 0 
L 79.890625 0 
L 79.890625 32.71875 
Q 79.890625 40.578125 77.09375 44.375 
Q 74.3125 48.1875 68.609375 48.1875 
Q 61.625 48.1875 57.5625 43.546875 
Q 53.515625 38.921875 53.515625 30.90625 
L 53.515625 0 
L 44.484375 0 
L 44.484375 32.71875 
Q 44.484375 40.625 41.703125 44.40625 
Q 38.921875 48.1875 33.109375 48.1875 
Q 26.21875 48.1875 22.15625 43.53125 
Q 18.109375 38.875 18.109375 30.90625 
L 18.109375 0 
L 9.078125 0 
L 9.078125 54.6875 
L 18.109375 54.6875 
L 18.109375 46.1875 
Q 21.1875 51.21875 25.484375 53.609375 
Q 29.78125 56 35.6875 56 
Q 41.65625 56 45.828125 52.96875 
Q 50 49.953125 52 44.1875 
z
" id="DejaVuSans-109"/>
     </defs>
     <use xlink:href="#DejaVuSans-83"/>
     <use x="63.476562" xlink:href="#DejaVuSans-117"/>
     <use x="126.855469" xlink:href="#DejaVuSans-98"/>
     <use x="190.332031" xlink:href="#DejaVuSans-109"/>
     <use x="287.744141" xlink:href="#DejaVuSans-105"/>
     <use x="315.527344" xlink:href="#DejaVuSans-116"/>
    </g>
   </g>
   <g id="text_9">
    <!-- Complete -->
    <g transform="translate(376.406878 464.867198)scale(0.024267 -0.024267)">
     <use xlink:href="#DejaVuSans-67"/>
     <use x="69.824219" xlink:href="#DejaVuSans-111"/>
     <use x="131.005859" xlink:href="#DejaVuSans-109"/>
     <use x="228.417969" xlink:href="#DejaVuSans-112"/>
     <use x="291.894531" xlink:href="#DejaVuSans-108"/>
     <use x="319.677734" xlink:href="#DejaVuSans-101"/>
     <use x="381.201172" xlink:href="#DejaVuSans-116"/>
     <use x="420.410156" xlink:href="#DejaVuSans-101"/>
    </g>
    <!--  50.0% -->
    <g transform="translate(376.406878 467.584534)scale(0.024267 -0.024267)">
     <defs>
      <path d="M 10.796875 72.90625 
L 49.515625 72.90625 
L 49.515625 64.59375 
L 19.828125 64.59375 
L 19.828125 46.734375 
Q 21.96875 47.46875 24.109375 47.828125 
Q 26.265625 48.1875 28.421875 48.1875 
Q 40.625 48.1875 47.75 41.5 
Q 54.890625 34.8125 54.890625 23.390625 
Q 54.890625 11.625 47.5625 5.09375 
Q 40.234375 -1.421875 26.90625 -1.421875 
Q 22.3125 -1.421875 17.546875 -0.640625 
Q 12.796875 0.140625 7.71875 1.703125 
L 7.71875 11.625 
Q 12.109375 9.234375 16.796875 8.0625 
Q 21.484375 6.890625 26.703125 6.890625 
Q 35.15625 6.890625 40.078125 11.328125 
Q 45.015625 15.765625 45.015625 23.390625 
Q 45.015625 31 40.078125 35.4375 
Q 35.15625 39.890625 26.703125 39.890625 
Q 22.75 39.890625 18.8125 39.015625 
Q 14.890625 38.140625 10.796875 36.28125 
z
" id="DejaVuSans-53"/>
      <path d="M 72.703125 32.078125 
Q 68.453125 32.078125 66.03125 28.46875 
Q 63.625 24.859375 63.625 18.40625 
Q 63.625 12.0625 66.03125 8.421875 
Q 68.453125 4.78125 72.703125 4.78125 
Q 76.859375 4.78125 79.265625 8.421875 
Q 81.6875 12.0625 81.6875 18.40625 
Q 81.6875 24.8125 79.265625 28.4375 
Q 76.859375 32.078125 72.703125 32.078125 
z
M 72.703125 38.28125 
Q 80.421875 38.28125 84.953125 32.90625 
Q 89.5 27.546875 89.5 18.40625 
Q 89.5 9.28125 84.9375 3.921875 
Q 80.375 -1.421875 72.703125 -1.421875 
Q 64.890625 -1.421875 60.34375 3.921875 
Q 55.8125 9.28125 55.8125 18.40625 
Q 55.8125 27.59375 60.375 32.9375 
Q 64.9375 38.28125 72.703125 38.28125 
z
M 22.3125 68.015625 
Q 18.109375 68.015625 15.6875 64.375 
Q 13.28125 60.75 13.28125 54.390625 
Q 13.28125 47.953125 15.671875 44.328125 
Q 18.0625 40.71875 22.3125 40.71875 
Q 26.5625 40.71875 28.96875 44.328125 
Q 31.390625 47.953125 31.390625 54.390625 
Q 31.390625 60.6875 28.953125 64.34375 
Q 26.515625 68.015625 22.3125 68.015625 
z
M 66.40625 74.21875 
L 74.21875 74.21875 
L 28.609375 -1.421875 
L 20.796875 -1.421875 
z
M 22.3125 74.21875 
Q 30.03125 74.21875 34.609375 68.875 
Q 39.203125 63.53125 39.203125 54.390625 
Q 39.203125 45.171875 34.640625 39.84375 
Q 30.078125 34.515625 22.3125 34.515625 
Q 14.546875 34.515625 10.03125 39.859375 
Q 5.515625 45.21875 5.515625 54.390625 
Q 5.515625 63.484375 10.046875 68.84375 
Q 14.59375 74.21875 22.3125 74.21875 
z
" id="DejaVuSans-37"/>
     </defs>
     <use xlink:href="#DejaVuSans-32"/>
     <use x="31.787109" xlink:href="#DejaVuSans-53"/>
     <use x="95.410156" xlink:href="#DejaVuSans-48"/>
     <use x="159.033203" xlink:href="#DejaVuSans-46"/>
     <use x="190.820312" xlink:href="#DejaVuSans-48"/>
     <use x="254.443359" xlink:href="#DejaVuSans-37"/>
    </g>
   </g>
   <g id="text_10">
    <!-- Complete -->
    <g transform="translate(373.982986 410.396368)scale(0.028 -0.028)">
     <use xlink:href="#DejaVuSans-67"/>
     <use x="69.824219" xlink:href="#DejaVuSans-111"/>
     <use x="131.005859" xlink:href="#DejaVuSans-109"/>
     <use x="228.417969" xlink:href="#DejaVuSans-112"/>
     <use x="291.894531" xlink:href="#DejaVuSans-108"/>
     <use x="319.677734" xlink:href="#DejaVuSans-101"/>
     <use x="381.201172" xlink:href="#DejaVuSans-116"/>
     <use x="420.410156" xlink:href="#DejaVuSans-101"/>
    </g>
    <!--  33.33% -->
    <g transform="translate(373.982986 413.531756)scale(0.028 -0.028)">
     <defs>
      <path d="M 40.578125 39.3125 
Q 47.65625 37.796875 51.625 33 
Q 55.609375 28.21875 55.609375 21.1875 
Q 55.609375 10.40625 48.1875 4.484375 
Q 40.765625 -1.421875 27.09375 -1.421875 
Q 22.515625 -1.421875 17.65625 -0.515625 
Q 12.796875 0.390625 7.625 2.203125 
L 7.625 11.71875 
Q 11.71875 9.328125 16.59375 8.109375 
Q 21.484375 6.890625 26.8125 6.890625 
Q 36.078125 6.890625 40.9375 10.546875 
Q 45.796875 14.203125 45.796875 21.1875 
Q 45.796875 27.640625 41.28125 31.265625 
Q 36.765625 34.90625 28.71875 34.90625 
L 20.21875 34.90625 
L 20.21875 43.015625 
L 29.109375 43.015625 
Q 36.375 43.015625 40.234375 45.921875 
Q 44.09375 48.828125 44.09375 54.296875 
Q 44.09375 59.90625 40.109375 62.90625 
Q 36.140625 65.921875 28.71875 65.921875 
Q 24.65625 65.921875 20.015625 65.03125 
Q 15.375 64.15625 9.8125 62.3125 
L 9.8125 71.09375 
Q 15.4375 72.65625 20.34375 73.4375 
Q 25.25 74.21875 29.59375 74.21875 
Q 40.828125 74.21875 47.359375 69.109375 
Q 53.90625 64.015625 53.90625 55.328125 
Q 53.90625 49.265625 50.4375 45.09375 
Q 46.96875 40.921875 40.578125 39.3125 
z
" id="DejaVuSans-51"/>
     </defs>
     <use xlink:href="#DejaVuSans-32"/>
     <use x="31.787109" xlink:href="#DejaVuSans-51"/>
     <use x="95.410156" xlink:href="#DejaVuSans-51"/>
     <use x="159.033203" xlink:href="#DejaVuSans-46"/>
     <use x="190.820312" xlink:href="#DejaVuSans-51"/>
     <use x="254.443359" xlink:href="#DejaVuSans-51"/>
     <use x="318.066406" xlink:href="#DejaVuSans-37"/>
    </g>
   </g>
   <g id="text_11">
    <!-- Accept -->
    <g transform="translate(444.275837 434.013638)scale(0.03 -0.03)">
     <defs>
      <path d="M 34.1875 63.1875 
L 20.796875 26.90625 
L 47.609375 26.90625 
z
M 28.609375 72.90625 
L 39.796875 72.90625 
L 67.578125 0 
L 57.328125 0 
L 50.6875 18.703125 
L 17.828125 18.703125 
L 11.1875 0 
L 0.78125 0 
z
" id="DejaVuSans-65"/>
     </defs>
     <use xlink:href="#DejaVuSans-65"/>
     <use x="66.658203" xlink:href="#DejaVuSans-99"/>
     <use x="121.638672" xlink:href="#DejaVuSans-99"/>
     <use x="176.619141" xlink:href="#DejaVuSans-101"/>
     <use x="238.142578" xlink:href="#DejaVuSans-112"/>
     <use x="301.619141" xlink:href="#DejaVuSans-116"/>
    </g>
   </g>
   <g id="text_12">
    <!-- Create offer -->
    <g transform="translate(516.992579 434.013638)scale(0.03 -0.03)">
     <use xlink:href="#DejaVuSans-67"/>
     <use x="69.824219" xlink:href="#DejaVuSans-114"/>
     <use x="108.6875" xlink:href="#DejaVuSans-101"/>
     <use x="170.210938" xlink:href="#DejaVuSans-97"/>
     <use x="231.490234" xlink:href="#DejaVuSans-116"/>
     <use x="270.699219" xlink:href="#DejaVuSans-101"/>
     <use x="332.222656" xlink:href="#DejaVuSans-32"/>
     <use x="364.009766" xlink:href="#DejaVuSans-111"/>
     <use x="425.191406" xlink:href="#DejaVuSans-102"/>
     <use x="460.396484" xlink:href="#DejaVuSans-102"/>
     <use x="495.601562" xlink:href="#DejaVuSans-101"/>
     <use x="557.125" xlink:href="#DejaVuSans-114"/>
    </g>
   </g>
   <g id="text_13">
    <!-- Complete -->
    <g transform="translate(595.284271 464.854614)scale(0.02373 -0.02373)">
     <use xlink:href="#DejaVuSans-67"/>
     <use x="69.824219" xlink:href="#DejaVuSans-111"/>
     <use x="131.005859" xlink:href="#DejaVuSans-109"/>
     <use x="228.417969" xlink:href="#DejaVuSans-112"/>
     <use x="291.894531" xlink:href="#DejaVuSans-108"/>
     <use x="319.677734" xlink:href="#DejaVuSans-101"/>
     <use x="381.201172" xlink:href="#DejaVuSans-116"/>
     <use x="420.410156" xlink:href="#DejaVuSans-101"/>
    </g>
    <!--  50.0% -->
    <g transform="translate(595.284271 467.511817)scale(0.02373 -0.02373)">
     <use xlink:href="#DejaVuSans-32"/>
     <use x="31.787109" xlink:href="#DejaVuSans-53"/>
     <use x="95.410156" xlink:href="#DejaVuSans-48"/>
     <use x="159.033203" xlink:href="#DejaVuSans-46"/>
     <use x="190.820312" xlink:href="#DejaVuSans-48"/>
     <use x="254.443359" xlink:href="#DejaVuSans-37"/>
    </g>
   </g>
   <g id="text_14">
    <!-- Complete -->
    <g transform="translate(592.86038 410.357245)scale(0.0277 -0.0277)">
     <use xlink:href="#DejaVuSans-67"/>
     <use x="69.824219" xlink:href="#DejaVuSans-111"/>
     <use x="131.005859" xlink:href="#DejaVuSans-109"/>
     <use x="228.417969" xlink:href="#DejaVuSans-112"/>
     <use x="291.894531" xlink:href="#DejaVuSans-108"/>
     <use x="319.677734" xlink:href="#DejaVuSans-101"/>
     <use x="381.201172" xlink:href="#DejaVuSans-116"/>
     <use x="420.410156" xlink:href="#DejaVuSans-101"/>
    </g>
    <!--  25.0% -->
    <g transform="translate(592.86038 413.459039)scale(0.0277 -0.0277)">
     <defs>
      <path d="M 19.1875 8.296875 
L 53.609375 8.296875 
L 53.609375 0 
L 7.328125 0 
L 7.328125 8.296875 
Q 12.9375 14.109375 22.625 23.890625 
Q 32.328125 33.6875 34.8125 36.53125 
Q 39.546875 41.84375 41.421875 45.53125 
Q 43.3125 49.21875 43.3125 52.78125 
Q 43.3125 58.59375 39.234375 62.25 
Q 35.15625 65.921875 28.609375 65.921875 
Q 23.96875 65.921875 18.8125 64.3125 
Q 13.671875 62.703125 7.8125 59.421875 
L 7.8125 69.390625 
Q 13.765625 71.78125 18.9375 73 
Q 24.125 74.21875 28.421875 74.21875 
Q 39.75 74.21875 46.484375 68.546875 
Q 53.21875 62.890625 53.21875 53.421875 
Q 53.21875 48.921875 51.53125 44.890625 
Q 49.859375 40.875 45.40625 35.40625 
Q 44.1875 33.984375 37.640625 27.21875 
Q 31.109375 20.453125 19.1875 8.296875 
z
" id="DejaVuSans-50"/>
     </defs>
     <use xlink:href="#DejaVuSans-32"/>
     <use x="31.787109" xlink:href="#DejaVuSans-50"/>
     <use x="95.410156" xlink:href="#DejaVuSans-53"/>
     <use x="159.033203" xlink:href="#DejaVuSans-46"/>
     <use x="190.820312" xlink:href="#DejaVuSans-48"/>
     <use x="254.443359" xlink:href="#DejaVuSans-37"/>
    </g>
   </g>
   <g id="text_15">
    <!-- Call -->
    <g transform="translate(662.426063 434.013638)scale(0.03 -0.03)">
     <use xlink:href="#DejaVuSans-67"/>
     <use x="69.824219" xlink:href="#DejaVuSans-97"/>
     <use x="131.103516" xlink:href="#DejaVuSans-108"/>
     <use x="158.886719" xlink:href="#DejaVuSans-108"/>
    </g>
   </g>
   <g id="text_16">
    <!-- Validate -->
    <g transform="translate(809.960253 471.149301)scale(0.027837 -0.027837)">
     <defs>
      <path d="M 28.609375 0 
L 0.78125 72.90625 
L 11.078125 72.90625 
L 34.1875 11.53125 
L 57.328125 72.90625 
L 67.578125 72.90625 
L 39.796875 0 
z
" id="DejaVuSans-86"/>
      <path d="M 45.40625 46.390625 
L 45.40625 75.984375 
L 54.390625 75.984375 
L 54.390625 0 
L 45.40625 0 
L 45.40625 8.203125 
Q 42.578125 3.328125 38.25 0.953125 
Q 33.9375 -1.421875 27.875 -1.421875 
Q 17.96875 -1.421875 11.734375 6.484375 
Q 5.515625 14.40625 5.515625 27.296875 
Q 5.515625 40.1875 11.734375 48.09375 
Q 17.96875 56 27.875 56 
Q 33.9375 56 38.25 53.625 
Q 42.578125 51.265625 45.40625 46.390625 
z
M 14.796875 27.296875 
Q 14.796875 17.390625 18.875 11.75 
Q 22.953125 6.109375 30.078125 6.109375 
Q 37.203125 6.109375 41.296875 11.75 
Q 45.40625 17.390625 45.40625 27.296875 
Q 45.40625 37.203125 41.296875 42.84375 
Q 37.203125 48.484375 30.078125 48.484375 
Q 22.953125 48.484375 18.875 42.84375 
Q 14.796875 37.203125 14.796875 27.296875 
z
" id="DejaVuSans-100"/>
     </defs>
     <use xlink:href="#DejaVuSans-86"/>
     <use x="60.658203" xlink:href="#DejaVuSans-97"/>
     <use x="121.9375" xlink:href="#DejaVuSans-108"/>
     <use x="149.720703" xlink:href="#DejaVuSans-105"/>
     <use x="177.503906" xlink:href="#DejaVuSans-100"/>
     <use x="240.980469" xlink:href="#DejaVuSans-97"/>
     <use x="302.259766" xlink:href="#DejaVuSans-116"/>
     <use x="341.46875" xlink:href="#DejaVuSans-101"/>
    </g>
    <!--  50.0% -->
    <g transform="translate(809.960253 474.266395)scale(0.027837 -0.027837)">
     <use xlink:href="#DejaVuSans-32"/>
     <use x="31.787109" xlink:href="#DejaVuSans-53"/>
     <use x="95.410156" xlink:href="#DejaVuSans-48"/>
     <use x="159.033203" xlink:href="#DejaVuSans-46"/>
     <use x="190.820312" xlink:href="#DejaVuSans-48"/>
     <use x="254.443359" xlink:href="#DejaVuSans-37"/>
    </g>
   </g>
   <g id="text_17">
    <!-- Call incomp... -->
    <g transform="translate(879.202751 471.149301)scale(0.027837 -0.027837)">
     <use xlink:href="#DejaVuSans-67"/>
     <use x="69.824219" xlink:href="#DejaVuSans-97"/>
     <use x="131.103516" xlink:href="#DejaVuSans-108"/>
     <use x="158.886719" xlink:href="#DejaVuSans-108"/>
     <use x="186.669922" xlink:href="#DejaVuSans-32"/>
     <use x="218.457031" xlink:href="#DejaVuSans-105"/>
     <use x="246.240234" xlink:href="#DejaVuSans-110"/>
     <use x="309.619141" xlink:href="#DejaVuSans-99"/>
     <use x="364.599609" xlink:href="#DejaVuSans-111"/>
     <use x="425.78125" xlink:href="#DejaVuSans-109"/>
     <use x="523.193359" xlink:href="#DejaVuSans-112"/>
     <use x="586.669922" xlink:href="#DejaVuSans-46"/>
     <use x="618.457031" xlink:href="#DejaVuSans-46"/>
     <use x="650.244141" xlink:href="#DejaVuSans-46"/>
    </g>
    <!--  50.0% -->
    <g transform="translate(879.202751 474.266395)scale(0.027837 -0.027837)">
     <use xlink:href="#DejaVuSans-32"/>
     <use x="31.787109" xlink:href="#DejaVuSans-53"/>
     <use x="95.410156" xlink:href="#DejaVuSans-48"/>
     <use x="159.033203" xlink:href="#DejaVuSans-46"/>
     <use x="190.820312" xlink:href="#DejaVuSans-48"/>
     <use x="254.443359" xlink:href="#DejaVuSans-37"/>
    </g>
   </g>
   <g id="text_18">
    <!-- Deny -->
    <g transform="translate(740.717756 440.850658)scale(0.027837 -0.027837)">
     <defs>
      <path d="M 19.671875 64.796875 
L 19.671875 8.109375 
L 31.59375 8.109375 
Q 46.6875 8.109375 53.6875 14.9375 
Q 60.6875 21.78125 60.6875 36.53125 
Q 60.6875 51.171875 53.6875 57.984375 
Q 46.6875 64.796875 31.59375 64.796875 
z
M 9.8125 72.90625 
L 30.078125 72.90625 
Q 51.265625 72.90625 61.171875 64.09375 
Q 71.09375 55.28125 71.09375 36.53125 
Q 71.09375 17.671875 61.125 8.828125 
Q 51.171875 0 30.078125 0 
L 9.8125 0 
z
" id="DejaVuSans-68"/>
     </defs>
     <use xlink:href="#DejaVuSans-68"/>
     <use x="77.001953" xlink:href="#DejaVuSans-101"/>
     <use x="138.525391" xlink:href="#DejaVuSans-110"/>
     <use x="201.904297" xlink:href="#DejaVuSans-121"/>
    </g>
    <!--  50.0% -->
    <g transform="translate(740.717756 443.967752)scale(0.027837 -0.027837)">
     <use xlink:href="#DejaVuSans-32"/>
     <use x="31.787109" xlink:href="#DejaVuSans-53"/>
     <use x="95.410156" xlink:href="#DejaVuSans-48"/>
     <use x="159.033203" xlink:href="#DejaVuSans-46"/>
     <use x="190.820312" xlink:href="#DejaVuSans-48"/>
     <use x="254.443359" xlink:href="#DejaVuSans-37"/>
    </g>
   </g>
   <g id="text_19">
    <!-- Refuse offer -->
    <g transform="translate(809.960253 440.850658)scale(0.027837 -0.027837)">
     <defs>
      <path d="M 44.390625 34.1875 
Q 47.5625 33.109375 50.5625 29.59375 
Q 53.5625 26.078125 56.59375 19.921875 
L 66.609375 0 
L 56 0 
L 46.6875 18.703125 
Q 43.0625 26.03125 39.671875 28.421875 
Q 36.28125 30.8125 30.421875 30.8125 
L 19.671875 30.8125 
L 19.671875 0 
L 9.8125 0 
L 9.8125 72.90625 
L 32.078125 72.90625 
Q 44.578125 72.90625 50.734375 67.671875 
Q 56.890625 62.453125 56.890625 51.90625 
Q 56.890625 45.015625 53.6875 40.46875 
Q 50.484375 35.9375 44.390625 34.1875 
z
M 19.671875 64.796875 
L 19.671875 38.921875 
L 32.078125 38.921875 
Q 39.203125 38.921875 42.84375 42.21875 
Q 46.484375 45.515625 46.484375 51.90625 
Q 46.484375 58.296875 42.84375 61.546875 
Q 39.203125 64.796875 32.078125 64.796875 
z
" id="DejaVuSans-82"/>
      <path d="M 44.28125 53.078125 
L 44.28125 44.578125 
Q 40.484375 46.53125 36.375 47.5 
Q 32.28125 48.484375 27.875 48.484375 
Q 21.1875 48.484375 17.84375 46.4375 
Q 14.5 44.390625 14.5 40.28125 
Q 14.5 37.15625 16.890625 35.375 
Q 19.28125 33.59375 26.515625 31.984375 
L 29.59375 31.296875 
Q 39.15625 29.25 43.1875 25.515625 
Q 47.21875 21.78125 47.21875 15.09375 
Q 47.21875 7.46875 41.1875 3.015625 
Q 35.15625 -1.421875 24.609375 -1.421875 
Q 20.21875 -1.421875 15.453125 -0.5625 
Q 10.6875 0.296875 5.421875 2 
L 5.421875 11.28125 
Q 10.40625 8.6875 15.234375 7.390625 
Q 20.0625 6.109375 24.8125 6.109375 
Q 31.15625 6.109375 34.5625 8.28125 
Q 37.984375 10.453125 37.984375 14.40625 
Q 37.984375 18.0625 35.515625 20.015625 
Q 33.0625 21.96875 24.703125 23.78125 
L 21.578125 24.515625 
Q 13.234375 26.265625 9.515625 29.90625 
Q 5.8125 33.546875 5.8125 39.890625 
Q 5.8125 47.609375 11.28125 51.796875 
Q 16.75 56 26.8125 56 
Q 31.78125 56 36.171875 55.265625 
Q 40.578125 54.546875 44.28125 53.078125 
z
" id="DejaVuSans-115"/>
     </defs>
     <use xlink:href="#DejaVuSans-82"/>
     <use x="64.982422" xlink:href="#DejaVuSans-101"/>
     <use x="126.505859" xlink:href="#DejaVuSans-102"/>
     <use x="161.710938" xlink:href="#DejaVuSans-117"/>
     <use x="225.089844" xlink:href="#DejaVuSans-115"/>
     <use x="277.189453" xlink:href="#DejaVuSans-101"/>
     <use x="338.712891" xlink:href="#DejaVuSans-32"/>
     <use x="370.5" xlink:href="#DejaVuSans-111"/>
     <use x="431.681641" xlink:href="#DejaVuSans-102"/>
     <use x="466.886719" xlink:href="#DejaVuSans-102"/>
     <use x="502.091797" xlink:href="#DejaVuSans-101"/>
     <use x="563.615234" xlink:href="#DejaVuSans-114"/>
    </g>
    <!--  50.0% -->
    <g transform="translate(809.960253 443.967752)scale(0.027837 -0.027837)">
     <use xlink:href="#DejaVuSans-32"/>
     <use x="31.787109" xlink:href="#DejaVuSans-53"/>
     <use x="95.410156" xlink:href="#DejaVuSans-48"/>
     <use x="159.033203" xlink:href="#DejaVuSans-46"/>
     <use x="190.820312" xlink:href="#DejaVuSans-48"/>
     <use x="254.443359" xlink:href="#DejaVuSans-37"/>
    </g>
   </g>
   <g id="text_20">
    <!-- Deny -->
    <g transform="translate(809.15229 401.467616)scale(0.029233 -0.029233)">
     <use xlink:href="#DejaVuSans-68"/>
     <use x="77.001953" xlink:href="#DejaVuSans-101"/>
     <use x="138.525391" xlink:href="#DejaVuSans-110"/>
     <use x="201.904297" xlink:href="#DejaVuSans-121"/>
    </g>
    <!--  25.0% -->
    <g transform="translate(809.15229 404.74111)scale(0.029233 -0.029233)">
     <use xlink:href="#DejaVuSans-32"/>
     <use x="31.787109" xlink:href="#DejaVuSans-50"/>
     <use x="95.410156" xlink:href="#DejaVuSans-53"/>
     <use x="159.033203" xlink:href="#DejaVuSans-46"/>
     <use x="190.820312" xlink:href="#DejaVuSans-48"/>
     <use x="254.443359" xlink:href="#DejaVuSans-37"/>
    </g>
   </g>
   <g id="text_21">
    <!-- Refuse offer -->
    <g transform="translate(880.010715 401.467616)scale(0.029233 -0.029233)">
     <use xlink:href="#DejaVuSans-82"/>
     <use x="64.982422" xlink:href="#DejaVuSans-101"/>
     <use x="126.505859" xlink:href="#DejaVuSans-102"/>
     <use x="161.710938" xlink:href="#DejaVuSans-117"/>
     <use x="225.089844" xlink:href="#DejaVuSans-115"/>
     <use x="277.189453" xlink:href="#DejaVuSans-101"/>
     <use x="338.712891" xlink:href="#DejaVuSans-32"/>
     <use x="370.5" xlink:href="#DejaVuSans-111"/>
     <use x="431.681641" xlink:href="#DejaVuSans-102"/>
     <use x="466.886719" xlink:href="#DejaVuSans-102"/>
     <use x="502.091797" xlink:href="#DejaVuSans-101"/>
     <use x="563.615234" xlink:href="#DejaVuSans-114"/>
    </g>
    <!--  25.0% -->
    <g transform="translate(880.010715 404.74111)scale(0.029233 -0.029233)">
     <use xlink:href="#DejaVuSans-32"/>
     <use x="31.787109" xlink:href="#DejaVuSans-50"/>
     <use x="95.410156" xlink:href="#DejaVuSans-53"/>
     <use x="159.033203" xlink:href="#DejaVuSans-46"/>
     <use x="190.820312" xlink:href="#DejaVuSans-48"/>
     <use x="254.443359" xlink:href="#DejaVuSans-37"/>
    </g>
   </g>
   <g id="text_22">
    <!-- Validate -->
    <g transform="translate(953.293032 434.013638)scale(0.03 -0.03)">
     <use xlink:href="#DejaVuSans-86"/>
     <use x="60.658203" xlink:href="#DejaVuSans-97"/>
     <use x="121.9375" xlink:href="#DejaVuSans-108"/>
     <use x="149.720703" xlink:href="#DejaVuSans-105"/>
     <use x="177.503906" xlink:href="#DejaVuSans-100"/>
     <use x="240.980469" xlink:href="#DejaVuSans-97"/>
     <use x="302.259766" xlink:href="#DejaVuSans-116"/>
     <use x="341.46875" xlink:href="#DejaVuSans-101"/>
    </g>
   </g>
   <g id="text_23">
    <!-- Accept offer -->
    <g transform="translate(1030.857557 465.0922)scale(0.02803 -0.02803)">
     <use xlink:href="#DejaVuSans-65"/>
     <use x="66.658203" xlink:href="#DejaVuSans-99"/>
     <use x="121.638672" xlink:href="#DejaVuSans-99"/>
     <use x="176.619141" xlink:href="#DejaVuSans-101"/>
     <use x="238.142578" xlink:href="#DejaVuSans-112"/>
     <use x="301.619141" xlink:href="#DejaVuSans-116"/>
     <use x="340.828125" xlink:href="#DejaVuSans-32"/>
     <use x="372.615234" xlink:href="#DejaVuSans-111"/>
     <use x="433.796875" xlink:href="#DejaVuSans-102"/>
     <use x="469.001953" xlink:href="#DejaVuSans-102"/>
     <use x="504.207031" xlink:href="#DejaVuSans-101"/>
     <use x="565.730469" xlink:href="#DejaVuSans-114"/>
    </g>
    <!--  50.0% -->
    <g transform="translate(1030.857557 468.230905)scale(0.02803 -0.02803)">
     <use xlink:href="#DejaVuSans-32"/>
     <use x="31.787109" xlink:href="#DejaVuSans-53"/>
     <use x="95.410156" xlink:href="#DejaVuSans-48"/>
     <use x="159.033203" xlink:href="#DejaVuSans-46"/>
     <use x="190.820312" xlink:href="#DejaVuSans-48"/>
     <use x="254.443359" xlink:href="#DejaVuSans-37"/>
    </g>
   </g>
   <g id="text_24">
    <!-- Pending -->
    <g transform="translate(1169.82733 465.0922)scale(0.02803 -0.02803)">
     <defs>
      <path d="M 19.671875 64.796875 
L 19.671875 37.40625 
L 32.078125 37.40625 
Q 38.96875 37.40625 42.71875 40.96875 
Q 46.484375 44.53125 46.484375 51.125 
Q 46.484375 57.671875 42.71875 61.234375 
Q 38.96875 64.796875 32.078125 64.796875 
z
M 9.8125 72.90625 
L 32.078125 72.90625 
Q 44.34375 72.90625 50.609375 67.359375 
Q 56.890625 61.8125 56.890625 51.125 
Q 56.890625 40.328125 50.609375 34.8125 
Q 44.34375 29.296875 32.078125 29.296875 
L 19.671875 29.296875 
L 19.671875 0 
L 9.8125 0 
z
" id="DejaVuSans-80"/>
      <path d="M 45.40625 27.984375 
Q 45.40625 37.75 41.375 43.109375 
Q 37.359375 48.484375 30.078125 48.484375 
Q 22.859375 48.484375 18.828125 43.109375 
Q 14.796875 37.75 14.796875 27.984375 
Q 14.796875 18.265625 18.828125 12.890625 
Q 22.859375 7.515625 30.078125 7.515625 
Q 37.359375 7.515625 41.375 12.890625 
Q 45.40625 18.265625 45.40625 27.984375 
z
M 54.390625 6.78125 
Q 54.390625 -7.171875 48.1875 -13.984375 
Q 42 -20.796875 29.203125 -20.796875 
Q 24.46875 -20.796875 20.265625 -20.09375 
Q 16.0625 -19.390625 12.109375 -17.921875 
L 12.109375 -9.1875 
Q 16.0625 -11.328125 19.921875 -12.34375 
Q 23.78125 -13.375 27.78125 -13.375 
Q 36.625 -13.375 41.015625 -8.765625 
Q 45.40625 -4.15625 45.40625 5.171875 
L 45.40625 9.625 
Q 42.625 4.78125 38.28125 2.390625 
Q 33.9375 0 27.875 0 
Q 17.828125 0 11.671875 7.65625 
Q 5.515625 15.328125 5.515625 27.984375 
Q 5.515625 40.671875 11.671875 48.328125 
Q 17.828125 56 27.875 56 
Q 33.9375 56 38.28125 53.609375 
Q 42.625 51.21875 45.40625 46.390625 
L 45.40625 54.6875 
L 54.390625 54.6875 
z
" id="DejaVuSans-103"/>
     </defs>
     <use xlink:href="#DejaVuSans-80"/>
     <use x="56.677734" xlink:href="#DejaVuSans-101"/>
     <use x="118.201172" xlink:href="#DejaVuSans-110"/>
     <use x="181.580078" xlink:href="#DejaVuSans-100"/>
     <use x="245.056641" xlink:href="#DejaVuSans-105"/>
     <use x="272.839844" xlink:href="#DejaVuSans-110"/>
     <use x="336.21875" xlink:href="#DejaVuSans-103"/>
    </g>
    <!--  50.0% -->
    <g transform="translate(1169.82733 468.230905)scale(0.02803 -0.02803)">
     <use xlink:href="#DejaVuSans-32"/>
     <use x="31.787109" xlink:href="#DejaVuSans-53"/>
     <use x="95.410156" xlink:href="#DejaVuSans-48"/>
     <use x="159.033203" xlink:href="#DejaVuSans-46"/>
     <use x="190.820312" xlink:href="#DejaVuSans-48"/>
     <use x="254.443359" xlink:href="#DejaVuSans-37"/>
    </g>
   </g>
   <g id="text_25">
    <!-- Call incomp... -->
    <g transform="translate(1028.433665 410.57025)scale(0.029333 -0.029333)">
     <use xlink:href="#DejaVuSans-67"/>
     <use x="69.824219" xlink:href="#DejaVuSans-97"/>
     <use x="131.103516" xlink:href="#DejaVuSans-108"/>
     <use x="158.886719" xlink:href="#DejaVuSans-108"/>
     <use x="186.669922" xlink:href="#DejaVuSans-32"/>
     <use x="218.457031" xlink:href="#DejaVuSans-105"/>
     <use x="246.240234" xlink:href="#DejaVuSans-110"/>
     <use x="309.619141" xlink:href="#DejaVuSans-99"/>
     <use x="364.599609" xlink:href="#DejaVuSans-111"/>
     <use x="425.78125" xlink:href="#DejaVuSans-109"/>
     <use x="523.193359" xlink:href="#DejaVuSans-112"/>
     <use x="586.669922" xlink:href="#DejaVuSans-46"/>
     <use x="618.457031" xlink:href="#DejaVuSans-46"/>
     <use x="650.244141" xlink:href="#DejaVuSans-46"/>
    </g>
    <!--  33.33% -->
    <g transform="translate(1028.433665 413.854941)scale(0.029333 -0.029333)">
     <use xlink:href="#DejaVuSans-32"/>
     <use x="31.787109" xlink:href="#DejaVuSans-51"/>
     <use x="95.410156" xlink:href="#DejaVuSans-51"/>
     <use x="159.033203" xlink:href="#DejaVuSans-46"/>
     <use x="190.820312" xlink:href="#DejaVuSans-51"/>
     <use x="254.443359" xlink:href="#DejaVuSans-51"/>
     <use x="318.066406" xlink:href="#DejaVuSans-37"/>
    </g>
   </g>
   <g id="text_26">
    <!-- Cancel appl... -->
    <g transform="translate(1099.53448 410.57025)scale(0.029333 -0.029333)">
     <use xlink:href="#DejaVuSans-67"/>
     <use x="69.824219" xlink:href="#DejaVuSans-97"/>
     <use x="131.103516" xlink:href="#DejaVuSans-110"/>
     <use x="194.482422" xlink:href="#DejaVuSans-99"/>
     <use x="249.462891" xlink:href="#DejaVuSans-101"/>
     <use x="310.986328" xlink:href="#DejaVuSans-108"/>
     <use x="338.769531" xlink:href="#DejaVuSans-32"/>
     <use x="370.556641" xlink:href="#DejaVuSans-97"/>
     <use x="431.835938" xlink:href="#DejaVuSans-112"/>
     <use x="495.3125" xlink:href="#DejaVuSans-112"/>
     <use x="558.789062" xlink:href="#DejaVuSans-108"/>
     <use x="586.572266" xlink:href="#DejaVuSans-46"/>
     <use x="618.359375" xlink:href="#DejaVuSans-46"/>
     <use x="650.146484" xlink:href="#DejaVuSans-46"/>
    </g>
    <!--  33.33% -->
    <g transform="translate(1099.53448 413.854941)scale(0.029333 -0.029333)">
     <use xlink:href="#DejaVuSans-32"/>
     <use x="31.787109" xlink:href="#DejaVuSans-51"/>
     <use x="95.410156" xlink:href="#DejaVuSans-51"/>
     <use x="159.033203" xlink:href="#DejaVuSans-46"/>
     <use x="190.820312" xlink:href="#DejaVuSans-51"/>
     <use x="254.443359" xlink:href="#DejaVuSans-51"/>
     <use x="318.066406" xlink:href="#DejaVuSans-37"/>
    </g>
   </g>
   <g id="text_27">
    <!-- Cancel offer -->
    <g transform="translate(1170.635294 410.57025)scale(0.029333 -0.029333)">
     <use xlink:href="#DejaVuSans-67"/>
     <use x="69.824219" xlink:href="#DejaVuSans-97"/>
     <use x="131.103516" xlink:href="#DejaVuSans-110"/>
     <use x="194.482422" xlink:href="#DejaVuSans-99"/>
     <use x="249.462891" xlink:href="#DejaVuSans-101"/>
     <use x="310.986328" xlink:href="#DejaVuSans-108"/>
     <use x="338.769531" xlink:href="#DejaVuSans-32"/>
     <use x="370.556641" xlink:href="#DejaVuSans-111"/>
     <use x="431.738281" xlink:href="#DejaVuSans-102"/>
     <use x="466.943359" xlink:href="#DejaVuSans-102"/>
     <use x="502.148438" xlink:href="#DejaVuSans-101"/>
     <use x="563.671875" xlink:href="#DejaVuSans-114"/>
    </g>
    <!--  33.33% -->
    <g transform="translate(1170.635294 413.854941)scale(0.029333 -0.029333)">
     <use xlink:href="#DejaVuSans-32"/>
     <use x="31.787109" xlink:href="#DejaVuSans-51"/>
     <use x="95.410156" xlink:href="#DejaVuSans-51"/>
     <use x="159.033203" xlink:href="#DejaVuSans-46"/>
     <use x="190.820312" xlink:href="#DejaVuSans-51"/>
     <use x="254.443359" xlink:href="#DejaVuSans-51"/>
     <use x="318.066406" xlink:href="#DejaVuSans-37"/>
    </g>
   </g>
   <g id="text_28">
    <!-- Create offer -->
    <g transform="translate(516.992579 306.759339)scale(0.03 -0.03)">
     <use xlink:href="#DejaVuSans-67"/>
     <use x="69.824219" xlink:href="#DejaVuSans-114"/>
     <use x="108.6875" xlink:href="#DejaVuSans-101"/>
     <use x="170.210938" xlink:href="#DejaVuSans-97"/>
     <use x="231.490234" xlink:href="#DejaVuSans-116"/>
     <use x="270.699219" xlink:href="#DejaVuSans-101"/>
     <use x="332.222656" xlink:href="#DejaVuSans-32"/>
     <use x="364.009766" xlink:href="#DejaVuSans-111"/>
     <use x="425.191406" xlink:href="#DejaVuSans-102"/>
     <use x="460.396484" xlink:href="#DejaVuSans-102"/>
     <use x="495.601562" xlink:href="#DejaVuSans-101"/>
     <use x="557.125" xlink:href="#DejaVuSans-114"/>
    </g>
   </g>
   <g id="text_29">
    <!-- Send (mail ... -->
    <g transform="translate(589.709321 306.759339)scale(0.03 -0.03)">
     <defs>
      <path d="M 31 75.875 
Q 24.46875 64.65625 21.28125 53.65625 
Q 18.109375 42.671875 18.109375 31.390625 
Q 18.109375 20.125 21.3125 9.0625 
Q 24.515625 -2 31 -13.1875 
L 23.1875 -13.1875 
Q 15.875 -1.703125 12.234375 9.375 
Q 8.59375 20.453125 8.59375 31.390625 
Q 8.59375 42.28125 12.203125 53.3125 
Q 15.828125 64.359375 23.1875 75.875 
z
" id="DejaVuSans-40"/>
     </defs>
     <use xlink:href="#DejaVuSans-83"/>
     <use x="63.476562" xlink:href="#DejaVuSans-101"/>
     <use x="125" xlink:href="#DejaVuSans-110"/>
     <use x="188.378906" xlink:href="#DejaVuSans-100"/>
     <use x="251.855469" xlink:href="#DejaVuSans-32"/>
     <use x="283.642578" xlink:href="#DejaVuSans-40"/>
     <use x="322.65625" xlink:href="#DejaVuSans-109"/>
     <use x="420.068359" xlink:href="#DejaVuSans-97"/>
     <use x="481.347656" xlink:href="#DejaVuSans-105"/>
     <use x="509.130859" xlink:href="#DejaVuSans-108"/>
     <use x="536.914062" xlink:href="#DejaVuSans-32"/>
     <use x="568.701172" xlink:href="#DejaVuSans-46"/>
     <use x="600.488281" xlink:href="#DejaVuSans-46"/>
     <use x="632.275391" xlink:href="#DejaVuSans-46"/>
    </g>
   </g>
   <g id="text_30">
    <!-- Call -->
    <g transform="translate(662.426063 306.759339)scale(0.03 -0.03)">
     <use xlink:href="#DejaVuSans-67"/>
     <use x="69.824219" xlink:href="#DejaVuSans-97"/>
     <use x="131.103516" xlink:href="#DejaVuSans-108"/>
     <use x="158.886719" xlink:href="#DejaVuSans-108"/>
    </g>
   </g>
   <g id="text_31">
    <!-- Return -->
    <g transform="translate(954.622709 356.584415)scale(0.027941 -0.027941)">
     <use xlink:href="#DejaVuSans-82"/>
     <use x="64.982422" xlink:href="#DejaVuSans-101"/>
     <use x="126.505859" xlink:href="#DejaVuSans-116"/>
     <use x="165.714844" xlink:href="#DejaVuSans-117"/>
     <use x="229.09375" xlink:href="#DejaVuSans-114"/>
     <use x="268.457031" xlink:href="#DejaVuSans-110"/>
    </g>
    <!--  50.0% -->
    <g transform="translate(954.622709 359.713171)scale(0.027941 -0.027941)">
     <use xlink:href="#DejaVuSans-32"/>
     <use x="31.787109" xlink:href="#DejaVuSans-53"/>
     <use x="95.410156" xlink:href="#DejaVuSans-48"/>
     <use x="159.033203" xlink:href="#DejaVuSans-46"/>
     <use x="190.820312" xlink:href="#DejaVuSans-48"/>
     <use x="254.443359" xlink:href="#DejaVuSans-37"/>
    </g>
   </g>
   <g id="text_32">
    <!-- Accept offer -->
    <g transform="translate(1024.631618 356.584415)scale(0.027941 -0.027941)">
     <use xlink:href="#DejaVuSans-65"/>
     <use x="66.658203" xlink:href="#DejaVuSans-99"/>
     <use x="121.638672" xlink:href="#DejaVuSans-99"/>
     <use x="176.619141" xlink:href="#DejaVuSans-101"/>
     <use x="238.142578" xlink:href="#DejaVuSans-112"/>
     <use x="301.619141" xlink:href="#DejaVuSans-116"/>
     <use x="340.828125" xlink:href="#DejaVuSans-32"/>
     <use x="372.615234" xlink:href="#DejaVuSans-111"/>
     <use x="433.796875" xlink:href="#DejaVuSans-102"/>
     <use x="469.001953" xlink:href="#DejaVuSans-102"/>
     <use x="504.207031" xlink:href="#DejaVuSans-101"/>
     <use x="565.730469" xlink:href="#DejaVuSans-114"/>
    </g>
    <!--  50.0% -->
    <g transform="translate(1024.631618 359.713171)scale(0.027941 -0.027941)">
     <use xlink:href="#DejaVuSans-32"/>
     <use x="31.787109" xlink:href="#DejaVuSans-53"/>
     <use x="95.410156" xlink:href="#DejaVuSans-48"/>
     <use x="159.033203" xlink:href="#DejaVuSans-46"/>
     <use x="190.820312" xlink:href="#DejaVuSans-48"/>
     <use x="254.443359" xlink:href="#DejaVuSans-37"/>
    </g>
   </g>
   <g id="text_33">
    <!-- Deny -->
    <g transform="translate(744.595982 331.335547)scale(0.027941 -0.027941)">
     <use xlink:href="#DejaVuSans-68"/>
     <use x="77.001953" xlink:href="#DejaVuSans-101"/>
     <use x="138.525391" xlink:href="#DejaVuSans-110"/>
     <use x="201.904297" xlink:href="#DejaVuSans-121"/>
    </g>
    <!--  50.0% -->
    <g transform="translate(744.595982 334.464303)scale(0.027941 -0.027941)">
     <use xlink:href="#DejaVuSans-32"/>
     <use x="31.787109" xlink:href="#DejaVuSans-53"/>
     <use x="95.410156" xlink:href="#DejaVuSans-48"/>
     <use x="159.033203" xlink:href="#DejaVuSans-46"/>
     <use x="190.820312" xlink:href="#DejaVuSans-48"/>
     <use x="254.443359" xlink:href="#DejaVuSans-37"/>
    </g>
   </g>
   <g id="text_34">
    <!-- Refuse offer -->
    <g transform="translate(814.604891 331.335547)scale(0.027941 -0.027941)">
     <use xlink:href="#DejaVuSans-82"/>
     <use x="64.982422" xlink:href="#DejaVuSans-101"/>
     <use x="126.505859" xlink:href="#DejaVuSans-102"/>
     <use x="161.710938" xlink:href="#DejaVuSans-117"/>
     <use x="225.089844" xlink:href="#DejaVuSans-115"/>
     <use x="277.189453" xlink:href="#DejaVuSans-101"/>
     <use x="338.712891" xlink:href="#DejaVuSans-32"/>
     <use x="370.5" xlink:href="#DejaVuSans-111"/>
     <use x="431.681641" xlink:href="#DejaVuSans-102"/>
     <use x="466.886719" xlink:href="#DejaVuSans-102"/>
     <use x="502.091797" xlink:href="#DejaVuSans-101"/>
     <use x="563.615234" xlink:href="#DejaVuSans-114"/>
    </g>
    <!--  50.0% -->
    <g transform="translate(814.604891 334.464303)scale(0.027941 -0.027941)">
     <use xlink:href="#DejaVuSans-32"/>
     <use x="31.787109" xlink:href="#DejaVuSans-53"/>
     <use x="95.410156" xlink:href="#DejaVuSans-48"/>
     <use x="159.033203" xlink:href="#DejaVuSans-46"/>
     <use x="190.820312" xlink:href="#DejaVuSans-48"/>
     <use x="254.443359" xlink:href="#DejaVuSans-37"/>
    </g>
   </g>
   <g id="text_35">
    <!-- Return -->
    <g transform="translate(1025.94052 298.502501)scale(0.029021 -0.029021)">
     <use xlink:href="#DejaVuSans-82"/>
     <use x="64.982422" xlink:href="#DejaVuSans-101"/>
     <use x="126.505859" xlink:href="#DejaVuSans-116"/>
     <use x="165.714844" xlink:href="#DejaVuSans-117"/>
     <use x="229.09375" xlink:href="#DejaVuSans-114"/>
     <use x="268.457031" xlink:href="#DejaVuSans-110"/>
    </g>
    <!--  33.33% -->
    <g transform="translate(1025.94052 301.752272)scale(0.029021 -0.029021)">
     <use xlink:href="#DejaVuSans-32"/>
     <use x="31.787109" xlink:href="#DejaVuSans-51"/>
     <use x="95.410156" xlink:href="#DejaVuSans-51"/>
     <use x="159.033203" xlink:href="#DejaVuSans-46"/>
     <use x="190.820312" xlink:href="#DejaVuSans-51"/>
     <use x="254.443359" xlink:href="#DejaVuSans-51"/>
     <use x="318.066406" xlink:href="#DejaVuSans-37"/>
    </g>
   </g>
   <g id="text_36">
    <!-- Cancel appl... -->
    <g transform="translate(1097.064419 298.502501)scale(0.029021 -0.029021)">
     <use xlink:href="#DejaVuSans-67"/>
     <use x="69.824219" xlink:href="#DejaVuSans-97"/>
     <use x="131.103516" xlink:href="#DejaVuSans-110"/>
     <use x="194.482422" xlink:href="#DejaVuSans-99"/>
     <use x="249.462891" xlink:href="#DejaVuSans-101"/>
     <use x="310.986328" xlink:href="#DejaVuSans-108"/>
     <use x="338.769531" xlink:href="#DejaVuSans-32"/>
     <use x="370.556641" xlink:href="#DejaVuSans-97"/>
     <use x="431.835938" xlink:href="#DejaVuSans-112"/>
     <use x="495.3125" xlink:href="#DejaVuSans-112"/>
     <use x="558.789062" xlink:href="#DejaVuSans-108"/>
     <use x="586.572266" xlink:href="#DejaVuSans-46"/>
     <use x="618.359375" xlink:href="#DejaVuSans-46"/>
     <use x="650.146484" xlink:href="#DejaVuSans-46"/>
    </g>
    <!--  33.33% -->
    <g transform="translate(1097.064419 301.752272)scale(0.029021 -0.029021)">
     <use xlink:href="#DejaVuSans-32"/>
     <use x="31.787109" xlink:href="#DejaVuSans-51"/>
     <use x="95.410156" xlink:href="#DejaVuSans-51"/>
     <use x="159.033203" xlink:href="#DejaVuSans-46"/>
     <use x="190.820312" xlink:href="#DejaVuSans-51"/>
     <use x="254.443359" xlink:href="#DejaVuSans-51"/>
     <use x="318.066406" xlink:href="#DejaVuSans-37"/>
    </g>
   </g>
   <g id="text_37">
    <!-- Cancel offer -->
    <g transform="translate(1168.188318 298.502501)scale(0.029021 -0.029021)">
     <use xlink:href="#DejaVuSans-67"/>
     <use x="69.824219" xlink:href="#DejaVuSans-97"/>
     <use x="131.103516" xlink:href="#DejaVuSans-110"/>
     <use x="194.482422" xlink:href="#DejaVuSans-99"/>
     <use x="249.462891" xlink:href="#DejaVuSans-101"/>
     <use x="310.986328" xlink:href="#DejaVuSans-108"/>
     <use x="338.769531" xlink:href="#DejaVuSans-32"/>
     <use x="370.556641" xlink:href="#DejaVuSans-111"/>
     <use x="431.738281" xlink:href="#DejaVuSans-102"/>
     <use x="466.943359" xlink:href="#DejaVuSans-102"/>
     <use x="502.148438" xlink:href="#DejaVuSans-101"/>
     <use x="563.671875" xlink:href="#DejaVuSans-114"/>
    </g>
    <!--  33.33% -->
    <g transform="translate(1168.188318 301.752272)scale(0.029021 -0.029021)">
     <use xlink:href="#DejaVuSans-32"/>
     <use x="31.787109" xlink:href="#DejaVuSans-51"/>
     <use x="95.410156" xlink:href="#DejaVuSans-51"/>
     <use x="159.033203" xlink:href="#DejaVuSans-46"/>
     <use x="190.820312" xlink:href="#DejaVuSans-51"/>
     <use x="254.443359" xlink:href="#DejaVuSans-51"/>
     <use x="318.066406" xlink:href="#DejaVuSans-37"/>
    </g>
   </g>
   <g id="text_38">
    <!-- Return -->
    <g transform="translate(738.293864 256.091264)scale(0.029671 -0.029671)">
     <use xlink:href="#DejaVuSans-82"/>
     <use x="64.982422" xlink:href="#DejaVuSans-101"/>
     <use x="126.505859" xlink:href="#DejaVuSans-116"/>
     <use x="165.714844" xlink:href="#DejaVuSans-117"/>
     <use x="229.09375" xlink:href="#DejaVuSans-114"/>
     <use x="268.457031" xlink:href="#DejaVuSans-110"/>
    </g>
    <!--  25.0% -->
    <g transform="translate(738.293864 259.413815)scale(0.029671 -0.029671)">
     <use xlink:href="#DejaVuSans-32"/>
     <use x="31.787109" xlink:href="#DejaVuSans-50"/>
     <use x="95.410156" xlink:href="#DejaVuSans-53"/>
     <use x="159.033203" xlink:href="#DejaVuSans-46"/>
     <use x="190.820312" xlink:href="#DejaVuSans-48"/>
     <use x="254.443359" xlink:href="#DejaVuSans-37"/>
    </g>
   </g>
   <g id="text_39">
    <!-- Deny -->
    <g transform="translate(810.214185 256.091264)scale(0.029671 -0.029671)">
     <use xlink:href="#DejaVuSans-68"/>
     <use x="77.001953" xlink:href="#DejaVuSans-101"/>
     <use x="138.525391" xlink:href="#DejaVuSans-110"/>
     <use x="201.904297" xlink:href="#DejaVuSans-121"/>
    </g>
    <!--  25.0% -->
    <g transform="translate(810.214185 259.413815)scale(0.029671 -0.029671)">
     <use xlink:href="#DejaVuSans-32"/>
     <use x="31.787109" xlink:href="#DejaVuSans-50"/>
     <use x="95.410156" xlink:href="#DejaVuSans-53"/>
     <use x="159.033203" xlink:href="#DejaVuSans-46"/>
     <use x="190.820312" xlink:href="#DejaVuSans-48"/>
     <use x="254.443359" xlink:href="#DejaVuSans-37"/>
    </g>
   </g>
   <g id="text_40">
    <!-- Refuse offer -->
    <g transform="translate(882.134505 256.091264)scale(0.029671 -0.029671)">
     <use xlink:href="#DejaVuSans-82"/>
     <use x="64.982422" xlink:href="#DejaVuSans-101"/>
     <use x="126.505859" xlink:href="#DejaVuSans-102"/>
     <use x="161.710938" xlink:href="#DejaVuSans-117"/>
     <use x="225.089844" xlink:href="#DejaVuSans-115"/>
     <use x="277.189453" xlink:href="#DejaVuSans-101"/>
     <use x="338.712891" xlink:href="#DejaVuSans-32"/>
     <use x="370.5" xlink:href="#DejaVuSans-111"/>
     <use x="431.681641" xlink:href="#DejaVuSans-102"/>
     <use x="466.886719" xlink:href="#DejaVuSans-102"/>
     <use x="502.091797" xlink:href="#DejaVuSans-101"/>
     <use x="563.615234" xlink:href="#DejaVuSans-114"/>
    </g>
    <!--  25.0% -->
    <g transform="translate(882.134505 259.413815)scale(0.029671 -0.029671)">
     <use xlink:href="#DejaVuSans-32"/>
     <use x="31.787109" xlink:href="#DejaVuSans-50"/>
     <use x="95.410156" xlink:href="#DejaVuSans-53"/>
     <use x="159.033203" xlink:href="#DejaVuSans-46"/>
     <use x="190.820312" xlink:href="#DejaVuSans-48"/>
     <use x="254.443359" xlink:href="#DejaVuSans-37"/>
    </g>
   </g>
  </g>
 </g>
 <defs>
  <clipPath id="p713540ff0e">
   <rect height="276.32362" width="1071.36" x="172.8" y="216.34819"/>
  </clipPath>
 </defs>
</svg>
