<?xml version="1.0" encoding="utf-8" standalone="no"?>
<!DOCTYPE svg PUBLIC "-//W3C//DTD SVG 1.1//EN"
  "http://www.w3.org/Graphics/SVG/1.1/DTD/svg11.dtd">
<!-- Created with matplotlib (https://matplotlib.org/) -->
<svg height="144pt" version="1.1" viewBox="0 0 576 144" width="576pt" xmlns="http://www.w3.org/2000/svg" xmlns:xlink="http://www.w3.org/1999/xlink">
 <metadata>
  <rdf:RDF xmlns:cc="http://creativecommons.org/ns#" xmlns:dc="http://purl.org/dc/elements/1.1/" xmlns:rdf="http://www.w3.org/1999/02/22-rdf-syntax-ns#">
   <cc:Work>
    <dc:type rdf:resource="http://purl.org/dc/dcmitype/StillImage"/>
    <dc:date>2023-02-17T10:49:12.278265</dc:date>
    <dc:format>image/svg+xml</dc:format>
    <dc:creator>
     <cc:Agent>
      <dc:title>Matplotlib v3.3.4, https://matplotlib.org/</dc:title>
     </cc:Agent>
    </dc:creator>
   </cc:Work>
  </rdf:RDF>
 </metadata>
 <defs>
  <style type="text/css">*{stroke-linecap:butt;stroke-linejoin:round;}</style>
 </defs>
 <g id="figure_1">
  <g id="patch_1">
   <path d="M 0 144 
L 576 144 
L 576 0 
L 0 0 
z
" style="fill:#ffffff;"/>
  </g>
  <g id="axes_1">
   <g id="patch_2">
    <path clip-path="url(#pf7c929bfaa)" d="M 72 114.395918 
L 301.862172 114.395918 
L 301.862172 102.902809 
L 72 102.902809 
z
" style="fill:#ffa24b;opacity:0.8;stroke:#ffa24b;stroke-linejoin:miter;"/>
   </g>
   <g id="patch_3">
    <path clip-path="url(#pf7c929bfaa)" d="M 72 102.902809 
L 301.862172 102.902809 
L 301.862172 91.4097 
L 72 91.4097 
z
" style="fill:#76c476;opacity:0.8;stroke:#76c476;stroke-linejoin:miter;"/>
   </g>
   <g id="patch_4">
    <path clip-path="url(#pf7c929bfaa)" d="M 83.493109 114.395918 
L 106.479326 114.395918 
L 107.437085 108.649363 
L 106.479326 102.902809 
L 83.493109 102.902809 
L 84.450868 108.649363 
z
" style="fill:#ffa24b;stroke:#000000;stroke-linejoin:miter;stroke-width:1.011111;"/>
   </g>
   <g id="patch_5">
    <path clip-path="url(#pf7c929bfaa)" d="M 106.479326 114.395918 
L 129.465543 114.395918 
L 130.423302 108.649363 
L 129.465543 102.902809 
L 106.479326 102.902809 
L 107.437085 108.649363 
z
" style="fill:#ffa24b;stroke:#000000;stroke-linejoin:miter;stroke-width:1.011111;"/>
   </g>
   <g id="patch_6">
    <path clip-path="url(#pf7c929bfaa)" d="M 129.465543 114.395918 
L 152.45176 114.395918 
L 153.409519 108.649363 
L 152.45176 102.902809 
L 129.465543 102.902809 
L 130.423302 108.649363 
z
" style="fill:#ffa24b;stroke:#000000;stroke-linejoin:miter;stroke-width:1.011111;"/>
   </g>
   <g id="patch_7">
    <path clip-path="url(#pf7c929bfaa)" d="M 152.45176 114.395918 
L 163.944869 114.395918 
L 164.902628 108.649363 
L 163.944869 102.902809 
L 152.45176 102.902809 
L 153.409519 108.649363 
z
" style="fill:#76c476;"/>
   </g>
   <g id="patch_8">
    <path clip-path="url(#pf7c929bfaa)" d="M 163.944869 114.395918 
L 175.437977 114.395918 
L 176.395736 108.649363 
L 175.437977 102.902809 
L 163.944869 102.902809 
L 164.902628 108.649363 
z
" style="fill:#ffa24b;"/>
   </g>
   <g id="patch_9">
    <path clip-path="url(#pf7c929bfaa)" d="M 175.437977 114.395918 
L 198.424195 114.395918 
L 199.381954 108.649363 
L 198.424195 102.902809 
L 175.437977 102.902809 
L 176.395736 108.649363 
z
" style="fill:#ffa24b;stroke:#000000;stroke-linejoin:miter;stroke-width:1.011111;"/>
   </g>
   <g id="patch_10">
    <path clip-path="url(#pf7c929bfaa)" d="M 198.424195 114.395918 
L 209.917303 114.395918 
L 210.875062 108.649363 
L 209.917303 102.902809 
L 198.424195 102.902809 
L 199.381954 108.649363 
z
" style="fill:#76c476;"/>
   </g>
   <g id="patch_11">
    <path clip-path="url(#pf7c929bfaa)" d="M 209.917303 114.395918 
L 221.410412 114.395918 
L 222.368171 108.649363 
L 221.410412 102.902809 
L 209.917303 102.902809 
L 210.875062 108.649363 
z
" style="fill:#ffa24b;"/>
   </g>
   <g id="patch_12">
    <path clip-path="url(#pf7c929bfaa)" d="M 221.410412 114.395918 
L 232.90352 114.395918 
L 233.861279 108.649363 
L 232.90352 102.902809 
L 221.410412 102.902809 
L 222.368171 108.649363 
z
" style="fill:#76c476;"/>
   </g>
   <g id="patch_13">
    <path clip-path="url(#pf7c929bfaa)" d="M 232.90352 114.395918 
L 244.396629 114.395918 
L 245.354388 108.649363 
L 244.396629 102.902809 
L 232.90352 102.902809 
L 233.861279 108.649363 
z
" style="fill:#ffa24b;"/>
   </g>
   <g id="patch_14">
    <path clip-path="url(#pf7c929bfaa)" d="M 244.396629 114.395918 
L 255.889738 114.395918 
L 256.847497 108.649363 
L 255.889738 102.902809 
L 244.396629 102.902809 
L 245.354388 108.649363 
z
" style="fill:#76c476;"/>
   </g>
   <g id="patch_15">
    <path clip-path="url(#pf7c929bfaa)" d="M 255.889738 114.395918 
L 267.382846 114.395918 
L 268.340605 108.649363 
L 267.382846 102.902809 
L 255.889738 102.902809 
L 256.847497 108.649363 
z
" style="fill:#ffa24b;"/>
   </g>
   <g id="patch_16">
    <path clip-path="url(#pf7c929bfaa)" d="M 267.382846 114.395918 
L 290.369063 114.395918 
L 291.326822 108.649363 
L 290.369063 102.902809 
L 267.382846 102.902809 
L 268.340605 108.649363 
z
" style="fill:#ffa24b;stroke:#000000;stroke-linejoin:miter;stroke-width:1.011111;"/>
   </g>
   <g id="patch_17">
    <path clip-path="url(#pf7c929bfaa)" d="M 152.45176 102.902809 
L 163.944869 102.902809 
L 164.902628 97.156255 
L 163.944869 91.4097 
L 152.45176 91.4097 
L 153.409519 97.156255 
z
" style="fill:#76c476;"/>
   </g>
   <g id="patch_18">
    <path clip-path="url(#pf7c929bfaa)" d="M 163.944869 102.902809 
L 175.437977 102.902809 
L 176.395736 97.156255 
L 175.437977 91.4097 
L 163.944869 91.4097 
L 164.902628 97.156255 
z
" style="fill:#ffa24b;"/>
   </g>
   <g id="patch_19">
    <path clip-path="url(#pf7c929bfaa)" d="M 175.437977 102.902809 
L 198.424195 102.902809 
L 199.381954 97.156255 
L 198.424195 91.4097 
L 175.437977 91.4097 
L 176.395736 97.156255 
z
" style="fill:#76c476;stroke:#000000;stroke-linejoin:miter;stroke-width:1.011111;"/>
   </g>
   <g id="patch_20">
    <path clip-path="url(#pf7c929bfaa)" d="M 198.424195 102.902809 
L 209.917303 102.902809 
L 210.875062 97.156255 
L 209.917303 91.4097 
L 198.424195 91.4097 
L 199.381954 97.156255 
z
" style="fill:#76c476;"/>
   </g>
   <g id="patch_21">
    <path clip-path="url(#pf7c929bfaa)" d="M 209.917303 102.902809 
L 221.410412 102.902809 
L 222.368171 97.156255 
L 221.410412 91.4097 
L 209.917303 91.4097 
L 210.875062 97.156255 
z
" style="fill:#ffa24b;"/>
   </g>
   <g id="patch_22">
    <path clip-path="url(#pf7c929bfaa)" d="M 221.410412 102.902809 
L 232.90352 102.902809 
L 233.861279 97.156255 
L 232.90352 91.4097 
L 221.410412 91.4097 
L 222.368171 97.156255 
z
" style="fill:#76c476;"/>
   </g>
   <g id="patch_23">
    <path clip-path="url(#pf7c929bfaa)" d="M 232.90352 102.902809 
L 244.396629 102.902809 
L 245.354388 97.156255 
L 244.396629 91.4097 
L 232.90352 91.4097 
L 233.861279 97.156255 
z
" style="fill:#ffa24b;"/>
   </g>
   <g id="patch_24">
    <path clip-path="url(#pf7c929bfaa)" d="M 244.396629 102.902809 
L 255.889738 102.902809 
L 256.847497 97.156255 
L 255.889738 91.4097 
L 244.396629 91.4097 
L 245.354388 97.156255 
z
" style="fill:#76c476;"/>
   </g>
   <g id="patch_25">
    <path clip-path="url(#pf7c929bfaa)" d="M 255.889738 102.902809 
L 267.382846 102.902809 
L 268.340605 97.156255 
L 267.382846 91.4097 
L 255.889738 91.4097 
L 256.847497 97.156255 
z
" style="fill:#ffa24b;"/>
   </g>
   <g id="text_1">
    <!-- 1 -->
    <g transform="translate(68.168964 108.879225)scale(0.07 -0.07)">
     <defs>
      <path d="M 12.40625 8.296875 
L 28.515625 8.296875 
L 28.515625 63.921875 
L 10.984375 60.40625 
L 10.984375 69.390625 
L 28.421875 72.90625 
L 38.28125 72.90625 
L 38.28125 8.296875 
L 54.390625 8.296875 
L 54.390625 0 
L 12.40625 0 
z
" id="DejaVuSans-49"/>
     </defs>
     <use xlink:href="#DejaVuSans-49"/>
    </g>
   </g>
   <g id="text_2">
    <!-- applicat. 0 -->
    <g transform="translate(72.766207 108.879225)scale(0.07 -0.07)">
     <defs>
      <path d="M 34.28125 27.484375 
Q 23.390625 27.484375 19.1875 25 
Q 14.984375 22.515625 14.984375 16.5 
Q 14.984375 11.71875 18.140625 8.90625 
Q 21.296875 6.109375 26.703125 6.109375 
Q 34.1875 6.109375 38.703125 11.40625 
Q 43.21875 16.703125 43.21875 25.484375 
L 43.21875 27.484375 
z
M 52.203125 31.203125 
L 52.203125 0 
L 43.21875 0 
L 43.21875 8.296875 
Q 40.140625 3.328125 35.546875 0.953125 
Q 30.953125 -1.421875 24.3125 -1.421875 
Q 15.921875 -1.421875 10.953125 3.296875 
Q 6 8.015625 6 15.921875 
Q 6 25.140625 12.171875 29.828125 
Q 18.359375 34.515625 30.609375 34.515625 
L 43.21875 34.515625 
L 43.21875 35.40625 
Q 43.21875 41.609375 39.140625 45 
Q 35.0625 48.390625 27.6875 48.390625 
Q 23 48.390625 18.546875 47.265625 
Q 14.109375 46.140625 10.015625 43.890625 
L 10.015625 52.203125 
Q 14.9375 54.109375 19.578125 55.046875 
Q 24.21875 56 28.609375 56 
Q 40.484375 56 46.34375 49.84375 
Q 52.203125 43.703125 52.203125 31.203125 
z
" id="DejaVuSans-97"/>
      <path d="M 18.109375 8.203125 
L 18.109375 -20.796875 
L 9.078125 -20.796875 
L 9.078125 54.6875 
L 18.109375 54.6875 
L 18.109375 46.390625 
Q 20.953125 51.265625 25.265625 53.625 
Q 29.59375 56 35.59375 56 
Q 45.5625 56 51.78125 48.09375 
Q 58.015625 40.1875 58.015625 27.296875 
Q 58.015625 14.40625 51.78125 6.484375 
Q 45.5625 -1.421875 35.59375 -1.421875 
Q 29.59375 -1.421875 25.265625 0.953125 
Q 20.953125 3.328125 18.109375 8.203125 
z
M 48.6875 27.296875 
Q 48.6875 37.203125 44.609375 42.84375 
Q 40.53125 48.484375 33.40625 48.484375 
Q 26.265625 48.484375 22.1875 42.84375 
Q 18.109375 37.203125 18.109375 27.296875 
Q 18.109375 17.390625 22.1875 11.75 
Q 26.265625 6.109375 33.40625 6.109375 
Q 40.53125 6.109375 44.609375 11.75 
Q 48.6875 17.390625 48.6875 27.296875 
z
" id="DejaVuSans-112"/>
      <path d="M 9.421875 75.984375 
L 18.40625 75.984375 
L 18.40625 0 
L 9.421875 0 
z
" id="DejaVuSans-108"/>
      <path d="M 9.421875 54.6875 
L 18.40625 54.6875 
L 18.40625 0 
L 9.421875 0 
z
M 9.421875 75.984375 
L 18.40625 75.984375 
L 18.40625 64.59375 
L 9.421875 64.59375 
z
" id="DejaVuSans-105"/>
      <path d="M 48.78125 52.59375 
L 48.78125 44.1875 
Q 44.96875 46.296875 41.140625 47.34375 
Q 37.3125 48.390625 33.40625 48.390625 
Q 24.65625 48.390625 19.8125 42.84375 
Q 14.984375 37.3125 14.984375 27.296875 
Q 14.984375 17.28125 19.8125 11.734375 
Q 24.65625 6.203125 33.40625 6.203125 
Q 37.3125 6.203125 41.140625 7.25 
Q 44.96875 8.296875 48.78125 10.40625 
L 48.78125 2.09375 
Q 45.015625 0.34375 40.984375 -0.53125 
Q 36.96875 -1.421875 32.421875 -1.421875 
Q 20.0625 -1.421875 12.78125 6.34375 
Q 5.515625 14.109375 5.515625 27.296875 
Q 5.515625 40.671875 12.859375 48.328125 
Q 20.21875 56 33.015625 56 
Q 37.15625 56 41.109375 55.140625 
Q 45.0625 54.296875 48.78125 52.59375 
z
" id="DejaVuSans-99"/>
      <path d="M 18.3125 70.21875 
L 18.3125 54.6875 
L 36.8125 54.6875 
L 36.8125 47.703125 
L 18.3125 47.703125 
L 18.3125 18.015625 
Q 18.3125 11.328125 20.140625 9.421875 
Q 21.96875 7.515625 27.59375 7.515625 
L 36.8125 7.515625 
L 36.8125 0 
L 27.59375 0 
Q 17.1875 0 13.234375 3.875 
Q 9.28125 7.765625 9.28125 18.015625 
L 9.28125 47.703125 
L 2.6875 47.703125 
L 2.6875 54.6875 
L 9.28125 54.6875 
L 9.28125 70.21875 
z
" id="DejaVuSans-116"/>
      <path d="M 10.6875 12.40625 
L 21 12.40625 
L 21 0 
L 10.6875 0 
z
" id="DejaVuSans-46"/>
      <path id="DejaVuSans-32"/>
      <path d="M 31.78125 66.40625 
Q 24.171875 66.40625 20.328125 58.90625 
Q 16.5 51.421875 16.5 36.375 
Q 16.5 21.390625 20.328125 13.890625 
Q 24.171875 6.390625 31.78125 6.390625 
Q 39.453125 6.390625 43.28125 13.890625 
Q 47.125 21.390625 47.125 36.375 
Q 47.125 51.421875 43.28125 58.90625 
Q 39.453125 66.40625 31.78125 66.40625 
z
M 31.78125 74.21875 
Q 44.046875 74.21875 50.515625 64.515625 
Q 56.984375 54.828125 56.984375 36.375 
Q 56.984375 17.96875 50.515625 8.265625 
Q 44.046875 -1.421875 31.78125 -1.421875 
Q 19.53125 -1.421875 13.0625 8.265625 
Q 6.59375 17.96875 6.59375 36.375 
Q 6.59375 54.828125 13.0625 64.515625 
Q 19.53125 74.21875 31.78125 74.21875 
z
" id="DejaVuSans-48"/>
     </defs>
     <use xlink:href="#DejaVuSans-97"/>
     <use x="61.279297" xlink:href="#DejaVuSans-112"/>
     <use x="124.755859" xlink:href="#DejaVuSans-112"/>
     <use x="188.232422" xlink:href="#DejaVuSans-108"/>
     <use x="216.015625" xlink:href="#DejaVuSans-105"/>
     <use x="243.798828" xlink:href="#DejaVuSans-99"/>
     <use x="298.779297" xlink:href="#DejaVuSans-97"/>
     <use x="360.058594" xlink:href="#DejaVuSans-116"/>
     <use x="399.267578" xlink:href="#DejaVuSans-46"/>
     <use x="431.054688" xlink:href="#DejaVuSans-32"/>
     <use x="462.841797" xlink:href="#DejaVuSans-48"/>
    </g>
   </g>
   <g id="text_3">
    <!-- 1 -->
    <g transform="translate(68.168964 97.386117)scale(0.07 -0.07)">
     <use xlink:href="#DejaVuSans-49"/>
    </g>
   </g>
   <g id="text_4">
    <!-- offer 0 -->
    <g transform="translate(72.766207 97.386117)scale(0.07 -0.07)">
     <defs>
      <path d="M 30.609375 48.390625 
Q 23.390625 48.390625 19.1875 42.75 
Q 14.984375 37.109375 14.984375 27.296875 
Q 14.984375 17.484375 19.15625 11.84375 
Q 23.34375 6.203125 30.609375 6.203125 
Q 37.796875 6.203125 41.984375 11.859375 
Q 46.1875 17.53125 46.1875 27.296875 
Q 46.1875 37.015625 41.984375 42.703125 
Q 37.796875 48.390625 30.609375 48.390625 
z
M 30.609375 56 
Q 42.328125 56 49.015625 48.375 
Q 55.71875 40.765625 55.71875 27.296875 
Q 55.71875 13.875 49.015625 6.21875 
Q 42.328125 -1.421875 30.609375 -1.421875 
Q 18.84375 -1.421875 12.171875 6.21875 
Q 5.515625 13.875 5.515625 27.296875 
Q 5.515625 40.765625 12.171875 48.375 
Q 18.84375 56 30.609375 56 
z
" id="DejaVuSans-111"/>
      <path d="M 37.109375 75.984375 
L 37.109375 68.5 
L 28.515625 68.5 
Q 23.6875 68.5 21.796875 66.546875 
Q 19.921875 64.59375 19.921875 59.515625 
L 19.921875 54.6875 
L 34.71875 54.6875 
L 34.71875 47.703125 
L 19.921875 47.703125 
L 19.921875 0 
L 10.890625 0 
L 10.890625 47.703125 
L 2.296875 47.703125 
L 2.296875 54.6875 
L 10.890625 54.6875 
L 10.890625 58.5 
Q 10.890625 67.625 15.140625 71.796875 
Q 19.390625 75.984375 28.609375 75.984375 
z
" id="DejaVuSans-102"/>
      <path d="M 56.203125 29.59375 
L 56.203125 25.203125 
L 14.890625 25.203125 
Q 15.484375 15.921875 20.484375 11.0625 
Q 25.484375 6.203125 34.421875 6.203125 
Q 39.59375 6.203125 44.453125 7.46875 
Q 49.3125 8.734375 54.109375 11.28125 
L 54.109375 2.78125 
Q 49.265625 0.734375 44.1875 -0.34375 
Q 39.109375 -1.421875 33.890625 -1.421875 
Q 20.796875 -1.421875 13.15625 6.1875 
Q 5.515625 13.8125 5.515625 26.8125 
Q 5.515625 40.234375 12.765625 48.109375 
Q 20.015625 56 32.328125 56 
Q 43.359375 56 49.78125 48.890625 
Q 56.203125 41.796875 56.203125 29.59375 
z
M 47.21875 32.234375 
Q 47.125 39.59375 43.09375 43.984375 
Q 39.0625 48.390625 32.421875 48.390625 
Q 24.90625 48.390625 20.390625 44.140625 
Q 15.875 39.890625 15.1875 32.171875 
z
" id="DejaVuSans-101"/>
      <path d="M 41.109375 46.296875 
Q 39.59375 47.171875 37.8125 47.578125 
Q 36.03125 48 33.890625 48 
Q 26.265625 48 22.1875 43.046875 
Q 18.109375 38.09375 18.109375 28.8125 
L 18.109375 0 
L 9.078125 0 
L 9.078125 54.6875 
L 18.109375 54.6875 
L 18.109375 46.1875 
Q 20.953125 51.171875 25.484375 53.578125 
Q 30.03125 56 36.53125 56 
Q 37.453125 56 38.578125 55.875 
Q 39.703125 55.765625 41.0625 55.515625 
z
" id="DejaVuSans-114"/>
     </defs>
     <use xlink:href="#DejaVuSans-111"/>
     <use x="61.181641" xlink:href="#DejaVuSans-102"/>
     <use x="96.386719" xlink:href="#DejaVuSans-102"/>
     <use x="131.591797" xlink:href="#DejaVuSans-101"/>
     <use x="193.115234" xlink:href="#DejaVuSans-114"/>
     <use x="234.228516" xlink:href="#DejaVuSans-32"/>
     <use x="266.015625" xlink:href="#DejaVuSans-48"/>
    </g>
   </g>
   <g id="text_5">
    <!-- Frequency: 0.1 -->
    <g transform="translate(72 90.720114)scale(0.07 -0.07)">
     <defs>
      <path d="M 9.8125 72.90625 
L 51.703125 72.90625 
L 51.703125 64.59375 
L 19.671875 64.59375 
L 19.671875 43.109375 
L 48.578125 43.109375 
L 48.578125 34.8125 
L 19.671875 34.8125 
L 19.671875 0 
L 9.8125 0 
z
" id="DejaVuSans-70"/>
      <path d="M 14.796875 27.296875 
Q 14.796875 17.390625 18.875 11.75 
Q 22.953125 6.109375 30.078125 6.109375 
Q 37.203125 6.109375 41.296875 11.75 
Q 45.40625 17.390625 45.40625 27.296875 
Q 45.40625 37.203125 41.296875 42.84375 
Q 37.203125 48.484375 30.078125 48.484375 
Q 22.953125 48.484375 18.875 42.84375 
Q 14.796875 37.203125 14.796875 27.296875 
z
M 45.40625 8.203125 
Q 42.578125 3.328125 38.25 0.953125 
Q 33.9375 -1.421875 27.875 -1.421875 
Q 17.96875 -1.421875 11.734375 6.484375 
Q 5.515625 14.40625 5.515625 27.296875 
Q 5.515625 40.1875 11.734375 48.09375 
Q 17.96875 56 27.875 56 
Q 33.9375 56 38.25 53.625 
Q 42.578125 51.265625 45.40625 46.390625 
L 45.40625 54.6875 
L 54.390625 54.6875 
L 54.390625 -20.796875 
L 45.40625 -20.796875 
z
" id="DejaVuSans-113"/>
      <path d="M 8.5 21.578125 
L 8.5 54.6875 
L 17.484375 54.6875 
L 17.484375 21.921875 
Q 17.484375 14.15625 20.5 10.265625 
Q 23.53125 6.390625 29.59375 6.390625 
Q 36.859375 6.390625 41.078125 11.03125 
Q 45.3125 15.671875 45.3125 23.6875 
L 45.3125 54.6875 
L 54.296875 54.6875 
L 54.296875 0 
L 45.3125 0 
L 45.3125 8.40625 
Q 42.046875 3.421875 37.71875 1 
Q 33.40625 -1.421875 27.6875 -1.421875 
Q 18.265625 -1.421875 13.375 4.4375 
Q 8.5 10.296875 8.5 21.578125 
z
M 31.109375 56 
z
" id="DejaVuSans-117"/>
      <path d="M 54.890625 33.015625 
L 54.890625 0 
L 45.90625 0 
L 45.90625 32.71875 
Q 45.90625 40.484375 42.875 44.328125 
Q 39.84375 48.1875 33.796875 48.1875 
Q 26.515625 48.1875 22.3125 43.546875 
Q 18.109375 38.921875 18.109375 30.90625 
L 18.109375 0 
L 9.078125 0 
L 9.078125 54.6875 
L 18.109375 54.6875 
L 18.109375 46.1875 
Q 21.34375 51.125 25.703125 53.5625 
Q 30.078125 56 35.796875 56 
Q 45.21875 56 50.046875 50.171875 
Q 54.890625 44.34375 54.890625 33.015625 
z
" id="DejaVuSans-110"/>
      <path d="M 32.171875 -5.078125 
Q 28.375 -14.84375 24.75 -17.8125 
Q 21.140625 -20.796875 15.09375 -20.796875 
L 7.90625 -20.796875 
L 7.90625 -13.28125 
L 13.1875 -13.28125 
Q 16.890625 -13.28125 18.9375 -11.515625 
Q 21 -9.765625 23.484375 -3.21875 
L 25.09375 0.875 
L 2.984375 54.6875 
L 12.5 54.6875 
L 29.59375 11.921875 
L 46.6875 54.6875 
L 56.203125 54.6875 
z
" id="DejaVuSans-121"/>
      <path d="M 11.71875 12.40625 
L 22.015625 12.40625 
L 22.015625 0 
L 11.71875 0 
z
M 11.71875 51.703125 
L 22.015625 51.703125 
L 22.015625 39.3125 
L 11.71875 39.3125 
z
" id="DejaVuSans-58"/>
     </defs>
     <use xlink:href="#DejaVuSans-70"/>
     <use x="50.269531" xlink:href="#DejaVuSans-114"/>
     <use x="89.132812" xlink:href="#DejaVuSans-101"/>
     <use x="150.65625" xlink:href="#DejaVuSans-113"/>
     <use x="214.132812" xlink:href="#DejaVuSans-117"/>
     <use x="277.511719" xlink:href="#DejaVuSans-101"/>
     <use x="339.035156" xlink:href="#DejaVuSans-110"/>
     <use x="402.414062" xlink:href="#DejaVuSans-99"/>
     <use x="457.394531" xlink:href="#DejaVuSans-121"/>
     <use x="509.324219" xlink:href="#DejaVuSans-58"/>
     <use x="543.015625" xlink:href="#DejaVuSans-32"/>
     <use x="574.802734" xlink:href="#DejaVuSans-48"/>
     <use x="638.425781" xlink:href="#DejaVuSans-46"/>
     <use x="670.212891" xlink:href="#DejaVuSans-49"/>
    </g>
   </g>
   <g id="text_6">
    <!-- Super Variant: (1,) -->
    <g transform="translate(72 86.484082)scale(0.084 -0.084)">
     <defs>
      <path d="M 59.90625 70.609375 
L 59.90625 55.171875 
Q 53.90625 57.859375 48.1875 59.21875 
Q 42.484375 60.59375 37.40625 60.59375 
Q 30.671875 60.59375 27.4375 58.734375 
Q 24.21875 56.890625 24.21875 52.984375 
Q 24.21875 50.046875 26.390625 48.40625 
Q 28.5625 46.78125 34.28125 45.609375 
L 42.28125 44 
Q 54.4375 41.546875 59.5625 36.5625 
Q 64.703125 31.59375 64.703125 22.40625 
Q 64.703125 10.359375 57.546875 4.46875 
Q 50.390625 -1.421875 35.6875 -1.421875 
Q 28.765625 -1.421875 21.78125 -0.09375 
Q 14.796875 1.21875 7.8125 3.8125 
L 7.8125 19.671875 
Q 14.796875 15.96875 21.3125 14.078125 
Q 27.828125 12.203125 33.890625 12.203125 
Q 40.046875 12.203125 43.3125 14.25 
Q 46.578125 16.3125 46.578125 20.125 
Q 46.578125 23.53125 44.359375 25.390625 
Q 42.140625 27.25 35.5 28.71875 
L 28.21875 30.328125 
Q 17.28125 32.671875 12.21875 37.796875 
Q 7.171875 42.921875 7.171875 51.609375 
Q 7.171875 62.5 14.203125 68.359375 
Q 21.234375 74.21875 34.421875 74.21875 
Q 40.4375 74.21875 46.78125 73.3125 
Q 53.125 72.40625 59.90625 70.609375 
z
" id="DejaVuSans-Bold-83"/>
      <path d="M 7.8125 21.296875 
L 7.8125 54.6875 
L 25.390625 54.6875 
L 25.390625 49.21875 
Q 25.390625 44.78125 25.34375 38.0625 
Q 25.296875 31.34375 25.296875 29.109375 
Q 25.296875 22.515625 25.640625 19.609375 
Q 25.984375 16.703125 26.8125 15.375 
Q 27.875 13.671875 29.609375 12.734375 
Q 31.34375 11.8125 33.59375 11.8125 
Q 39.0625 11.8125 42.1875 16.015625 
Q 45.3125 20.21875 45.3125 27.6875 
L 45.3125 54.6875 
L 62.796875 54.6875 
L 62.796875 0 
L 45.3125 0 
L 45.3125 7.90625 
Q 41.359375 3.125 36.9375 0.84375 
Q 32.515625 -1.421875 27.203125 -1.421875 
Q 17.71875 -1.421875 12.765625 4.390625 
Q 7.8125 10.203125 7.8125 21.296875 
z
" id="DejaVuSans-Bold-117"/>
      <path d="M 25.875 7.90625 
L 25.875 -20.796875 
L 8.40625 -20.796875 
L 8.40625 54.6875 
L 25.875 54.6875 
L 25.875 46.6875 
Q 29.5 51.46875 33.890625 53.734375 
Q 38.28125 56 44 56 
Q 54.109375 56 60.59375 47.96875 
Q 67.09375 39.9375 67.09375 27.296875 
Q 67.09375 14.65625 60.59375 6.609375 
Q 54.109375 -1.421875 44 -1.421875 
Q 38.28125 -1.421875 33.890625 0.84375 
Q 29.5 3.125 25.875 7.90625 
z
M 37.5 43.3125 
Q 31.890625 43.3125 28.875 39.1875 
Q 25.875 35.0625 25.875 27.296875 
Q 25.875 19.53125 28.875 15.40625 
Q 31.890625 11.28125 37.5 11.28125 
Q 43.109375 11.28125 46.0625 15.375 
Q 49.03125 19.484375 49.03125 27.296875 
Q 49.03125 35.109375 46.0625 39.203125 
Q 43.109375 43.3125 37.5 43.3125 
z
" id="DejaVuSans-Bold-112"/>
      <path d="M 62.984375 27.484375 
L 62.984375 22.515625 
L 22.125 22.515625 
Q 22.75 16.359375 26.5625 13.28125 
Q 30.375 10.203125 37.203125 10.203125 
Q 42.71875 10.203125 48.5 11.84375 
Q 54.296875 13.484375 60.40625 16.796875 
L 60.40625 3.328125 
Q 54.203125 0.984375 48 -0.21875 
Q 41.796875 -1.421875 35.59375 -1.421875 
Q 20.75 -1.421875 12.515625 6.125 
Q 4.296875 13.671875 4.296875 27.296875 
Q 4.296875 40.671875 12.375 48.328125 
Q 20.453125 56 34.625 56 
Q 47.515625 56 55.25 48.234375 
Q 62.984375 40.484375 62.984375 27.484375 
z
M 45.015625 33.296875 
Q 45.015625 38.28125 42.109375 41.328125 
Q 39.203125 44.390625 34.515625 44.390625 
Q 29.4375 44.390625 26.265625 41.53125 
Q 23.09375 38.671875 22.3125 33.296875 
z
" id="DejaVuSans-Bold-101"/>
      <path d="M 49.03125 39.796875 
Q 46.734375 40.875 44.453125 41.375 
Q 42.1875 41.890625 39.890625 41.890625 
Q 33.15625 41.890625 29.515625 37.5625 
Q 25.875 33.25 25.875 25.203125 
L 25.875 0 
L 8.40625 0 
L 8.40625 54.6875 
L 25.875 54.6875 
L 25.875 45.703125 
Q 29.25 51.078125 33.609375 53.53125 
Q 37.984375 56 44.09375 56 
Q 44.96875 56 45.984375 55.921875 
Q 47.015625 55.859375 48.96875 55.609375 
z
" id="DejaVuSans-Bold-114"/>
      <path id="DejaVuSans-Bold-32"/>
      <path d="M 0.484375 72.90625 
L 19.390625 72.90625 
L 38.71875 19.09375 
L 58.015625 72.90625 
L 76.90625 72.90625 
L 49.90625 0 
L 27.484375 0 
z
" id="DejaVuSans-Bold-86"/>
      <path d="M 32.90625 24.609375 
Q 27.4375 24.609375 24.671875 22.75 
Q 21.921875 20.90625 21.921875 17.28125 
Q 21.921875 13.96875 24.140625 12.078125 
Q 26.375 10.203125 30.328125 10.203125 
Q 35.25 10.203125 38.625 13.734375 
Q 42 17.28125 42 22.609375 
L 42 24.609375 
z
M 59.625 31.203125 
L 59.625 0 
L 42 0 
L 42 8.109375 
Q 38.484375 3.125 34.078125 0.84375 
Q 29.6875 -1.421875 23.390625 -1.421875 
Q 14.890625 -1.421875 9.59375 3.53125 
Q 4.296875 8.5 4.296875 16.40625 
Q 4.296875 26.03125 10.90625 30.515625 
Q 17.53125 35.015625 31.6875 35.015625 
L 42 35.015625 
L 42 36.375 
Q 42 40.53125 38.71875 42.453125 
Q 35.453125 44.390625 28.515625 44.390625 
Q 22.90625 44.390625 18.0625 43.265625 
Q 13.234375 42.140625 9.078125 39.890625 
L 9.078125 53.21875 
Q 14.703125 54.59375 20.359375 55.296875 
Q 26.03125 56 31.6875 56 
Q 46.484375 56 53.046875 50.171875 
Q 59.625 44.34375 59.625 31.203125 
z
" id="DejaVuSans-Bold-97"/>
      <path d="M 8.40625 54.6875 
L 25.875 54.6875 
L 25.875 0 
L 8.40625 0 
z
M 8.40625 75.984375 
L 25.875 75.984375 
L 25.875 61.71875 
L 8.40625 61.71875 
z
" id="DejaVuSans-Bold-105"/>
      <path d="M 63.375 33.296875 
L 63.375 0 
L 45.796875 0 
L 45.796875 5.421875 
L 45.796875 25.484375 
Q 45.796875 32.5625 45.484375 35.25 
Q 45.171875 37.9375 44.390625 39.203125 
Q 43.359375 40.921875 41.59375 41.875 
Q 39.84375 42.828125 37.59375 42.828125 
Q 32.125 42.828125 29 38.59375 
Q 25.875 34.375 25.875 26.90625 
L 25.875 0 
L 8.40625 0 
L 8.40625 54.6875 
L 25.875 54.6875 
L 25.875 46.6875 
Q 29.828125 51.46875 34.265625 53.734375 
Q 38.71875 56 44.09375 56 
Q 53.5625 56 58.46875 50.1875 
Q 63.375 44.390625 63.375 33.296875 
z
" id="DejaVuSans-Bold-110"/>
      <path d="M 27.484375 70.21875 
L 27.484375 54.6875 
L 45.515625 54.6875 
L 45.515625 42.1875 
L 27.484375 42.1875 
L 27.484375 19 
Q 27.484375 15.1875 29 13.84375 
Q 30.515625 12.5 35.015625 12.5 
L 44 12.5 
L 44 0 
L 29 0 
Q 18.65625 0 14.328125 4.3125 
Q 10.015625 8.640625 10.015625 19 
L 10.015625 42.1875 
L 1.3125 42.1875 
L 1.3125 54.6875 
L 10.015625 54.6875 
L 10.015625 70.21875 
z
" id="DejaVuSans-Bold-116"/>
      <path d="M 11.1875 54.6875 
L 28.8125 54.6875 
L 28.8125 35.796875 
L 11.1875 35.796875 
z
M 11.1875 18.890625 
L 28.8125 18.890625 
L 28.8125 0 
L 11.1875 0 
z
" id="DejaVuSans-Bold-58"/>
      <path d="M 37.703125 -13.1875 
L 23.1875 -13.1875 
Q 15.71875 -1.125 12.15625 9.734375 
Q 8.59375 20.609375 8.59375 31.296875 
Q 8.59375 42 12.171875 52.953125 
Q 15.765625 63.921875 23.1875 75.875 
L 37.703125 75.875 
Q 31.453125 64.3125 28.328125 53.25 
Q 25.203125 42.1875 25.203125 31.390625 
Q 25.203125 20.609375 28.296875 9.515625 
Q 31.390625 -1.5625 37.703125 -13.1875 
z
" id="DejaVuSans-Bold-40"/>
      <path d="M 11.71875 12.984375 
L 28.328125 12.984375 
L 28.328125 60.109375 
L 11.28125 56.59375 
L 11.28125 69.390625 
L 28.21875 72.90625 
L 46.09375 72.90625 
L 46.09375 12.984375 
L 62.703125 12.984375 
L 62.703125 0 
L 11.71875 0 
z
" id="DejaVuSans-Bold-49"/>
      <path d="M 10.203125 18.890625 
L 27.78125 18.890625 
L 27.78125 4 
L 15.71875 -14.203125 
L 5.328125 -14.203125 
L 10.203125 4 
z
" id="DejaVuSans-Bold-44"/>
      <path d="M 8.015625 -13.1875 
Q 14.265625 -1.5625 17.390625 9.515625 
Q 20.515625 20.609375 20.515625 31.390625 
Q 20.515625 42.1875 17.390625 53.25 
Q 14.265625 64.3125 8.015625 75.875 
L 22.515625 75.875 
Q 29.9375 63.921875 33.515625 52.953125 
Q 37.109375 42 37.109375 31.296875 
Q 37.109375 20.609375 33.546875 9.734375 
Q 29.984375 -1.125 22.515625 -13.1875 
z
" id="DejaVuSans-Bold-41"/>
     </defs>
     <use xlink:href="#DejaVuSans-Bold-83"/>
     <use x="72.021484" xlink:href="#DejaVuSans-Bold-117"/>
     <use x="143.212891" xlink:href="#DejaVuSans-Bold-112"/>
     <use x="214.794922" xlink:href="#DejaVuSans-Bold-101"/>
     <use x="282.617188" xlink:href="#DejaVuSans-Bold-114"/>
     <use x="331.933594" xlink:href="#DejaVuSans-Bold-32"/>
     <use x="366.748047" xlink:href="#DejaVuSans-Bold-86"/>
     <use x="438.640625" xlink:href="#DejaVuSans-Bold-97"/>
     <use x="506.121094" xlink:href="#DejaVuSans-Bold-114"/>
     <use x="555.4375" xlink:href="#DejaVuSans-Bold-105"/>
     <use x="589.714844" xlink:href="#DejaVuSans-Bold-97"/>
     <use x="657.195312" xlink:href="#DejaVuSans-Bold-110"/>
     <use x="728.386719" xlink:href="#DejaVuSans-Bold-116"/>
     <use x="776.189453" xlink:href="#DejaVuSans-Bold-58"/>
     <use x="816.179688" xlink:href="#DejaVuSans-Bold-32"/>
     <use x="850.994141" xlink:href="#DejaVuSans-Bold-40"/>
     <use x="896.697266" xlink:href="#DejaVuSans-Bold-49"/>
     <use x="966.277344" xlink:href="#DejaVuSans-Bold-44"/>
     <use x="1004.265625" xlink:href="#DejaVuSans-Bold-41"/>
    </g>
   </g>
   <g id="patch_26">
    <path clip-path="url(#pf7c929bfaa)" d="M 152.45176 114.395918 
L 175.437977 114.395918 
L 176.395736 108.649363 
L 175.437977 102.902809 
L 152.45176 102.902809 
L 153.409519 108.649363 
z
" style="fill:none;stroke:#000000;stroke-linejoin:miter;stroke-width:1.011111;"/>
   </g>
   <g id="patch_27">
    <path clip-path="url(#pf7c929bfaa)" d="M 198.424195 114.395918 
L 221.410412 114.395918 
L 222.368171 108.649363 
L 221.410412 102.902809 
L 198.424195 102.902809 
L 199.381954 108.649363 
z
" style="fill:none;stroke:#000000;stroke-linejoin:miter;stroke-width:1.011111;"/>
   </g>
   <g id="patch_28">
    <path clip-path="url(#pf7c929bfaa)" d="M 221.410412 114.395918 
L 244.396629 114.395918 
L 245.354388 108.649363 
L 244.396629 102.902809 
L 221.410412 102.902809 
L 222.368171 108.649363 
z
" style="fill:none;stroke:#000000;stroke-linejoin:miter;stroke-width:1.011111;"/>
   </g>
   <g id="patch_29">
    <path clip-path="url(#pf7c929bfaa)" d="M 244.396629 114.395918 
L 267.382846 114.395918 
L 268.340605 108.649363 
L 267.382846 102.902809 
L 244.396629 102.902809 
L 245.354388 108.649363 
z
" style="fill:none;stroke:#000000;stroke-linejoin:miter;stroke-width:1.011111;"/>
   </g>
   <g id="patch_30">
    <path clip-path="url(#pf7c929bfaa)" d="M 152.45176 102.902809 
L 175.437977 102.902809 
L 176.395736 97.156255 
L 175.437977 91.4097 
L 152.45176 91.4097 
L 153.409519 97.156255 
z
" style="fill:none;stroke:#000000;stroke-linejoin:miter;stroke-width:1.011111;"/>
   </g>
   <g id="patch_31">
    <path clip-path="url(#pf7c929bfaa)" d="M 198.424195 102.902809 
L 221.410412 102.902809 
L 222.368171 97.156255 
L 221.410412 91.4097 
L 198.424195 91.4097 
L 199.381954 97.156255 
z
" style="fill:none;stroke:#000000;stroke-linejoin:miter;stroke-width:1.011111;"/>
   </g>
   <g id="patch_32">
    <path clip-path="url(#pf7c929bfaa)" d="M 221.410412 102.902809 
L 244.396629 102.902809 
L 245.354388 97.156255 
L 244.396629 91.4097 
L 221.410412 91.4097 
L 222.368171 97.156255 
z
" style="fill:none;stroke:#000000;stroke-linejoin:miter;stroke-width:1.011111;"/>
   </g>
   <g id="patch_33">
    <path clip-path="url(#pf7c929bfaa)" d="M 244.396629 102.902809 
L 267.382846 102.902809 
L 268.340605 97.156255 
L 267.382846 91.4097 
L 244.396629 91.4097 
L 245.354388 97.156255 
z
" style="fill:none;stroke:#000000;stroke-linejoin:miter;stroke-width:1.011111;"/>
   </g>
   <g id="text_7">
    <!-- Create appli... -->
    <g transform="translate(85.025523 108.879225)scale(0.07 -0.07)">
     <defs>
      <path d="M 64.40625 67.28125 
L 64.40625 56.890625 
Q 59.421875 61.53125 53.78125 63.8125 
Q 48.140625 66.109375 41.796875 66.109375 
Q 29.296875 66.109375 22.65625 58.46875 
Q 16.015625 50.828125 16.015625 36.375 
Q 16.015625 21.96875 22.65625 14.328125 
Q 29.296875 6.6875 41.796875 6.6875 
Q 48.140625 6.6875 53.78125 8.984375 
Q 59.421875 11.28125 64.40625 15.921875 
L 64.40625 5.609375 
Q 59.234375 2.09375 53.4375 0.328125 
Q 47.65625 -1.421875 41.21875 -1.421875 
Q 24.65625 -1.421875 15.125 8.703125 
Q 5.609375 18.84375 5.609375 36.375 
Q 5.609375 53.953125 15.125 64.078125 
Q 24.65625 74.21875 41.21875 74.21875 
Q 47.75 74.21875 53.53125 72.484375 
Q 59.328125 70.75 64.40625 67.28125 
z
" id="DejaVuSans-67"/>
     </defs>
     <use xlink:href="#DejaVuSans-67"/>
     <use x="69.824219" xlink:href="#DejaVuSans-114"/>
     <use x="108.6875" xlink:href="#DejaVuSans-101"/>
     <use x="170.210938" xlink:href="#DejaVuSans-97"/>
     <use x="231.490234" xlink:href="#DejaVuSans-116"/>
     <use x="270.699219" xlink:href="#DejaVuSans-101"/>
     <use x="332.222656" xlink:href="#DejaVuSans-32"/>
     <use x="364.009766" xlink:href="#DejaVuSans-97"/>
     <use x="425.289062" xlink:href="#DejaVuSans-112"/>
     <use x="488.765625" xlink:href="#DejaVuSans-112"/>
     <use x="552.242188" xlink:href="#DejaVuSans-108"/>
     <use x="580.025391" xlink:href="#DejaVuSans-105"/>
     <use x="607.808594" xlink:href="#DejaVuSans-46"/>
     <use x="639.595703" xlink:href="#DejaVuSans-46"/>
     <use x="671.382812" xlink:href="#DejaVuSans-46"/>
    </g>
   </g>
   <g id="text_8">
    <!-- Submit -->
    <g transform="translate(108.01174 108.879225)scale(0.07 -0.07)">
     <defs>
      <path d="M 53.515625 70.515625 
L 53.515625 60.890625 
Q 47.90625 63.578125 42.921875 64.890625 
Q 37.9375 66.21875 33.296875 66.21875 
Q 25.25 66.21875 20.875 63.09375 
Q 16.5 59.96875 16.5 54.203125 
Q 16.5 49.359375 19.40625 46.890625 
Q 22.3125 44.4375 30.421875 42.921875 
L 36.375 41.703125 
Q 47.40625 39.59375 52.65625 34.296875 
Q 57.90625 29 57.90625 20.125 
Q 57.90625 9.515625 50.796875 4.046875 
Q 43.703125 -1.421875 29.984375 -1.421875 
Q 24.8125 -1.421875 18.96875 -0.25 
Q 13.140625 0.921875 6.890625 3.21875 
L 6.890625 13.375 
Q 12.890625 10.015625 18.65625 8.296875 
Q 24.421875 6.59375 29.984375 6.59375 
Q 38.421875 6.59375 43.015625 9.90625 
Q 47.609375 13.234375 47.609375 19.390625 
Q 47.609375 24.75 44.3125 27.78125 
Q 41.015625 30.8125 33.5 32.328125 
L 27.484375 33.5 
Q 16.453125 35.6875 11.515625 40.375 
Q 6.59375 45.0625 6.59375 53.421875 
Q 6.59375 63.09375 13.40625 68.65625 
Q 20.21875 74.21875 32.171875 74.21875 
Q 37.3125 74.21875 42.625 73.28125 
Q 47.953125 72.359375 53.515625 70.515625 
z
" id="DejaVuSans-83"/>
      <path d="M 48.6875 27.296875 
Q 48.6875 37.203125 44.609375 42.84375 
Q 40.53125 48.484375 33.40625 48.484375 
Q 26.265625 48.484375 22.1875 42.84375 
Q 18.109375 37.203125 18.109375 27.296875 
Q 18.109375 17.390625 22.1875 11.75 
Q 26.265625 6.109375 33.40625 6.109375 
Q 40.53125 6.109375 44.609375 11.75 
Q 48.6875 17.390625 48.6875 27.296875 
z
M 18.109375 46.390625 
Q 20.953125 51.265625 25.265625 53.625 
Q 29.59375 56 35.59375 56 
Q 45.5625 56 51.78125 48.09375 
Q 58.015625 40.1875 58.015625 27.296875 
Q 58.015625 14.40625 51.78125 6.484375 
Q 45.5625 -1.421875 35.59375 -1.421875 
Q 29.59375 -1.421875 25.265625 0.953125 
Q 20.953125 3.328125 18.109375 8.203125 
L 18.109375 0 
L 9.078125 0 
L 9.078125 75.984375 
L 18.109375 75.984375 
z
" id="DejaVuSans-98"/>
      <path d="M 52 44.1875 
Q 55.375 50.25 60.0625 53.125 
Q 64.75 56 71.09375 56 
Q 79.640625 56 84.28125 50.015625 
Q 88.921875 44.046875 88.921875 33.015625 
L 88.921875 0 
L 79.890625 0 
L 79.890625 32.71875 
Q 79.890625 40.578125 77.09375 44.375 
Q 74.3125 48.1875 68.609375 48.1875 
Q 61.625 48.1875 57.5625 43.546875 
Q 53.515625 38.921875 53.515625 30.90625 
L 53.515625 0 
L 44.484375 0 
L 44.484375 32.71875 
Q 44.484375 40.625 41.703125 44.40625 
Q 38.921875 48.1875 33.109375 48.1875 
Q 26.21875 48.1875 22.15625 43.53125 
Q 18.109375 38.875 18.109375 30.90625 
L 18.109375 0 
L 9.078125 0 
L 9.078125 54.6875 
L 18.109375 54.6875 
L 18.109375 46.1875 
Q 21.1875 51.21875 25.484375 53.609375 
Q 29.78125 56 35.6875 56 
Q 41.65625 56 45.828125 52.96875 
Q 50 49.953125 52 44.1875 
z
" id="DejaVuSans-109"/>
     </defs>
     <use xlink:href="#DejaVuSans-83"/>
     <use x="63.476562" xlink:href="#DejaVuSans-117"/>
     <use x="126.855469" xlink:href="#DejaVuSans-98"/>
     <use x="190.332031" xlink:href="#DejaVuSans-109"/>
     <use x="287.744141" xlink:href="#DejaVuSans-105"/>
     <use x="315.527344" xlink:href="#DejaVuSans-116"/>
    </g>
   </g>
   <g id="text_9">
    <!-- Accept -->
    <g transform="translate(130.997957 108.879225)scale(0.07 -0.07)">
     <defs>
      <path d="M 34.1875 63.1875 
L 20.796875 26.90625 
L 47.609375 26.90625 
z
M 28.609375 72.90625 
L 39.796875 72.90625 
L 67.578125 0 
L 57.328125 0 
L 50.6875 18.703125 
L 17.828125 18.703125 
L 11.1875 0 
L 0.78125 0 
z
" id="DejaVuSans-65"/>
     </defs>
     <use xlink:href="#DejaVuSans-65"/>
     <use x="66.658203" xlink:href="#DejaVuSans-99"/>
     <use x="121.638672" xlink:href="#DejaVuSans-99"/>
     <use x="176.619141" xlink:href="#DejaVuSans-101"/>
     <use x="238.142578" xlink:href="#DejaVuSans-112"/>
     <use x="301.619141" xlink:href="#DejaVuSans-116"/>
    </g>
   </g>
   <g id="text_10">
    <!-- Create offer -->
    <g transform="translate(153.984175 108.879225)scale(0.07 -0.07)">
     <use xlink:href="#DejaVuSans-67"/>
     <use x="69.824219" xlink:href="#DejaVuSans-114"/>
     <use x="108.6875" xlink:href="#DejaVuSans-101"/>
     <use x="170.210938" xlink:href="#DejaVuSans-97"/>
     <use x="231.490234" xlink:href="#DejaVuSans-116"/>
     <use x="270.699219" xlink:href="#DejaVuSans-101"/>
     <use x="332.222656" xlink:href="#DejaVuSans-32"/>
     <use x="364.009766" xlink:href="#DejaVuSans-111"/>
     <use x="425.191406" xlink:href="#DejaVuSans-102"/>
     <use x="460.396484" xlink:href="#DejaVuSans-102"/>
     <use x="495.601562" xlink:href="#DejaVuSans-101"/>
     <use x="557.125" xlink:href="#DejaVuSans-114"/>
    </g>
   </g>
   <g id="text_11">
    <!-- Complete -->
    <g transform="translate(176.970392 108.879225)scale(0.07 -0.07)">
     <use xlink:href="#DejaVuSans-67"/>
     <use x="69.824219" xlink:href="#DejaVuSans-111"/>
     <use x="131.005859" xlink:href="#DejaVuSans-109"/>
     <use x="228.417969" xlink:href="#DejaVuSans-112"/>
     <use x="291.894531" xlink:href="#DejaVuSans-108"/>
     <use x="319.677734" xlink:href="#DejaVuSans-101"/>
     <use x="381.201172" xlink:href="#DejaVuSans-116"/>
     <use x="420.410156" xlink:href="#DejaVuSans-101"/>
    </g>
   </g>
   <g id="text_12">
    <!-- Call -->
    <g transform="translate(199.956609 108.879225)scale(0.07 -0.07)">
     <use xlink:href="#DejaVuSans-67"/>
     <use x="69.824219" xlink:href="#DejaVuSans-97"/>
     <use x="131.103516" xlink:href="#DejaVuSans-108"/>
     <use x="158.886719" xlink:href="#DejaVuSans-108"/>
    </g>
   </g>
   <g id="text_13">
    <!-- Deny -->
    <g transform="translate(222.942826 108.879225)scale(0.07 -0.07)">
     <defs>
      <path d="M 19.671875 64.796875 
L 19.671875 8.109375 
L 31.59375 8.109375 
Q 46.6875 8.109375 53.6875 14.9375 
Q 60.6875 21.78125 60.6875 36.53125 
Q 60.6875 51.171875 53.6875 57.984375 
Q 46.6875 64.796875 31.59375 64.796875 
z
M 9.8125 72.90625 
L 30.078125 72.90625 
Q 51.265625 72.90625 61.171875 64.09375 
Q 71.09375 55.28125 71.09375 36.53125 
Q 71.09375 17.671875 61.125 8.828125 
Q 51.171875 0 30.078125 0 
L 9.8125 0 
z
" id="DejaVuSans-68"/>
     </defs>
     <use xlink:href="#DejaVuSans-68"/>
     <use x="77.001953" xlink:href="#DejaVuSans-101"/>
     <use x="138.525391" xlink:href="#DejaVuSans-110"/>
     <use x="201.904297" xlink:href="#DejaVuSans-121"/>
    </g>
   </g>
   <g id="text_14">
    <!-- Refuse offer -->
    <g transform="translate(245.929043 108.879225)scale(0.07 -0.07)">
     <defs>
      <path d="M 44.390625 34.1875 
Q 47.5625 33.109375 50.5625 29.59375 
Q 53.5625 26.078125 56.59375 19.921875 
L 66.609375 0 
L 56 0 
L 46.6875 18.703125 
Q 43.0625 26.03125 39.671875 28.421875 
Q 36.28125 30.8125 30.421875 30.8125 
L 19.671875 30.8125 
L 19.671875 0 
L 9.8125 0 
L 9.8125 72.90625 
L 32.078125 72.90625 
Q 44.578125 72.90625 50.734375 67.671875 
Q 56.890625 62.453125 56.890625 51.90625 
Q 56.890625 45.015625 53.6875 40.46875 
Q 50.484375 35.9375 44.390625 34.1875 
z
M 19.671875 64.796875 
L 19.671875 38.921875 
L 32.078125 38.921875 
Q 39.203125 38.921875 42.84375 42.21875 
Q 46.484375 45.515625 46.484375 51.90625 
Q 46.484375 58.296875 42.84375 61.546875 
Q 39.203125 64.796875 32.078125 64.796875 
z
" id="DejaVuSans-82"/>
      <path d="M 44.28125 53.078125 
L 44.28125 44.578125 
Q 40.484375 46.53125 36.375 47.5 
Q 32.28125 48.484375 27.875 48.484375 
Q 21.1875 48.484375 17.84375 46.4375 
Q 14.5 44.390625 14.5 40.28125 
Q 14.5 37.15625 16.890625 35.375 
Q 19.28125 33.59375 26.515625 31.984375 
L 29.59375 31.296875 
Q 39.15625 29.25 43.1875 25.515625 
Q 47.21875 21.78125 47.21875 15.09375 
Q 47.21875 7.46875 41.1875 3.015625 
Q 35.15625 -1.421875 24.609375 -1.421875 
Q 20.21875 -1.421875 15.453125 -0.5625 
Q 10.6875 0.296875 5.421875 2 
L 5.421875 11.28125 
Q 10.40625 8.6875 15.234375 7.390625 
Q 20.0625 6.109375 24.8125 6.109375 
Q 31.15625 6.109375 34.5625 8.28125 
Q 37.984375 10.453125 37.984375 14.40625 
Q 37.984375 18.0625 35.515625 20.015625 
Q 33.0625 21.96875 24.703125 23.78125 
L 21.578125 24.515625 
Q 13.234375 26.265625 9.515625 29.90625 
Q 5.8125 33.546875 5.8125 39.890625 
Q 5.8125 47.609375 11.28125 51.796875 
Q 16.75 56 26.8125 56 
Q 31.78125 56 36.171875 55.265625 
Q 40.578125 54.546875 44.28125 53.078125 
z
" id="DejaVuSans-115"/>
     </defs>
     <use xlink:href="#DejaVuSans-82"/>
     <use x="64.982422" xlink:href="#DejaVuSans-101"/>
     <use x="126.505859" xlink:href="#DejaVuSans-102"/>
     <use x="161.710938" xlink:href="#DejaVuSans-117"/>
     <use x="225.089844" xlink:href="#DejaVuSans-115"/>
     <use x="277.189453" xlink:href="#DejaVuSans-101"/>
     <use x="338.712891" xlink:href="#DejaVuSans-32"/>
     <use x="370.5" xlink:href="#DejaVuSans-111"/>
     <use x="431.681641" xlink:href="#DejaVuSans-102"/>
     <use x="466.886719" xlink:href="#DejaVuSans-102"/>
     <use x="502.091797" xlink:href="#DejaVuSans-101"/>
     <use x="563.615234" xlink:href="#DejaVuSans-114"/>
    </g>
   </g>
   <g id="text_15">
    <!-- Validate -->
    <g transform="translate(268.915261 108.879225)scale(0.07 -0.07)">
     <defs>
      <path d="M 28.609375 0 
L 0.78125 72.90625 
L 11.078125 72.90625 
L 34.1875 11.53125 
L 57.328125 72.90625 
L 67.578125 72.90625 
L 39.796875 0 
z
" id="DejaVuSans-86"/>
      <path d="M 45.40625 46.390625 
L 45.40625 75.984375 
L 54.390625 75.984375 
L 54.390625 0 
L 45.40625 0 
L 45.40625 8.203125 
Q 42.578125 3.328125 38.25 0.953125 
Q 33.9375 -1.421875 27.875 -1.421875 
Q 17.96875 -1.421875 11.734375 6.484375 
Q 5.515625 14.40625 5.515625 27.296875 
Q 5.515625 40.1875 11.734375 48.09375 
Q 17.96875 56 27.875 56 
Q 33.9375 56 38.25 53.625 
Q 42.578125 51.265625 45.40625 46.390625 
z
M 14.796875 27.296875 
Q 14.796875 17.390625 18.875 11.75 
Q 22.953125 6.109375 30.078125 6.109375 
Q 37.203125 6.109375 41.296875 11.75 
Q 45.40625 17.390625 45.40625 27.296875 
Q 45.40625 37.203125 41.296875 42.84375 
Q 37.203125 48.484375 30.078125 48.484375 
Q 22.953125 48.484375 18.875 42.84375 
Q 14.796875 37.203125 14.796875 27.296875 
z
" id="DejaVuSans-100"/>
     </defs>
     <use xlink:href="#DejaVuSans-86"/>
     <use x="60.658203" xlink:href="#DejaVuSans-97"/>
     <use x="121.9375" xlink:href="#DejaVuSans-108"/>
     <use x="149.720703" xlink:href="#DejaVuSans-105"/>
     <use x="177.503906" xlink:href="#DejaVuSans-100"/>
     <use x="240.980469" xlink:href="#DejaVuSans-97"/>
     <use x="302.259766" xlink:href="#DejaVuSans-116"/>
     <use x="341.46875" xlink:href="#DejaVuSans-101"/>
    </g>
   </g>
   <g id="text_16">
    <!-- Create offer -->
    <g transform="translate(153.984175 97.386117)scale(0.07 -0.07)">
     <use xlink:href="#DejaVuSans-67"/>
     <use x="69.824219" xlink:href="#DejaVuSans-114"/>
     <use x="108.6875" xlink:href="#DejaVuSans-101"/>
     <use x="170.210938" xlink:href="#DejaVuSans-97"/>
     <use x="231.490234" xlink:href="#DejaVuSans-116"/>
     <use x="270.699219" xlink:href="#DejaVuSans-101"/>
     <use x="332.222656" xlink:href="#DejaVuSans-32"/>
     <use x="364.009766" xlink:href="#DejaVuSans-111"/>
     <use x="425.191406" xlink:href="#DejaVuSans-102"/>
     <use x="460.396484" xlink:href="#DejaVuSans-102"/>
     <use x="495.601562" xlink:href="#DejaVuSans-101"/>
     <use x="557.125" xlink:href="#DejaVuSans-114"/>
    </g>
   </g>
   <g id="text_17">
    <!-- Send (mail a... -->
    <g transform="translate(176.970392 97.386117)scale(0.07 -0.07)">
     <defs>
      <path d="M 31 75.875 
Q 24.46875 64.65625 21.28125 53.65625 
Q 18.109375 42.671875 18.109375 31.390625 
Q 18.109375 20.125 21.3125 9.0625 
Q 24.515625 -2 31 -13.1875 
L 23.1875 -13.1875 
Q 15.875 -1.703125 12.234375 9.375 
Q 8.59375 20.453125 8.59375 31.390625 
Q 8.59375 42.28125 12.203125 53.3125 
Q 15.828125 64.359375 23.1875 75.875 
z
" id="DejaVuSans-40"/>
     </defs>
     <use xlink:href="#DejaVuSans-83"/>
     <use x="63.476562" xlink:href="#DejaVuSans-101"/>
     <use x="125" xlink:href="#DejaVuSans-110"/>
     <use x="188.378906" xlink:href="#DejaVuSans-100"/>
     <use x="251.855469" xlink:href="#DejaVuSans-32"/>
     <use x="283.642578" xlink:href="#DejaVuSans-40"/>
     <use x="322.65625" xlink:href="#DejaVuSans-109"/>
     <use x="420.068359" xlink:href="#DejaVuSans-97"/>
     <use x="481.347656" xlink:href="#DejaVuSans-105"/>
     <use x="509.130859" xlink:href="#DejaVuSans-108"/>
     <use x="536.914062" xlink:href="#DejaVuSans-32"/>
     <use x="568.701172" xlink:href="#DejaVuSans-97"/>
     <use x="629.980469" xlink:href="#DejaVuSans-46"/>
     <use x="661.767578" xlink:href="#DejaVuSans-46"/>
     <use x="693.554688" xlink:href="#DejaVuSans-46"/>
    </g>
   </g>
   <g id="text_18">
    <!-- Call -->
    <g transform="translate(199.956609 97.386117)scale(0.07 -0.07)">
     <use xlink:href="#DejaVuSans-67"/>
     <use x="69.824219" xlink:href="#DejaVuSans-97"/>
     <use x="131.103516" xlink:href="#DejaVuSans-108"/>
     <use x="158.886719" xlink:href="#DejaVuSans-108"/>
    </g>
   </g>
   <g id="text_19">
    <!-- Deny -->
    <g transform="translate(222.942826 97.386117)scale(0.07 -0.07)">
     <use xlink:href="#DejaVuSans-68"/>
     <use x="77.001953" xlink:href="#DejaVuSans-101"/>
     <use x="138.525391" xlink:href="#DejaVuSans-110"/>
     <use x="201.904297" xlink:href="#DejaVuSans-121"/>
    </g>
   </g>
   <g id="text_20">
    <!-- Refuse offer -->
    <g transform="translate(245.929043 97.386117)scale(0.07 -0.07)">
     <use xlink:href="#DejaVuSans-82"/>
     <use x="64.982422" xlink:href="#DejaVuSans-101"/>
     <use x="126.505859" xlink:href="#DejaVuSans-102"/>
     <use x="161.710938" xlink:href="#DejaVuSans-117"/>
     <use x="225.089844" xlink:href="#DejaVuSans-115"/>
     <use x="277.189453" xlink:href="#DejaVuSans-101"/>
     <use x="338.712891" xlink:href="#DejaVuSans-32"/>
     <use x="370.5" xlink:href="#DejaVuSans-111"/>
     <use x="431.681641" xlink:href="#DejaVuSans-102"/>
     <use x="466.886719" xlink:href="#DejaVuSans-102"/>
     <use x="502.091797" xlink:href="#DejaVuSans-101"/>
     <use x="563.615234" xlink:href="#DejaVuSans-114"/>
    </g>
   </g>
  </g>
  <g id="axes_2">
   <g id="patch_34">
    <path clip-path="url(#p7a5b2c6959)" d="M 298.498522 113.075168 
L 527.418042 113.075168 
L 527.418042 102.669736 
L 298.498522 102.669736 
z
" style="fill:#ffa24b;opacity:0.8;stroke:#ffa24b;stroke-linejoin:miter;"/>
   </g>
   <g id="patch_35">
    <path clip-path="url(#p7a5b2c6959)" d="M 298.498522 102.669736 
L 527.418042 102.669736 
L 527.418042 92.264303 
L 298.498522 92.264303 
z
" style="fill:#76c476;opacity:0.8;stroke:#76c476;stroke-linejoin:miter;"/>
   </g>
   <g id="patch_36">
    <path clip-path="url(#p7a5b2c6959)" d="M 308.903955 113.075168 
L 329.71482 113.075168 
L 330.58194 107.872452 
L 329.71482 102.669736 
L 308.903955 102.669736 
L 309.771074 107.872452 
z
" style="fill:#ffa24b;stroke:#000000;stroke-linejoin:miter;stroke-width:1.011111;"/>
   </g>
   <g id="patch_37">
    <path clip-path="url(#p7a5b2c6959)" d="M 329.71482 113.075168 
L 350.525686 113.075168 
L 351.392805 107.872452 
L 350.525686 102.669736 
L 329.71482 102.669736 
L 330.58194 107.872452 
z
" style="fill:#ffa24b;stroke:#000000;stroke-linejoin:miter;stroke-width:1.011111;"/>
   </g>
   <g id="patch_38">
    <path clip-path="url(#p7a5b2c6959)" d="M 350.525686 113.075168 
L 371.336551 113.075168 
L 372.20367 107.872452 
L 371.336551 102.669736 
L 350.525686 102.669736 
L 351.392805 107.872452 
z
" style="fill:#ffa24b;stroke:#000000;stroke-linejoin:miter;stroke-width:1.011111;"/>
   </g>
   <g id="patch_39">
    <path clip-path="url(#p7a5b2c6959)" d="M 371.336551 113.075168 
L 381.741984 113.075168 
L 382.609103 107.872452 
L 381.741984 102.669736 
L 371.336551 102.669736 
L 372.20367 107.872452 
z
" style="fill:#76c476;"/>
   </g>
   <g id="patch_40">
    <path clip-path="url(#p7a5b2c6959)" d="M 381.741984 113.075168 
L 392.147417 113.075168 
L 393.014536 107.872452 
L 392.147417 102.669736 
L 381.741984 102.669736 
L 382.609103 107.872452 
z
" style="fill:#ffa24b;"/>
   </g>
   <g id="patch_41">
    <path clip-path="url(#p7a5b2c6959)" d="M 392.147417 113.075168 
L 412.958282 113.075168 
L 413.825401 107.872452 
L 412.958282 102.669736 
L 392.147417 102.669736 
L 393.014536 107.872452 
z
" style="fill:#ffa24b;stroke:#000000;stroke-linejoin:miter;stroke-width:1.011111;"/>
   </g>
   <g id="patch_42">
    <path clip-path="url(#p7a5b2c6959)" d="M 412.958282 113.075168 
L 423.363715 113.075168 
L 424.230834 107.872452 
L 423.363715 102.669736 
L 412.958282 102.669736 
L 413.825401 107.872452 
z
" style="fill:#76c476;"/>
   </g>
   <g id="patch_43">
    <path clip-path="url(#p7a5b2c6959)" d="M 423.363715 113.075168 
L 433.769147 113.075168 
L 434.636267 107.872452 
L 433.769147 102.669736 
L 423.363715 102.669736 
L 424.230834 107.872452 
z
" style="fill:#ffa24b;"/>
   </g>
   <g id="patch_44">
    <path clip-path="url(#p7a5b2c6959)" d="M 454.580013 113.075168 
L 464.985445 113.075168 
L 465.852565 107.872452 
L 464.985445 102.669736 
L 454.580013 102.669736 
L 455.447132 107.872452 
z
" style="fill:#76c476;"/>
   </g>
   <g id="patch_45">
    <path clip-path="url(#p7a5b2c6959)" d="M 464.985445 113.075168 
L 475.390878 113.075168 
L 476.257998 107.872452 
L 475.390878 102.669736 
L 464.985445 102.669736 
L 465.852565 107.872452 
z
" style="fill:#ffa24b;"/>
   </g>
   <g id="patch_46">
    <path clip-path="url(#p7a5b2c6959)" d="M 475.390878 113.075168 
L 485.796311 113.075168 
L 486.66343 107.872452 
L 485.796311 102.669736 
L 475.390878 102.669736 
L 476.257998 107.872452 
z
" style="fill:#76c476;"/>
   </g>
   <g id="patch_47">
    <path clip-path="url(#p7a5b2c6959)" d="M 485.796311 113.075168 
L 496.201744 113.075168 
L 497.068863 107.872452 
L 496.201744 102.669736 
L 485.796311 102.669736 
L 486.66343 107.872452 
z
" style="fill:#ffa24b;"/>
   </g>
   <g id="patch_48">
    <path clip-path="url(#p7a5b2c6959)" d="M 496.201744 113.075168 
L 517.012609 113.075168 
L 517.879728 107.872452 
L 517.012609 102.669736 
L 496.201744 102.669736 
L 497.068863 107.872452 
z
" style="fill:#ffa24b;stroke:#000000;stroke-linejoin:miter;stroke-width:1.011111;"/>
   </g>
   <g id="patch_49">
    <path clip-path="url(#p7a5b2c6959)" d="M 371.336551 102.669736 
L 381.741984 102.669736 
L 382.609103 97.467019 
L 381.741984 92.264303 
L 371.336551 92.264303 
L 372.20367 97.467019 
z
" style="fill:#76c476;"/>
   </g>
   <g id="patch_50">
    <path clip-path="url(#p7a5b2c6959)" d="M 381.741984 102.669736 
L 392.147417 102.669736 
L 393.014536 97.467019 
L 392.147417 92.264303 
L 381.741984 92.264303 
L 382.609103 97.467019 
z
" style="fill:#ffa24b;"/>
   </g>
   <g id="patch_51">
    <path clip-path="url(#p7a5b2c6959)" d="M 392.147417 102.669736 
L 412.958282 102.669736 
L 413.825401 97.467019 
L 412.958282 92.264303 
L 392.147417 92.264303 
L 393.014536 97.467019 
z
" style="fill:#76c476;stroke:#000000;stroke-linejoin:miter;stroke-width:1.011111;"/>
   </g>
   <g id="patch_52">
    <path clip-path="url(#p7a5b2c6959)" d="M 412.958282 102.669736 
L 423.363715 102.669736 
L 424.230834 97.467019 
L 423.363715 92.264303 
L 412.958282 92.264303 
L 413.825401 97.467019 
z
" style="fill:#76c476;"/>
   </g>
   <g id="patch_53">
    <path clip-path="url(#p7a5b2c6959)" d="M 423.363715 102.669736 
L 433.769147 102.669736 
L 434.636267 97.467019 
L 433.769147 92.264303 
L 423.363715 92.264303 
L 424.230834 97.467019 
z
" style="fill:#ffa24b;"/>
   </g>
   <g id="patch_54">
    <path clip-path="url(#p7a5b2c6959)" d="M 433.769147 102.669736 
L 454.580013 102.669736 
L 455.447132 97.467019 
L 454.580013 92.264303 
L 433.769147 92.264303 
L 434.636267 97.467019 
z
" style="fill:#76c476;stroke:#000000;stroke-linejoin:miter;stroke-width:1.011111;"/>
   </g>
   <g id="patch_55">
    <path clip-path="url(#p7a5b2c6959)" d="M 454.580013 102.669736 
L 464.985445 102.669736 
L 465.852565 97.467019 
L 464.985445 92.264303 
L 454.580013 92.264303 
L 455.447132 97.467019 
z
" style="fill:#76c476;"/>
   </g>
   <g id="patch_56">
    <path clip-path="url(#p7a5b2c6959)" d="M 464.985445 102.669736 
L 475.390878 102.669736 
L 476.257998 97.467019 
L 475.390878 92.264303 
L 464.985445 92.264303 
L 465.852565 97.467019 
z
" style="fill:#ffa24b;"/>
   </g>
   <g id="patch_57">
    <path clip-path="url(#p7a5b2c6959)" d="M 475.390878 102.669736 
L 485.796311 102.669736 
L 486.66343 97.467019 
L 485.796311 92.264303 
L 475.390878 92.264303 
L 476.257998 97.467019 
z
" style="fill:#76c476;"/>
   </g>
   <g id="patch_58">
    <path clip-path="url(#p7a5b2c6959)" d="M 485.796311 102.669736 
L 496.201744 102.669736 
L 497.068863 97.467019 
L 496.201744 92.264303 
L 485.796311 92.264303 
L 486.66343 97.467019 
z
" style="fill:#ffa24b;"/>
   </g>
   <g id="text_21">
    <!-- 1 -->
    <g transform="translate(295.030045 108.080561)scale(0.07 -0.07)">
     <use xlink:href="#DejaVuSans-49"/>
    </g>
   </g>
   <g id="text_22">
    <!-- applicat. 0 -->
    <g transform="translate(299.192218 108.080561)scale(0.07 -0.07)">
     <use xlink:href="#DejaVuSans-97"/>
     <use x="61.279297" xlink:href="#DejaVuSans-112"/>
     <use x="124.755859" xlink:href="#DejaVuSans-112"/>
     <use x="188.232422" xlink:href="#DejaVuSans-108"/>
     <use x="216.015625" xlink:href="#DejaVuSans-105"/>
     <use x="243.798828" xlink:href="#DejaVuSans-99"/>
     <use x="298.779297" xlink:href="#DejaVuSans-97"/>
     <use x="360.058594" xlink:href="#DejaVuSans-116"/>
     <use x="399.267578" xlink:href="#DejaVuSans-46"/>
     <use x="431.054688" xlink:href="#DejaVuSans-32"/>
     <use x="462.841797" xlink:href="#DejaVuSans-48"/>
    </g>
   </g>
   <g id="text_23">
    <!-- 1 -->
    <g transform="translate(295.030045 97.675128)scale(0.07 -0.07)">
     <use xlink:href="#DejaVuSans-49"/>
    </g>
   </g>
   <g id="text_24">
    <!-- offer 0 -->
    <g transform="translate(299.192218 97.675128)scale(0.07 -0.07)">
     <use xlink:href="#DejaVuSans-111"/>
     <use x="61.181641" xlink:href="#DejaVuSans-102"/>
     <use x="96.386719" xlink:href="#DejaVuSans-102"/>
     <use x="131.591797" xlink:href="#DejaVuSans-101"/>
     <use x="193.115234" xlink:href="#DejaVuSans-114"/>
     <use x="234.228516" xlink:href="#DejaVuSans-32"/>
     <use x="266.015625" xlink:href="#DejaVuSans-48"/>
    </g>
   </g>
   <g id="text_25">
    <!-- Frequency: 0.1 -->
    <g transform="translate(298.498522 91.639977)scale(0.07 -0.07)">
     <use xlink:href="#DejaVuSans-70"/>
     <use x="50.269531" xlink:href="#DejaVuSans-114"/>
     <use x="89.132812" xlink:href="#DejaVuSans-101"/>
     <use x="150.65625" xlink:href="#DejaVuSans-113"/>
     <use x="214.132812" xlink:href="#DejaVuSans-117"/>
     <use x="277.511719" xlink:href="#DejaVuSans-101"/>
     <use x="339.035156" xlink:href="#DejaVuSans-110"/>
     <use x="402.414062" xlink:href="#DejaVuSans-99"/>
     <use x="457.394531" xlink:href="#DejaVuSans-121"/>
     <use x="509.324219" xlink:href="#DejaVuSans-58"/>
     <use x="543.015625" xlink:href="#DejaVuSans-32"/>
     <use x="574.802734" xlink:href="#DejaVuSans-48"/>
     <use x="638.425781" xlink:href="#DejaVuSans-46"/>
     <use x="670.212891" xlink:href="#DejaVuSans-49"/>
    </g>
   </g>
   <g id="text_26">
    <!-- Super Variant: (7,) -->
    <g transform="translate(298.498522 87.804832)scale(0.084 -0.084)">
     <defs>
      <path d="M 6.6875 72.90625 
L 61.625 72.90625 
L 61.625 62.3125 
L 33.203125 0 
L 14.890625 0 
L 41.796875 59.078125 
L 6.6875 59.078125 
z
" id="DejaVuSans-Bold-55"/>
     </defs>
     <use xlink:href="#DejaVuSans-Bold-83"/>
     <use x="72.021484" xlink:href="#DejaVuSans-Bold-117"/>
     <use x="143.212891" xlink:href="#DejaVuSans-Bold-112"/>
     <use x="214.794922" xlink:href="#DejaVuSans-Bold-101"/>
     <use x="282.617188" xlink:href="#DejaVuSans-Bold-114"/>
     <use x="331.933594" xlink:href="#DejaVuSans-Bold-32"/>
     <use x="366.748047" xlink:href="#DejaVuSans-Bold-86"/>
     <use x="438.640625" xlink:href="#DejaVuSans-Bold-97"/>
     <use x="506.121094" xlink:href="#DejaVuSans-Bold-114"/>
     <use x="555.4375" xlink:href="#DejaVuSans-Bold-105"/>
     <use x="589.714844" xlink:href="#DejaVuSans-Bold-97"/>
     <use x="657.195312" xlink:href="#DejaVuSans-Bold-110"/>
     <use x="728.386719" xlink:href="#DejaVuSans-Bold-116"/>
     <use x="776.189453" xlink:href="#DejaVuSans-Bold-58"/>
     <use x="816.179688" xlink:href="#DejaVuSans-Bold-32"/>
     <use x="850.994141" xlink:href="#DejaVuSans-Bold-40"/>
     <use x="896.697266" xlink:href="#DejaVuSans-Bold-55"/>
     <use x="966.277344" xlink:href="#DejaVuSans-Bold-44"/>
     <use x="1004.265625" xlink:href="#DejaVuSans-Bold-41"/>
    </g>
   </g>
   <g id="patch_59">
    <path clip-path="url(#p7a5b2c6959)" d="M 371.336551 113.075168 
L 392.147417 113.075168 
L 393.014536 107.872452 
L 392.147417 102.669736 
L 371.336551 102.669736 
L 372.20367 107.872452 
z
" style="fill:none;stroke:#000000;stroke-linejoin:miter;stroke-width:1.011111;"/>
   </g>
   <g id="patch_60">
    <path clip-path="url(#p7a5b2c6959)" d="M 412.958282 113.075168 
L 433.769147 113.075168 
L 434.636267 107.872452 
L 433.769147 102.669736 
L 412.958282 102.669736 
L 413.825401 107.872452 
z
" style="fill:none;stroke:#000000;stroke-linejoin:miter;stroke-width:1.011111;"/>
   </g>
   <g id="patch_61">
    <path clip-path="url(#p7a5b2c6959)" d="M 454.580013 113.075168 
L 475.390878 113.075168 
L 476.257998 107.872452 
L 475.390878 102.669736 
L 454.580013 102.669736 
L 455.447132 107.872452 
z
" style="fill:none;stroke:#000000;stroke-linejoin:miter;stroke-width:1.011111;"/>
   </g>
   <g id="patch_62">
    <path clip-path="url(#p7a5b2c6959)" d="M 475.390878 113.075168 
L 496.201744 113.075168 
L 497.068863 107.872452 
L 496.201744 102.669736 
L 475.390878 102.669736 
L 476.257998 107.872452 
z
" style="fill:none;stroke:#000000;stroke-linejoin:miter;stroke-width:1.011111;"/>
   </g>
   <g id="patch_63">
    <path clip-path="url(#p7a5b2c6959)" d="M 371.336551 102.669736 
L 392.147417 102.669736 
L 393.014536 97.467019 
L 392.147417 92.264303 
L 371.336551 92.264303 
L 372.20367 97.467019 
z
" style="fill:none;stroke:#000000;stroke-linejoin:miter;stroke-width:1.011111;"/>
   </g>
   <g id="patch_64">
    <path clip-path="url(#p7a5b2c6959)" d="M 412.958282 102.669736 
L 433.769147 102.669736 
L 434.636267 97.467019 
L 433.769147 92.264303 
L 412.958282 92.264303 
L 413.825401 97.467019 
z
" style="fill:none;stroke:#000000;stroke-linejoin:miter;stroke-width:1.011111;"/>
   </g>
   <g id="patch_65">
    <path clip-path="url(#p7a5b2c6959)" d="M 454.580013 102.669736 
L 475.390878 102.669736 
L 476.257998 97.467019 
L 475.390878 92.264303 
L 454.580013 92.264303 
L 455.447132 97.467019 
z
" style="fill:none;stroke:#000000;stroke-linejoin:miter;stroke-width:1.011111;"/>
   </g>
   <g id="patch_66">
    <path clip-path="url(#p7a5b2c6959)" d="M 475.390878 102.669736 
L 496.201744 102.669736 
L 497.068863 97.467019 
L 496.201744 92.264303 
L 475.390878 92.264303 
L 476.257998 97.467019 
z
" style="fill:none;stroke:#000000;stroke-linejoin:miter;stroke-width:1.011111;"/>
   </g>
   <g id="text_27">
    <!-- Create appl... -->
    <g transform="translate(310.291346 108.080561)scale(0.07 -0.07)">
     <use xlink:href="#DejaVuSans-67"/>
     <use x="69.824219" xlink:href="#DejaVuSans-114"/>
     <use x="108.6875" xlink:href="#DejaVuSans-101"/>
     <use x="170.210938" xlink:href="#DejaVuSans-97"/>
     <use x="231.490234" xlink:href="#DejaVuSans-116"/>
     <use x="270.699219" xlink:href="#DejaVuSans-101"/>
     <use x="332.222656" xlink:href="#DejaVuSans-32"/>
     <use x="364.009766" xlink:href="#DejaVuSans-97"/>
     <use x="425.289062" xlink:href="#DejaVuSans-112"/>
     <use x="488.765625" xlink:href="#DejaVuSans-112"/>
     <use x="552.242188" xlink:href="#DejaVuSans-108"/>
     <use x="580.025391" xlink:href="#DejaVuSans-46"/>
     <use x="611.8125" xlink:href="#DejaVuSans-46"/>
     <use x="643.599609" xlink:href="#DejaVuSans-46"/>
    </g>
   </g>
   <g id="text_28">
    <!-- Submit -->
    <g transform="translate(331.102211 108.080561)scale(0.07 -0.07)">
     <use xlink:href="#DejaVuSans-83"/>
     <use x="63.476562" xlink:href="#DejaVuSans-117"/>
     <use x="126.855469" xlink:href="#DejaVuSans-98"/>
     <use x="190.332031" xlink:href="#DejaVuSans-109"/>
     <use x="287.744141" xlink:href="#DejaVuSans-105"/>
     <use x="315.527344" xlink:href="#DejaVuSans-116"/>
    </g>
   </g>
   <g id="text_29">
    <!-- Accept -->
    <g transform="translate(351.913077 108.080561)scale(0.07 -0.07)">
     <use xlink:href="#DejaVuSans-65"/>
     <use x="66.658203" xlink:href="#DejaVuSans-99"/>
     <use x="121.638672" xlink:href="#DejaVuSans-99"/>
     <use x="176.619141" xlink:href="#DejaVuSans-101"/>
     <use x="238.142578" xlink:href="#DejaVuSans-112"/>
     <use x="301.619141" xlink:href="#DejaVuSans-116"/>
    </g>
   </g>
   <g id="text_30">
    <!-- Create offer -->
    <g transform="translate(372.723942 108.080561)scale(0.07 -0.07)">
     <use xlink:href="#DejaVuSans-67"/>
     <use x="69.824219" xlink:href="#DejaVuSans-114"/>
     <use x="108.6875" xlink:href="#DejaVuSans-101"/>
     <use x="170.210938" xlink:href="#DejaVuSans-97"/>
     <use x="231.490234" xlink:href="#DejaVuSans-116"/>
     <use x="270.699219" xlink:href="#DejaVuSans-101"/>
     <use x="332.222656" xlink:href="#DejaVuSans-32"/>
     <use x="364.009766" xlink:href="#DejaVuSans-111"/>
     <use x="425.191406" xlink:href="#DejaVuSans-102"/>
     <use x="460.396484" xlink:href="#DejaVuSans-102"/>
     <use x="495.601562" xlink:href="#DejaVuSans-101"/>
     <use x="557.125" xlink:href="#DejaVuSans-114"/>
    </g>
   </g>
   <g id="text_31">
    <!-- Complete -->
    <g transform="translate(393.534808 108.080561)scale(0.07 -0.07)">
     <use xlink:href="#DejaVuSans-67"/>
     <use x="69.824219" xlink:href="#DejaVuSans-111"/>
     <use x="131.005859" xlink:href="#DejaVuSans-109"/>
     <use x="228.417969" xlink:href="#DejaVuSans-112"/>
     <use x="291.894531" xlink:href="#DejaVuSans-108"/>
     <use x="319.677734" xlink:href="#DejaVuSans-101"/>
     <use x="381.201172" xlink:href="#DejaVuSans-116"/>
     <use x="420.410156" xlink:href="#DejaVuSans-101"/>
    </g>
   </g>
   <g id="text_32">
    <!-- Call -->
    <g transform="translate(414.345673 108.080561)scale(0.07 -0.07)">
     <use xlink:href="#DejaVuSans-67"/>
     <use x="69.824219" xlink:href="#DejaVuSans-97"/>
     <use x="131.103516" xlink:href="#DejaVuSans-108"/>
     <use x="158.886719" xlink:href="#DejaVuSans-108"/>
    </g>
   </g>
   <g id="text_33">
    <!-- Deny -->
    <g transform="translate(455.967404 108.080561)scale(0.07 -0.07)">
     <use xlink:href="#DejaVuSans-68"/>
     <use x="77.001953" xlink:href="#DejaVuSans-101"/>
     <use x="138.525391" xlink:href="#DejaVuSans-110"/>
     <use x="201.904297" xlink:href="#DejaVuSans-121"/>
    </g>
   </g>
   <g id="text_34">
    <!-- Refuse offer -->
    <g transform="translate(476.778269 108.080561)scale(0.07 -0.07)">
     <use xlink:href="#DejaVuSans-82"/>
     <use x="64.982422" xlink:href="#DejaVuSans-101"/>
     <use x="126.505859" xlink:href="#DejaVuSans-102"/>
     <use x="161.710938" xlink:href="#DejaVuSans-117"/>
     <use x="225.089844" xlink:href="#DejaVuSans-115"/>
     <use x="277.189453" xlink:href="#DejaVuSans-101"/>
     <use x="338.712891" xlink:href="#DejaVuSans-32"/>
     <use x="370.5" xlink:href="#DejaVuSans-111"/>
     <use x="431.681641" xlink:href="#DejaVuSans-102"/>
     <use x="466.886719" xlink:href="#DejaVuSans-102"/>
     <use x="502.091797" xlink:href="#DejaVuSans-101"/>
     <use x="563.615234" xlink:href="#DejaVuSans-114"/>
    </g>
   </g>
   <g id="text_35">
    <!-- Validate -->
    <g transform="translate(497.589135 108.080561)scale(0.07 -0.07)">
     <use xlink:href="#DejaVuSans-86"/>
     <use x="60.658203" xlink:href="#DejaVuSans-97"/>
     <use x="121.9375" xlink:href="#DejaVuSans-108"/>
     <use x="149.720703" xlink:href="#DejaVuSans-105"/>
     <use x="177.503906" xlink:href="#DejaVuSans-100"/>
     <use x="240.980469" xlink:href="#DejaVuSans-97"/>
     <use x="302.259766" xlink:href="#DejaVuSans-116"/>
     <use x="341.46875" xlink:href="#DejaVuSans-101"/>
    </g>
   </g>
   <g id="text_36">
    <!-- Create offer -->
    <g transform="translate(372.723942 97.675128)scale(0.07 -0.07)">
     <use xlink:href="#DejaVuSans-67"/>
     <use x="69.824219" xlink:href="#DejaVuSans-114"/>
     <use x="108.6875" xlink:href="#DejaVuSans-101"/>
     <use x="170.210938" xlink:href="#DejaVuSans-97"/>
     <use x="231.490234" xlink:href="#DejaVuSans-116"/>
     <use x="270.699219" xlink:href="#DejaVuSans-101"/>
     <use x="332.222656" xlink:href="#DejaVuSans-32"/>
     <use x="364.009766" xlink:href="#DejaVuSans-111"/>
     <use x="425.191406" xlink:href="#DejaVuSans-102"/>
     <use x="460.396484" xlink:href="#DejaVuSans-102"/>
     <use x="495.601562" xlink:href="#DejaVuSans-101"/>
     <use x="557.125" xlink:href="#DejaVuSans-114"/>
    </g>
   </g>
   <g id="text_37">
    <!-- Send (mail ... -->
    <g transform="translate(393.534808 97.675128)scale(0.07 -0.07)">
     <use xlink:href="#DejaVuSans-83"/>
     <use x="63.476562" xlink:href="#DejaVuSans-101"/>
     <use x="125" xlink:href="#DejaVuSans-110"/>
     <use x="188.378906" xlink:href="#DejaVuSans-100"/>
     <use x="251.855469" xlink:href="#DejaVuSans-32"/>
     <use x="283.642578" xlink:href="#DejaVuSans-40"/>
     <use x="322.65625" xlink:href="#DejaVuSans-109"/>
     <use x="420.068359" xlink:href="#DejaVuSans-97"/>
     <use x="481.347656" xlink:href="#DejaVuSans-105"/>
     <use x="509.130859" xlink:href="#DejaVuSans-108"/>
     <use x="536.914062" xlink:href="#DejaVuSans-32"/>
     <use x="568.701172" xlink:href="#DejaVuSans-46"/>
     <use x="600.488281" xlink:href="#DejaVuSans-46"/>
     <use x="632.275391" xlink:href="#DejaVuSans-46"/>
    </g>
   </g>
   <g id="text_38">
    <!-- Call -->
    <g transform="translate(414.345673 97.675128)scale(0.07 -0.07)">
     <use xlink:href="#DejaVuSans-67"/>
     <use x="69.824219" xlink:href="#DejaVuSans-97"/>
     <use x="131.103516" xlink:href="#DejaVuSans-108"/>
     <use x="158.886719" xlink:href="#DejaVuSans-108"/>
    </g>
   </g>
   <g id="text_39">
    <!-- Return -->
    <g transform="translate(435.156538 97.675128)scale(0.07 -0.07)">
     <use xlink:href="#DejaVuSans-82"/>
     <use x="64.982422" xlink:href="#DejaVuSans-101"/>
     <use x="126.505859" xlink:href="#DejaVuSans-116"/>
     <use x="165.714844" xlink:href="#DejaVuSans-117"/>
     <use x="229.09375" xlink:href="#DejaVuSans-114"/>
     <use x="268.457031" xlink:href="#DejaVuSans-110"/>
    </g>
   </g>
   <g id="text_40">
    <!-- Deny -->
    <g transform="translate(455.967404 97.675128)scale(0.07 -0.07)">
     <use xlink:href="#DejaVuSans-68"/>
     <use x="77.001953" xlink:href="#DejaVuSans-101"/>
     <use x="138.525391" xlink:href="#DejaVuSans-110"/>
     <use x="201.904297" xlink:href="#DejaVuSans-121"/>
    </g>
   </g>
   <g id="text_41">
    <!-- Refuse offer -->
    <g transform="translate(476.778269 97.675128)scale(0.07 -0.07)">
     <use xlink:href="#DejaVuSans-82"/>
     <use x="64.982422" xlink:href="#DejaVuSans-101"/>
     <use x="126.505859" xlink:href="#DejaVuSans-102"/>
     <use x="161.710938" xlink:href="#DejaVuSans-117"/>
     <use x="225.089844" xlink:href="#DejaVuSans-115"/>
     <use x="277.189453" xlink:href="#DejaVuSans-101"/>
     <use x="338.712891" xlink:href="#DejaVuSans-32"/>
     <use x="370.5" xlink:href="#DejaVuSans-111"/>
     <use x="431.681641" xlink:href="#DejaVuSans-102"/>
     <use x="466.886719" xlink:href="#DejaVuSans-102"/>
     <use x="502.091797" xlink:href="#DejaVuSans-101"/>
     <use x="563.615234" xlink:href="#DejaVuSans-114"/>
    </g>
   </g>
  </g>
  <g id="axes_3">
   <g id="patch_67">
    <path clip-path="url(#p9ff3d1fc6e)" d="M 72 69.643533 
L 536.706625 69.643533 
L 536.706625 48.520505 
L 72 48.520505 
z
" style="fill:#ffa24b;opacity:0.8;stroke:#ffa24b;stroke-linejoin:miter;"/>
   </g>
   <g id="patch_68">
    <path clip-path="url(#p9ff3d1fc6e)" d="M 72 48.520505 
L 536.706625 48.520505 
L 536.706625 27.397476 
L 72 27.397476 
z
" style="fill:#76c476;opacity:0.8;stroke:#76c476;stroke-linejoin:miter;"/>
   </g>
   <g id="patch_69">
    <path clip-path="url(#p9ff3d1fc6e)" d="M 346.599369 48.520505 
L 388.845426 48.520505 
L 390.605678 37.958991 
L 388.845426 27.397476 
L 346.599369 27.397476 
L 348.359621 37.958991 
z
" style="fill:none;stroke:#000000;stroke-linejoin:miter;"/>
   </g>
   <g id="patch_70">
    <path clip-path="url(#p9ff3d1fc6e)" d="M 93.123028 69.643533 
L 135.369085 69.643533 
L 137.129338 59.082019 
L 135.369085 48.520505 
L 93.123028 48.520505 
L 94.883281 59.082019 
z
" style="fill:#ffa24b;stroke:#000000;stroke-linejoin:miter;stroke-width:1.3;"/>
   </g>
   <g id="patch_71">
    <path clip-path="url(#p9ff3d1fc6e)" d="M 135.369085 69.643533 
L 177.615142 69.643533 
L 179.375394 59.082019 
L 177.615142 48.520505 
L 135.369085 48.520505 
L 137.129338 59.082019 
z
" style="fill:#ffa24b;stroke:#000000;stroke-linejoin:miter;stroke-width:1.3;"/>
   </g>
   <g id="patch_72">
    <path clip-path="url(#p9ff3d1fc6e)" d="M 177.615142 69.643533 
L 219.861199 69.643533 
L 221.621451 59.082019 
L 219.861199 48.520505 
L 177.615142 48.520505 
L 179.375394 59.082019 
z
" style="fill:#ffa24b;stroke:#000000;stroke-linejoin:miter;stroke-width:1.3;"/>
   </g>
   <g id="patch_73">
    <path clip-path="url(#p9ff3d1fc6e)" d="M 219.861199 69.643533 
L 240.984227 69.643533 
L 242.744479 59.082019 
L 240.984227 48.520505 
L 219.861199 48.520505 
L 221.621451 59.082019 
z
" style="fill:#76c476;"/>
   </g>
   <g id="patch_74">
    <path clip-path="url(#p9ff3d1fc6e)" d="M 240.984227 69.643533 
L 262.107256 69.643533 
L 263.867508 59.082019 
L 262.107256 48.520505 
L 240.984227 48.520505 
L 242.744479 59.082019 
z
" style="fill:#ffa24b;"/>
   </g>
   <g id="patch_75">
    <path clip-path="url(#p9ff3d1fc6e)" d="M 262.107256 69.643533 
L 304.353312 69.643533 
L 306.113565 59.082019 
L 304.353312 48.520505 
L 262.107256 48.520505 
L 263.867508 59.082019 
z
" style="fill:#ffa24b;stroke:#000000;stroke-linejoin:miter;stroke-width:1.3;"/>
   </g>
   <g id="patch_76">
    <path clip-path="url(#p9ff3d1fc6e)" d="M 304.353312 69.643533 
L 325.476341 69.643533 
L 327.236593 59.082019 
L 325.476341 48.520505 
L 304.353312 48.520505 
L 306.113565 59.082019 
z
" style="fill:#76c476;"/>
   </g>
   <g id="patch_77">
    <path clip-path="url(#p9ff3d1fc6e)" d="M 325.476341 69.643533 
L 346.599369 69.643533 
L 348.359621 59.082019 
L 346.599369 48.520505 
L 325.476341 48.520505 
L 327.236593 59.082019 
z
" style="fill:#ffa24b;"/>
   </g>
   <g id="patch_78">
    <path clip-path="url(#p9ff3d1fc6e)" d="M 388.845426 69.643533 
L 409.968454 69.643533 
L 411.728707 59.082019 
L 409.968454 48.520505 
L 388.845426 48.520505 
L 390.605678 59.082019 
z
" style="fill:#76c476;"/>
   </g>
   <g id="patch_79">
    <path clip-path="url(#p9ff3d1fc6e)" d="M 409.968454 69.643533 
L 431.091483 69.643533 
L 432.851735 59.082019 
L 431.091483 48.520505 
L 409.968454 48.520505 
L 411.728707 59.082019 
z
" style="fill:#ffa24b;"/>
   </g>
   <g id="patch_80">
    <path clip-path="url(#p9ff3d1fc6e)" d="M 431.091483 69.643533 
L 452.214511 69.643533 
L 453.974763 59.082019 
L 452.214511 48.520505 
L 431.091483 48.520505 
L 432.851735 59.082019 
z
" style="fill:#76c476;"/>
   </g>
   <g id="patch_81">
    <path clip-path="url(#p9ff3d1fc6e)" d="M 452.214511 69.643533 
L 473.337539 69.643533 
L 475.097792 59.082019 
L 473.337539 48.520505 
L 452.214511 48.520505 
L 453.974763 59.082019 
z
" style="fill:#ffa24b;"/>
   </g>
   <g id="patch_82">
    <path clip-path="url(#p9ff3d1fc6e)" d="M 473.337539 69.643533 
L 515.583596 69.643533 
L 517.343849 59.082019 
L 515.583596 48.520505 
L 473.337539 48.520505 
L 475.097792 59.082019 
z
" style="fill:#ffa24b;stroke:#000000;stroke-linejoin:miter;stroke-width:1.3;"/>
   </g>
   <g id="patch_83">
    <path clip-path="url(#p9ff3d1fc6e)" d="M 219.861199 48.520505 
L 240.984227 48.520505 
L 242.744479 37.958991 
L 240.984227 27.397476 
L 219.861199 27.397476 
L 221.621451 37.958991 
z
" style="fill:#76c476;"/>
   </g>
   <g id="patch_84">
    <path clip-path="url(#p9ff3d1fc6e)" d="M 240.984227 48.520505 
L 262.107256 48.520505 
L 263.867508 37.958991 
L 262.107256 27.397476 
L 240.984227 27.397476 
L 242.744479 37.958991 
z
" style="fill:#ffa24b;"/>
   </g>
   <g id="patch_85">
    <path clip-path="url(#p9ff3d1fc6e)" d="M 262.107256 48.520505 
L 304.353312 48.520505 
L 306.113565 37.958991 
L 304.353312 27.397476 
L 262.107256 27.397476 
L 263.867508 37.958991 
z
" style="fill:#76c476;stroke:#000000;stroke-linejoin:miter;stroke-width:1.3;"/>
   </g>
   <g id="patch_86">
    <path clip-path="url(#p9ff3d1fc6e)" d="M 304.353312 48.520505 
L 325.476341 48.520505 
L 327.236593 37.958991 
L 325.476341 27.397476 
L 304.353312 27.397476 
L 306.113565 37.958991 
z
" style="fill:#76c476;"/>
   </g>
   <g id="patch_87">
    <path clip-path="url(#p9ff3d1fc6e)" d="M 325.476341 48.520505 
L 346.599369 48.520505 
L 348.359621 37.958991 
L 346.599369 27.397476 
L 325.476341 27.397476 
L 327.236593 37.958991 
z
" style="fill:#ffa24b;"/>
   </g>
   <g id="patch_88">
    <path clip-path="url(#p9ff3d1fc6e)" d="M 348.007571 46.760252 
L 387.437224 46.760252 
L 389.197476 37.958991 
L 387.437224 29.157729 
L 348.007571 29.157729 
L 349.767823 37.958991 
z
" style="fill:#76c476;stroke:#000000;stroke-dasharray:4.489333,1.941333;stroke-dashoffset:0;stroke-linejoin:miter;stroke-width:1.213333;"/>
   </g>
   <g id="patch_89">
    <path clip-path="url(#p9ff3d1fc6e)" d="M 388.845426 48.520505 
L 409.968454 48.520505 
L 411.728707 37.958991 
L 409.968454 27.397476 
L 388.845426 27.397476 
L 390.605678 37.958991 
z
" style="fill:#76c476;"/>
   </g>
   <g id="patch_90">
    <path clip-path="url(#p9ff3d1fc6e)" d="M 409.968454 48.520505 
L 431.091483 48.520505 
L 432.851735 37.958991 
L 431.091483 27.397476 
L 409.968454 27.397476 
L 411.728707 37.958991 
z
" style="fill:#ffa24b;"/>
   </g>
   <g id="patch_91">
    <path clip-path="url(#p9ff3d1fc6e)" d="M 431.091483 48.520505 
L 452.214511 48.520505 
L 453.974763 37.958991 
L 452.214511 27.397476 
L 431.091483 27.397476 
L 432.851735 37.958991 
z
" style="fill:#76c476;"/>
   </g>
   <g id="patch_92">
    <path clip-path="url(#p9ff3d1fc6e)" d="M 452.214511 48.520505 
L 473.337539 48.520505 
L 475.097792 37.958991 
L 473.337539 27.397476 
L 452.214511 27.397476 
L 453.974763 37.958991 
z
" style="fill:#ffa24b;"/>
   </g>
   <g id="text_42">
    <!-- 1 -->
    <g transform="translate(64.958991 59.504479)scale(0.09 -0.09)">
     <use xlink:href="#DejaVuSans-49"/>
    </g>
   </g>
   <g id="text_43">
    <!-- applicat. 0 -->
    <g transform="translate(73.408202 59.504479)scale(0.09 -0.09)">
     <use xlink:href="#DejaVuSans-97"/>
     <use x="61.279297" xlink:href="#DejaVuSans-112"/>
     <use x="124.755859" xlink:href="#DejaVuSans-112"/>
     <use x="188.232422" xlink:href="#DejaVuSans-108"/>
     <use x="216.015625" xlink:href="#DejaVuSans-105"/>
     <use x="243.798828" xlink:href="#DejaVuSans-99"/>
     <use x="298.779297" xlink:href="#DejaVuSans-97"/>
     <use x="360.058594" xlink:href="#DejaVuSans-116"/>
     <use x="399.267578" xlink:href="#DejaVuSans-46"/>
     <use x="431.054688" xlink:href="#DejaVuSans-32"/>
     <use x="462.841797" xlink:href="#DejaVuSans-48"/>
    </g>
   </g>
   <g id="text_44">
    <!-- 1 -->
    <g transform="translate(64.958991 38.381451)scale(0.09 -0.09)">
     <use xlink:href="#DejaVuSans-49"/>
    </g>
   </g>
   <g id="text_45">
    <!-- offer 0 -->
    <g transform="translate(73.408202 38.381451)scale(0.09 -0.09)">
     <use xlink:href="#DejaVuSans-111"/>
     <use x="61.181641" xlink:href="#DejaVuSans-102"/>
     <use x="96.386719" xlink:href="#DejaVuSans-102"/>
     <use x="131.591797" xlink:href="#DejaVuSans-101"/>
     <use x="193.115234" xlink:href="#DejaVuSans-114"/>
     <use x="234.228516" xlink:href="#DejaVuSans-32"/>
     <use x="266.015625" xlink:href="#DejaVuSans-48"/>
    </g>
   </g>
   <g id="text_46">
    <!-- Frequency: 0.2 -->
    <g transform="translate(72 26.411735)scale(0.09 -0.09)">
     <defs>
      <path d="M 19.1875 8.296875 
L 53.609375 8.296875 
L 53.609375 0 
L 7.328125 0 
L 7.328125 8.296875 
Q 12.9375 14.109375 22.625 23.890625 
Q 32.328125 33.6875 34.8125 36.53125 
Q 39.546875 41.84375 41.421875 45.53125 
Q 43.3125 49.21875 43.3125 52.78125 
Q 43.3125 58.59375 39.234375 62.25 
Q 35.15625 65.921875 28.609375 65.921875 
Q 23.96875 65.921875 18.8125 64.3125 
Q 13.671875 62.703125 7.8125 59.421875 
L 7.8125 69.390625 
Q 13.765625 71.78125 18.9375 73 
Q 24.125 74.21875 28.421875 74.21875 
Q 39.75 74.21875 46.484375 68.546875 
Q 53.21875 62.890625 53.21875 53.421875 
Q 53.21875 48.921875 51.53125 44.890625 
Q 49.859375 40.875 45.40625 35.40625 
Q 44.1875 33.984375 37.640625 27.21875 
Q 31.109375 20.453125 19.1875 8.296875 
z
" id="DejaVuSans-50"/>
     </defs>
     <use xlink:href="#DejaVuSans-70"/>
     <use x="50.269531" xlink:href="#DejaVuSans-114"/>
     <use x="89.132812" xlink:href="#DejaVuSans-101"/>
     <use x="150.65625" xlink:href="#DejaVuSans-113"/>
     <use x="214.132812" xlink:href="#DejaVuSans-117"/>
     <use x="277.511719" xlink:href="#DejaVuSans-101"/>
     <use x="339.035156" xlink:href="#DejaVuSans-110"/>
     <use x="402.414062" xlink:href="#DejaVuSans-99"/>
     <use x="457.394531" xlink:href="#DejaVuSans-121"/>
     <use x="509.324219" xlink:href="#DejaVuSans-58"/>
     <use x="543.015625" xlink:href="#DejaVuSans-32"/>
     <use x="574.802734" xlink:href="#DejaVuSans-48"/>
     <use x="638.425781" xlink:href="#DejaVuSans-46"/>
     <use x="670.212891" xlink:href="#DejaVuSans-50"/>
    </g>
   </g>
   <g id="text_47">
    <!-- Super Variant: (1, 7) -->
    <g transform="translate(72 20.356467)scale(0.108 -0.108)">
     <use xlink:href="#DejaVuSans-Bold-83"/>
     <use x="72.021484" xlink:href="#DejaVuSans-Bold-117"/>
     <use x="143.212891" xlink:href="#DejaVuSans-Bold-112"/>
     <use x="214.794922" xlink:href="#DejaVuSans-Bold-101"/>
     <use x="282.617188" xlink:href="#DejaVuSans-Bold-114"/>
     <use x="331.933594" xlink:href="#DejaVuSans-Bold-32"/>
     <use x="366.748047" xlink:href="#DejaVuSans-Bold-86"/>
     <use x="438.640625" xlink:href="#DejaVuSans-Bold-97"/>
     <use x="506.121094" xlink:href="#DejaVuSans-Bold-114"/>
     <use x="555.4375" xlink:href="#DejaVuSans-Bold-105"/>
     <use x="589.714844" xlink:href="#DejaVuSans-Bold-97"/>
     <use x="657.195312" xlink:href="#DejaVuSans-Bold-110"/>
     <use x="728.386719" xlink:href="#DejaVuSans-Bold-116"/>
     <use x="776.189453" xlink:href="#DejaVuSans-Bold-58"/>
     <use x="816.179688" xlink:href="#DejaVuSans-Bold-32"/>
     <use x="850.994141" xlink:href="#DejaVuSans-Bold-40"/>
     <use x="896.697266" xlink:href="#DejaVuSans-Bold-49"/>
     <use x="966.277344" xlink:href="#DejaVuSans-Bold-44"/>
     <use x="1004.265625" xlink:href="#DejaVuSans-Bold-32"/>
     <use x="1039.080078" xlink:href="#DejaVuSans-Bold-55"/>
     <use x="1108.660156" xlink:href="#DejaVuSans-Bold-41"/>
    </g>
   </g>
   <g id="patch_93">
    <path clip-path="url(#p9ff3d1fc6e)" d="M 219.861199 69.643533 
L 262.107256 69.643533 
L 263.867508 59.082019 
L 262.107256 48.520505 
L 219.861199 48.520505 
L 221.621451 59.082019 
z
" style="fill:none;stroke:#000000;stroke-linejoin:miter;stroke-width:1.3;"/>
   </g>
   <g id="patch_94">
    <path clip-path="url(#p9ff3d1fc6e)" d="M 304.353312 69.643533 
L 346.599369 69.643533 
L 348.359621 59.082019 
L 346.599369 48.520505 
L 304.353312 48.520505 
L 306.113565 59.082019 
z
" style="fill:none;stroke:#000000;stroke-linejoin:miter;stroke-width:1.3;"/>
   </g>
   <g id="patch_95">
    <path clip-path="url(#p9ff3d1fc6e)" d="M 388.845426 69.643533 
L 431.091483 69.643533 
L 432.851735 59.082019 
L 431.091483 48.520505 
L 388.845426 48.520505 
L 390.605678 59.082019 
z
" style="fill:none;stroke:#000000;stroke-linejoin:miter;stroke-width:1.3;"/>
   </g>
   <g id="patch_96">
    <path clip-path="url(#p9ff3d1fc6e)" d="M 431.091483 69.643533 
L 473.337539 69.643533 
L 475.097792 59.082019 
L 473.337539 48.520505 
L 431.091483 48.520505 
L 432.851735 59.082019 
z
" style="fill:none;stroke:#000000;stroke-linejoin:miter;stroke-width:1.3;"/>
   </g>
   <g id="patch_97">
    <path clip-path="url(#p9ff3d1fc6e)" d="M 219.861199 48.520505 
L 262.107256 48.520505 
L 263.867508 37.958991 
L 262.107256 27.397476 
L 219.861199 27.397476 
L 221.621451 37.958991 
z
" style="fill:none;stroke:#000000;stroke-linejoin:miter;stroke-width:1.3;"/>
   </g>
   <g id="patch_98">
    <path clip-path="url(#p9ff3d1fc6e)" d="M 304.353312 48.520505 
L 346.599369 48.520505 
L 348.359621 37.958991 
L 346.599369 27.397476 
L 304.353312 27.397476 
L 306.113565 37.958991 
z
" style="fill:none;stroke:#000000;stroke-linejoin:miter;stroke-width:1.3;"/>
   </g>
   <g id="patch_99">
    <path clip-path="url(#p9ff3d1fc6e)" d="M 388.845426 48.520505 
L 431.091483 48.520505 
L 432.851735 37.958991 
L 431.091483 27.397476 
L 388.845426 27.397476 
L 390.605678 37.958991 
z
" style="fill:none;stroke:#000000;stroke-linejoin:miter;stroke-width:1.3;"/>
   </g>
   <g id="patch_100">
    <path clip-path="url(#p9ff3d1fc6e)" d="M 431.091483 48.520505 
L 473.337539 48.520505 
L 475.097792 37.958991 
L 473.337539 27.397476 
L 431.091483 27.397476 
L 432.851735 37.958991 
z
" style="fill:none;stroke:#000000;stroke-linejoin:miter;stroke-width:1.3;"/>
   </g>
   <g id="text_48">
    <!-- Create appl... -->
    <g transform="translate(95.939432 59.504479)scale(0.09 -0.09)">
     <use xlink:href="#DejaVuSans-67"/>
     <use x="69.824219" xlink:href="#DejaVuSans-114"/>
     <use x="108.6875" xlink:href="#DejaVuSans-101"/>
     <use x="170.210938" xlink:href="#DejaVuSans-97"/>
     <use x="231.490234" xlink:href="#DejaVuSans-116"/>
     <use x="270.699219" xlink:href="#DejaVuSans-101"/>
     <use x="332.222656" xlink:href="#DejaVuSans-32"/>
     <use x="364.009766" xlink:href="#DejaVuSans-97"/>
     <use x="425.289062" xlink:href="#DejaVuSans-112"/>
     <use x="488.765625" xlink:href="#DejaVuSans-112"/>
     <use x="552.242188" xlink:href="#DejaVuSans-108"/>
     <use x="580.025391" xlink:href="#DejaVuSans-46"/>
     <use x="611.8125" xlink:href="#DejaVuSans-46"/>
     <use x="643.599609" xlink:href="#DejaVuSans-46"/>
    </g>
   </g>
   <g id="text_49">
    <!-- Submit -->
    <g transform="translate(138.185489 59.504479)scale(0.09 -0.09)">
     <use xlink:href="#DejaVuSans-83"/>
     <use x="63.476562" xlink:href="#DejaVuSans-117"/>
     <use x="126.855469" xlink:href="#DejaVuSans-98"/>
     <use x="190.332031" xlink:href="#DejaVuSans-109"/>
     <use x="287.744141" xlink:href="#DejaVuSans-105"/>
     <use x="315.527344" xlink:href="#DejaVuSans-116"/>
    </g>
   </g>
   <g id="text_50">
    <!-- Accept -->
    <g transform="translate(180.431546 59.504479)scale(0.09 -0.09)">
     <use xlink:href="#DejaVuSans-65"/>
     <use x="66.658203" xlink:href="#DejaVuSans-99"/>
     <use x="121.638672" xlink:href="#DejaVuSans-99"/>
     <use x="176.619141" xlink:href="#DejaVuSans-101"/>
     <use x="238.142578" xlink:href="#DejaVuSans-112"/>
     <use x="301.619141" xlink:href="#DejaVuSans-116"/>
    </g>
   </g>
   <g id="text_51">
    <!-- Create offer -->
    <g transform="translate(222.677603 59.504479)scale(0.09 -0.09)">
     <use xlink:href="#DejaVuSans-67"/>
     <use x="69.824219" xlink:href="#DejaVuSans-114"/>
     <use x="108.6875" xlink:href="#DejaVuSans-101"/>
     <use x="170.210938" xlink:href="#DejaVuSans-97"/>
     <use x="231.490234" xlink:href="#DejaVuSans-116"/>
     <use x="270.699219" xlink:href="#DejaVuSans-101"/>
     <use x="332.222656" xlink:href="#DejaVuSans-32"/>
     <use x="364.009766" xlink:href="#DejaVuSans-111"/>
     <use x="425.191406" xlink:href="#DejaVuSans-102"/>
     <use x="460.396484" xlink:href="#DejaVuSans-102"/>
     <use x="495.601562" xlink:href="#DejaVuSans-101"/>
     <use x="557.125" xlink:href="#DejaVuSans-114"/>
    </g>
   </g>
   <g id="text_52">
    <!-- Complete -->
    <g transform="translate(264.923659 59.504479)scale(0.09 -0.09)">
     <use xlink:href="#DejaVuSans-67"/>
     <use x="69.824219" xlink:href="#DejaVuSans-111"/>
     <use x="131.005859" xlink:href="#DejaVuSans-109"/>
     <use x="228.417969" xlink:href="#DejaVuSans-112"/>
     <use x="291.894531" xlink:href="#DejaVuSans-108"/>
     <use x="319.677734" xlink:href="#DejaVuSans-101"/>
     <use x="381.201172" xlink:href="#DejaVuSans-116"/>
     <use x="420.410156" xlink:href="#DejaVuSans-101"/>
    </g>
   </g>
   <g id="text_53">
    <!-- Call -->
    <g transform="translate(307.169716 59.504479)scale(0.09 -0.09)">
     <use xlink:href="#DejaVuSans-67"/>
     <use x="69.824219" xlink:href="#DejaVuSans-97"/>
     <use x="131.103516" xlink:href="#DejaVuSans-108"/>
     <use x="158.886719" xlink:href="#DejaVuSans-108"/>
    </g>
   </g>
   <g id="text_54">
    <!-- Deny -->
    <g transform="translate(391.66183 59.504479)scale(0.09 -0.09)">
     <use xlink:href="#DejaVuSans-68"/>
     <use x="77.001953" xlink:href="#DejaVuSans-101"/>
     <use x="138.525391" xlink:href="#DejaVuSans-110"/>
     <use x="201.904297" xlink:href="#DejaVuSans-121"/>
    </g>
   </g>
   <g id="text_55">
    <!-- Refuse offer -->
    <g transform="translate(433.907886 59.504479)scale(0.09 -0.09)">
     <use xlink:href="#DejaVuSans-82"/>
     <use x="64.982422" xlink:href="#DejaVuSans-101"/>
     <use x="126.505859" xlink:href="#DejaVuSans-102"/>
     <use x="161.710938" xlink:href="#DejaVuSans-117"/>
     <use x="225.089844" xlink:href="#DejaVuSans-115"/>
     <use x="277.189453" xlink:href="#DejaVuSans-101"/>
     <use x="338.712891" xlink:href="#DejaVuSans-32"/>
     <use x="370.5" xlink:href="#DejaVuSans-111"/>
     <use x="431.681641" xlink:href="#DejaVuSans-102"/>
     <use x="466.886719" xlink:href="#DejaVuSans-102"/>
     <use x="502.091797" xlink:href="#DejaVuSans-101"/>
     <use x="563.615234" xlink:href="#DejaVuSans-114"/>
    </g>
   </g>
   <g id="text_56">
    <!-- Validate -->
    <g transform="translate(476.153943 59.504479)scale(0.09 -0.09)">
     <use xlink:href="#DejaVuSans-86"/>
     <use x="60.658203" xlink:href="#DejaVuSans-97"/>
     <use x="121.9375" xlink:href="#DejaVuSans-108"/>
     <use x="149.720703" xlink:href="#DejaVuSans-105"/>
     <use x="177.503906" xlink:href="#DejaVuSans-100"/>
     <use x="240.980469" xlink:href="#DejaVuSans-97"/>
     <use x="302.259766" xlink:href="#DejaVuSans-116"/>
     <use x="341.46875" xlink:href="#DejaVuSans-101"/>
    </g>
   </g>
   <g id="text_57">
    <!-- Create offer -->
    <g transform="translate(222.677603 38.381451)scale(0.09 -0.09)">
     <use xlink:href="#DejaVuSans-67"/>
     <use x="69.824219" xlink:href="#DejaVuSans-114"/>
     <use x="108.6875" xlink:href="#DejaVuSans-101"/>
     <use x="170.210938" xlink:href="#DejaVuSans-97"/>
     <use x="231.490234" xlink:href="#DejaVuSans-116"/>
     <use x="270.699219" xlink:href="#DejaVuSans-101"/>
     <use x="332.222656" xlink:href="#DejaVuSans-32"/>
     <use x="364.009766" xlink:href="#DejaVuSans-111"/>
     <use x="425.191406" xlink:href="#DejaVuSans-102"/>
     <use x="460.396484" xlink:href="#DejaVuSans-102"/>
     <use x="495.601562" xlink:href="#DejaVuSans-101"/>
     <use x="557.125" xlink:href="#DejaVuSans-114"/>
    </g>
   </g>
   <g id="text_58">
    <!-- Send (mail ... -->
    <g transform="translate(264.923659 38.381451)scale(0.09 -0.09)">
     <use xlink:href="#DejaVuSans-83"/>
     <use x="63.476562" xlink:href="#DejaVuSans-101"/>
     <use x="125" xlink:href="#DejaVuSans-110"/>
     <use x="188.378906" xlink:href="#DejaVuSans-100"/>
     <use x="251.855469" xlink:href="#DejaVuSans-32"/>
     <use x="283.642578" xlink:href="#DejaVuSans-40"/>
     <use x="322.65625" xlink:href="#DejaVuSans-109"/>
     <use x="420.068359" xlink:href="#DejaVuSans-97"/>
     <use x="481.347656" xlink:href="#DejaVuSans-105"/>
     <use x="509.130859" xlink:href="#DejaVuSans-108"/>
     <use x="536.914062" xlink:href="#DejaVuSans-32"/>
     <use x="568.701172" xlink:href="#DejaVuSans-46"/>
     <use x="600.488281" xlink:href="#DejaVuSans-46"/>
     <use x="632.275391" xlink:href="#DejaVuSans-46"/>
    </g>
   </g>
   <g id="text_59">
    <!-- Call -->
    <g transform="translate(307.169716 38.381451)scale(0.09 -0.09)">
     <use xlink:href="#DejaVuSans-67"/>
     <use x="69.824219" xlink:href="#DejaVuSans-97"/>
     <use x="131.103516" xlink:href="#DejaVuSans-108"/>
     <use x="158.886719" xlink:href="#DejaVuSans-108"/>
    </g>
   </g>
   <g id="text_60">
    <!-- Return -->
    <g transform="translate(350.823975 32.918254)scale(0.084 -0.084)">
     <use xlink:href="#DejaVuSans-82"/>
     <use x="64.982422" xlink:href="#DejaVuSans-101"/>
     <use x="126.505859" xlink:href="#DejaVuSans-116"/>
     <use x="165.714844" xlink:href="#DejaVuSans-117"/>
     <use x="229.09375" xlink:href="#DejaVuSans-114"/>
     <use x="268.457031" xlink:href="#DejaVuSans-110"/>
    </g>
    <!--  50.0% -->
    <g transform="translate(350.823975 42.324416)scale(0.084 -0.084)">
     <defs>
      <path d="M 10.796875 72.90625 
L 49.515625 72.90625 
L 49.515625 64.59375 
L 19.828125 64.59375 
L 19.828125 46.734375 
Q 21.96875 47.46875 24.109375 47.828125 
Q 26.265625 48.1875 28.421875 48.1875 
Q 40.625 48.1875 47.75 41.5 
Q 54.890625 34.8125 54.890625 23.390625 
Q 54.890625 11.625 47.5625 5.09375 
Q 40.234375 -1.421875 26.90625 -1.421875 
Q 22.3125 -1.421875 17.546875 -0.640625 
Q 12.796875 0.140625 7.71875 1.703125 
L 7.71875 11.625 
Q 12.109375 9.234375 16.796875 8.0625 
Q 21.484375 6.890625 26.703125 6.890625 
Q 35.15625 6.890625 40.078125 11.328125 
Q 45.015625 15.765625 45.015625 23.390625 
Q 45.015625 31 40.078125 35.4375 
Q 35.15625 39.890625 26.703125 39.890625 
Q 22.75 39.890625 18.8125 39.015625 
Q 14.890625 38.140625 10.796875 36.28125 
z
" id="DejaVuSans-53"/>
      <path d="M 72.703125 32.078125 
Q 68.453125 32.078125 66.03125 28.46875 
Q 63.625 24.859375 63.625 18.40625 
Q 63.625 12.0625 66.03125 8.421875 
Q 68.453125 4.78125 72.703125 4.78125 
Q 76.859375 4.78125 79.265625 8.421875 
Q 81.6875 12.0625 81.6875 18.40625 
Q 81.6875 24.8125 79.265625 28.4375 
Q 76.859375 32.078125 72.703125 32.078125 
z
M 72.703125 38.28125 
Q 80.421875 38.28125 84.953125 32.90625 
Q 89.5 27.546875 89.5 18.40625 
Q 89.5 9.28125 84.9375 3.921875 
Q 80.375 -1.421875 72.703125 -1.421875 
Q 64.890625 -1.421875 60.34375 3.921875 
Q 55.8125 9.28125 55.8125 18.40625 
Q 55.8125 27.59375 60.375 32.9375 
Q 64.9375 38.28125 72.703125 38.28125 
z
M 22.3125 68.015625 
Q 18.109375 68.015625 15.6875 64.375 
Q 13.28125 60.75 13.28125 54.390625 
Q 13.28125 47.953125 15.671875 44.328125 
Q 18.0625 40.71875 22.3125 40.71875 
Q 26.5625 40.71875 28.96875 44.328125 
Q 31.390625 47.953125 31.390625 54.390625 
Q 31.390625 60.6875 28.953125 64.34375 
Q 26.515625 68.015625 22.3125 68.015625 
z
M 66.40625 74.21875 
L 74.21875 74.21875 
L 28.609375 -1.421875 
L 20.796875 -1.421875 
z
M 22.3125 74.21875 
Q 30.03125 74.21875 34.609375 68.875 
Q 39.203125 63.53125 39.203125 54.390625 
Q 39.203125 45.171875 34.640625 39.84375 
Q 30.078125 34.515625 22.3125 34.515625 
Q 14.546875 34.515625 10.03125 39.859375 
Q 5.515625 45.21875 5.515625 54.390625 
Q 5.515625 63.484375 10.046875 68.84375 
Q 14.59375 74.21875 22.3125 74.21875 
z
" id="DejaVuSans-37"/>
     </defs>
     <use xlink:href="#DejaVuSans-32"/>
     <use x="31.787109" xlink:href="#DejaVuSans-53"/>
     <use x="95.410156" xlink:href="#DejaVuSans-48"/>
     <use x="159.033203" xlink:href="#DejaVuSans-46"/>
     <use x="190.820312" xlink:href="#DejaVuSans-48"/>
     <use x="254.443359" xlink:href="#DejaVuSans-37"/>
    </g>
   </g>
   <g id="text_61">
    <!-- Deny -->
    <g transform="translate(391.66183 38.381451)scale(0.09 -0.09)">
     <use xlink:href="#DejaVuSans-68"/>
     <use x="77.001953" xlink:href="#DejaVuSans-101"/>
     <use x="138.525391" xlink:href="#DejaVuSans-110"/>
     <use x="201.904297" xlink:href="#DejaVuSans-121"/>
    </g>
   </g>
   <g id="text_62">
    <!-- Refuse offer -->
    <g transform="translate(433.907886 38.381451)scale(0.09 -0.09)">
     <use xlink:href="#DejaVuSans-82"/>
     <use x="64.982422" xlink:href="#DejaVuSans-101"/>
     <use x="126.505859" xlink:href="#DejaVuSans-102"/>
     <use x="161.710938" xlink:href="#DejaVuSans-117"/>
     <use x="225.089844" xlink:href="#DejaVuSans-115"/>
     <use x="277.189453" xlink:href="#DejaVuSans-101"/>
     <use x="338.712891" xlink:href="#DejaVuSans-32"/>
     <use x="370.5" xlink:href="#DejaVuSans-111"/>
     <use x="431.681641" xlink:href="#DejaVuSans-102"/>
     <use x="466.886719" xlink:href="#DejaVuSans-102"/>
     <use x="502.091797" xlink:href="#DejaVuSans-101"/>
     <use x="563.615234" xlink:href="#DejaVuSans-114"/>
    </g>
   </g>
  </g>
  <g id="text_63">
   <g id="patch_101">
    <path d="M 13.004359 110.059668 
L 153.981859 110.059668 
Q 157.981859 110.059668 157.981859 106.059668 
L 157.981859 98.317168 
Q 157.981859 94.317168 153.981859 94.317168 
L 13.004359 94.317168 
Q 9.004359 94.317168 9.004359 98.317168 
L 9.004359 106.059668 
Q 9.004359 110.059668 13.004359 110.059668 
z
" style="fill:#1a1a1a;fill-opacity:0.8;"/>
   </g>
   <!-- See Super Variant (1,) in Detail -->
   <g style="fill:#ffffff;" transform="translate(13.004359 104.395918)scale(0.08 -0.08)">
    <defs>
     <path d="M 27.984375 58.6875 
L 27.984375 14.203125 
L 34.71875 14.203125 
Q 46.234375 14.203125 52.3125 19.921875 
Q 58.40625 25.640625 58.40625 36.53125 
Q 58.40625 47.359375 52.34375 53.015625 
Q 46.296875 58.6875 34.71875 58.6875 
z
M 9.1875 72.90625 
L 29 72.90625 
Q 45.609375 72.90625 53.734375 70.53125 
Q 61.859375 68.171875 67.671875 62.5 
Q 72.796875 57.5625 75.28125 51.109375 
Q 77.78125 44.671875 77.78125 36.53125 
Q 77.78125 28.265625 75.28125 21.796875 
Q 72.796875 15.328125 67.671875 10.40625 
Q 61.8125 4.734375 53.609375 2.359375 
Q 45.40625 0 29 0 
L 9.1875 0 
z
" id="DejaVuSans-Bold-68"/>
     <path d="M 8.40625 75.984375 
L 25.875 75.984375 
L 25.875 0 
L 8.40625 0 
z
" id="DejaVuSans-Bold-108"/>
    </defs>
    <use xlink:href="#DejaVuSans-Bold-83"/>
    <use x="72.021484" xlink:href="#DejaVuSans-Bold-101"/>
    <use x="139.84375" xlink:href="#DejaVuSans-Bold-101"/>
    <use x="207.666016" xlink:href="#DejaVuSans-Bold-32"/>
    <use x="242.480469" xlink:href="#DejaVuSans-Bold-83"/>
    <use x="314.501953" xlink:href="#DejaVuSans-Bold-117"/>
    <use x="385.693359" xlink:href="#DejaVuSans-Bold-112"/>
    <use x="457.275391" xlink:href="#DejaVuSans-Bold-101"/>
    <use x="525.097656" xlink:href="#DejaVuSans-Bold-114"/>
    <use x="574.414062" xlink:href="#DejaVuSans-Bold-32"/>
    <use x="609.228516" xlink:href="#DejaVuSans-Bold-86"/>
    <use x="681.121094" xlink:href="#DejaVuSans-Bold-97"/>
    <use x="748.601562" xlink:href="#DejaVuSans-Bold-114"/>
    <use x="797.917969" xlink:href="#DejaVuSans-Bold-105"/>
    <use x="832.195312" xlink:href="#DejaVuSans-Bold-97"/>
    <use x="899.675781" xlink:href="#DejaVuSans-Bold-110"/>
    <use x="970.867188" xlink:href="#DejaVuSans-Bold-116"/>
    <use x="1018.669922" xlink:href="#DejaVuSans-Bold-32"/>
    <use x="1053.484375" xlink:href="#DejaVuSans-Bold-40"/>
    <use x="1099.1875" xlink:href="#DejaVuSans-Bold-49"/>
    <use x="1168.767578" xlink:href="#DejaVuSans-Bold-44"/>
    <use x="1206.755859" xlink:href="#DejaVuSans-Bold-41"/>
    <use x="1252.458984" xlink:href="#DejaVuSans-Bold-32"/>
    <use x="1287.273438" xlink:href="#DejaVuSans-Bold-105"/>
    <use x="1321.550781" xlink:href="#DejaVuSans-Bold-110"/>
    <use x="1392.742188" xlink:href="#DejaVuSans-Bold-32"/>
    <use x="1427.556641" xlink:href="#DejaVuSans-Bold-68"/>
    <use x="1510.564453" xlink:href="#DejaVuSans-Bold-101"/>
    <use x="1578.386719" xlink:href="#DejaVuSans-Bold-116"/>
    <use x="1626.189453" xlink:href="#DejaVuSans-Bold-97"/>
    <use x="1693.669922" xlink:href="#DejaVuSans-Bold-105"/>
    <use x="1727.947266" xlink:href="#DejaVuSans-Bold-108"/>
   </g>
  </g>
  <g id="text_64">
   <g id="patch_102">
    <path d="M 238.415205 108.738918 
L 379.392705 108.738918 
Q 383.392705 108.738918 383.392705 104.738918 
L 383.392705 96.996418 
Q 383.392705 92.996418 379.392705 92.996418 
L 238.415205 92.996418 
Q 234.415205 92.996418 234.415205 96.996418 
L 234.415205 104.738918 
Q 234.415205 108.738918 238.415205 108.738918 
z
" style="fill:#1a1a1a;fill-opacity:0.8;"/>
   </g>
   <!-- See Super Variant (7,) in Detail -->
   <g style="fill:#ffffff;" transform="translate(238.415205 103.075168)scale(0.08 -0.08)">
    <use xlink:href="#DejaVuSans-Bold-83"/>
    <use x="72.021484" xlink:href="#DejaVuSans-Bold-101"/>
    <use x="139.84375" xlink:href="#DejaVuSans-Bold-101"/>
    <use x="207.666016" xlink:href="#DejaVuSans-Bold-32"/>
    <use x="242.480469" xlink:href="#DejaVuSans-Bold-83"/>
    <use x="314.501953" xlink:href="#DejaVuSans-Bold-117"/>
    <use x="385.693359" xlink:href="#DejaVuSans-Bold-112"/>
    <use x="457.275391" xlink:href="#DejaVuSans-Bold-101"/>
    <use x="525.097656" xlink:href="#DejaVuSans-Bold-114"/>
    <use x="574.414062" xlink:href="#DejaVuSans-Bold-32"/>
    <use x="609.228516" xlink:href="#DejaVuSans-Bold-86"/>
    <use x="681.121094" xlink:href="#DejaVuSans-Bold-97"/>
    <use x="748.601562" xlink:href="#DejaVuSans-Bold-114"/>
    <use x="797.917969" xlink:href="#DejaVuSans-Bold-105"/>
    <use x="832.195312" xlink:href="#DejaVuSans-Bold-97"/>
    <use x="899.675781" xlink:href="#DejaVuSans-Bold-110"/>
    <use x="970.867188" xlink:href="#DejaVuSans-Bold-116"/>
    <use x="1018.669922" xlink:href="#DejaVuSans-Bold-32"/>
    <use x="1053.484375" xlink:href="#DejaVuSans-Bold-40"/>
    <use x="1099.1875" xlink:href="#DejaVuSans-Bold-55"/>
    <use x="1168.767578" xlink:href="#DejaVuSans-Bold-44"/>
    <use x="1206.755859" xlink:href="#DejaVuSans-Bold-41"/>
    <use x="1252.458984" xlink:href="#DejaVuSans-Bold-32"/>
    <use x="1287.273438" xlink:href="#DejaVuSans-Bold-105"/>
    <use x="1321.550781" xlink:href="#DejaVuSans-Bold-110"/>
    <use x="1392.742188" xlink:href="#DejaVuSans-Bold-32"/>
    <use x="1427.556641" xlink:href="#DejaVuSans-Bold-68"/>
    <use x="1510.564453" xlink:href="#DejaVuSans-Bold-101"/>
    <use x="1578.386719" xlink:href="#DejaVuSans-Bold-116"/>
    <use x="1626.189453" xlink:href="#DejaVuSans-Bold-97"/>
    <use x="1693.669922" xlink:href="#DejaVuSans-Bold-105"/>
    <use x="1727.947266" xlink:href="#DejaVuSans-Bold-108"/>
   </g>
  </g>
 </g>
 <defs>
  <clipPath id="pf7c929bfaa">
   <rect height="30.976664" width="219.901478" x="72" y="84.951668"/>
  </clipPath>
  <clipPath id="p7a5b2c6959">
   <rect height="28.045119" width="219.901478" x="298.498522" y="86.417441"/>
  </clipPath>
  <clipPath id="p9ff3d1fc6e">
   <rect height="54.919874" width="446.4" x="72" y="17.540063"/>
  </clipPath>
 </defs>
</svg>
